<svg width="36" height="35" viewBox="0 0 36 35" fill="none" xmlns="http://www.w3.org/2000/svg">
<rect x="0.1875" width="35" height="35" rx="17.5" fill="url(#paint0_linear_9_111)"/>
<path d="M24.799 20.172C23.8978 20.0607 23.003 19.903 22.1182 19.6994C21.9021 19.6272 21.6711 19.612 21.4475 19.6552C21.2238 19.6985 21.0151 19.7987 20.8416 19.9463C20.616 20.1762 19.965 20.8191 19.2884 21.4832C16.8643 20.291 14.9038 18.3281 13.714 15.902C14.3735 15.2251 14.9906 14.578 15.2416 14.3523C15.3891 14.1787 15.4894 13.9699 15.5326 13.7462C15.5758 13.5224 15.5606 13.2913 15.4884 13.0752C15.2847 12.1885 15.127 11.2919 15.0161 10.3889C15.0042 10.2739 14.969 10.1625 14.9127 10.0616C14.8564 9.9606 14.7802 9.87218 14.6886 9.80168C14.597 9.73117 14.492 9.68007 14.3801 9.65147C14.2681 9.62287 14.1515 9.61738 14.0374 9.63533H10.4119C10.2622 9.64885 10.1221 9.71475 10.0163 9.82144C9.9104 9.92813 9.84556 10.0688 9.83314 10.2186C9.5991 13.4924 11.4246 16.9961 11.7948 17.6687V17.6943L11.8459 17.7922C13.1711 20.0917 15.0793 22.0007 17.3778 23.3266V23.3266L17.565 23.433C18.4161 23.8843 21.799 25.5872 24.9607 25.353C25.112 25.3425 25.2545 25.2785 25.3629 25.1724C25.4713 25.0663 25.5384 24.9251 25.5522 24.774V21.1511C25.5701 21.0369 25.5646 20.9203 25.536 20.8083C25.5075 20.6962 25.4564 20.5912 25.3859 20.4996C25.3154 20.408 25.227 20.3317 25.1261 20.2754C25.0252 20.219 24.9139 20.1839 24.799 20.172Z" stroke="white" stroke-linecap="round" stroke-linejoin="round"/>
<defs>
<linearGradient id="paint0_linear_9_111" x1="17.6875" y1="0" x2="17.6875" y2="35" gradientUnits="userSpaceOnUse">
<stop stop-color="#004987"/>
<stop offset="1" stop-color="#002544"/>
</linearGradient>
</defs>
</svg>
