<svg width="36" height="35" viewBox="0 0 36 35" fill="none" xmlns="http://www.w3.org/2000/svg">
<path d="M30.957 5.83333C31.8558 5.83333 32.5339 6.63212 32.1712 8.11787L27.7719 29.126C27.4644 30.6198 26.5735 30.9792 25.3435 30.2843L14.8497 22.4322C14.809 22.4026 14.7759 22.3636 14.753 22.3185C14.7301 22.2733 14.7182 22.2233 14.7182 22.1726C14.7182 22.1218 14.7301 22.0718 14.753 22.0267C14.7759 21.9815 14.809 21.9425 14.8497 21.913L26.9677 10.8258C27.5196 10.3305 26.8494 10.0909 26.1241 10.5382L10.9155 20.2595C10.8694 20.2899 10.817 20.3094 10.7624 20.3163C10.7078 20.3232 10.6523 20.3174 10.6002 20.2994L4.14304 18.2305C2.70812 17.8072 2.70812 16.8087 4.46629 16.0978L30.3027 6.00107C30.5076 5.90148 30.7301 5.84445 30.957 5.83333Z" fill="url(#paint0_linear_29_105)" stroke="url(#paint1_linear_29_105)" stroke-linecap="round" stroke-linejoin="round"/>
<defs>
<linearGradient id="paint0_linear_29_105" x1="17.6875" y1="5.83333" x2="17.6875" y2="30.625" gradientUnits="userSpaceOnUse">
<stop stop-color="#004987"/>
<stop offset="1" stop-color="#002544"/>
</linearGradient>
<linearGradient id="paint1_linear_29_105" x1="17.6875" y1="5.83333" x2="17.6875" y2="30.625" gradientUnits="userSpaceOnUse">
<stop stop-color="#004987"/>
<stop offset="1" stop-color="#002544"/>
</linearGradient>
</defs>
</svg>
