<svg width="36" height="35" viewBox="0 0 36 35" fill="none" xmlns="http://www.w3.org/2000/svg">
<path d="M17.6875 1.82291C14.9643 1.82583 12.2887 2.53743 9.92376 3.88774C7.55886 5.23804 5.58608 7.18057 4.19939 9.52433C2.81271 11.8681 2.05985 14.5324 2.01485 17.2553C1.96985 19.9781 2.63425 22.6659 3.94273 25.0542L2.01044 33.1771L10.1334 31.2448C12.2284 32.3941 14.5585 33.0492 16.9455 33.1602C19.3326 33.2711 21.7134 32.8349 23.906 31.8849C26.0987 30.9348 28.0451 29.4961 29.5966 27.6787C31.1481 25.8613 32.2636 23.7132 32.8579 21.3987C33.4522 19.0841 33.5095 16.6644 33.0254 14.3243C32.5414 11.9842 31.5288 9.78579 30.065 7.89697C28.6012 6.00815 26.7251 4.47894 24.5798 3.42621C22.4346 2.37347 20.0771 1.82507 17.6875 1.82291ZM9.84898 8.94686H14.1219C14.3153 8.94686 14.5007 9.02369 14.6375 9.16043C14.7742 9.29718 14.8511 9.48264 14.8511 9.67603C14.8271 10.6484 14.9905 11.6164 15.3323 12.5271C15.4795 12.8319 15.5119 13.1796 15.4235 13.5064C15.3351 13.8332 15.1319 14.1172 14.8511 14.3062L13.3563 15.7646C14.0191 17.0589 14.8857 18.2382 15.9229 19.2573C16.9338 20.3114 18.1083 21.1954 19.4011 21.875L20.8594 20.3802C21.5886 19.651 21.924 19.651 22.6386 19.8989C23.5492 20.2407 24.5172 20.4041 25.4896 20.3802C25.6801 20.3891 25.8605 20.4687 25.9954 20.6036C26.1302 20.7385 26.2099 20.9188 26.2188 21.1094V25.3823C26.2099 25.5728 26.1302 25.7532 25.9954 25.888C25.8605 26.0229 25.6801 26.1026 25.4896 26.1114C21.2004 25.9246 17.1346 24.1464 14.0854 21.1239C11.0582 18.078 9.27923 14.0103 9.09794 9.71978C9.09967 9.51908 9.17869 9.32676 9.31856 9.18281C9.45844 9.03887 9.64841 8.95436 9.84898 8.94686Z" fill="url(#paint0_linear_8_91)" stroke="url(#paint1_linear_8_91)" stroke-linecap="round" stroke-linejoin="round"/>
<defs>
<linearGradient id="paint0_linear_8_91" x1="17.6804" y1="1.82291" x2="17.6804" y2="33.1771" gradientUnits="userSpaceOnUse">
<stop stop-color="#004987"/>
<stop offset="1" stop-color="#002544"/>
</linearGradient>
<linearGradient id="paint1_linear_8_91" x1="17.6804" y1="1.82291" x2="17.6804" y2="33.1771" gradientUnits="userSpaceOnUse">
<stop stop-color="#004987"/>
<stop offset="1" stop-color="#002544"/>
</linearGradient>
</defs>
</svg>
