<svg width="509" height="442" viewBox="0 0 509 442" fill="none" xmlns="http://www.w3.org/2000/svg">
<path d="M8.00242 221.42C8.00242 163.111 33.914 107.179 80.056 65.9326C126.199 24.6843 188.793 1.50425 254.068 1.50425C319.343 1.50424 381.937 24.6843 428.08 65.9326C474.222 107.179 500.134 163.111 500.134 221.42" stroke="#16110D" stroke-width="0.857372" stroke-dasharray="3.43 3.43"/>
<path d="M1.73619 227.538C1.85548 227.602 1.85548 227.708 1.73619 227.771C1.6169 227.834 1.41982 227.834 1.30053 227.771C1.18124 227.708 1.18124 227.602 1.30053 227.538C1.41982 227.475 1.6169 227.475 1.73619 227.538Z" fill="white"/>
<path d="M2.87203 226.927C2.99132 226.99 2.99132 227.097 2.87203 227.16C2.75274 227.223 2.55565 227.223 2.43636 227.16C2.31707 227.097 2.31707 226.99 2.43636 226.927C2.55565 226.864 2.75274 226.864 2.87203 226.927Z" fill="white"/>
<path d="M0.60033 226.927C0.719621 226.99 0.719621 227.097 0.60033 227.16C0.48104 227.223 0.283953 227.223 0.164663 227.16C0.0453727 227.097 0.0453727 226.99 0.164663 226.927C0.283953 226.864 0.48104 226.864 0.60033 226.927Z" fill="white"/>
<path d="M1.73619 226.316C1.85548 226.379 1.85548 226.486 1.73619 226.549C1.6169 226.612 1.41982 226.612 1.30053 226.549C1.18124 226.486 1.18124 226.379 1.30053 226.316C1.41982 226.253 1.6169 226.253 1.73619 226.316Z" fill="white"/>
<path d="M0.60033 225.705C0.719621 225.769 0.719621 225.875 0.60033 225.938C0.48104 226.001 0.283953 226.001 0.164663 225.938C0.0453727 225.875 0.0453727 225.769 0.164663 225.705C0.283953 225.642 0.48104 225.642 0.60033 225.705Z" fill="white"/>
<path d="M9.69753 230.579C9.81682 230.642 9.81682 230.749 9.69753 230.812C9.57824 230.875 9.38115 230.875 9.26186 230.812C9.14257 230.749 9.14257 230.642 9.26186 230.579C9.38115 230.516 9.57824 230.516 9.69753 230.579Z" fill="white"/>
<path d="M10.8334 229.968C10.9527 230.031 10.9527 230.138 10.8334 230.201C10.7141 230.264 10.517 230.264 10.3977 230.201C10.2784 230.138 10.2784 230.031 10.3977 229.968C10.517 229.905 10.7141 229.905 10.8334 229.968Z" fill="white"/>
<path d="M11.9692 229.352C12.0885 229.415 12.0885 229.522 11.9692 229.585C11.8499 229.648 11.6528 229.648 11.5336 229.585C11.4143 229.522 11.4143 229.415 11.5336 229.352C11.6528 229.289 11.8499 229.289 11.9692 229.352Z" fill="white"/>
<path d="M13.1051 228.741C13.2244 228.804 13.2244 228.911 13.1051 228.974C12.9858 229.037 12.7887 229.037 12.6694 228.974C12.5501 228.911 12.5501 228.804 12.6694 228.741C12.7887 228.678 12.9858 228.678 13.1051 228.741Z" fill="white"/>
<path d="M14.2357 228.13C14.355 228.193 14.355 228.3 14.2357 228.363C14.1164 228.426 13.9194 228.426 13.8001 228.363C13.6808 228.3 13.6808 228.193 13.8001 228.13C13.9194 228.067 14.1164 228.067 14.2357 228.13Z" fill="white"/>
<path d="M15.3716 227.519C15.4909 227.582 15.4909 227.689 15.3716 227.752C15.2523 227.815 15.0553 227.815 14.936 227.752C14.8167 227.689 14.8167 227.582 14.936 227.519C15.0553 227.456 15.2523 227.456 15.3716 227.519Z" fill="white"/>
<path d="M7.43102 230.579C7.55031 230.642 7.55031 230.749 7.43102 230.812C7.31173 230.875 7.11464 230.875 6.99535 230.812C6.87606 230.749 6.87606 230.642 6.99535 230.579C7.11464 230.516 7.31173 230.516 7.43102 230.579Z" fill="white"/>
<path d="M8.56686 229.968C8.68615 230.031 8.68615 230.138 8.56686 230.201C8.44757 230.264 8.25048 230.264 8.13119 230.201C8.01189 230.138 8.01189 230.031 8.13119 229.968C8.25048 229.905 8.44757 229.905 8.56686 229.968Z" fill="white"/>
<path d="M9.69753 229.357C9.81682 229.42 9.81682 229.527 9.69753 229.59C9.57824 229.653 9.38115 229.653 9.26186 229.59C9.14257 229.527 9.14257 229.42 9.26186 229.357C9.38115 229.294 9.57824 229.294 9.69753 229.357Z" fill="white"/>
<path d="M10.8334 228.741C10.9527 228.804 10.9527 228.911 10.8334 228.974C10.7141 229.037 10.517 229.037 10.3977 228.974C10.2784 228.911 10.2784 228.804 10.3977 228.741C10.517 228.678 10.7141 228.678 10.8334 228.741Z" fill="white"/>
<path d="M11.9692 228.13C12.0885 228.193 12.0885 228.3 11.9692 228.363C11.8499 228.426 11.6528 228.426 11.5336 228.363C11.4143 228.3 11.4143 228.193 11.5336 228.13C11.6528 228.067 11.8499 228.067 11.9692 228.13Z" fill="white"/>
<path d="M13.1051 227.519C13.2244 227.582 13.2244 227.689 13.1051 227.752C12.9858 227.815 12.7887 227.815 12.6694 227.752C12.5501 227.689 12.5501 227.582 12.6694 227.519C12.7887 227.456 12.9858 227.456 13.1051 227.519Z" fill="white"/>
<path d="M14.2357 226.903C14.355 226.966 14.355 227.073 14.2357 227.136C14.1164 227.199 13.9194 227.199 13.8001 227.136C13.6808 227.073 13.6808 226.966 13.8001 226.903C13.9194 226.84 14.1164 226.84 14.2357 226.903Z" fill="white"/>
<path d="M15.3716 226.292C15.4909 226.355 15.4909 226.462 15.3716 226.525C15.2523 226.588 15.0553 226.588 14.936 226.525C14.8167 226.462 14.8167 226.355 14.936 226.292C15.0553 226.229 15.2523 226.229 15.3716 226.292Z" fill="white"/>
<path d="M6.28481 229.958C6.4041 230.021 6.4041 230.128 6.28481 230.191C6.16552 230.254 5.96843 230.254 5.84914 230.191C5.72985 230.128 5.72985 230.021 5.84914 229.958C5.96843 229.895 6.16552 229.895 6.28481 229.958Z" fill="white"/>
<path d="M7.42064 229.347C7.53993 229.41 7.53993 229.517 7.42064 229.58C7.30135 229.643 7.10427 229.643 6.98498 229.58C6.86569 229.517 6.86569 229.41 6.98498 229.347C7.10427 229.284 7.30135 229.284 7.42064 229.347Z" fill="white"/>
<path d="M8.55651 228.736C8.6758 228.799 8.6758 228.906 8.55651 228.969C8.43722 229.032 8.24013 229.032 8.12084 228.969C8.00155 228.906 8.00155 228.799 8.12084 228.736C8.24013 228.673 8.43722 228.673 8.55651 228.736Z" fill="white"/>
<path d="M9.69235 228.125C9.81164 228.188 9.81164 228.295 9.69235 228.358C9.57306 228.421 9.37596 228.421 9.25667 228.358C9.13738 228.295 9.13738 228.188 9.25667 228.125C9.37596 228.062 9.57306 228.062 9.69235 228.125Z" fill="white"/>
<path d="M10.823 227.509C10.9423 227.572 10.9423 227.679 10.823 227.742C10.7037 227.805 10.5066 227.805 10.3873 227.742C10.2681 227.679 10.2681 227.572 10.3873 227.509C10.5066 227.446 10.7037 227.446 10.823 227.509Z" fill="white"/>
<path d="M11.9589 226.898C12.0781 226.961 12.0781 227.068 11.9589 227.131C11.8396 227.194 11.6425 227.194 11.5232 227.131C11.4039 227.068 11.4039 226.961 11.5232 226.898C11.6425 226.835 11.8396 226.835 11.9589 226.898Z" fill="white"/>
<path d="M13.0947 226.287C13.214 226.35 13.214 226.457 13.0947 226.52C12.9754 226.583 12.7783 226.583 12.659 226.52C12.5398 226.457 12.5398 226.35 12.659 226.287C12.7783 226.224 12.9754 226.224 13.0947 226.287Z" fill="white"/>
<path d="M14.2254 225.676C14.3447 225.739 14.3447 225.846 14.2254 225.909C14.1061 225.972 13.909 225.972 13.7897 225.909C13.6704 225.846 13.6704 225.739 13.7897 225.676C13.909 225.613 14.1061 225.613 14.2254 225.676Z" fill="white"/>
<path d="M5.15414 229.347C5.27343 229.41 5.27343 229.517 5.15414 229.58C5.03485 229.643 4.83776 229.643 4.71847 229.58C4.59918 229.517 4.59918 229.41 4.71847 229.347C4.83776 229.284 5.03485 229.284 5.15414 229.347Z" fill="white"/>
<path d="M6.28481 228.736C6.4041 228.799 6.4041 228.906 6.28481 228.969C6.16552 229.032 5.96843 229.032 5.84914 228.969C5.72985 228.906 5.72985 228.799 5.84914 228.736C5.96843 228.673 6.16552 228.673 6.28481 228.736Z" fill="white"/>
<path d="M7.42064 228.358C7.30135 228.421 7.10427 228.421 6.98498 228.358C6.86569 228.295 6.86569 228.188 6.98498 228.125C7.10427 228.062 7.53993 228.295 7.42064 228.358Z" fill="white"/>
<path d="M4.01824 228.736C4.13753 228.799 4.13753 228.906 4.01824 228.969C3.89895 229.032 3.70186 229.032 3.58257 228.969C3.46328 228.906 3.46328 228.799 3.58257 228.736C3.70186 228.673 3.89895 228.673 4.01824 228.736Z" fill="white"/>
<path d="M5.15414 228.125C5.27343 228.188 5.27343 228.295 5.15414 228.358C5.03485 228.421 4.83776 228.421 4.71847 228.358C4.59918 228.295 4.59918 228.188 4.71847 228.125C4.83776 228.062 5.03485 228.062 5.15414 228.125Z" fill="white"/>
<path d="M2.88243 228.125C3.00173 228.188 3.00173 228.295 2.88243 228.358C2.76314 228.421 2.56606 228.421 2.44677 228.358C2.32748 228.295 2.32748 228.188 2.44677 228.125C2.56606 228.062 2.76314 228.062 2.88243 228.125Z" fill="white"/>
<path d="M4.01824 227.509C4.13753 227.572 4.13753 227.679 4.01824 227.742C3.89895 227.805 3.70186 227.805 3.58257 227.742C3.46328 227.679 3.46328 227.572 3.58257 227.509C3.70186 227.446 3.89895 227.446 4.01824 227.509Z" fill="white"/>
<path d="M14.0698 217.277L7.1146 213.524L0.159454 217.277V224.789L7.1146 228.542V221.05L14.0698 217.277Z" fill="#E1E2E3"/>
<path d="M14.2098 217.205L7.11463 213.374L0.0453743 217.19L0.0246277 217.2V217.35V224.857L6.97977 228.61L7.11981 228.688L7.25985 228.61L14.1424 224.896L14.2098 224.857V217.35V217.2V217.205ZM7.11463 213.674L10.3821 215.439L3.70707 219.042L0.439552 217.277L7.11463 213.674ZM6.97459 228.314L0.299517 224.711V217.505L6.97459 221.108V228.314ZM9.94647 219.353L7.11463 220.88L3.84711 219.115L10.5222 215.512L13.7897 217.277L9.94647 219.353Z" fill="#494949"/>
<path d="M4.35539 221.04L3.06395 220.342C2.92391 220.265 2.77869 220.26 2.6594 220.323C2.52455 220.395 2.44675 220.551 2.44675 220.745C2.44675 221.074 2.65939 221.443 2.92391 221.588L4.21536 222.287C4.29316 222.33 4.37095 222.35 4.44875 222.35C4.51099 222.35 4.56804 222.335 4.62509 222.306C4.75994 222.233 4.83774 222.078 4.83774 221.884C4.83774 221.554 4.63028 221.186 4.36058 221.04H4.35539ZM4.48505 222.078C4.44356 222.098 4.38651 222.078 4.35539 222.059L3.06395 221.36C2.88242 221.264 2.72682 220.977 2.72682 220.745C2.72682 220.628 2.76312 220.565 2.79943 220.551C2.84092 220.526 2.89797 220.551 2.92909 220.57L3.01726 220.619C3.04838 220.9 3.22992 221.196 3.45294 221.317L4.55248 221.908C4.54729 222.005 4.51617 222.059 4.48505 222.078Z" fill="white"/>
<path d="M398.736 51.141C398.855 51.2041 398.855 51.3108 398.736 51.3738C398.617 51.4368 398.42 51.4368 398.3 51.3738C398.181 51.3108 398.181 51.2041 398.3 51.141C398.42 51.078 398.617 51.078 398.736 51.141Z" fill="white"/>
<path d="M399.872 50.5297C399.991 50.5927 399.991 50.6994 399.872 50.7625C399.753 50.8255 399.556 50.8255 399.436 50.7625C399.317 50.6994 399.317 50.5927 399.436 50.5297C399.556 50.4667 399.753 50.4667 399.872 50.5297Z" fill="white"/>
<path d="M397.6 50.5297C397.72 50.5927 397.72 50.6994 397.6 50.7625C397.481 50.8255 397.284 50.8255 397.165 50.7625C397.045 50.6994 397.045 50.5927 397.165 50.5297C397.284 50.4667 397.481 50.4667 397.6 50.5297Z" fill="white"/>
<path d="M398.736 49.9189C398.855 49.9819 398.855 50.0886 398.736 50.1516C398.617 50.2147 398.42 50.2147 398.3 50.1516C398.181 50.0886 398.181 49.9819 398.3 49.9189C398.42 49.8558 398.617 49.8558 398.736 49.9189Z" fill="white"/>
<path d="M397.6 49.308C397.72 49.3711 397.72 49.4777 397.6 49.5408C397.481 49.6038 397.284 49.6038 397.165 49.5408C397.045 49.4777 397.045 49.3711 397.165 49.308C397.284 49.245 397.481 49.245 397.6 49.308Z" fill="white"/>
<path d="M406.698 54.1816C406.817 54.2446 406.817 54.3513 406.698 54.4143C406.578 54.4774 406.381 54.4774 406.262 54.4143C406.143 54.3513 406.143 54.2446 406.262 54.1816C406.381 54.1185 406.578 54.1185 406.698 54.1816Z" fill="white"/>
<path d="M407.833 53.5702C407.953 53.6333 407.953 53.74 407.833 53.803C407.714 53.866 407.517 53.866 407.398 53.803C407.278 53.74 407.278 53.6333 407.398 53.5702C407.517 53.5072 407.714 53.5072 407.833 53.5702Z" fill="white"/>
<path d="M408.969 52.9545C409.089 53.0175 409.089 53.1242 408.969 53.1873C408.85 53.2503 408.653 53.2503 408.534 53.1873C408.414 53.1242 408.414 53.0175 408.534 52.9545C408.653 52.8915 408.85 52.8915 408.969 52.9545Z" fill="white"/>
<path d="M410.105 52.3437C410.224 52.4067 410.224 52.5134 410.105 52.5764C409.986 52.6395 409.789 52.6395 409.669 52.5764C409.55 52.5134 409.55 52.4067 409.669 52.3437C409.789 52.2806 409.986 52.2806 410.105 52.3437Z" fill="white"/>
<path d="M411.236 51.7323C411.355 51.7954 411.355 51.9021 411.236 51.9651C411.116 52.0281 410.919 52.0281 410.8 51.9651C410.681 51.9021 410.681 51.7954 410.8 51.7323C410.919 51.6693 411.116 51.6693 411.236 51.7323Z" fill="white"/>
<path d="M412.372 51.1215C412.491 51.1845 412.491 51.2912 412.372 51.3543C412.252 51.4173 412.055 51.4173 411.936 51.3543C411.817 51.2912 411.817 51.1845 411.936 51.1215C412.055 51.0585 412.252 51.0585 412.372 51.1215Z" fill="white"/>
<path d="M404.431 54.1816C404.55 54.2446 404.55 54.3513 404.431 54.4143C404.312 54.4774 404.115 54.4774 403.995 54.4143C403.876 54.3513 403.876 54.2446 403.995 54.1816C404.115 54.1185 404.312 54.1185 404.431 54.1816Z" fill="white"/>
<path d="M405.567 53.5702C405.686 53.6333 405.686 53.74 405.567 53.803C405.448 53.866 405.25 53.866 405.131 53.803C405.012 53.74 405.012 53.6333 405.131 53.5702C405.25 53.5072 405.448 53.5072 405.567 53.5702Z" fill="white"/>
<path d="M406.698 52.9594C406.817 53.0224 406.817 53.1291 406.698 53.1922C406.578 53.2552 406.381 53.2552 406.262 53.1922C406.143 53.1291 406.143 53.0224 406.262 52.9594C406.381 52.8963 406.578 52.8963 406.698 52.9594Z" fill="white"/>
<path d="M407.833 52.3437C407.953 52.4067 407.953 52.5134 407.833 52.5764C407.714 52.6395 407.517 52.6395 407.398 52.5764C407.278 52.5134 407.278 52.4067 407.398 52.3437C407.517 52.2806 407.714 52.2806 407.833 52.3437Z" fill="white"/>
<path d="M408.969 51.7323C409.089 51.7954 409.089 51.9021 408.969 51.9651C408.85 52.0281 408.653 52.0281 408.534 51.9651C408.414 51.9021 408.414 51.7954 408.534 51.7323C408.653 51.6693 408.85 51.6693 408.969 51.7323Z" fill="white"/>
<path d="M410.105 51.1215C410.224 51.1845 410.224 51.2912 410.105 51.3543C409.986 51.4173 409.789 51.4173 409.669 51.3543C409.55 51.2912 409.55 51.1845 409.669 51.1215C409.789 51.0585 409.986 51.0585 410.105 51.1215Z" fill="white"/>
<path d="M411.236 50.5058C411.355 50.5688 411.355 50.6755 411.236 50.7385C411.116 50.8016 410.919 50.8016 410.8 50.7385C410.681 50.6755 410.681 50.5688 410.8 50.5058C410.919 50.4427 411.116 50.4427 411.236 50.5058Z" fill="white"/>
<path d="M412.372 49.8944C412.491 49.9575 412.491 50.0642 412.372 50.1272C412.252 50.1903 412.055 50.1903 411.936 50.1272C411.817 50.0642 411.817 49.9575 411.936 49.8944C412.055 49.8314 412.252 49.8314 412.372 49.8944Z" fill="white"/>
<path d="M403.285 53.561C403.404 53.624 403.404 53.7307 403.285 53.7937C403.165 53.8568 402.968 53.8568 402.849 53.7937C402.73 53.7307 402.73 53.624 402.849 53.561C402.968 53.4979 403.165 53.4979 403.285 53.561Z" fill="white"/>
<path d="M404.421 52.9496C404.54 53.0127 404.54 53.1194 404.421 53.1824C404.301 53.2454 404.104 53.2454 403.985 53.1824C403.866 53.1194 403.866 53.0127 403.985 52.9496C404.104 52.8866 404.301 52.8866 404.421 52.9496Z" fill="white"/>
<path d="M405.556 52.3388C405.676 52.4018 405.676 52.5085 405.556 52.5716C405.437 52.6346 405.24 52.6346 405.121 52.5716C405.002 52.5085 405.002 52.4018 405.121 52.3388C405.24 52.2757 405.437 52.2757 405.556 52.3388Z" fill="white"/>
<path d="M406.692 51.7279C406.812 51.791 406.812 51.8977 406.692 51.9607C406.573 52.0238 406.376 52.0238 406.257 51.9607C406.137 51.8977 406.137 51.791 406.257 51.7279C406.376 51.6649 406.573 51.6649 406.692 51.7279Z" fill="white"/>
<path d="M407.823 51.1117C407.942 51.1748 407.942 51.2815 407.823 51.3445C407.704 51.4075 407.507 51.4075 407.387 51.3445C407.268 51.2815 407.268 51.1748 407.387 51.1117C407.507 51.0487 407.704 51.0487 407.823 51.1117Z" fill="white"/>
<path d="M408.959 50.5009C409.078 50.5639 409.078 50.6706 408.959 50.7337C408.84 50.7967 408.642 50.7967 408.523 50.7337C408.404 50.6706 408.404 50.5639 408.523 50.5009C408.642 50.4379 408.84 50.4379 408.959 50.5009Z" fill="white"/>
<path d="M410.095 49.8896C410.214 49.9526 410.214 50.0593 410.095 50.1223C409.975 50.1854 409.778 50.1854 409.659 50.1223C409.54 50.0593 409.54 49.9526 409.659 49.8896C409.778 49.8265 409.975 49.8265 410.095 49.8896Z" fill="white"/>
<path d="M411.225 49.2787C411.345 49.3418 411.345 49.4485 411.225 49.5115C411.106 49.5745 410.909 49.5745 410.79 49.5115C410.67 49.4485 410.67 49.3418 410.79 49.2787C410.909 49.2157 411.106 49.2157 411.225 49.2787Z" fill="white"/>
<path d="M402.154 52.9496C402.273 53.0127 402.273 53.1194 402.154 53.1824C402.035 53.2454 401.838 53.2454 401.718 53.1824C401.599 53.1194 401.599 53.0127 401.718 52.9496C401.838 52.8866 402.035 52.8866 402.154 52.9496Z" fill="white"/>
<path d="M403.285 52.3388C403.404 52.4018 403.404 52.5085 403.285 52.5716C403.165 52.6346 402.968 52.6346 402.849 52.5716C402.73 52.5085 402.73 52.4018 402.849 52.3388C402.968 52.2757 403.165 52.2757 403.285 52.3388Z" fill="white"/>
<path d="M404.421 51.9603C404.301 52.0233 404.104 52.0233 403.985 51.9603C403.866 51.8973 403.866 51.7906 403.985 51.7275C404.104 51.6645 404.54 51.8973 404.421 51.9603Z" fill="white"/>
<path d="M401.018 52.3388C401.138 52.4018 401.138 52.5085 401.018 52.5716C400.899 52.6346 400.702 52.6346 400.583 52.5716C400.463 52.5085 400.463 52.4018 400.583 52.3388C400.702 52.2757 400.899 52.2757 401.018 52.3388Z" fill="white"/>
<path d="M402.154 51.7279C402.273 51.791 402.273 51.8977 402.154 51.9607C402.035 52.0238 401.838 52.0238 401.718 51.9607C401.599 51.8977 401.599 51.791 401.718 51.7279C401.838 51.6649 402.035 51.6649 402.154 51.7279Z" fill="white"/>
<path d="M399.882 51.7279C400.002 51.791 400.002 51.8977 399.882 51.9607C399.763 52.0238 399.566 52.0238 399.447 51.9607C399.327 51.8977 399.327 51.791 399.447 51.7279C399.566 51.6649 399.763 51.6649 399.882 51.7279Z" fill="white"/>
<path d="M401.018 51.1117C401.138 51.1748 401.138 51.2815 401.018 51.3445C400.899 51.4075 400.702 51.4075 400.583 51.3445C400.463 51.2815 400.463 51.1748 400.583 51.1117C400.702 51.0487 400.899 51.0487 401.018 51.1117Z" fill="white"/>
<path d="M411.07 40.8794L404.115 37.126L397.159 40.8794V48.3911L404.115 52.1445V44.6522L411.07 40.8794Z" fill="#E1E2E3"/>
<path d="M411.21 40.8066L404.115 36.9756L397.045 40.792L397.025 40.8017V40.9521V48.4589L403.98 52.2123L404.12 52.2899L404.26 52.2123L411.142 48.4977L411.21 48.4589V40.9521V40.8017V40.8066ZM404.115 37.2762L407.382 39.0414L400.707 42.6445L397.44 40.8793L404.115 37.2762ZM403.975 51.9165L397.3 48.3134V41.1073L403.975 44.7103V51.9165ZM406.946 42.9549L404.115 44.4824L400.847 42.7172L407.522 39.1142L410.79 40.8793L406.946 42.9549Z" fill="#494949"/>
<path d="M401.355 44.6425L400.064 43.9442C399.924 43.8666 399.779 43.8617 399.659 43.9248C399.525 43.9975 399.447 44.1527 399.447 44.3467C399.447 44.6764 399.659 45.045 399.924 45.1905L401.215 45.8888C401.293 45.9324 401.371 45.9518 401.449 45.9518C401.511 45.9518 401.568 45.9373 401.625 45.9082C401.76 45.8354 401.838 45.6803 401.838 45.4863C401.838 45.1565 401.63 44.788 401.361 44.6425H401.355ZM401.485 45.6802C401.444 45.6996 401.386 45.6802 401.355 45.6609L400.064 44.9625C399.882 44.8656 399.727 44.5794 399.727 44.3467C399.727 44.2303 399.763 44.1672 399.799 44.1527C399.841 44.1285 399.898 44.1527 399.929 44.1721L400.017 44.2206C400.048 44.5019 400.23 44.7977 400.453 44.9189L401.552 45.5105C401.547 45.6075 401.516 45.6609 401.485 45.6802Z" fill="white"/>
<path d="M109.149 41.1738L102.194 37.4204L95.2386 41.1738V48.6855L102.194 52.4389V44.9466L109.149 41.1738Z" fill="#E1E2E3"/>
<path d="M109.289 41.101L102.194 37.27L95.1245 41.0865L95.1037 41.0962V41.2465V48.7533L102.059 52.5067L102.199 52.5843L102.339 52.5067L109.222 48.7921L109.289 48.7533V41.2465V41.0962V41.101ZM102.194 37.5707L105.461 39.3359L98.7862 42.9389L95.5187 41.1738L102.194 37.5707ZM102.054 52.2109L95.3786 48.6079V41.4017L102.054 45.0048V52.2109ZM105.026 43.2493L102.194 44.7769L98.9262 43.0117L105.601 39.4086L108.869 41.1738L105.026 43.2493Z" fill="#494949"/>
<path d="M99.4345 44.9369L98.1431 44.2386C98.003 44.161 97.8578 44.1562 97.7385 44.2192C97.6037 44.292 97.5259 44.4471 97.5259 44.6411C97.5259 44.9709 97.7385 45.3394 98.003 45.4849L99.2945 46.1832C99.3723 46.2269 99.4501 46.2462 99.5279 46.2462C99.5901 46.2462 99.6472 46.2317 99.7042 46.2026C99.8391 46.1299 99.9169 45.9747 99.9169 45.7807C99.9169 45.451 99.7094 45.0824 99.4397 44.9369H99.4345ZM99.5642 45.9747C99.5227 45.9941 99.4656 45.9747 99.4345 45.9553L98.1431 45.257C97.9615 45.16 97.8059 44.8739 97.8059 44.6411C97.8059 44.5247 97.8422 44.4617 97.8785 44.4471C97.92 44.4229 97.9771 44.4471 98.0082 44.4665L98.0964 44.515C98.1275 44.7963 98.309 45.0921 98.5321 45.2133L99.6316 45.805C99.6264 45.9019 99.5953 45.9553 99.5642 45.9747Z" fill="white"/>
<path d="M494.725 219.821C494.844 219.884 494.844 219.99 494.725 220.053C494.606 220.117 494.409 220.117 494.289 220.053C494.17 219.99 494.17 219.884 494.289 219.821C494.409 219.758 494.606 219.758 494.725 219.821Z" fill="white"/>
<path d="M495.861 219.209C495.98 219.272 495.98 219.379 495.861 219.442C495.741 219.505 495.544 219.505 495.425 219.442C495.306 219.379 495.306 219.272 495.425 219.209C495.544 219.146 495.741 219.146 495.861 219.209Z" fill="white"/>
<path d="M493.589 219.209C493.708 219.272 493.708 219.379 493.589 219.442C493.47 219.505 493.273 219.505 493.153 219.442C493.034 219.379 493.034 219.272 493.153 219.209C493.273 219.146 493.47 219.146 493.589 219.209Z" fill="white"/>
<path d="M494.725 218.599C494.844 218.662 494.844 218.768 494.725 218.831C494.606 218.894 494.409 218.894 494.289 218.831C494.17 218.768 494.17 218.662 494.289 218.599C494.409 218.536 494.606 218.536 494.725 218.599Z" fill="white"/>
<path d="M493.589 217.988C493.708 218.051 493.708 218.157 493.589 218.22C493.47 218.284 493.273 218.284 493.153 218.22C493.034 218.157 493.034 218.051 493.153 217.988C493.273 217.925 493.47 217.925 493.589 217.988Z" fill="white"/>
<path d="M502.686 222.861C502.806 222.924 502.806 223.031 502.686 223.094C502.567 223.157 502.37 223.157 502.251 223.094C502.131 223.031 502.131 222.924 502.251 222.861C502.37 222.798 502.567 222.798 502.686 222.861Z" fill="white"/>
<path d="M503.822 222.25C503.941 222.313 503.941 222.42 503.822 222.483C503.703 222.546 503.506 222.546 503.386 222.483C503.267 222.42 503.267 222.313 503.386 222.25C503.506 222.187 503.703 222.187 503.822 222.25Z" fill="white"/>
<path d="M504.958 221.634C505.077 221.697 505.077 221.804 504.958 221.867C504.839 221.93 504.642 221.93 504.522 221.867C504.403 221.804 504.403 221.697 504.522 221.634C504.642 221.571 504.839 221.571 504.958 221.634Z" fill="white"/>
<path d="M506.094 221.023C506.213 221.086 506.213 221.193 506.094 221.256C505.975 221.319 505.777 221.319 505.658 221.256C505.539 221.193 505.539 221.086 505.658 221.023C505.777 220.96 505.975 220.96 506.094 221.023Z" fill="white"/>
<path d="M507.224 220.412C507.344 220.475 507.344 220.582 507.224 220.645C507.105 220.708 506.908 220.708 506.789 220.645C506.67 220.582 506.67 220.475 506.789 220.412C506.908 220.349 507.105 220.349 507.224 220.412Z" fill="white"/>
<path d="M508.36 219.801C508.48 219.864 508.48 219.971 508.36 220.034C508.241 220.097 508.044 220.097 507.925 220.034C507.805 219.971 507.805 219.864 507.925 219.801C508.044 219.738 508.241 219.738 508.36 219.801Z" fill="white"/>
<path d="M500.42 222.861C500.539 222.924 500.539 223.031 500.42 223.094C500.3 223.157 500.103 223.157 499.984 223.094C499.865 223.031 499.865 222.924 499.984 222.861C500.103 222.798 500.3 222.798 500.42 222.861Z" fill="white"/>
<path d="M501.556 222.25C501.675 222.313 501.675 222.42 501.556 222.483C501.436 222.546 501.239 222.546 501.12 222.483C501.001 222.42 501.001 222.313 501.12 222.25C501.239 222.187 501.436 222.187 501.556 222.25Z" fill="white"/>
<path d="M502.686 221.639C502.806 221.702 502.806 221.809 502.686 221.872C502.567 221.935 502.37 221.935 502.251 221.872C502.131 221.809 502.131 221.702 502.251 221.639C502.37 221.576 502.567 221.576 502.686 221.639Z" fill="white"/>
<path d="M503.822 221.023C503.941 221.086 503.941 221.193 503.822 221.256C503.703 221.319 503.506 221.319 503.386 221.256C503.267 221.193 503.267 221.086 503.386 221.023C503.506 220.96 503.703 220.96 503.822 221.023Z" fill="white"/>
<path d="M504.958 220.412C505.077 220.475 505.077 220.582 504.958 220.645C504.839 220.708 504.642 220.708 504.522 220.645C504.403 220.582 504.403 220.475 504.522 220.412C504.642 220.349 504.839 220.349 504.958 220.412Z" fill="white"/>
<path d="M506.094 219.801C506.213 219.864 506.213 219.971 506.094 220.034C505.975 220.097 505.777 220.097 505.658 220.034C505.539 219.971 505.539 219.864 505.658 219.801C505.777 219.738 505.975 219.738 506.094 219.801Z" fill="white"/>
<path d="M507.224 219.185C507.344 219.249 507.344 219.355 507.224 219.418C507.105 219.481 506.908 219.481 506.789 219.418C506.67 219.355 506.67 219.249 506.789 219.185C506.908 219.122 507.105 219.122 507.224 219.185Z" fill="white"/>
<path d="M508.36 218.574C508.48 218.637 508.48 218.744 508.36 218.807C508.241 218.87 508.044 218.87 507.925 218.807C507.805 218.744 507.805 218.637 507.925 218.574C508.044 218.511 508.241 218.511 508.36 218.574Z" fill="white"/>
<path d="M499.274 222.241C499.393 222.304 499.393 222.41 499.274 222.473C499.154 222.536 498.957 222.536 498.838 222.473C498.719 222.41 498.719 222.304 498.838 222.241C498.957 222.178 499.154 222.178 499.274 222.241Z" fill="white"/>
<path d="M500.409 221.629C500.529 221.692 500.529 221.799 500.409 221.862C500.29 221.925 500.093 221.925 499.974 221.862C499.854 221.799 499.854 221.692 499.974 221.629C500.093 221.566 500.29 221.566 500.409 221.629Z" fill="white"/>
<path d="M501.545 221.018C501.665 221.082 501.665 221.188 501.545 221.251C501.426 221.314 501.229 221.314 501.11 221.251C500.99 221.188 500.99 221.082 501.11 221.018C501.229 220.955 501.426 220.955 501.545 221.018Z" fill="white"/>
<path d="M502.681 220.407C502.8 220.47 502.8 220.577 502.681 220.64C502.562 220.703 502.365 220.703 502.245 220.64C502.126 220.577 502.126 220.47 502.245 220.407C502.365 220.344 502.562 220.344 502.681 220.407Z" fill="white"/>
<path d="M503.812 219.791C503.931 219.854 503.931 219.961 503.812 220.024C503.692 220.087 503.495 220.087 503.376 220.024C503.257 219.961 503.257 219.854 503.376 219.791C503.495 219.728 503.692 219.728 503.812 219.791Z" fill="white"/>
<path d="M504.948 219.181C505.067 219.244 505.067 219.35 504.948 219.413C504.828 219.476 504.631 219.476 504.512 219.413C504.393 219.35 504.393 219.244 504.512 219.181C504.631 219.118 504.828 219.118 504.948 219.181Z" fill="white"/>
<path d="M506.083 218.569C506.203 218.632 506.203 218.739 506.083 218.802C505.964 218.865 505.767 218.865 505.648 218.802C505.528 218.739 505.528 218.632 505.648 218.569C505.767 218.506 505.964 218.506 506.083 218.569Z" fill="white"/>
<path d="M507.214 217.958C507.333 218.021 507.333 218.128 507.214 218.191C507.095 218.254 506.898 218.254 506.778 218.191C506.659 218.128 506.659 218.021 506.778 217.958C506.898 217.895 507.095 217.895 507.214 217.958Z" fill="white"/>
<path d="M498.143 221.629C498.262 221.692 498.262 221.799 498.143 221.862C498.024 221.925 497.826 221.925 497.707 221.862C497.588 221.799 497.588 221.692 497.707 221.629C497.826 221.566 498.024 221.566 498.143 221.629Z" fill="white"/>
<path d="M499.274 221.018C499.393 221.082 499.393 221.188 499.274 221.251C499.154 221.314 498.957 221.314 498.838 221.251C498.719 221.188 498.719 221.082 498.838 221.018C498.957 220.955 499.154 220.955 499.274 221.018Z" fill="white"/>
<path d="M500.409 220.64C500.29 220.703 500.093 220.703 499.974 220.64C499.854 220.577 499.854 220.47 499.974 220.407C500.093 220.344 500.529 220.577 500.409 220.64Z" fill="white"/>
<path d="M497.007 221.018C497.126 221.082 497.126 221.188 497.007 221.251C496.888 221.314 496.691 221.314 496.571 221.251C496.452 221.188 496.452 221.082 496.571 221.018C496.691 220.955 496.888 220.955 497.007 221.018Z" fill="white"/>
<path d="M498.143 220.407C498.262 220.47 498.262 220.577 498.143 220.64C498.024 220.703 497.826 220.703 497.707 220.64C497.588 220.577 497.588 220.47 497.707 220.407C497.826 220.344 498.024 220.344 498.143 220.407Z" fill="white"/>
<path d="M495.871 220.407C495.99 220.47 495.99 220.577 495.871 220.64C495.752 220.703 495.555 220.703 495.435 220.64C495.316 220.577 495.316 220.47 495.435 220.407C495.555 220.344 495.752 220.344 495.871 220.407Z" fill="white"/>
<path d="M497.007 219.791C497.126 219.854 497.126 219.961 497.007 220.024C496.888 220.087 496.691 220.087 496.571 220.024C496.452 219.961 496.452 219.854 496.571 219.791C496.691 219.728 496.888 219.728 497.007 219.791Z" fill="white"/>
<path d="M507.058 209.559L500.103 205.806L493.148 209.559V217.071L500.103 220.824V213.332L507.058 209.559Z" fill="#E1E2E3"/>
<path d="M507.199 209.486L500.103 205.655L493.034 209.472L493.013 209.481V209.632V217.139L499.969 220.892L500.109 220.97L500.249 220.892L507.131 217.177L507.199 217.139V209.632V209.481V209.486ZM500.103 205.956L503.371 207.721L496.696 211.324L493.428 209.559L500.103 205.956ZM499.963 220.596L493.288 216.993V209.787L499.963 213.39V220.596ZM502.935 211.635L500.103 213.162L496.836 211.397L503.511 207.794L506.778 209.559L502.935 211.635Z" fill="#494949"/>
<path d="M497.344 213.322L496.053 212.624C495.913 212.546 495.767 212.541 495.648 212.604C495.513 212.677 495.435 212.832 495.435 213.026C495.435 213.356 495.648 213.725 495.913 213.87L497.204 214.568C497.282 214.612 497.36 214.632 497.437 214.632C497.5 214.632 497.557 214.617 497.614 214.588C497.749 214.515 497.826 214.36 497.826 214.166C497.826 213.836 497.619 213.468 497.349 213.322H497.344ZM497.474 214.36C497.432 214.379 497.375 214.36 497.344 214.341L496.053 213.642C495.871 213.545 495.716 213.259 495.716 213.026C495.716 212.91 495.752 212.847 495.788 212.832C495.83 212.808 495.887 212.832 495.918 212.852L496.006 212.9C496.037 213.182 496.219 213.477 496.442 213.599L497.541 214.19C497.536 214.287 497.505 214.341 497.474 214.36Z" fill="white"/>
</svg>
