<svg width="89" height="71" viewBox="0 0 89 71" fill="none" xmlns="http://www.w3.org/2000/svg">
<path d="M19.5913 48.8968C19.7957 48.8511 19.9145 48.977 19.847 49.1864C19.7796 49.3957 19.5607 49.6041 19.3562 49.6497C19.1518 49.6954 19.033 49.5695 19.1005 49.3602C19.168 49.1508 19.3869 48.9425 19.5913 48.8968Z" fill="#818184"/>
<path d="M19.5634 48.9831C19.63 48.9647 19.6804 48.973 19.717 49.0007C19.7352 49.0385 19.7396 49.0957 19.7186 49.1606C19.6675 49.3194 19.4946 49.4789 19.3361 49.5234C19.2695 49.5418 19.219 49.5335 19.1824 49.5058C19.1643 49.468 19.1599 49.4108 19.1808 49.3459C19.232 49.1871 19.4072 49.0204 19.5634 48.9831Z" fill="#5E5E5E"/>
<path d="M19.3361 49.5234C19.4923 49.4861 19.6651 49.3266 19.7186 49.1606C19.7396 49.0956 19.7352 49.0385 19.717 49.0007C19.765 49.0401 19.7877 49.1112 19.7574 49.205C19.7063 49.3638 19.5311 49.5305 19.3749 49.5678C19.2761 49.5917 19.2097 49.5624 19.1824 49.5057C19.219 49.5335 19.2718 49.5345 19.3361 49.5234Z" fill="#757575"/>
<path d="M19.6425 48.7376C19.3461 48.8095 19.0304 49.1061 18.9327 49.4093C18.835 49.7125 18.9972 49.8923 19.3004 49.8226C19.6036 49.753 19.9124 49.4541 20.0101 49.1509C20.1078 48.8478 19.9457 48.668 19.6425 48.7376ZM19.3493 49.6472C19.1518 49.695 19.0399 49.5713 19.105 49.3692C19.1701 49.1671 19.3867 48.966 19.5843 48.9181C19.7819 48.8702 19.8938 48.9939 19.8286 49.196C19.7635 49.3982 19.5469 49.5993 19.3493 49.6472Z" fill="#2B2927"/>
<path d="M18.9283 48.8584C19.0021 48.7706 19.0965 48.6895 19.1932 48.625C19.2783 48.5728 19.3588 48.535 19.4484 48.516C19.5954 48.4837 19.7146 48.5142 19.7763 48.5818L19.9635 48.8015C19.8973 48.7244 19.7849 48.6962 19.6356 48.7357C19.5529 48.7569 19.4655 48.7925 19.3804 48.8447C19.2837 48.9092 19.1916 48.9831 19.1155 49.0781C19.0301 49.1781 18.9631 49.2919 18.9259 49.4074C18.877 49.559 18.8926 49.6756 18.9588 49.7527L18.7716 49.533C18.7054 49.4559 18.6898 49.3393 18.7387 49.1877C18.7759 49.0722 18.8429 48.9584 18.9283 48.8584Z" fill="url(#paint0_linear_82_12901)"/>
<path d="M19.3674 49.1906C19.3674 49.1906 19.4112 49.1489 19.4319 49.1317C19.4503 49.1217 19.4687 49.1117 19.494 49.1039C19.5285 49.0911 19.556 49.1 19.5719 49.1211L19.5993 49.1538C19.5993 49.1538 19.5535 49.1311 19.5214 49.1366C19.5053 49.1394 19.48 49.1472 19.4593 49.1644C19.4386 49.1817 19.411 49.1967 19.3948 49.2233C19.3717 49.2478 19.3556 49.2744 19.3463 49.3033C19.3346 49.3394 19.3391 49.3727 19.3574 49.3866L19.33 49.3538C19.33 49.3538 19.3072 49.3067 19.3189 49.2706C19.3282 49.2417 19.3375 49.2128 19.3674 49.1906Z" fill="#757575"/>
<path d="M19.5214 49.1366C19.5949 49.1204 19.6314 49.172 19.6105 49.237C19.5895 49.3019 19.5111 49.3803 19.4376 49.3964C19.3641 49.4126 19.3277 49.361 19.3486 49.296C19.3719 49.2239 19.4479 49.1527 19.5214 49.1366Z" fill="#818184"/>
<path d="M19.7272 48.263L19.4121 49.4763C19.3911 49.5412 19.4023 49.6006 19.4366 49.6356L19.238 49.4042C19.2037 49.3693 19.1994 49.3121 19.2134 49.2449L19.5285 48.0317L19.7272 48.263Z" fill="#818184"/>
<path d="M20.2498 47.8656L20.4484 48.0969L19.7272 48.2629L19.5285 48.0315L20.2498 47.8656Z" fill="#AAAFAF"/>
<path d="M20.4484 48.0967L19.8773 49.6099L19.6063 49.6739C19.4592 49.7062 19.3724 49.6225 19.4121 49.4759L19.7272 48.2626L20.4416 48.0945L20.4484 48.0967Z" fill="#5E5E5E"/>
<path d="M20.0547 49.4363C20.2592 49.3907 20.378 49.5166 20.3105 49.7259C20.243 49.9353 20.0241 50.1436 19.8197 50.1893C19.6152 50.235 19.4965 50.109 19.5639 49.8997C19.6314 49.6904 19.8503 49.482 20.0547 49.4363Z" fill="#818184"/>
<path d="M20.0268 49.5231C20.0934 49.5047 20.1439 49.5131 20.1805 49.5408C20.1987 49.5785 20.203 49.6357 20.1821 49.7007C20.1309 49.8595 19.9581 50.0189 19.7996 50.0635C19.7329 50.0818 19.6825 50.0735 19.6459 50.0458C19.6277 50.0081 19.6234 49.9509 19.6443 49.8859C19.6955 49.7271 19.8706 49.5604 20.0268 49.5231Z" fill="#5E5E5E"/>
<path d="M19.8019 50.0561C19.9581 50.0188 20.1309 49.8593 20.1844 49.6933C20.2053 49.6283 20.201 49.5712 20.1828 49.5334C20.2332 49.5656 20.2535 49.6439 20.2232 49.7377C20.172 49.8965 19.9969 50.0632 19.8407 50.1005C19.7419 50.1244 19.6755 50.0951 19.6482 50.0385C19.6848 50.0662 19.7376 50.0673 19.8019 50.0561Z" fill="#757575"/>
<path d="M20.1014 49.2679C19.8051 49.3397 19.4894 49.6364 19.3917 49.9396C19.294 50.2428 19.4561 50.4225 19.7593 50.3529C20.0556 50.2811 20.3713 49.9844 20.469 49.6812C20.5667 49.378 20.4046 49.1983 20.1014 49.2679ZM19.8083 50.1774C19.6107 50.2253 19.4988 50.1016 19.5639 49.8995C19.6291 49.6974 19.8457 49.4963 20.0432 49.4484C20.2408 49.4005 20.3527 49.5242 20.2876 49.7263C20.2224 49.9284 20.0058 50.1296 19.8083 50.1774Z" fill="#2B2927"/>
<path d="M19.3941 49.3906C19.4679 49.3028 19.5623 49.2217 19.659 49.1573C19.7441 49.105 19.8246 49.0672 19.9142 49.0483C20.0612 49.016 20.1804 49.0464 20.242 49.1141L20.4292 49.3338C20.363 49.2567 20.2507 49.2284 20.1014 49.2679C20.0187 49.2891 19.9313 49.3247 19.8462 49.377C19.7495 49.4414 19.6574 49.5153 19.5813 49.6103C19.4959 49.7103 19.4289 49.8241 19.3917 49.9396C19.3428 50.0912 19.3583 50.2078 19.4246 50.2849L19.2374 50.0652C19.1711 49.9881 19.1556 49.8716 19.2044 49.72C19.2417 49.6045 19.3087 49.4906 19.3941 49.3906Z" fill="url(#paint1_linear_82_12901)"/>
<path d="M19.8332 49.7233C19.8332 49.7233 19.877 49.6816 19.8977 49.6644C19.9161 49.6544 19.9345 49.6444 19.9598 49.6366C19.9943 49.6238 20.0218 49.6327 20.0378 49.6538L20.0652 49.6865C20.0652 49.6865 20.0194 49.6638 19.9872 49.6694C19.9711 49.6721 19.9459 49.6799 19.9251 49.6972C19.9044 49.7144 19.8768 49.7294 19.8606 49.7561C19.8376 49.7805 19.8214 49.8072 19.8121 49.836C19.8005 49.8721 19.8049 49.9054 19.8232 49.9193L19.7958 49.8866C19.7958 49.8866 19.7731 49.8394 19.7847 49.8033C19.794 49.7744 19.8033 49.7456 19.8332 49.7233Z" fill="#757575"/>
<path d="M19.9849 49.6766C20.0584 49.6605 20.0949 49.7121 20.0739 49.777C20.0507 49.8492 19.9746 49.9203 19.9011 49.9365C19.8276 49.9526 19.7911 49.901 19.8121 49.8361C19.8353 49.7639 19.9114 49.6928 19.9849 49.6766Z" fill="#818184"/>
<path d="M40.6696 45.0436C40.8832 44.9929 40.9996 45.126 40.9299 45.3426C40.8601 45.5591 40.632 45.7725 40.4183 45.8232C40.2047 45.8738 40.0882 45.7407 40.158 45.5241C40.2278 45.3076 40.4559 45.0942 40.6696 45.0436Z" fill="#818184"/>
<path d="M40.6485 45.1327C40.7152 45.1144 40.7725 45.1249 40.8091 45.1526C40.8341 45.1925 40.8316 45.2475 40.8084 45.3197C40.7548 45.4857 40.5797 45.6524 40.4143 45.6947C40.3477 45.7131 40.2904 45.7026 40.2538 45.6748C40.2287 45.6349 40.2312 45.5799 40.2545 45.5078C40.308 45.3417 40.4831 45.175 40.6485 45.1327Z" fill="#5E5E5E"/>
<path d="M40.4143 45.6944C40.5797 45.6521 40.7548 45.4854 40.8083 45.3194C40.8293 45.2545 40.8249 45.1973 40.8091 45.1523C40.864 45.1939 40.8797 45.2627 40.854 45.366C40.8005 45.532 40.6254 45.6987 40.46 45.741C40.3612 45.765 40.2948 45.7356 40.2606 45.6768C40.2972 45.7045 40.3569 45.7078 40.4212 45.6967L40.4143 45.6944Z" fill="#757575"/>
<path d="M40.7231 44.8775C40.4175 44.9544 40.0834 45.261 39.9834 45.5714C39.8834 45.8818 40.057 46.0732 40.3602 46.0036C40.6657 45.9268 40.9998 45.6201 41.0998 45.3097C41.1999 44.9993 41.0263 44.8079 40.7231 44.8775ZM40.4207 45.8159C40.2139 45.8688 40.0974 45.7357 40.1649 45.5263C40.2324 45.317 40.4513 45.1087 40.658 45.0558C40.8648 45.0029 40.9813 45.136 40.9138 45.3454C40.8463 45.5547 40.6274 45.763 40.4207 45.8159Z" fill="#2B2927"/>
<path d="M39.9928 45.001C40.0758 44.9082 40.1703 44.8271 40.2669 44.7626C40.3521 44.7104 40.4417 44.6676 40.5313 44.6486C40.6875 44.6113 40.8067 44.6418 40.8729 44.7189L41.0716 44.9502C41.0053 44.8731 40.8861 44.8427 40.7299 44.88C40.6404 44.8989 40.5507 44.9417 40.4656 44.994C40.362 45.0562 40.2676 45.1374 40.1914 45.2323C40.1038 45.3395 40.0275 45.4584 39.9903 45.5739C39.9414 45.7255 39.9615 45.8515 40.0277 45.9286L39.8291 45.6973C39.7629 45.6201 39.7428 45.4941 39.7917 45.3426C39.8289 45.2271 39.8982 45.106 39.9928 45.001Z" fill="url(#paint2_linear_82_12901)"/>
<path d="M40.4434 45.3456C40.4434 45.3456 40.4871 45.3039 40.5079 45.2867C40.5263 45.2767 40.5539 45.2617 40.5699 45.2589C40.6113 45.2483 40.6388 45.2572 40.6548 45.2783L40.6822 45.311C40.6822 45.311 40.6364 45.2883 40.5973 45.2916C40.5744 45.2922 40.5537 45.3094 40.5353 45.3195C40.5077 45.3345 40.4869 45.3517 40.4707 45.3783C40.4477 45.4028 40.4315 45.4294 40.4222 45.4583C40.4106 45.4944 40.415 45.5277 40.431 45.5488L40.4036 45.5161C40.4036 45.5161 40.3809 45.4689 40.3948 45.4256C40.4041 45.3967 40.4203 45.37 40.4434 45.3456Z" fill="#757575"/>
<path d="M40.6042 45.2938C40.6777 45.2776 40.7234 45.3242 40.7001 45.3964C40.6769 45.4686 40.5985 45.5469 40.525 45.5631C40.4515 45.5792 40.4058 45.5327 40.4291 45.4605C40.4523 45.3883 40.5307 45.3099 40.6042 45.2938Z" fill="#818184"/>
<path d="M40.8295 43.6293L40.4925 45.6403C40.4693 45.7125 40.4805 45.7719 40.5148 45.8068L40.3116 45.566C40.2773 45.5311 40.2661 45.4717 40.2894 45.3995L40.6263 43.3885L40.8364 43.6315L40.8295 43.6293Z" fill="#818184"/>
<path d="M41.366 43.2127L41.5761 43.4557L40.8295 43.6294L40.624 43.3959L41.366 43.2127Z" fill="#AAAFAF"/>
<path d="M41.5761 43.4555L40.9716 45.7786L40.6913 45.8477C40.5351 45.885 40.4506 45.794 40.4902 45.6474L40.8272 43.6364L41.5737 43.4627L41.5761 43.4555Z" fill="#5E5E5E"/>
<path d="M41.1582 45.5997C41.3719 45.549 41.4883 45.6822 41.4185 45.8987C41.3487 46.1153 41.1206 46.3286 40.907 46.3793C40.6934 46.43 40.5769 46.2969 40.6467 46.0803C40.7165 45.8637 40.9446 45.6504 41.1582 45.5997Z" fill="#818184"/>
<path d="M41.128 45.6933C41.1946 45.6749 41.2519 45.6854 41.2885 45.7131C41.3136 45.7531 41.3111 45.8081 41.2878 45.8802C41.2343 46.0463 41.0592 46.2129 40.8938 46.2553C40.8271 46.2736 40.7698 46.2631 40.7332 46.2354C40.7081 46.1954 40.7107 46.1405 40.7339 46.0683C40.7874 45.9023 40.9626 45.7356 41.128 45.6933Z" fill="#5E5E5E"/>
<path d="M40.8961 46.2481C41.0615 46.2058 41.2366 46.0392 41.2901 45.8731C41.3111 45.8082 41.3067 45.751 41.2909 45.706C41.3458 45.7476 41.3615 45.8164 41.3358 45.9197C41.2823 46.0858 41.1072 46.2524 40.9418 46.2947C40.843 46.3187 40.7766 46.2893 40.7424 46.2305C40.779 46.2582 40.8387 46.2615 40.903 46.2504L40.8961 46.2481Z" fill="#757575"/>
<path d="M41.2049 45.4312C40.8993 45.5081 40.5652 45.8147 40.4652 46.1251C40.3652 46.4355 40.5387 46.627 40.842 46.5573C41.1452 46.4877 41.4816 46.1738 41.5816 45.8634C41.6816 45.553 41.5081 45.3616 41.2049 45.4312ZM40.9024 46.3696C40.6957 46.4225 40.5792 46.2894 40.6467 46.0801C40.7142 45.8707 40.9331 45.6624 41.1398 45.6095C41.3466 45.5566 41.463 45.6897 41.3956 45.8991C41.3281 46.1084 41.1092 46.3168 40.9024 46.3696Z" fill="#2B2927"/>
<path d="M40.4746 45.5547C40.5576 45.4619 40.652 45.3808 40.7487 45.3163C40.8338 45.2641 40.9235 45.2213 41.0131 45.2023C41.1693 45.165 41.2885 45.1955 41.3547 45.2726L41.5534 45.5039C41.4871 45.4268 41.368 45.3964 41.2117 45.4337C41.1222 45.4526 41.0325 45.4954 40.9473 45.5477C40.8438 45.6099 40.7494 45.6911 40.6732 45.7861C40.5855 45.8933 40.5093 46.0121 40.4721 46.1276C40.4232 46.2792 40.4433 46.4052 40.5095 46.4823L40.3109 46.251C40.2447 46.1739 40.2246 46.0479 40.2734 45.8963C40.3107 45.7808 40.3801 45.6597 40.4746 45.5547Z" fill="url(#paint3_linear_82_12901)"/>
<path d="M40.9297 45.9086C40.9297 45.9086 40.9735 45.8669 40.9942 45.8497C41.0126 45.8397 41.0402 45.8247 41.0563 45.8219C41.0976 45.8113 41.1251 45.8202 41.1411 45.8413L41.1685 45.874C41.1685 45.874 41.1227 45.8513 41.0837 45.8546C41.0607 45.8552 41.04 45.8724 41.0216 45.8824C40.994 45.8974 40.9733 45.9147 40.9571 45.9413C40.934 45.9658 40.9178 45.9924 40.9085 46.0213C40.8969 46.0574 40.9014 46.0907 40.9173 46.1118L40.8899 46.0791C40.8899 46.0791 40.8672 46.0319 40.8811 45.9886C40.8904 45.9597 40.9066 45.933 40.9297 45.9086Z" fill="#757575"/>
<path d="M41.0837 45.8548C41.1572 45.8387 41.2029 45.8853 41.1796 45.9575C41.1563 46.0296 41.078 46.108 41.0045 46.1241C40.931 46.1403 40.8853 46.0937 40.9085 46.0215C40.9318 45.9493 41.0102 45.871 41.0837 45.8548Z" fill="#818184"/>
<path d="M39.4199 45.3429C39.6335 45.2922 39.7499 45.4254 39.6801 45.6419C39.6104 45.8585 39.3822 46.0718 39.1686 46.1225C38.955 46.1732 38.8385 46.04 38.9083 45.8235C38.9781 45.6069 39.2062 45.3936 39.4199 45.3429Z" fill="#818184"/>
<path d="M39.3896 45.4364C39.4562 45.4181 39.5136 45.4286 39.5502 45.4563C39.5752 45.4963 39.5727 45.5512 39.5494 45.6234C39.4959 45.7894 39.3208 45.9561 39.1554 45.9984C39.0888 46.0168 39.0314 46.0063 38.9948 45.9786C38.9698 45.9386 38.9723 45.8836 38.9956 45.8115C39.0491 45.6454 39.2242 45.4788 39.3896 45.4364Z" fill="#5E5E5E"/>
<path d="M39.1577 45.9913C39.3231 45.949 39.4983 45.7823 39.5518 45.6163C39.5727 45.5513 39.5684 45.4941 39.5525 45.4492C39.6074 45.4908 39.6231 45.5596 39.5975 45.6629C39.5439 45.8289 39.3688 45.9956 39.2034 46.0379C39.1046 46.0618 39.0382 46.0325 39.004 45.9736C39.0406 46.0014 39.1003 46.0047 39.1646 45.9935L39.1577 45.9913Z" fill="#757575"/>
<path d="M39.4665 45.1744C39.161 45.2512 38.8269 45.5579 38.7268 45.8683C38.6268 46.1787 38.8004 46.3701 39.1036 46.3005C39.4068 46.2309 39.7432 45.917 39.8432 45.6066C39.9433 45.2962 39.7697 45.1048 39.4665 45.1744ZM39.1641 46.1128C38.9573 46.1657 38.8409 46.0325 38.9083 45.8232C38.9758 45.6139 39.1947 45.4055 39.4015 45.3526C39.6082 45.2998 39.7247 45.4329 39.6572 45.6422C39.5897 45.8516 39.3708 46.0599 39.1641 46.1128Z" fill="#2B2927"/>
<path d="M38.7362 45.2979C38.8192 45.2051 38.9137 45.124 39.0103 45.0595C39.0955 45.0073 39.1852 44.9644 39.2747 44.9455C39.431 44.9082 39.5502 44.9386 39.6164 45.0158L39.815 45.2471C39.7488 45.17 39.6296 45.1395 39.4734 45.1769C39.3838 45.1958 39.2941 45.2386 39.209 45.2909C39.1054 45.3531 39.011 45.4342 38.9349 45.5292C38.8472 45.6364 38.7709 45.7553 38.7337 45.8708C38.6849 46.0224 38.705 46.1484 38.7712 46.2255L38.5725 45.9941C38.5063 45.917 38.4862 45.791 38.5351 45.6394C38.5723 45.5239 38.6417 45.4029 38.7362 45.2979Z" fill="url(#paint4_linear_82_12901)"/>
<path d="M39.1914 45.6518C39.1914 45.6518 39.2351 45.6101 39.2559 45.5929C39.2743 45.5829 39.3019 45.5679 39.3179 45.5651C39.3593 45.5545 39.3868 45.5633 39.4028 45.5844L39.4302 45.6172C39.4302 45.6172 39.3844 45.5944 39.3453 45.5978C39.3224 45.5984 39.3017 45.6156 39.2833 45.6256C39.2557 45.6406 39.2349 45.6578 39.2187 45.6845C39.1957 45.7089 39.1795 45.7356 39.1702 45.7645C39.1586 45.8006 39.163 45.8339 39.179 45.855L39.1516 45.8222C39.1516 45.8222 39.1289 45.7751 39.1428 45.7317C39.1521 45.7029 39.1683 45.6762 39.1914 45.6518Z" fill="#757575"/>
<path d="M39.3453 45.5978C39.4188 45.5817 39.4577 45.626 39.4413 45.7004C39.4249 45.7748 39.3396 45.851 39.2661 45.8671C39.1926 45.8833 39.1538 45.8389 39.1702 45.7645C39.1935 45.6923 39.2718 45.614 39.3453 45.5978Z" fill="#818184"/>
<path d="M39.5706 43.933L39.2336 45.944C39.2104 46.0162 39.2216 46.0756 39.2559 46.1105L39.0527 45.8698C39.0184 45.8348 39.0072 45.7754 39.0304 45.7032L39.3674 43.6922L39.5706 43.933Z" fill="#818184"/>
<path d="M40.114 43.5186L40.3195 43.7522L39.5706 43.9331L39.3674 43.6924L40.114 43.5186Z" fill="#AAAFAF"/>
<path d="M40.3195 43.7519L39.715 46.075L39.4347 46.1441C39.2785 46.1814 39.194 46.0904 39.2336 45.9438L39.5706 43.9328L40.3172 43.7591L40.3195 43.7519Z" fill="#5E5E5E"/>
<path d="M39.8993 45.9034C40.113 45.8528 40.2294 45.9859 40.1596 46.2024C40.0898 46.419 39.8617 46.6324 39.6481 46.683C39.4344 46.7337 39.318 46.6006 39.3878 46.384C39.4576 46.1674 39.6857 45.9541 39.8993 45.9034Z" fill="#818184"/>
<path d="M39.8714 45.9902C39.938 45.9718 39.9954 45.9823 40.0319 46.01C40.057 46.05 40.0545 46.1049 40.0312 46.1771C39.9777 46.3431 39.8026 46.5098 39.6372 46.5521C39.5705 46.5705 39.5132 46.56 39.4766 46.5323C39.4516 46.4923 39.4541 46.4374 39.4774 46.3652C39.5309 46.1991 39.706 46.0325 39.8714 45.9902Z" fill="#5E5E5E"/>
<path d="M39.6372 46.5518C39.8026 46.5095 39.9777 46.3429 40.0312 46.1768C40.0522 46.1119 40.0478 46.0547 40.032 46.0097C40.0869 46.0513 40.1026 46.1202 40.0769 46.2234C40.0234 46.3895 39.8483 46.5561 39.6829 46.5985C39.5841 46.6224 39.5177 46.593 39.4835 46.5342C39.5201 46.5619 39.5798 46.5652 39.6441 46.5541L39.6372 46.5518Z" fill="#757575"/>
<path d="M39.9483 45.7281C39.6428 45.8049 39.3087 46.1116 39.2087 46.422C39.1086 46.7324 39.2822 46.9238 39.5854 46.8542C39.8909 46.7774 40.225 46.4707 40.3251 46.1603C40.4251 45.8499 40.2515 45.6585 39.9483 45.7281ZM39.6459 46.6665C39.4391 46.7194 39.3227 46.5863 39.3901 46.3769C39.4576 46.1676 39.6765 45.9592 39.8833 45.9063C40.09 45.8535 40.2065 45.9866 40.139 46.1959C40.0716 46.4053 39.8526 46.6136 39.6459 46.6665Z" fill="#2B2927"/>
<path d="M39.2157 45.8584C39.2987 45.7656 39.3932 45.6845 39.4898 45.6201C39.575 45.5678 39.6646 45.525 39.7542 45.5061C39.9104 45.4687 40.0296 45.4992 40.0958 45.5763L40.2945 45.8077C40.2282 45.7305 40.1091 45.7001 39.9529 45.7374C39.8633 45.7563 39.7736 45.7992 39.6885 45.8514C39.5849 45.9137 39.4905 45.9948 39.4143 46.0898C39.3267 46.197 39.2504 46.3158 39.2132 46.4313C39.1643 46.5829 39.1844 46.7089 39.2506 46.786L39.052 46.5547C38.9858 46.4776 38.9657 46.3516 39.0146 46.2C39.0518 46.0845 39.1211 45.9634 39.2157 45.8584Z" fill="url(#paint5_linear_82_12901)"/>
<path d="M39.6731 46.205C39.6731 46.205 39.7169 46.1633 39.7376 46.1461C39.756 46.1361 39.7836 46.1211 39.7997 46.1183C39.8411 46.1077 39.8686 46.1166 39.8845 46.1377L39.9119 46.1704C39.9119 46.1704 39.8661 46.1477 39.8271 46.151C39.8042 46.1516 39.7834 46.1688 39.765 46.1788C39.7374 46.1938 39.7167 46.2111 39.7005 46.2377C39.6775 46.2622 39.6613 46.2888 39.652 46.3177C39.6403 46.3538 39.6448 46.3871 39.6608 46.4082L39.6334 46.3754C39.6334 46.3754 39.6106 46.3283 39.6246 46.285C39.6339 46.2561 39.6501 46.2294 39.6731 46.205Z" fill="#757575"/>
<path d="M39.8271 46.1512C39.9006 46.1351 39.9394 46.1794 39.923 46.2538C39.8998 46.326 39.8214 46.4044 39.7479 46.4205C39.6744 46.4367 39.6356 46.3923 39.652 46.3179C39.6752 46.2457 39.7536 46.1674 39.8271 46.1512Z" fill="#818184"/>
<path d="M38.161 45.6461C38.3747 45.5954 38.4911 45.7286 38.4213 45.9451C38.3516 46.1617 38.1234 46.375 37.9098 46.4257C37.6962 46.4764 37.5797 46.3432 37.6495 46.1267C37.7193 45.9101 37.9474 45.6968 38.161 45.6461Z" fill="#818184"/>
<path d="M38.1331 45.7328C38.1998 45.7145 38.2571 45.725 38.2937 45.7527C38.3187 45.7926 38.3162 45.8476 38.293 45.9198C38.2395 46.0858 38.0643 46.2525 37.8989 46.2948C37.8323 46.3132 37.775 46.3027 37.7384 46.2749C37.7133 46.235 37.7158 46.18 37.7391 46.1078C37.7926 45.9418 37.9677 45.7751 38.1331 45.7328Z" fill="#5E5E5E"/>
<path d="M37.8989 46.295C38.0643 46.2527 38.2395 46.086 38.293 45.92C38.3139 45.855 38.3096 45.7979 38.2937 45.7529C38.3486 45.7945 38.3643 45.8633 38.3386 45.9666C38.2851 46.1326 38.11 46.2993 37.9446 46.3416C37.8458 46.3656 37.7794 46.3362 37.7452 46.2774C37.7818 46.3051 37.8415 46.3084 37.9058 46.2972L37.8989 46.295Z" fill="#757575"/>
<path d="M38.2169 45.4732C37.9113 45.5501 37.5773 45.8567 37.4772 46.1671C37.3772 46.4775 37.5508 46.6689 37.854 46.5993C38.1595 46.5225 38.4936 46.2158 38.5936 45.9054C38.6937 45.595 38.5201 45.4036 38.2169 45.4732ZM37.9144 46.4116C37.7077 46.4645 37.5912 46.3314 37.6587 46.122C37.7262 45.9127 37.9451 45.7044 38.1518 45.6515C38.3586 45.5986 38.475 45.7317 38.4076 45.9411C38.3401 46.1504 38.1212 46.3587 37.9144 46.4116Z" fill="#2B2927"/>
<path d="M37.4774 45.6011C37.5604 45.5083 37.6549 45.4272 37.7515 45.3627C37.8367 45.3105 37.9263 45.2677 38.0159 45.2487C38.1721 45.2114 38.2913 45.2419 38.3575 45.319L38.5562 45.5503C38.49 45.4732 38.3708 45.4428 38.2146 45.4801C38.125 45.499 38.0353 45.5418 37.9502 45.5941C37.8466 45.6563 37.7522 45.7375 37.676 45.8324C37.5884 45.9397 37.5121 46.0585 37.4749 46.174C37.426 46.3256 37.4461 46.4516 37.5124 46.5287L37.3137 46.2974C37.2475 46.2203 37.2274 46.0942 37.2763 45.9427C37.3135 45.8272 37.3829 45.7061 37.4774 45.6011Z" fill="url(#paint6_linear_82_12901)"/>
<path d="M37.9348 45.9477C37.9348 45.9477 37.9786 45.906 37.9993 45.8888C38.0177 45.8788 38.0454 45.8638 38.0614 45.861C38.1028 45.8504 38.1303 45.8592 38.1463 45.8803L38.1736 45.9131C38.1736 45.9131 38.1279 45.8903 38.0888 45.8937C38.0659 45.8943 38.0451 45.9115 38.0267 45.9215C37.9991 45.9365 37.9784 45.9537 37.9622 45.9804C37.9392 46.0048 37.923 46.0315 37.9137 46.0604C37.9021 46.0965 37.9065 46.1298 37.9225 46.1508L37.8951 46.1181C37.8951 46.1181 37.8723 46.071 37.8863 46.0276C37.8956 45.9988 37.9118 45.9721 37.9348 45.9477Z" fill="#757575"/>
<path d="M38.0888 45.8939C38.1623 45.8777 38.208 45.9243 38.1847 45.9965C38.1615 46.0687 38.0831 46.147 38.0096 46.1632C37.9361 46.1793 37.8904 46.1327 37.9137 46.0606C37.9369 45.9884 38.0153 45.91 38.0888 45.8939Z" fill="#818184"/>
<path d="M38.321 44.2314L37.9841 46.2423C37.9608 46.3145 37.972 46.3739 38.0063 46.4089L37.8031 46.1681C37.7688 46.1331 37.7576 46.0737 37.7809 46.0016L38.1178 43.9906L38.321 44.2314Z" fill="#818184"/>
<path d="M38.8575 43.8145L39.0607 44.0553L38.321 44.2313L38.1109 43.9883L38.8575 43.8145Z" fill="#AAAFAF"/>
<path d="M39.0607 44.0551L38.4562 46.3782L38.1759 46.4473C38.0197 46.4846 37.9352 46.3936 37.9749 46.247L38.3118 44.2361L39.0584 44.0623L39.0607 44.0551Z" fill="#5E5E5E"/>
<path d="M38.6428 46.1993C38.8565 46.1486 38.9729 46.2818 38.9031 46.4983C38.8333 46.7149 38.6052 46.9282 38.3916 46.9789C38.1779 47.0296 38.0615 46.8965 38.1313 46.6799C38.2011 46.4633 38.4292 46.25 38.6428 46.1993Z" fill="#818184"/>
<path d="M38.6149 46.2861C38.6815 46.2677 38.7389 46.2782 38.7755 46.3059C38.8005 46.3459 38.798 46.4008 38.7747 46.473C38.7212 46.639 38.5461 46.8057 38.3807 46.848C38.3141 46.8664 38.2567 46.8559 38.2201 46.8282C38.1951 46.7882 38.1976 46.7333 38.2209 46.6611C38.2744 46.495 38.4495 46.3284 38.6149 46.2861Z" fill="#5E5E5E"/>
<path d="M38.3807 46.8482C38.5461 46.8059 38.7212 46.6392 38.7748 46.4732C38.7957 46.4082 38.7913 46.3511 38.7755 46.3061C38.8304 46.3477 38.8461 46.4165 38.8204 46.5198C38.7669 46.6858 38.5918 46.8525 38.4264 46.8948C38.3276 46.9188 38.2612 46.8894 38.227 46.8306C38.2636 46.8583 38.3233 46.8616 38.3876 46.8504L38.3807 46.8482Z" fill="#757575"/>
<path d="M38.6987 46.0264C38.3931 46.1033 38.059 46.41 37.959 46.7204C37.859 47.0308 38.0325 47.2222 38.3358 47.1525C38.639 47.0829 38.9754 46.769 39.0754 46.4586C39.1755 46.1482 39.0019 45.9568 38.6987 46.0264ZM38.3962 46.9649C38.1895 47.0178 38.073 46.8846 38.1405 46.6753C38.208 46.4659 38.4269 46.2576 38.6336 46.2047C38.8404 46.1518 38.9569 46.285 38.8894 46.4943C38.8219 46.7036 38.603 46.912 38.3962 46.9649Z" fill="#2B2927"/>
<path d="M37.9592 46.1543C38.0422 46.0615 38.1367 45.9804 38.2333 45.916C38.3185 45.8637 38.4081 45.8209 38.4977 45.802C38.6539 45.7646 38.7731 45.7951 38.8393 45.8722L39.038 46.1036C38.9717 46.0264 38.8525 45.996 38.6963 46.0333C38.6068 46.0522 38.5171 46.0951 38.432 46.1473C38.3284 46.2096 38.234 46.2907 38.1578 46.3857C38.0702 46.4929 37.9939 46.6117 37.9567 46.7272C37.9078 46.8788 37.9279 47.0048 37.9941 47.0819L37.7955 46.8506C37.7293 46.7735 37.7092 46.6475 37.7581 46.4959C37.7953 46.3804 37.8646 46.2593 37.9592 46.1543Z" fill="url(#paint7_linear_82_12901)"/>
<path d="M38.4166 46.5009C38.4166 46.5009 38.4604 46.4592 38.4812 46.442C38.4996 46.432 38.5272 46.417 38.5432 46.4142C38.5846 46.4036 38.6121 46.4125 38.628 46.4336L38.6554 46.4663C38.6554 46.4663 38.6096 46.4436 38.5706 46.4469C38.5477 46.4475 38.5269 46.4647 38.5085 46.4747C38.4809 46.4897 38.4602 46.507 38.444 46.5336C38.421 46.5581 38.4048 46.5847 38.3955 46.6136C38.3839 46.6497 38.3883 46.683 38.4043 46.7041L38.3769 46.6713C38.3769 46.6713 38.3541 46.6242 38.3681 46.5809C38.3774 46.552 38.3936 46.5253 38.4166 46.5009Z" fill="#757575"/>
<path d="M38.5706 46.4471C38.6441 46.431 38.6898 46.4776 38.6665 46.5497C38.6433 46.6219 38.5649 46.7003 38.4914 46.7164C38.4179 46.7326 38.3722 46.686 38.3955 46.6138C38.4187 46.5416 38.4971 46.4633 38.5706 46.4471Z" fill="#818184"/>
<path d="M33.7344 45.6537L36.3861 46.4206L46.3947 44.0444L49.0485 41.7202L37.7654 40.61L33.7344 45.6537Z" fill="#A32B1D"/>
<path d="M61.0455 32.821C58.5488 32.8211 55.0911 33.2129 51.7748 33.8254C51.203 33.928 36.6849 36.851 28.3199 38.5776C25.1663 39.2267 22.2216 39.8634 21.8862 39.9625C21.1762 40.164 20.5003 40.4481 19.8632 40.7767C18.7868 41.3382 17.8765 42.2082 17.1676 43.2308C16.0366 43.6791 14.9713 44.8418 14.5285 45.8863C14.2687 46.5038 14.4331 47.2182 14.9178 47.6453C16.4585 49.0104 19.7321 49.2367 22.7965 48.511C33.1084 46.0652 49.5222 42.016 53.3929 41.0961C59.6297 39.6159 63.4835 35.2163 63.6469 34.0498C63.7961 32.9982 62.342 32.8244 61.05 32.8304L61.0455 32.821Z" fill="url(#paint8_linear_82_12901)"/>
<path d="M14.8617 45.253C14.5942 46.0831 15.54 47.0334 17.9874 47.3041C20.882 47.6234 36.8531 44.0531 48.2249 41.144C50.0056 40.6342 51.7037 40.1217 53.4965 38.9384C54.134 38.5144 54.6851 37.9111 54.8972 37.1587C55.3679 35.5096 54.4994 33.6599 52.6544 33.663C55.6904 33.1433 58.7622 32.8185 61.0386 32.819C62.3375 32.8153 63.7847 32.9869 63.6355 34.0384C63.5171 34.8768 61.9099 36.6617 60.0199 38.0287C56.3274 40.7034 54.3969 40.8303 42.9568 43.6217C41.1535 44.0605 38.6753 45.0627 34.1125 45.7755C33.1316 46.0172 32.153 46.2516 31.1813 46.4883C28.4568 47.1481 25.1443 47.9372 22.7851 48.4997C19.7207 49.2253 16.4447 49.0062 14.9132 47.6362C14.4355 47.2113 14.2619 46.5019 14.5193 45.8916C14.6097 45.6817 14.7254 45.464 14.8548 45.2507L14.8617 45.253Z" fill="url(#paint9_linear_82_12901)"/>
<g style="mix-blend-mode:screen" opacity="0.5">
<path d="M22.3628 40.108C23.2957 39.827 27.6577 38.8661 31.59 38.0377C31.9191 38.335 32.2298 38.6662 32.5543 38.978C28.6884 39.8358 24.0141 40.8474 23.1433 41.1006C20.7744 41.7874 20.0379 42.2831 19.3116 42.0172C18.7549 41.8139 19.6928 40.905 22.3628 40.108Z" fill="#F3F2EA"/>
</g>
<g style="mix-blend-mode:screen" opacity="0.2">
<path d="M32.8377 40.8065C32.8373 40.902 32.6021 41.1609 32.7121 41.1963C33.6722 41.5137 34.749 42.4345 34.934 42.6375C28.9039 44.0887 23.6503 45.32 23.074 44.8713C21.2193 43.421 26.6454 42.078 32.8285 40.8115L32.8377 40.8065Z" fill="#F3F2EA"/>
</g>
<g style="mix-blend-mode:multiply" opacity="0.3">
<path d="M24.1387 39.6364C23.9669 39.5811 23.7995 39.559 23.6388 39.563C23.7215 39.5418 23.818 39.5251 23.9075 39.5061C23.9947 39.5183 24.075 39.5282 24.1643 39.557C25.6149 40.0245 26.9406 42.2685 27.1211 44.5578C27.1844 45.3033 27.1057 45.9712 26.9312 46.5126C33.2989 45.0029 41.2979 43.0468 46.6619 41.7315C48.7639 41.2137 50.5925 40.7671 52.0328 40.4185C52.1679 39.9521 52.2232 39.3803 52.1755 38.7513C52.0146 36.7074 50.8393 34.7031 49.5537 34.2888C49.5262 34.2799 49.5033 34.2805 49.4758 34.2716C49.5332 34.2583 49.5975 34.2471 49.6457 34.2388C50.9288 34.708 52.0927 36.7007 52.2559 38.7374C52.3059 39.3591 52.253 39.9237 52.1247 40.3924C52.9908 40.1774 53.7144 40.0042 54.2634 39.8784C56.9097 39.2491 59.1028 38.3543 60.782 37.4531C60.6599 37.5493 60.531 37.6432 60.4089 37.7393C58.7806 38.5771 56.7233 39.3803 54.2837 39.9566C53.7255 40.0875 52.9835 40.2707 52.0945 40.4862C51.9409 40.9626 51.7007 41.3314 51.3898 41.5659C51.3003 41.5849 51.2084 41.611 51.1096 41.635C51.5097 41.4532 51.8166 41.066 51.9957 40.5102C50.5622 40.861 48.7589 41.2997 46.6822 41.8098C41.3021 43.1278 33.2779 45.0917 26.901 46.6065C26.729 47.0929 26.4658 47.4623 26.1389 47.6996C26.0562 47.7207 25.9666 47.7397 25.8839 47.7608C26.7117 47.3821 27.1668 46.1583 27.043 44.5645C26.8601 42.3063 25.5618 40.095 24.1387 39.6364Z" fill="#C2C1B7"/>
</g>
<path d="M21.8034 20.063C23.7914 19.8989 25.0436 22.1829 24.2835 23.3404C23.7842 23.6417 19.2148 24.8225 18.311 24.7305L17.4938 21.1204C17.4938 21.1204 17.4337 20.6947 21.8034 20.063Z" fill="url(#paint10_linear_82_12901)"/>
<path style="mix-blend-mode:screen" d="M20.1912 20.356C20.1912 20.356 19.4211 21.1915 19.6229 21.2246C20.8222 21.4119 21.9401 22.9117 21.8229 23.4874C20.7365 23.7031 19.2322 23.9912 19.0049 24.0136L17.5619 21.2856C17.5141 21.1984 17.549 21.0902 17.641 21.0401C18.1931 20.7399 19.0703 20.6083 20.1912 20.356Z" fill="url(#paint11_linear_82_12901)"/>
<path d="M18.5897 21.3461C19.1377 21.9769 19.3689 23.167 19.1037 23.9899C18.8385 24.8128 18.1723 24.9726 17.6243 24.3418C17.0763 23.711 16.8451 22.521 17.1103 21.6981C17.3756 20.8751 18.0417 20.7153 18.5897 21.3461Z" fill="#DBDAD0"/>
<path d="M18.5386 21.5051C19.0249 22.0682 19.2314 23.1229 18.9941 23.8592C18.7568 24.5955 18.1641 24.7391 17.6801 24.1688C17.1938 23.6057 16.9873 22.5511 17.2246 21.8148C17.4619 21.0785 18.0546 20.9348 18.5386 21.5051Z" fill="#3A3A3A"/>
<path d="M20.9959 20.0016L20.7859 19.7586L19.4197 20.9837L19.6298 21.2267L20.9959 20.0016Z" fill="#F9F8F0"/>
<path d="M22.1117 18.3057L20.9959 20.0019L20.7859 19.7589L21.7076 18.3587C21.8431 18.3386 21.9763 18.3257 22.1117 18.3057Z" fill="#DBDAD0"/>
<path d="M22.1117 18.3055C22.7914 18.2218 23.464 18.1596 24.1412 18.1069L23.4964 20.7199C23.4964 20.7199 21.1059 21.097 19.6206 21.2319L20.9867 20.0068L22.1025 18.3105L22.1117 18.3055Z" fill="#C2C1B7"/>
<path d="M25.7258 27.2715C27.7138 27.1074 28.9659 29.3914 28.2059 30.5489C27.7066 30.8502 23.1371 32.031 22.2334 31.939L21.4162 28.3289C21.4162 28.3289 21.3561 27.9032 25.7258 27.2715Z" fill="url(#paint12_linear_82_12901)"/>
<path style="mix-blend-mode:screen" d="M24.1136 27.5645C24.1136 27.5645 23.3435 28.4 23.5453 28.4331C24.7446 28.6204 25.8625 30.1202 25.7452 30.6959C24.6589 30.9116 23.1545 31.1997 22.9272 31.2221L21.4843 28.494C21.4365 28.4069 21.4714 28.2987 21.5634 28.2486C22.1154 27.9484 22.9926 27.8168 24.1136 27.5645Z" fill="url(#paint13_linear_82_12901)"/>
<path d="M22.5144 28.5473C23.0624 29.1781 23.2935 30.3681 23.0283 31.1911C22.7631 32.014 22.097 32.1738 21.549 31.543C21.001 30.9122 20.7698 29.7222 21.035 28.8992C21.3002 28.0763 21.9664 27.9165 22.5144 28.5473Z" fill="#DBDAD0"/>
<path d="M22.4609 28.7136C22.9472 29.2767 23.1537 30.3314 22.9164 31.0677C22.6791 31.804 22.0865 31.9476 21.6025 31.3773C21.1161 30.8142 20.9097 29.7596 21.1469 29.0233C21.3842 28.287 21.9769 28.1433 22.4609 28.7136Z" fill="#3A3A3A"/>
<path d="M24.9206 27.2032L24.7105 26.9602L23.342 28.1926L23.5521 28.4356L24.9206 27.2032Z" fill="#F9F8F0"/>
<path d="M26.0364 25.5068L24.9206 27.2031L24.7105 26.9601L25.6323 25.5599C25.7678 25.5398 25.9009 25.5269 26.0364 25.5068Z" fill="#DBDAD0"/>
<path d="M26.0364 25.5067C26.716 25.4229 27.3886 25.3608 28.0658 25.3081L27.4211 27.9211C27.4211 27.9211 25.0306 28.2982 23.5452 28.433L24.9114 27.2079L26.0272 25.5117L26.0364 25.5067Z" fill="#C2C1B7"/>
<path d="M13.8773 4.32097L31.7856 37.3838L31.639 37.8386L13.7308 4.77574C13.692 4.70749 13.6832 4.64088 13.7041 4.57591L13.8507 4.12113C13.832 4.17888 13.8409 4.2455 13.8773 4.32097Z" fill="#DBDAD0"/>
<path d="M31.7879 37.3767L31.6459 37.8409L42.5689 35.2414L42.7154 34.7866L31.7879 37.3767Z" fill="#707576"/>
<path d="M14.0741 3.94582C13.8674 3.99871 13.7795 4.15366 13.8774 4.32069L31.7857 37.3835L42.7064 34.7912L18.0279 3.45103C17.8727 3.24963 17.5245 3.12942 17.2695 3.19067L14.0649 3.95082L14.0741 3.94582Z" fill="#F5F4EC"/>
<path d="M14.074 3.94589L14.4025 3.86848L34.811 36.6613L31.7879 37.3764L13.8796 4.31353C13.7817 4.14651 13.8696 3.99157 14.0763 3.93868L14.074 3.94589Z" fill="#F9F8F0"/>
<path d="M31.9324 36.8813C32.961 36.2327 33.9795 35.78 34.9328 35.5534L37.8824 34.8545C40.2163 34.2998 42.8933 34.5171 44.6893 35.2314C45.1477 35.3632 46.2682 36.7841 46.7798 37.8573C44.935 37.2947 42.7963 37.2907 40.4624 37.8454L37.5128 38.5443C36.5595 38.7709 35.541 39.2236 34.5124 39.8722C33.9141 40.2451 33.3155 40.6897 32.7189 41.1986C32.342 39.7544 31.4622 38.3872 30.4421 38.1381C31.0364 37.6364 31.3386 37.2637 31.9392 36.8835L31.9324 36.8813Z" fill="url(#paint14_linear_82_12901)"/>
<path d="M37.5105 38.5517L40.46 37.8528C42.7939 37.2981 44.9327 37.3021 46.7775 37.8647L32.7166 41.206C34.3427 39.8336 36.0035 38.9186 37.5082 38.5589L37.5105 38.5517Z" fill="#C2C1B7"/>
<path d="M45.236 49.7827C47.224 49.6186 48.4761 51.9027 47.7161 53.0602C47.2168 53.3614 42.6474 54.5422 41.7436 54.4502L40.9264 50.8402C40.9264 50.8402 40.8663 50.4144 45.236 49.7827Z" fill="url(#paint15_linear_82_12901)"/>
<path style="mix-blend-mode:screen" d="M43.6238 50.0762C43.6238 50.0762 42.8537 50.9117 43.0555 50.9449C44.2549 51.1322 45.3727 52.6319 45.2555 53.2077C44.1691 53.4233 42.6648 53.7114 42.4375 53.7338L40.9946 51.0058C40.9467 50.9187 40.9816 50.8104 41.0736 50.7604C41.6257 50.4602 42.5029 50.3285 43.6238 50.0762Z" fill="url(#paint16_linear_82_12901)"/>
<path d="M42.0246 51.0585C42.5726 51.6893 42.8038 52.8794 42.5386 53.7023C42.2734 54.5252 41.6072 54.685 41.0592 54.0542C40.5112 53.4234 40.2801 52.2334 40.5453 51.4105C40.8105 50.5875 41.4767 50.4277 42.0246 51.0585Z" fill="#DBDAD0"/>
<path d="M41.9711 51.2249C42.4574 51.788 42.6639 52.8426 42.4267 53.5789C42.1894 54.3152 41.5967 54.4589 41.1127 53.8885C40.6264 53.3254 40.4199 52.2708 40.6572 51.5345C40.8945 50.7982 41.4871 50.6545 41.9711 51.2249Z" fill="#3A3A3A"/>
<path d="M44.4308 49.714L44.2208 49.471L42.8523 50.7033L43.0623 50.9463L44.4308 49.714Z" fill="#F9F8F0"/>
<path d="M45.5466 48.0176L44.4309 49.7138L44.2208 49.4708L45.1425 48.0706C45.278 48.0505 45.4112 48.0377 45.5466 48.0176Z" fill="#DBDAD0"/>
<path d="M45.5466 48.0179C46.2263 47.9342 46.8989 47.872 47.5761 47.8194L46.9313 50.4323C46.9313 50.4323 44.5408 50.8094 43.0555 50.9443L44.4216 49.7192L45.5374 48.0229L45.5466 48.0179Z" fill="#C2C1B7"/>
<path d="M53.1531 56.0391C55.1411 55.875 56.3932 58.159 55.6332 59.3165C55.1339 59.6178 50.5645 60.7986 49.6607 60.7066L48.8435 57.0965C48.8435 57.0965 48.7834 56.6708 53.1531 56.0391Z" fill="url(#paint17_linear_82_12901)"/>
<path style="mix-blend-mode:screen" d="M51.5409 56.3325C51.5409 56.3325 50.7708 57.168 50.9726 57.2012C52.172 57.3885 53.2898 58.8882 53.1726 59.464C52.0862 59.6796 50.5819 59.9678 50.3546 59.9901L48.9117 57.2621C48.8638 57.175 48.8987 57.0667 48.9907 57.0167C49.5428 56.7165 50.42 56.5848 51.5409 56.3325Z" fill="url(#paint18_linear_82_12901)"/>
<path d="M49.9394 57.3222C50.4874 57.953 50.7186 59.1431 50.4534 59.966C50.1882 60.7889 49.522 60.9487 48.974 60.3179C48.426 59.6871 48.1949 58.4971 48.4601 57.6741C48.7253 56.8512 49.3915 56.6914 49.9394 57.3222Z" fill="#DBDAD0"/>
<path d="M49.8883 57.4812C50.3746 58.0443 50.5811 59.0989 50.3438 59.8352C50.1065 60.5715 49.5138 60.7152 49.0298 60.1449C48.5458 59.5745 48.337 58.5271 48.5743 57.7908C48.8116 57.0545 49.4043 56.9109 49.8883 57.4812Z" fill="#3A3A3A"/>
<path d="M52.3388 55.9757L52.1356 55.7349L50.7694 56.96L50.9726 57.2008L52.3388 55.9757Z" fill="#F9F8F0"/>
<path d="M53.4614 54.2817L52.3456 55.978L52.1356 55.735L53.0573 54.3348C53.1928 54.3147 53.3259 54.3018 53.4614 54.2817Z" fill="#DBDAD0"/>
<path d="M53.4614 54.2816C54.141 54.1978 54.8137 54.1357 55.4909 54.083L54.8461 56.696C54.8461 56.696 52.4556 57.0731 50.9703 57.2079L52.3364 55.9828L53.4522 54.2866L53.4614 54.2816Z" fill="#C2C1B7"/>
<path d="M69.58 68.9508C69.7583 69.1039 70.0403 69.1709 70.2447 69.1252L73.4492 68.3651C73.5733 68.3333 73.647 68.2694 73.6726 68.19L73.526 68.6448C73.5004 68.7242 73.4244 68.7953 73.3027 68.8199L70.0981 69.58C69.8914 69.6329 69.6117 69.5587 69.4334 69.4056L34.0252 40.5599L34.1717 40.1051L69.58 68.9508Z" fill="#DBDAD0"/>
<path d="M45.1016 37.5078C41.9391 37.0543 37.0611 37.9445 34.1809 40.1L69.5892 68.9458C69.7675 69.0989 70.0495 69.1658 70.2539 69.1202L73.4584 68.36C73.7134 68.2988 73.7694 68.0778 73.5821 67.8819L45.1039 37.5005L45.1016 37.5078Z" fill="#F5F4EC"/>
<path d="M57.7645 14.8631L62.8783 24.0492L62.776 24.3668L57.6621 15.1807C57.6325 15.1313 57.6327 15.0836 57.6467 15.0403L57.749 14.7227C57.7351 14.766 57.7417 14.8159 57.7645 14.8631Z" fill="#DBDAD0"/>
<path d="M62.8783 24.0488L62.7828 24.3687L66.5732 23.4626L66.6755 23.145L62.8783 24.0488Z" fill="#707576"/>
<path d="M57.9035 14.5967C57.7633 14.6312 57.7055 14.7401 57.7646 14.8627L62.8785 24.0488L66.6665 23.15L59.7903 14.4637C59.6831 14.3256 59.4403 14.2314 59.2657 14.2787L57.9011 14.6039L57.9035 14.5967Z" fill="#F5F4EC"/>
<path d="M58.8299 32.0194L58.3779 31.4912L55.4082 34.1597L55.8603 34.6879L58.8299 32.0194Z" fill="#D84F3F"/>
<path d="M63.4408 25.0351L62.9865 24.5141L58.3779 31.4913L58.8299 32.0194L63.4408 25.0351Z" fill="#DBDAD0"/>
<path d="M67.1301 24.1601L66.6757 23.6391L62.9865 24.514L63.4409 25.0349L67.1301 24.1601Z" fill="#B2BBBD"/>
<path d="M58.8299 32.0192L63.4339 25.0326L67.1232 24.1577L63.5004 33.4446C61.3615 33.4884 58.7203 33.9839 55.8603 34.6877L58.8276 32.0264L58.8299 32.0192Z" fill="#C2C1B7"/>
<g style="mix-blend-mode:multiply" opacity="0.4">
<path d="M62.0201 27.1826L63.4339 25.0326L67.1232 24.1577L64.7676 30.1955C63.914 29.1236 63.0213 28.079 62.0133 27.1804L62.0201 27.1826Z" fill="#C2C1B7"/>
</g>
<path d="M68.1493 23.0224C68.1837 23.0335 68.2318 23.049 68.2638 23.0912C68.3619 23.2105 68.4 23.4219 68.3512 23.5735C68.3349 23.6241 68.3072 23.6629 68.2772 23.6852L67.1726 24.4049C67.2485 24.3577 67.3086 24.2655 67.355 24.145C67.4667 23.7985 67.3794 23.2922 67.1488 23.0187C67.0598 22.9183 66.9729 22.8584 66.8765 22.8513L68.1517 23.0152L68.1493 23.0224Z" fill="#DBDAD0"/>
<path d="M66.7824 22.8605C66.8972 22.8338 67.0324 22.8853 67.1465 23.0257C67.3771 23.2992 67.4713 23.8077 67.3527 24.1519C67.2969 24.3252 67.1955 24.428 67.0829 24.4475L63.1342 25.3742C63.249 25.3474 63.3436 25.2424 63.404 25.0786C63.5156 24.7321 63.4284 24.2259 63.1978 23.9524C63.0837 23.812 62.9485 23.7605 62.8336 23.7872L66.7824 22.8605Z" fill="url(#paint19_linear_82_12901)"/>
<path d="M62.7647 23.8133C62.8935 23.7432 63.0539 23.787 63.1978 23.9528C63.4283 24.2264 63.5225 24.7348 63.404 25.0791C63.3365 25.2884 63.2053 25.3895 63.063 25.3835L62.2072 25.3548C62.3059 25.3547 62.398 25.2808 62.4514 25.1386C62.5328 24.886 62.4655 24.5296 62.3011 24.3332C62.203 24.2139 62.0838 24.1835 61.9918 24.2335L62.7623 23.8205L62.7647 23.8133Z" fill="url(#paint20_linear_82_12901)"/>
<path d="M62.3035 24.3259C62.4678 24.5223 62.5328 24.8858 62.4537 25.1313C62.3723 25.3839 62.1702 25.4224 61.9989 25.2238C61.8346 25.0274 61.7696 24.6638 61.8487 24.4183C61.9301 24.1657 62.1322 24.1272 62.3035 24.3259Z" fill="#DBDAD0"/>
<g style="mix-blend-mode:multiply">
<path d="M62.2662 24.4411C62.3872 24.5837 62.4365 24.8546 62.3761 25.0423C62.3156 25.23 62.1617 25.2601 62.0407 25.1175C61.9197 24.9749 61.8704 24.704 61.9309 24.5164C61.9914 24.3287 62.1452 24.2986 62.2662 24.4411Z" fill="#3F4146"/>
</g>
<path d="M73.3862 32.9334C73.512 33.0377 73.7022 33.0831 73.8492 33.0508L75.2138 32.7256C75.3033 32.7066 75.3563 32.6599 75.3749 32.6022L75.2726 32.9198C75.254 32.9776 75.201 33.0242 75.1114 33.0432L73.7469 33.3684C73.5999 33.4007 73.4096 33.3553 73.2839 33.251L63.5206 25.1643L63.6229 24.8466L73.3862 32.9334Z" fill="#DBDAD0"/>
<path d="M63.623 24.8471L73.3863 32.9339C73.512 33.0382 73.7023 33.0835 73.8493 33.0512L75.2138 32.726C75.3953 32.6809 75.4349 32.5343 75.3047 32.3967L67.411 23.9483L63.623 24.8471Z" fill="#F5F4EC"/>
<path d="M70.6559 69.0264L70.2539 69.12C70.0471 69.1729 69.7675 69.0987 69.5892 68.9456L34.1809 40.0999C34.8832 39.5692 35.7089 39.1261 36.5963 38.7507L70.6559 69.0264Z" fill="#F9F8F0"/>
<path d="M17.1607 43.2285C17.3985 42.8908 17.6569 42.5836 17.9359 42.283C17.5163 43.2554 19.0715 44.4578 20.7665 44.6375L20.5645 45.7119C17.6617 45.1589 17.0388 43.8187 17.163 43.2212L17.1607 43.2285Z" fill="url(#paint21_linear_82_12901)"/>
<path opacity="0.4" d="M32.0685 23.6021L33.7332 23.3816L33.6738 23.3067L32.0803 23.5183L27.1325 16.7841L28.4136 16.6233L28.3543 16.5484L27.057 16.712C27.057 16.712 27.0294 16.727 27.0248 16.7415C27.0201 16.7559 27.0155 16.7703 27.0269 16.782L32.0318 23.5982L32.0662 23.6093L32.0685 23.6021ZM26.2149 15.6518L20.8586 8.37167C20.8472 8.36002 20.845 8.34336 20.8565 8.33114C20.8612 8.3167 20.8727 8.30449 20.8888 8.3017L21.7819 8.19112L21.8413 8.26602L20.9642 8.37382L26.2428 15.5651L27.462 15.4082L27.5214 15.4831L26.2241 15.6468C26.2241 15.6468 26.2172 15.6445 26.2104 15.6423L26.2149 15.6518ZM68.115 63.3948L60.8431 56.0073C60.8293 56.0029 60.8294 55.9791 60.8341 55.9646C60.8387 55.9502 60.8503 55.9379 60.8663 55.9352L62.2187 55.7654L62.2849 55.8425L60.9555 56.0117L68.1337 63.3132L69.1578 63.1731L69.224 63.2502L68.1219 63.3971C68.1219 63.3971 68.115 63.3948 68.1081 63.3926L68.115 63.3948ZM59.7831 54.9167L53.8614 48.8967C53.8476 48.8922 53.8477 48.8684 53.8524 48.8539C53.857 48.8395 53.8686 48.8273 53.8846 48.8245L55.5309 48.614L55.5971 48.6911L53.9761 48.8938L59.811 54.8301L61.1886 54.6525L61.2548 54.7297L59.7923 54.9117C59.7923 54.9117 59.7854 54.9095 59.7785 54.9073L59.7831 54.9167Z" fill="#C2C1B7"/>
<path d="M63.5073 33.4469C61.3684 33.4907 58.7272 33.9862 55.8603 34.6878L58.8276 32.0264L64.431 31.0752L63.505 33.4541L63.5073 33.4469Z" fill="#A32B1D"/>
<defs>
<linearGradient id="paint0_linear_82_12901" x1="19.7496" y1="48.546" x2="18.7063" y2="49.4526" gradientUnits="userSpaceOnUse">
<stop stop-color="#494644"/>
<stop offset="0.08" stop-color="#4F4C4A"/>
<stop offset="0.31" stop-color="#5D5957"/>
<stop offset="0.5" stop-color="#625E5C"/>
<stop offset="0.92" stop-color="#4D4A48"/>
<stop offset="1" stop-color="#494644"/>
</linearGradient>
<linearGradient id="paint1_linear_82_12901" x1="20.2125" y1="49.0802" x2="19.1691" y2="49.9868" gradientUnits="userSpaceOnUse">
<stop stop-color="#494644"/>
<stop offset="0.08" stop-color="#4F4C4A"/>
<stop offset="0.31" stop-color="#5D5957"/>
<stop offset="0.5" stop-color="#625E5C"/>
<stop offset="0.92" stop-color="#4D4A48"/>
<stop offset="1" stop-color="#494644"/>
</linearGradient>
<linearGradient id="paint2_linear_82_12901" x1="40.8412" y1="44.6792" x2="39.7579" y2="45.6161" gradientUnits="userSpaceOnUse">
<stop stop-color="#494644"/>
<stop offset="0.08" stop-color="#4F4C4A"/>
<stop offset="0.31" stop-color="#5D5957"/>
<stop offset="0.5" stop-color="#625E5C"/>
<stop offset="0.92" stop-color="#4D4A48"/>
<stop offset="1" stop-color="#494644"/>
</linearGradient>
<linearGradient id="paint3_linear_82_12901" x1="41.3189" y1="45.2334" x2="40.2421" y2="46.1728" gradientUnits="userSpaceOnUse">
<stop stop-color="#494644"/>
<stop offset="0.08" stop-color="#4F4C4A"/>
<stop offset="0.31" stop-color="#5D5957"/>
<stop offset="0.5" stop-color="#625E5C"/>
<stop offset="0.92" stop-color="#4D4A48"/>
<stop offset="1" stop-color="#494644"/>
</linearGradient>
<linearGradient id="paint4_linear_82_12901" x1="39.5807" y1="44.9776" x2="38.5039" y2="45.9171" gradientUnits="userSpaceOnUse">
<stop stop-color="#494644"/>
<stop offset="0.08" stop-color="#4F4C4A"/>
<stop offset="0.31" stop-color="#5D5957"/>
<stop offset="0.5" stop-color="#625E5C"/>
<stop offset="0.92" stop-color="#4D4A48"/>
<stop offset="1" stop-color="#494644"/>
</linearGradient>
<linearGradient id="paint5_linear_82_12901" x1="40.0648" y1="45.5335" x2="38.9816" y2="46.4704" gradientUnits="userSpaceOnUse">
<stop stop-color="#494644"/>
<stop offset="0.08" stop-color="#4F4C4A"/>
<stop offset="0.31" stop-color="#5D5957"/>
<stop offset="0.5" stop-color="#625E5C"/>
<stop offset="0.92" stop-color="#4D4A48"/>
<stop offset="1" stop-color="#494644"/>
</linearGradient>
<linearGradient id="paint6_linear_82_12901" x1="38.3267" y1="45.2772" x2="37.2434" y2="46.2141" gradientUnits="userSpaceOnUse">
<stop stop-color="#494644"/>
<stop offset="0.08" stop-color="#4F4C4A"/>
<stop offset="0.31" stop-color="#5D5957"/>
<stop offset="0.5" stop-color="#625E5C"/>
<stop offset="0.92" stop-color="#4D4A48"/>
<stop offset="1" stop-color="#494644"/>
</linearGradient>
<linearGradient id="paint7_linear_82_12901" x1="38.8108" y1="45.833" x2="37.7275" y2="46.7699" gradientUnits="userSpaceOnUse">
<stop stop-color="#494644"/>
<stop offset="0.08" stop-color="#4F4C4A"/>
<stop offset="0.31" stop-color="#5D5957"/>
<stop offset="0.5" stop-color="#625E5C"/>
<stop offset="0.92" stop-color="#4D4A48"/>
<stop offset="1" stop-color="#494644"/>
</linearGradient>
<linearGradient id="paint8_linear_82_12901" x1="38.3607" y1="36.7582" x2="40.1695" y2="44.4007" gradientUnits="userSpaceOnUse">
<stop stop-color="#F5F4EC"/>
<stop offset="0.21" stop-color="#F1F0E7"/>
<stop offset="0.42" stop-color="#E5E4DB"/>
<stop offset="0.63" stop-color="#D2D1C7"/>
<stop offset="0.76" stop-color="#C2C1B7"/>
<stop offset="0.95" stop-color="#C5C4BA"/>
<stop offset="1" stop-color="#C8C7BD"/>
</linearGradient>
<linearGradient id="paint9_linear_82_12901" x1="38.416" y1="37.0505" x2="40.1832" y2="44.4913" gradientUnits="userSpaceOnUse">
<stop stop-color="#CC4333"/>
<stop offset="0.35" stop-color="#B63627"/>
<stop offset="0.7" stop-color="#A82D1F"/>
<stop offset="1" stop-color="#A32B1D"/>
</linearGradient>
<linearGradient id="paint10_linear_82_12901" x1="20.8012" y1="20.639" x2="21.5863" y2="23.9255" gradientUnits="userSpaceOnUse">
<stop stop-color="#F5F4EC"/>
<stop offset="0.21" stop-color="#F1F0E7"/>
<stop offset="0.42" stop-color="#E5E4DB"/>
<stop offset="0.63" stop-color="#D2D1C7"/>
<stop offset="0.76" stop-color="#C2C1B7"/>
<stop offset="0.95" stop-color="#C5C4BA"/>
<stop offset="1" stop-color="#C8C7BD"/>
</linearGradient>
<linearGradient id="paint11_linear_82_12901" x1="19.3384" y1="24.5067" x2="19.9447" y2="20.3853" gradientUnits="userSpaceOnUse">
<stop/>
<stop offset="0.13" stop-color="#171717"/>
<stop offset="0.39" stop-color="#555552"/>
<stop offset="0.77" stop-color="#B7B6B0"/>
<stop offset="1" stop-color="#F5F4EC"/>
</linearGradient>
<linearGradient id="paint12_linear_82_12901" x1="24.7227" y1="27.8478" x2="25.5068" y2="31.1274" gradientUnits="userSpaceOnUse">
<stop stop-color="#F5F4EC"/>
<stop offset="0.21" stop-color="#F1F0E7"/>
<stop offset="0.42" stop-color="#E5E4DB"/>
<stop offset="0.63" stop-color="#D2D1C7"/>
<stop offset="0.76" stop-color="#C2C1B7"/>
<stop offset="0.95" stop-color="#C5C4BA"/>
<stop offset="1" stop-color="#C8C7BD"/>
</linearGradient>
<linearGradient id="paint13_linear_82_12901" x1="23.2614" y1="31.7143" x2="23.8678" y2="27.5929" gradientUnits="userSpaceOnUse">
<stop/>
<stop offset="0.13" stop-color="#171717"/>
<stop offset="0.39" stop-color="#555552"/>
<stop offset="0.77" stop-color="#B7B6B0"/>
<stop offset="1" stop-color="#F5F4EC"/>
</linearGradient>
<linearGradient id="paint14_linear_82_12901" x1="43.387" y1="33.4946" x2="33.4812" y2="42.0794" gradientUnits="userSpaceOnUse">
<stop stop-color="#E3E2D9"/>
<stop offset="0.08" stop-color="#E8E7DE"/>
<stop offset="0.3" stop-color="#F1F0E8"/>
<stop offset="0.58" stop-color="#F5F4EC"/>
<stop offset="0.76" stop-color="#F2F1E9"/>
<stop offset="0.89" stop-color="#E9E8E0"/>
<stop offset="1" stop-color="#DBDAD0"/>
</linearGradient>
<linearGradient id="paint15_linear_82_12901" x1="44.2396" y1="50.3609" x2="45.0168" y2="53.6418" gradientUnits="userSpaceOnUse">
<stop stop-color="#F5F4EC"/>
<stop offset="0.21" stop-color="#F1F0E7"/>
<stop offset="0.42" stop-color="#E5E4DB"/>
<stop offset="0.63" stop-color="#D2D1C7"/>
<stop offset="0.76" stop-color="#C2C1B7"/>
<stop offset="0.95" stop-color="#C5C4BA"/>
<stop offset="1" stop-color="#C8C7BD"/>
</linearGradient>
<linearGradient id="paint16_linear_82_12901" x1="42.7756" y1="54.2255" x2="43.3819" y2="50.1041" gradientUnits="userSpaceOnUse">
<stop/>
<stop offset="0.13" stop-color="#171717"/>
<stop offset="0.39" stop-color="#555552"/>
<stop offset="0.77" stop-color="#B7B6B0"/>
<stop offset="1" stop-color="#F5F4EC"/>
</linearGradient>
<linearGradient id="paint17_linear_82_12901" x1="52.1493" y1="56.6176" x2="52.9265" y2="59.8984" gradientUnits="userSpaceOnUse">
<stop stop-color="#F5F4EC"/>
<stop offset="0.21" stop-color="#F1F0E7"/>
<stop offset="0.42" stop-color="#E5E4DB"/>
<stop offset="0.63" stop-color="#D2D1C7"/>
<stop offset="0.76" stop-color="#C2C1B7"/>
<stop offset="0.95" stop-color="#C5C4BA"/>
<stop offset="1" stop-color="#C8C7BD"/>
</linearGradient>
<linearGradient id="paint18_linear_82_12901" x1="50.6893" y1="60.4807" x2="51.2935" y2="56.3661" gradientUnits="userSpaceOnUse">
<stop/>
<stop offset="0.13" stop-color="#171717"/>
<stop offset="0.39" stop-color="#555552"/>
<stop offset="0.77" stop-color="#B7B6B0"/>
<stop offset="1" stop-color="#F5F4EC"/>
</linearGradient>
<linearGradient id="paint19_linear_82_12901" x1="65.0249" y1="23.2677" x2="65.4029" y2="24.8489" gradientUnits="userSpaceOnUse">
<stop stop-color="#F5F4EC"/>
<stop offset="0.5" stop-color="#D8D7CD"/>
<stop offset="0.95" stop-color="#C2C1B7"/>
</linearGradient>
<linearGradient id="paint20_linear_82_12901" x1="62.6109" y1="23.8389" x2="62.9909" y2="25.4132" gradientUnits="userSpaceOnUse">
<stop stop-color="#F5F4EC"/>
<stop offset="0.27" stop-color="#F1F0E7"/>
<stop offset="0.55" stop-color="#E5E4DB"/>
<stop offset="0.83" stop-color="#D2D1C7"/>
<stop offset="1" stop-color="#C2C1B7"/>
</linearGradient>
<linearGradient id="paint21_linear_82_12901" x1="20.2354" y1="45.3303" x2="17.0267" y2="42.91" gradientUnits="userSpaceOnUse">
<stop stop-color="#1C1C1B"/>
<stop offset="0.47" stop-color="#252523"/>
<stop offset="0.5" stop-color="#262624"/>
<stop offset="1" stop-color="#353532"/>
</linearGradient>
</defs>
</svg>
