<svg width="476" height="614" viewBox="0 0 476 614" fill="none" xmlns="http://www.w3.org/2000/svg">
<g clip-path="url(#clip0_82_11042)">
<path d="M336.278 270.408L339.272 273.995L295.452 319.321L292.458 315.734L336.278 270.408Z" fill="#636F81"/>
<path d="M336.292 315.713L339.29 319.296L295.57 364.614L292.572 361.031L336.292 315.713Z" fill="#636F81"/>
<path d="M336.332 361.101L339.336 364.677L295.759 410.037L292.755 406.461L336.332 361.101Z" fill="#636F81"/>
<path d="M336.352 406.436L339.361 410.009L295.903 455.355L292.894 451.783L336.352 406.436Z" fill="#636F81"/>
<path d="M336.368 451.751L339.38 455.32L296.03 500.665L293.017 497.097L336.368 451.751Z" fill="#636F81"/>
<path d="M340.484 269.451H291.654V501.642H340.484V269.451ZM296.526 274.892H335.597V496.202H296.526V274.892Z" fill="#636F81"/>
<path d="M294.083 269.451H338.04V274.892H294.083V269.451Z" fill="#636F81"/>
<path d="M294.051 314.801H337.883V320.242H294.051V314.801Z" fill="#636F81"/>
<path d="M294.019 360.151H337.741V365.592H294.019V360.151Z" fill="#636F81"/>
<path d="M293.988 405.501H337.599V410.942H293.988V405.501Z" fill="#636F81"/>
<path d="M293.956 450.852H337.441V456.292H293.956V450.852Z" fill="#636F81"/>
<path d="M293.925 496.202H337.299V501.642H293.925V496.202Z" fill="#636F81"/>
<path d="M295.751 270.209L339.557 315.552L336.228 319.536L292.422 274.193L295.751 270.209Z" fill="#636F81"/>
<path d="M295.719 315.535L339.41 360.886L336.077 364.865L292.385 319.514L295.719 315.535Z" fill="#636F81"/>
<path d="M295.704 360.917L339.288 406.268L335.951 410.243L292.367 364.892L295.704 360.917Z" fill="#636F81"/>
<path d="M295.67 406.268L339.129 451.615L335.786 455.584L292.328 410.237L295.67 406.268Z" fill="#636F81"/>
<path d="M295.618 451.567L338.961 496.921L335.614 500.885L292.27 455.531L295.618 451.567Z" fill="#636F81"/>
<path d="M336.269 43.6584L339.264 47.2454L295.444 92.5719L292.449 88.985L336.269 43.6584Z" fill="#636F81"/>
<path d="M336.311 88.985L339.309 92.5679L295.597 137.894L292.598 134.311L336.311 88.985Z" fill="#636F81"/>
<path d="M336.328 134.34L339.333 137.916L295.756 183.276L292.751 179.699L336.328 134.34Z" fill="#636F81"/>
<path d="M336.352 179.701L339.361 183.273L295.903 228.62L292.894 225.048L336.352 179.701Z" fill="#636F81"/>
<path d="M336.371 225.025L339.383 228.593L296.033 273.939L293.02 270.37L336.371 225.025Z" fill="#636F81"/>
<path d="M340.484 42.7H291.654V274.891H340.484V42.7ZM296.526 48.1406H335.597V269.451H296.526V48.1406Z" fill="#636F81"/>
<path d="M294.083 42.7H338.04V48.1406H294.083V42.7Z" fill="#636F81"/>
<path d="M294.019 133.4H337.741V138.841H294.019V133.4Z" fill="#636F81"/>
<path d="M293.988 178.75H337.599V184.191H293.988V178.75Z" fill="#636F81"/>
<path d="M293.956 224.101H337.441V229.541H293.956V224.101Z" fill="#636F81"/>
<path d="M293.925 269.451H337.299V274.892H293.925V269.451Z" fill="#636F81"/>
<path d="M295.738 43.4333L339.544 88.7769L336.216 92.761L292.41 47.4174L295.738 43.4333Z" fill="#636F81"/>
<path d="M295.71 88.782L339.401 134.134L336.067 138.113L292.376 92.761L295.71 88.782Z" fill="#636F81"/>
<path d="M295.688 134.16L339.272 179.511L335.934 183.486L292.35 138.135L295.688 134.16Z" fill="#636F81"/>
<path d="M295.657 179.5L339.115 224.846L335.772 228.816L292.314 183.469L295.657 179.5Z" fill="#636F81"/>
<path d="M295.622 224.822L338.966 270.177L335.618 274.141L292.274 228.786L295.622 224.822Z" fill="#636F81"/>
<path d="M295.897 542.495L339.355 587.842L336.346 591.414L292.888 546.067L295.897 542.495Z" fill="#636F81"/>
<path d="M296.066 497.177L339.417 542.523L336.405 546.091L293.054 500.745L296.066 497.177Z" fill="#636F81"/>
<path d="M340.484 496.202H291.654V578.408H340.484V496.202ZM296.526 501.642H335.597V572.967H296.526V501.642Z" fill="#636F81"/>
<path d="M293.988 586.902H337.599V592.343H293.988V586.902Z" fill="#636F81"/>
<path d="M293.956 541.552H337.441V546.993H293.956V541.552Z" fill="#636F81"/>
<path d="M293.925 496.202H337.299V501.642H293.925V496.202Z" fill="#636F81"/>
<path d="M335.764 542.242L339.107 546.211L295.649 591.558L292.306 587.589L335.764 542.242Z" fill="#636F81"/>
<path d="M335.633 496.969L338.98 500.933L295.637 546.287L292.289 542.323L335.633 496.969Z" fill="#636F81"/>
<path d="M224.121 565.491H406.07V588.324H224.121V565.491Z" fill="#636F81"/>
<path d="M270.902 592.255C270.902 604.26 262.151 614 251.367 614C240.582 614 231.831 604.26 231.831 592.255C231.831 592.115 231.831 591.957 231.831 591.816C232.036 580.005 240.708 570.51 251.367 570.51C262.025 570.51 270.681 580.005 270.902 591.816C270.902 591.957 270.902 592.115 270.902 592.255Z" fill="#636F81"/>
<path d="M262.75 592.255C262.75 599.258 257.642 604.944 251.351 604.944C245.06 604.944 239.951 599.258 239.951 592.255C239.951 592.185 239.951 592.115 239.951 592.027C240.062 585.13 245.123 579.566 251.351 579.566C257.579 579.566 262.624 585.112 262.75 592.01C262.75 592.097 262.75 592.168 262.75 592.255Z" fill="#F6F6F6"/>
<path d="M256.57 592.255C256.57 595.449 254.236 598.047 251.366 598.047C248.497 598.047 246.163 595.449 246.163 592.255C246.163 589.061 248.497 586.463 251.366 586.463C254.236 586.463 256.57 589.061 256.57 592.255Z" fill="#636F81"/>
<path d="M313.377 592.255C313.377 604.26 304.627 614 293.842 614C283.058 614 274.307 604.26 274.307 592.255C274.307 592.115 274.307 591.957 274.307 591.816C274.512 580.005 283.184 570.51 293.842 570.51C304.501 570.51 313.157 580.005 313.377 591.816C313.377 591.957 313.377 592.115 313.377 592.255Z" fill="#636F81"/>
<path d="M305.242 592.255C305.242 599.258 300.133 604.944 293.842 604.944C287.551 604.944 282.443 599.258 282.443 592.255C282.443 592.185 282.443 592.115 282.443 592.027C282.553 585.13 287.614 579.566 293.842 579.566C300.07 579.566 305.116 585.112 305.242 592.01C305.242 592.097 305.242 592.168 305.242 592.255Z" fill="#F6F6F6"/>
<path d="M299.061 592.255C299.061 595.449 296.728 598.047 293.858 598.047C290.989 598.047 288.655 595.449 288.655 592.255C288.655 589.061 290.989 586.463 293.858 586.463C296.728 586.463 299.061 589.061 299.061 592.255Z" fill="#636F81"/>
<path d="M355.869 592.255C355.869 604.26 347.118 614 336.334 614C325.549 614 316.799 604.26 316.799 592.255C316.799 592.115 316.799 591.957 316.799 591.816C317.004 580.005 325.675 570.51 336.334 570.51C346.992 570.51 355.648 580.005 355.869 591.816C355.869 591.957 355.869 592.115 355.869 592.255Z" fill="#636F81"/>
<path d="M347.733 592.255C347.733 599.258 342.625 604.944 336.334 604.944C330.043 604.944 324.934 599.258 324.934 592.255C324.934 592.185 324.934 592.115 324.934 592.027C325.045 585.13 330.106 579.566 336.334 579.566C342.562 579.566 347.607 585.112 347.733 592.01C347.733 592.097 347.733 592.168 347.733 592.255Z" fill="#F6F6F6"/>
<path d="M341.553 592.255C341.553 595.449 339.219 598.047 336.35 598.047C333.48 598.047 331.147 595.449 331.147 592.255C331.147 589.061 333.48 586.463 336.35 586.463C339.219 586.463 341.553 589.061 341.553 592.255Z" fill="#636F81"/>
<path d="M398.36 592.255C398.36 604.26 389.61 614 378.825 614C368.041 614 359.29 604.26 359.29 592.255C359.29 592.115 359.29 591.957 359.29 591.816C359.495 580.005 368.167 570.51 378.825 570.51C389.484 570.51 398.14 580.005 398.36 591.816C398.36 591.957 398.36 592.115 398.36 592.255Z" fill="#636F81"/>
<path d="M390.225 592.255C390.225 599.258 385.116 604.944 378.825 604.944C372.534 604.944 367.426 599.258 367.426 592.255C367.426 592.185 367.426 592.115 367.426 592.027C367.536 585.13 372.597 579.566 378.825 579.566C385.053 579.566 390.099 585.112 390.225 592.01C390.225 592.097 390.225 592.168 390.225 592.255Z" fill="#F6F6F6"/>
<path d="M384.044 592.255C384.044 595.449 381.711 598.047 378.841 598.047C375.972 598.047 373.638 595.449 373.638 592.255C373.638 589.061 375.972 586.463 378.841 586.463C381.711 586.463 384.044 589.061 384.044 592.255Z" fill="#636F81"/>
<path d="M212.122 84.942L252.858 133.703L249.636 137.038L208.901 88.2764L212.122 84.942Z" fill="#636F81"/>
<path d="M252.85 84.9077L293.593 133.542L290.376 136.881L249.633 88.2471L252.85 84.9077Z" fill="#636F81"/>
<path d="M334.339 84.829L375.077 133.203L371.868 136.552L331.129 88.1778L334.339 84.829Z" fill="#636F81"/>
<path d="M375.075 84.8037L415.82 133.051L412.615 136.404L371.87 88.1575L375.075 84.8037Z" fill="#636F81"/>
<path d="M414.222 137.946H208.071V83.5923H416.114V89.0329H212.943V132.523H414.222V137.946Z" fill="#636F81"/>
<path d="M208.055 86.3125H212.943V135.243H208.055V86.3125Z" fill="#636F81"/>
<path d="M248.796 86.4705H253.684V135.261H248.796V86.4705Z" fill="#636F81"/>
<path d="M371.037 86.9617H375.924V135.366H371.037V86.9617Z" fill="#636F81"/>
<path d="M249.465 84.6252L253.043 88.3315L212.292 137.077L208.714 133.371L249.465 84.6252Z" fill="#636F81"/>
<path d="M290.208 84.7622L293.782 88.4734L253.032 137.099L249.457 133.388L290.208 84.7622Z" fill="#636F81"/>
<path d="M371.68 85.0903L375.246 88.8105L334.515 137.193L330.949 133.472L371.68 85.0903Z" fill="#636F81"/>
<path d="M412.444 85.2543L416.004 88.9814L375.252 137.22L371.691 133.493L412.444 85.2543Z" fill="#636F81"/>
<path d="M131.111 84.8273L171.849 133.201L168.64 136.55L127.901 88.1761L131.111 84.8273Z" fill="#636F81"/>
<path d="M171.84 84.8028L212.585 133.05L209.38 136.403L168.635 88.1566L171.84 84.8028Z" fill="#636F81"/>
<path d="M212.107 137.946H129.221C127.865 137.946 126.777 136.735 126.777 135.225V86.295C126.777 84.7857 127.865 83.5747 129.221 83.5747H212.88C214.236 83.5747 215.324 84.7857 215.324 86.295C215.324 87.8043 214.236 89.0153 212.88 89.0153H131.665V132.505H212.107C213.463 132.505 214.551 133.716 214.551 135.225C214.551 136.735 213.463 137.946 212.107 137.946Z" fill="#636F81"/>
<path d="M167.802 86.9619H172.69V135.366H167.802V86.9619Z" fill="#636F81"/>
<path d="M168.478 85.0676L172.045 88.7878L131.314 137.17L127.747 133.45L168.478 85.0676Z" fill="#636F81"/>
<path d="M209.221 85.2477L212.782 88.9749L172.029 137.214L168.469 133.487L209.221 85.2477Z" fill="#636F81"/>
<path d="M48.4492 84.8254L89.1877 133.199L85.9784 136.548L45.2399 88.1742L48.4492 84.8254Z" fill="#636F81"/>
<path d="M89.1628 84.8057L129.908 133.052L126.703 136.406L85.9577 88.1595L89.1628 84.8057Z" fill="#636F81"/>
<path d="M129.442 137.946H46.5556C45.2154 137.946 44.1118 136.735 44.1118 135.225V86.295C44.1118 84.7857 45.1997 83.5747 46.5556 83.5747H130.214C131.57 83.5747 132.658 84.7857 132.658 86.295C132.658 87.8043 131.57 89.0153 130.214 89.0153H48.9995V132.505H129.442C130.798 132.505 131.886 133.716 131.886 135.225C131.886 136.735 130.798 137.946 129.442 137.946Z" fill="#636F81"/>
<path d="M85.137 86.9619H90.0247V135.366H85.137V86.9619Z" fill="#636F81"/>
<path d="M45.3889 137.981H-0.965542L43.6072 84.7681C44.5217 83.6624 46.0668 83.6098 47.0602 84.6277C48.0535 85.6456 48.1008 87.3656 47.1863 88.4712L10.2762 132.523H45.4047C46.7606 132.523 47.8485 133.734 47.8485 135.243C47.8485 136.752 46.7606 137.963 45.4047 137.963L45.3889 137.981Z" fill="#636F81"/>
<path d="M85.8055 85.0544L89.372 88.7747L48.6411 137.157L45.0746 133.436L85.8055 85.0544Z" fill="#636F81"/>
<path d="M126.549 85.2521L130.109 88.9792L89.3564 137.218L85.7958 133.491L126.549 85.2521Z" fill="#636F81"/>
<path d="M292.912 48.1755H337.264C338.746 48.1755 339.944 46.8416 339.944 45.1919V2.98325C339.944 1.80737 339.33 0.754352 338.384 0.262941C337.438 -0.228469 336.318 -0.0529654 335.514 0.701701L291.162 42.8928C290.311 43.7001 289.995 45.034 290.389 46.2098C290.784 47.3857 291.793 48.1579 292.912 48.1579V48.1755ZM334.584 42.1908H300.196L334.584 9.47689V42.1908Z" fill="#636F81"/>
<path d="M332.439 52.1245H380.607C384.665 52.1245 387.954 55.7861 387.954 60.303V148.283C387.954 152.8 384.665 156.462 380.607 156.462H332.439C328.382 156.462 325.092 152.8 325.092 148.283V60.303C325.092 55.7861 328.382 52.1245 332.439 52.1245Z" fill="#636F81"/>
<path d="M379.141 122.642H367.773C366.764 122.642 365.928 121.729 365.928 120.589C365.928 119.448 366.748 118.535 367.773 118.535H379.141C380.15 118.535 380.985 119.448 380.985 120.589C380.985 121.729 380.166 122.642 379.141 122.642Z" fill="#F6F6F6"/>
<path d="M380.229 109.409H364.541L348.853 128.223H338.683C335.64 128.223 333.165 125.468 333.165 122.08V64.8136C333.165 62.5496 334.805 60.7244 336.838 60.7244H376.539C378.573 60.7244 380.213 62.5496 380.213 64.8136V109.409H380.229Z" fill="#F6F6F6"/>
<path d="M336.854 60.7243C334.82 60.7243 333.181 62.5495 333.181 64.8135V122.098C333.181 125.485 335.656 128.241 338.699 128.241H348.869L364.556 109.427H380.244V64.8311C380.244 62.5671 378.605 60.7418 376.571 60.7418H336.87L336.854 60.7243ZM382.073 64.8135V109.409C382.073 110.532 381.254 111.462 380.229 111.462H365.345L350.209 129.627C349.862 130.048 349.373 130.276 348.869 130.276H338.699C334.647 130.276 331.352 126.608 331.352 122.098V64.8135C331.352 61.4263 333.827 58.6709 336.87 58.6709H376.571C379.614 58.6709 382.089 61.4263 382.089 64.8135H382.073Z" fill="#636F81"/>
<path d="M475.034 143.492H411.053V75.7649H460.387L475.034 92.0692V143.492Z" fill="#636F81"/>
<path d="M411.053 85.751V92.6132H475.034V92.0691L469.358 85.751H411.053Z" fill="#636F81"/>
<path d="M411.053 135.682H475.034V142.544H411.053V135.682Z" fill="#636F81"/>
<path d="M460.387 75.7649H411.053V82.6271H466.552L460.387 75.7649Z" fill="#636F81"/>
<path d="M411.053 125.696H475.034V132.558H411.053V125.696Z" fill="#636F81"/>
<path d="M411.053 95.7373H475.034V102.6H411.053V95.7373Z" fill="#636F81"/>
<path d="M411.053 105.723H475.034V112.586H411.053V105.723Z" fill="#636F81"/>
<path d="M411.053 115.709H475.034V122.572H411.053V115.709Z" fill="#636F81"/>
<path d="M59.2322 136.594V248.478H76.8122V136.594H59.2322ZM77.7897 249.566H58.2546V135.506H77.7897V249.566Z" fill="#636F81"/>
<path d="M77.7897 135.506C77.7897 141.508 73.4223 146.37 68.03 146.37C62.6378 146.37 58.2546 141.508 58.2546 135.506C58.2546 129.504 62.622 124.643 68.03 124.643C73.4381 124.643 77.7897 129.504 77.7897 135.506Z" fill="#636F81"/>
<path d="M72.902 135.506C72.902 138.507 70.7104 140.947 68.0143 140.947C65.3182 140.947 63.1266 138.507 63.1266 135.506C63.1266 132.505 65.3182 130.066 68.0143 130.066C70.7104 130.066 72.902 132.505 72.902 135.506Z" fill="#F6F6F6"/>
<path d="M65.8385 267.52C65.8385 269.609 63.3158 271.82 61.2188 274.576C56.7253 280.525 58.5542 286.492 61.203 289.441C64.6717 293.302 70.5527 293.407 73.2489 290.406C76.8279 286.422 76.2919 280.981 76.2919 276.927C72.8862 278.893 72.2082 282.649 70.6946 284.351C68.0616 287.282 62.8743 282.561 66.2169 277.699C67.5097 275.822 69.7802 274.839 70.4266 267.52H65.8543H65.8385Z" fill="#636F81"/>
<path d="M81.4161 249.584C81.4161 243.687 80.0128 238.334 77.7424 234.368H58.2861C56.0157 238.334 54.6125 243.687 54.6125 249.584C54.6125 257.675 57.2455 264.747 61.1557 268.608H74.8728C78.7988 264.747 81.4161 257.675 81.4161 249.584Z" fill="#636F81"/>
<path d="M78.4835 249.584C78.4835 250.953 78.3889 252.304 78.2312 253.62C78.0104 255.393 77.6478 257.078 77.159 258.657C76.3392 261.307 75.1409 263.606 73.6746 265.344H62.3382C62.086 265.028 61.8179 264.712 61.5814 264.361C61.0769 263.642 60.6039 262.852 60.1782 261.992C59.7683 261.167 59.4056 260.289 59.0903 259.359C58.7592 258.394 58.4911 257.394 58.2546 256.358C58.0181 255.323 57.8447 254.235 57.7186 253.111C57.5924 251.953 57.5294 250.76 57.5294 249.566H78.4677L78.4835 249.584Z" fill="#F6F6F6"/>
<path d="M64.3722 249.584L58.2704 256.376C58.0339 255.34 57.8604 254.252 57.7343 253.129L60.9192 249.584H64.3722Z" fill="#636F81"/>
<path d="M71.3569 249.584L60.194 262.009C59.784 261.185 59.4214 260.307 59.1061 259.377L67.9039 249.584H71.3569Z" fill="#636F81"/>
<path d="M78.3415 249.584L64.183 265.344H62.354C62.1017 265.028 61.8337 264.712 61.5972 264.361L74.8886 249.566H78.3415V249.584Z" fill="#636F81"/>
<path d="M78.2469 253.62C78.0262 255.393 77.6636 257.078 77.1748 258.657L71.1677 265.344H67.7147L78.2469 253.62Z" fill="#636F81"/>
<path d="M61.5972 242.511C60.5174 242.511 59.6421 241.537 59.6421 240.335C59.6421 239.133 60.5174 238.158 61.5972 238.158C62.677 238.158 63.5523 239.133 63.5523 240.335C63.5523 241.537 62.677 242.511 61.5972 242.511Z" fill="#F6F6F6"/>
<path d="M74.4314 242.511C73.3516 242.511 72.4763 241.537 72.4763 240.335C72.4763 239.133 73.3516 238.158 74.4314 238.158C75.5111 238.158 76.3865 239.133 76.3865 240.335C76.3865 241.537 75.5111 242.511 74.4314 242.511Z" fill="#F6F6F6"/>
<path d="M67.5255 264.168C66.4458 264.168 65.5704 263.194 65.5704 261.992C65.5704 260.79 66.4458 259.816 67.5255 259.816C68.6053 259.816 69.4806 260.79 69.4806 261.992C69.4806 263.194 68.6053 264.168 67.5255 264.168Z" fill="#636F81"/>
<line y1="-0.5" x2="75" y2="-0.5" transform="matrix(0 1 1 0 68.5517 291)" stroke="#636F81"/>
</g>
<defs>
<clipPath id="clip0_82_11042">
<rect width="476" height="614" fill="white" transform="matrix(-1 0 0 1 476 0)"/>
</clipPath>
</defs>
</svg>
