<svg width="170" height="198" viewBox="0 0 170 198" fill="none" xmlns="http://www.w3.org/2000/svg">
<g clip-path="url(#clip0_57_501)">
<path d="M76.817 194.606C77.2934 194.875 77.2934 195.33 76.817 195.599C76.3405 195.868 75.574 195.868 75.0975 195.599C74.621 195.33 74.621 194.875 75.0975 194.606C75.574 194.337 76.3405 194.337 76.817 194.606Z" fill="#16110D"/>
<path d="M81.3331 191.998C81.8096 192.267 81.8096 192.722 81.3331 192.991C80.8566 193.26 80.0901 193.26 79.6136 192.991C79.1372 192.722 79.1372 192.267 79.6136 191.998C80.0901 191.729 80.8566 191.729 81.3331 191.998Z" fill="#16110D"/>
<path d="M85.8286 189.411C86.3051 189.68 86.3051 190.135 85.8286 190.404C85.3521 190.673 84.5856 190.673 84.1091 190.404C83.6326 190.135 83.6326 189.68 84.1091 189.411C84.5856 189.142 85.3521 189.142 85.8286 189.411Z" fill="#16110D"/>
<path d="M90.3448 186.803C90.8213 187.072 90.8213 187.528 90.3448 187.797C89.8684 188.066 89.1018 188.066 88.6254 187.797C88.1489 187.528 88.1489 187.072 88.6254 186.803C89.1018 186.534 89.8684 186.534 90.3448 186.803Z" fill="#16110D"/>
<path d="M94.861 184.195C95.3375 184.464 95.3375 184.92 94.861 185.189C94.3845 185.458 93.618 185.458 93.1415 185.189C92.6651 184.92 92.6651 184.464 93.1415 184.195C93.618 183.926 94.3845 183.926 94.861 184.195Z" fill="#16110D"/>
<path d="M99.3565 181.609C99.833 181.878 99.833 182.333 99.3565 182.602C98.88 182.871 98.1135 182.871 97.637 182.602C97.1605 182.333 97.1605 181.878 97.637 181.609C98.1135 181.339 98.88 181.339 99.3565 181.609Z" fill="#16110D"/>
<path d="M103.873 179.001C104.349 179.27 104.349 179.725 103.873 179.994C103.396 180.263 102.63 180.263 102.153 179.994C101.677 179.725 101.677 179.27 102.153 179.001C102.63 178.732 103.396 178.732 103.873 179.001Z" fill="#16110D"/>
<path d="M108.389 176.393C108.865 176.662 108.865 177.118 108.389 177.387C107.912 177.656 107.146 177.656 106.669 177.387C106.193 177.118 106.193 176.662 106.669 176.393C107.146 176.124 107.912 176.124 108.389 176.393Z" fill="#16110D"/>
<path d="M72.3007 191.998C72.7772 192.267 72.7772 192.722 72.3007 192.991C71.8242 193.26 71.0577 193.26 70.5812 192.991C70.1048 192.722 70.1048 192.267 70.5812 191.998C71.0577 191.729 71.8242 191.729 72.3007 191.998Z" fill="#16110D"/>
<path d="M76.817 189.411C77.2934 189.68 77.2934 190.135 76.817 190.404C76.3405 190.673 75.574 190.673 75.0975 190.404C74.621 190.135 74.621 189.68 75.0975 189.411C75.574 189.142 76.3405 189.142 76.817 189.411Z" fill="#16110D"/>
<path d="M81.3331 186.803C81.8096 187.072 81.8096 187.528 81.3331 187.797C80.8566 188.066 80.0901 188.066 79.6136 187.797C79.1372 187.528 79.1372 187.072 79.6136 186.803C80.0901 186.534 80.8566 186.534 81.3331 186.803Z" fill="#16110D"/>
<path d="M85.8286 184.195C86.3051 184.464 86.3051 184.92 85.8286 185.189C85.3521 185.458 84.5856 185.458 84.1091 185.189C83.6326 184.92 83.6326 184.464 84.1091 184.195C84.5856 183.926 85.3521 183.926 85.8286 184.195Z" fill="#16110D"/>
<path d="M90.3448 181.609C90.8213 181.878 90.8213 182.333 90.3448 182.602C89.8684 182.871 89.1018 182.871 88.6254 182.602C88.1489 182.333 88.1489 181.878 88.6254 181.609C89.1018 181.339 89.8684 181.339 90.3448 181.609Z" fill="#16110D"/>
<path d="M94.861 179.001C95.3375 179.27 95.3375 179.725 94.861 179.994C94.3845 180.263 93.618 180.263 93.1415 179.994C92.6651 179.725 92.6651 179.27 93.1415 179.001C93.618 178.732 94.3845 178.732 94.861 179.001Z" fill="#16110D"/>
<path d="M99.3565 176.393C99.833 176.662 99.833 177.118 99.3565 177.387C98.88 177.656 98.1135 177.656 97.637 177.387C97.1605 177.118 97.1605 176.662 97.637 176.393C98.1135 176.124 98.88 176.124 99.3565 176.393Z" fill="#16110D"/>
<path d="M67.7845 189.411C68.261 189.68 68.261 190.135 67.7845 190.404C67.308 190.673 66.5415 190.673 66.065 190.404C65.5885 190.135 65.5885 189.68 66.065 189.411C66.5415 189.142 67.308 189.142 67.7845 189.411Z" fill="#16110D"/>
<path d="M72.3007 186.803C72.7772 187.072 72.7772 187.528 72.3007 187.797C71.8242 188.066 71.0577 188.066 70.5812 187.797C70.1048 187.528 70.1048 187.072 70.5812 186.803C71.0577 186.534 71.8242 186.534 72.3007 186.803Z" fill="#16110D"/>
<path d="M76.817 184.195C77.2934 184.464 77.2934 184.92 76.817 185.189C76.3405 185.458 75.574 185.458 75.0975 185.189C74.621 184.92 74.621 184.464 75.0975 184.195C75.574 183.926 76.3405 183.926 76.817 184.195Z" fill="#16110D"/>
<path d="M103.873 173.806C104.349 174.075 104.349 174.53 103.873 174.799C103.396 175.068 102.63 175.068 102.153 174.799C101.677 174.53 101.677 174.075 102.153 173.806C102.63 173.537 103.396 173.537 103.873 173.806Z" fill="#16110D"/>
<path d="M81.3331 181.609C81.8096 181.878 81.8096 182.333 81.3331 182.602C80.8566 182.871 80.0901 182.871 79.6136 182.602C79.1372 182.333 79.1372 181.878 79.6136 181.609C80.0901 181.339 80.8566 181.339 81.3331 181.609Z" fill="#16110D"/>
<path d="M85.8286 179.001C86.3051 179.27 86.3051 179.725 85.8286 179.994C85.3521 180.263 84.5856 180.263 84.1091 179.994C83.6326 179.725 83.6326 179.27 84.1091 179.001C84.5856 178.732 85.3521 178.732 85.8286 179.001Z" fill="#16110D"/>
<path d="M90.3448 176.393C90.8213 176.662 90.8213 177.118 90.3448 177.387C89.8684 177.656 89.1018 177.656 88.6254 177.387C88.1489 177.118 88.1489 176.662 88.6254 176.393C89.1018 176.124 89.8684 176.124 90.3448 176.393Z" fill="#16110D"/>
<path d="M94.861 173.806C95.3375 174.075 95.3375 174.53 94.861 174.799C94.3845 175.068 93.618 175.068 93.1415 174.799C92.6651 174.53 92.6651 174.075 93.1415 173.806C93.618 173.537 94.3845 173.537 94.861 173.806Z" fill="#16110D"/>
<path d="M99.3565 171.198C99.833 171.467 99.833 171.923 99.3565 172.192C98.88 172.461 98.1135 172.461 97.637 172.192C97.1605 171.923 97.1605 171.467 97.637 171.198C98.1135 170.929 98.88 170.929 99.3565 171.198Z" fill="#16110D"/>
<path d="M63.289 186.803C63.7655 187.072 63.7655 187.528 63.289 187.797C62.8125 188.066 62.046 188.066 61.5695 187.797C61.093 187.528 61.093 187.072 61.5695 186.803C62.046 186.534 62.8125 186.534 63.289 186.803Z" fill="#16110D"/>
<path d="M67.7845 184.195C68.261 184.464 68.261 184.92 67.7845 185.189C67.308 185.458 66.5415 185.458 66.065 185.189C65.5885 184.92 65.5885 184.464 66.065 184.195C66.5415 183.926 67.308 183.926 67.7845 184.195Z" fill="#16110D"/>
<path d="M72.3007 181.609C72.7772 181.878 72.7772 182.333 72.3007 182.602C71.8242 182.871 71.0577 182.871 70.5812 182.602C70.1048 182.333 70.1048 181.878 70.5812 181.609C71.0577 181.339 71.8242 181.339 72.3007 181.609Z" fill="#16110D"/>
<path d="M76.817 179.001C77.2934 179.27 77.2934 179.725 76.817 179.994C76.3405 180.263 75.574 180.263 75.0975 179.994C74.621 179.725 74.621 179.27 75.0975 179.001C75.574 178.732 76.3405 178.732 76.817 179.001Z" fill="#16110D"/>
<path d="M81.3331 176.393C81.8096 176.662 81.8096 177.118 81.3331 177.387C80.8566 177.656 80.0901 177.656 79.6136 177.387C79.1372 177.118 79.1372 176.662 79.6136 176.393C80.0901 176.124 80.8566 176.124 81.3331 176.393Z" fill="#16110D"/>
<path d="M85.8286 173.806C86.3051 174.075 86.3051 174.53 85.8286 174.799C85.3521 175.068 84.5856 175.068 84.1091 174.799C83.6326 174.53 83.6326 174.075 84.1091 173.806C84.5856 173.537 85.3521 173.537 85.8286 173.806Z" fill="#16110D"/>
<path d="M88.6254 171.198C89.1018 170.929 89.8684 170.929 90.3448 171.198C90.8213 171.467 90.8213 171.923 90.3448 172.192C89.8684 172.461 89.1018 172.461 88.6254 172.192C88.1489 171.923 88.1489 171.467 88.6254 171.198C89.1018 170.929 88.1489 171.467 88.6254 171.198Z" fill="#16110D"/>
<path d="M94.861 168.591C95.3375 168.86 95.3375 169.315 94.861 169.584C94.3845 169.853 93.618 169.853 93.1415 169.584C92.6651 169.315 92.6651 168.86 93.1415 168.591C93.618 168.322 94.3845 168.322 94.861 168.591Z" fill="#16110D"/>
<path d="M58.7728 184.195C59.2493 184.464 59.2493 184.92 58.7728 185.189C58.2963 185.458 57.5298 185.458 57.0533 185.189C56.5769 184.92 56.5769 184.464 57.0533 184.195C57.5298 183.926 58.2963 183.926 58.7728 184.195Z" fill="#16110D"/>
<path d="M63.289 181.609C63.7655 181.878 63.7655 182.333 63.289 182.602C62.8125 182.871 62.046 182.871 61.5695 182.602C61.093 182.333 61.093 181.878 61.5695 181.609C62.046 181.339 62.8125 181.339 63.289 181.609Z" fill="#16110D"/>
<path d="M67.7845 179.001C68.261 179.27 68.261 179.725 67.7845 179.994C67.308 180.263 66.5415 180.263 66.065 179.994C65.5885 179.725 65.5885 179.27 66.065 179.001C66.5415 178.732 67.308 178.732 67.7845 179.001Z" fill="#16110D"/>
<path d="M72.3007 176.393C72.7772 176.662 72.7772 177.118 72.3007 177.387C71.8242 177.656 71.0577 177.656 70.5812 177.387C70.1048 177.118 70.1048 176.662 70.5812 176.393C71.0577 176.124 71.8242 176.124 72.3007 176.393Z" fill="#16110D"/>
<path d="M76.817 173.806C77.2934 174.075 77.2934 174.53 76.817 174.799C76.3405 175.068 75.574 175.068 75.0975 174.799C74.621 174.53 74.621 174.075 75.0975 173.806C75.574 173.537 76.3405 173.537 76.817 173.806Z" fill="#16110D"/>
<path d="M81.3331 171.198C81.8096 171.467 81.8096 171.923 81.3331 172.192C80.8566 172.461 80.0901 172.461 79.6136 172.192C79.1372 171.923 79.1372 171.467 79.6136 171.198C80.0901 170.929 80.8566 170.929 81.3331 171.198C81.8096 171.467 80.8566 170.929 81.3331 171.198Z" fill="#16110D"/>
<path d="M58.7314 178.98C59.2079 179.249 59.2079 179.704 58.7314 179.974C58.2549 180.243 57.4884 180.243 57.0119 179.974C56.5354 179.704 56.5354 179.249 57.0119 178.98C57.4884 178.711 58.2549 178.711 58.7314 178.98Z" fill="#16110D"/>
<path d="M63.2476 176.372C63.7241 176.641 63.7241 177.097 63.2476 177.366C62.7711 177.635 62.0046 177.635 61.5281 177.366C61.0517 177.097 61.0517 176.641 61.5281 176.372C62.0046 176.103 62.7711 176.103 63.2476 176.372Z" fill="#16110D"/>
<path d="M67.7638 173.765C68.2403 174.034 68.2403 174.489 67.7638 174.758C67.2873 175.027 66.5208 175.027 66.0443 174.758C65.5678 174.489 65.5678 174.034 66.0443 173.765C66.5208 173.496 67.2873 173.496 67.7638 173.765Z" fill="#16110D"/>
<path d="M72.2593 171.178C72.7358 171.447 72.7358 171.902 72.2593 172.171C71.7828 172.44 71.0163 172.44 70.5398 172.171C70.0633 171.902 70.0633 171.447 70.5398 171.178C71.0163 170.909 71.7828 170.909 72.2593 171.178Z" fill="#16110D"/>
<path d="M76.7755 168.57C77.252 168.839 77.252 169.294 76.7755 169.563C76.299 169.832 75.5325 169.832 75.056 169.563C74.5795 169.294 74.5795 168.839 75.056 168.57C75.5325 168.301 76.299 168.301 76.7755 168.57C77.252 168.839 76.299 168.301 76.7755 168.57Z" fill="#16110D"/>
<path d="M90.5105 196.799C90.987 197.068 90.987 197.524 90.5105 197.793C90.0341 198.062 89.2676 198.062 88.7911 197.793C88.3146 197.524 88.3146 197.068 88.7911 196.799C89.2676 196.53 90.0341 196.53 90.5105 196.799Z" fill="#16110D"/>
<path d="M95.0268 194.192C95.5033 194.461 95.5033 194.916 95.0268 195.185C94.5503 195.454 93.7838 195.454 93.3073 195.185C92.8308 194.916 92.8308 194.461 93.3073 194.192C93.7838 193.923 94.5503 193.923 95.0268 194.192Z" fill="#16110D"/>
<path d="M99.543 191.584C100.019 191.853 100.019 192.308 99.543 192.578C99.0665 192.847 98.3 192.847 97.8235 192.578C97.347 192.308 97.347 191.853 97.8235 191.584C98.3 191.315 99.0665 191.315 99.543 191.584Z" fill="#16110D"/>
<path d="M104.059 188.997C104.536 189.266 104.536 189.721 104.059 189.99C103.583 190.259 102.816 190.259 102.34 189.99C101.863 189.721 101.863 189.266 102.34 188.997C102.816 188.728 103.583 188.728 104.059 188.997Z" fill="#16110D"/>
<path d="M108.555 186.389C109.031 186.658 109.031 187.114 108.555 187.383C108.078 187.652 107.312 187.652 106.835 187.383C106.359 187.114 106.359 186.658 106.835 186.389C107.312 186.12 108.078 186.12 108.555 186.389Z" fill="#16110D"/>
<path d="M113.071 183.782C113.547 184.051 113.547 184.506 113.071 184.775C112.594 185.044 111.828 185.044 111.351 184.775C110.875 184.506 110.875 184.051 111.351 183.782C111.828 183.513 112.594 183.513 113.071 183.782Z" fill="#16110D"/>
<path d="M81.4988 196.799C81.9753 197.068 81.9753 197.524 81.4988 197.793C81.0224 198.062 80.2558 198.062 79.7794 197.793C79.3029 197.524 79.3029 197.068 79.7794 196.799C80.2558 196.53 81.0224 196.53 81.4988 196.799Z" fill="#16110D"/>
<path d="M86.0151 194.192C86.4916 194.461 86.4916 194.916 86.0151 195.185C85.5386 195.454 84.7721 195.454 84.2956 195.185C83.8191 194.916 83.8191 194.461 84.2956 194.192C84.7721 193.923 85.5386 193.923 86.0151 194.192Z" fill="#16110D"/>
<path d="M90.5105 191.584C90.987 191.853 90.987 192.308 90.5105 192.578C90.0341 192.847 89.2676 192.847 88.7911 192.578C88.3146 192.308 88.3146 191.853 88.7911 191.584C89.2676 191.315 90.0341 191.315 90.5105 191.584Z" fill="#16110D"/>
<path d="M95.0268 188.997C95.5033 189.266 95.5033 189.721 95.0268 189.99C94.5503 190.259 93.7838 190.259 93.3073 189.99C92.8308 189.721 92.8308 189.266 93.3073 188.997C93.7838 188.728 94.5503 188.728 95.0268 188.997Z" fill="#16110D"/>
<path d="M99.543 186.389C100.019 186.658 100.019 187.114 99.543 187.383C99.0665 187.652 98.3 187.652 97.8235 187.383C97.347 187.114 97.347 186.658 97.8235 186.389C98.3 186.12 99.0665 186.12 99.543 186.389Z" fill="#16110D"/>
<path d="M104.059 183.782C104.536 184.051 104.536 184.506 104.059 184.775C103.583 185.044 102.816 185.044 102.34 184.775C101.863 184.506 101.863 184.051 102.34 183.782C102.816 183.513 103.583 183.513 104.059 183.782Z" fill="#16110D"/>
<path d="M108.555 181.174C109.031 181.443 109.031 181.898 108.555 182.167C108.078 182.436 107.312 182.436 106.835 182.167C106.359 181.898 106.359 181.443 106.835 181.174C107.312 180.905 108.078 180.905 108.555 181.174Z" fill="#16110D"/>
<path d="M113.071 178.587C113.547 178.856 113.547 179.311 113.071 179.58C112.594 179.849 111.828 179.849 111.351 179.58C110.875 179.311 110.875 178.856 111.351 178.587C111.828 178.318 112.594 178.318 113.071 178.587Z" fill="#16110D"/>
<path d="M56.7012 159.671V127.136L84.3992 143.279V175.814L56.7012 159.671Z" fill="#97C6FF"/>
<path d="M56.7012 127.136L86.098 110.021L114.19 125.977L84.3992 143.279L56.7012 127.136Z" fill="#97C6FF"/>
<path d="M56.7012 129.185L86.098 112.049L114.19 128.026L84.3992 145.328L56.7012 129.185Z" fill="#E9F3FF"/>
<path d="M114.645 126.246V125.729L114.19 125.481L86.0979 109.503L56.7219 126.64L56.2661 126.909V127.426V159.94L83.9641 176.083L84.4199 176.352L84.8757 176.083L114.645 158.781V126.246ZM57.6127 127.157L86.0979 110.538L113.278 125.998L84.3785 142.741L68.6753 133.593L57.6127 127.157ZM57.1776 159.422V127.943L68.9446 134.794L83.9641 143.548V175.027L57.1569 159.402L57.1776 159.422Z" fill="#16110D"/>
<path d="M104.329 145.101L95.3997 150.254C94.1774 150.958 93.2037 150.213 93.2037 148.578C93.2037 146.963 94.1981 145.059 95.3997 144.376L104.329 139.223C105.551 138.519 106.524 139.264 106.524 140.899C106.524 142.514 105.53 144.418 104.329 145.101Z" fill="#E9F3FF"/>
<path d="M95.4204 144.418C94.1981 145.121 93.2244 147.005 93.2244 148.619C93.2244 148.826 93.3902 148.992 93.4316 149.178C93.5766 149.136 93.5766 149.116 93.7423 149.012L102.671 143.859C103.893 143.155 104.867 141.272 104.867 139.658C104.867 139.451 104.867 139.244 104.805 139.057C104.66 139.099 104.494 139.161 104.349 139.264L95.4204 144.418Z" fill="#97C6FF"/>
<path d="M106.007 138.705C105.758 138.561 105.468 138.499 105.157 138.499H105.074C104.764 138.519 104.432 138.623 104.101 138.809L95.1718 143.962C93.8045 144.749 92.7272 146.777 92.7272 148.578C92.7272 148.578 92.7272 148.578 92.7272 148.598C92.7272 148.598 92.7272 148.619 92.7272 148.64C92.7272 149.612 93.1001 150.399 93.7216 150.751C93.9702 150.896 94.2395 150.958 94.5296 150.958C94.8818 150.958 95.2547 150.854 95.6483 150.626L104.577 145.473C105.944 144.687 107.022 142.658 107.022 140.858C107.022 139.844 106.669 139.037 106.027 138.664L106.007 138.705ZM93.6802 148.371C93.7631 146.984 94.6332 145.39 95.6483 144.811L104.391 139.761C104.349 141.189 103.458 142.865 102.423 143.466L93.6802 148.495C93.6802 148.495 93.6802 148.412 93.6802 148.371ZM104.101 144.687L95.1718 149.84C94.9025 150.006 94.5089 150.15 94.1981 149.964C94.0324 149.881 93.9288 149.716 93.8252 149.488C93.8666 149.468 93.8874 149.447 93.9495 149.426L102.878 144.273C104.246 143.486 105.323 141.458 105.323 139.658C105.323 139.575 105.323 139.513 105.323 139.451C105.406 139.451 105.489 139.451 105.571 139.513C105.903 139.699 106.11 140.216 106.11 140.899C106.11 142.348 105.199 144.086 104.142 144.707L104.101 144.687Z" fill="#16110D"/>
<path d="M97.5128 117.057L67.9088 134.194V142.679L74.6003 146.591V138.064L104.287 120.886L97.5128 117.057Z" fill="#97C6FF"/>
<path d="M103.914 119.623L96.2283 115.257L66.6037 132.393L66.1479 132.662V133.179V141.665L73.7716 146.094V137.029L103.914 119.603V119.623ZM96.2283 116.291L102.091 119.623L73.3158 136.263L67.5152 132.91L96.2283 116.291ZM67.0594 141.147V133.697L72.86 137.05V144.542L67.0594 141.168V141.147Z" fill="#16110D"/>
<path d="M79.5308 169.149L73.8959 165.9C73.2329 165.528 72.715 164.514 72.715 163.644V157.994C72.715 157.125 73.2537 156.711 73.8959 157.104L79.5308 160.354C80.1937 160.726 80.7116 161.74 80.7116 162.609V168.26C80.7116 169.129 80.173 169.543 79.5308 169.149Z" fill="#E9F3FF"/>
<path d="M78.9714 167.742C78.7436 167.742 78.5157 167.68 78.2671 167.535L72.6322 164.286C71.8449 163.83 71.2234 162.671 71.2234 161.637V155.987C71.2234 155.366 71.4513 154.869 71.8657 154.641C72.2178 154.434 72.6736 154.455 73.0879 154.703L78.7228 157.953C79.5101 158.408 80.1316 159.567 80.1316 160.602V166.252C80.1316 166.873 79.9037 167.369 79.4893 167.597C79.3236 167.701 79.1579 167.742 78.9507 167.742H78.9714ZM72.3836 155.386C72.3836 155.386 72.3214 155.386 72.3007 155.386C72.2178 155.449 72.1143 155.635 72.1143 155.945V161.595C72.1143 162.299 72.57 163.168 73.0672 163.458L78.7021 166.707C78.7021 166.707 78.93 166.831 79.0336 166.769C79.1165 166.707 79.22 166.521 79.22 166.21V160.56C79.22 159.857 78.7643 158.988 78.2671 158.698L72.6322 155.449C72.6322 155.449 72.4872 155.366 72.3836 155.366V155.386Z" fill="#16110D"/>
<path d="M85.4557 116.292C78.0185 116.292 72.2593 121.942 72.2593 126.805C72.2593 131.669 78.1842 135.85 85.4557 135.85C92.7272 135.85 98.6522 131.793 98.6522 126.805C98.6522 121.818 92.893 116.292 85.4557 116.292Z" fill="#16110D"/>
<path d="M85.4557 131.441C91.4739 131.441 96.3526 128.152 96.3526 124.094C96.3526 120.036 91.4739 116.747 85.4557 116.747C79.4375 116.747 74.5588 120.036 74.5588 124.094C74.5588 128.152 79.4375 131.441 85.4557 131.441Z" fill="#97C6FF"/>
<path d="M96.3526 126.06C96.3526 126.06 91.4842 131.421 85.4557 131.421C79.4272 131.421 74.5381 126.06 74.5381 126.06C74.5381 122.004 79.4272 118.713 85.435 118.713C91.4428 118.713 96.3319 122.004 96.3319 126.06H96.3526Z" fill="#E9F3FF"/>
<path d="M85.4557 131.876C79.1993 131.876 74.103 128.378 74.103 124.073C74.103 119.769 79.1993 116.271 85.4557 116.271C91.7121 116.271 96.8084 119.769 96.8084 124.073C96.8084 128.378 91.7121 131.876 85.4557 131.876ZM85.4557 117.182C79.6965 117.182 74.9938 120.265 74.9938 124.073C74.9938 127.882 79.6758 130.965 85.4557 130.965C91.2356 130.965 95.9175 127.882 95.9175 124.073C95.9175 120.265 91.2356 117.182 85.4557 117.182Z" fill="#16110D"/>
<path d="M85.4557 78.0659C84.5027 78.0659 83.7155 78.8731 83.7155 79.8458V122.77C83.7155 123.742 84.5027 124.549 85.4557 124.549C86.4087 124.549 87.1959 123.742 87.1959 122.77V79.8458C87.1959 78.8731 86.4087 78.0659 85.4557 78.0659Z" fill="#16110D"/>
<path d="M41.1016 37.1909L42.1996 24.0696H27.3251L28.4231 37.1909C28.4231 37.1909 28.4231 37.253 28.4231 37.2944C28.4231 37.4186 28.4645 37.5221 28.4853 37.6463V37.9153H28.5267C28.9825 39.9849 31.5927 41.5785 34.8038 41.5785C38.0149 41.5785 40.6252 39.9849 41.0809 37.9153V37.6463C41.1224 37.5221 41.1638 37.4186 41.1638 37.2944C41.1638 37.253 41.1638 37.2323 41.1638 37.1909H41.1016Z" fill="#97C6FF"/>
<path d="M42.6968 23.6142H27.3665C27.0972 23.6142 26.8693 23.8626 26.89 24.1316L27.988 37.1288V37.2737C27.988 37.3771 27.988 37.4806 28.0295 37.6669L28.1745 38.3499C28.8788 40.4816 31.5927 42.0131 34.7831 42.0131C37.9734 42.0131 40.6873 40.5023 41.3916 38.3499L41.5574 37.5841C41.5574 37.5841 41.5988 37.3978 41.5988 37.2737V37.1495L42.7175 23.5935L42.6968 23.6142ZM40.6665 37.1495V37.2944C40.6665 37.2944 40.6665 37.3771 40.6665 37.4185C40.6665 37.4806 40.6458 37.522 40.6251 37.6048V37.8118C40.418 38.5982 39.8586 39.3019 39.0714 39.8607L39.9208 27.5465L37.3519 29.0573H34.7831V41.1024C31.8827 41.1024 29.376 39.6744 28.9617 37.7911V37.7083L28.9203 37.5634C28.9203 37.5013 28.9203 37.4392 28.8995 37.3978C28.8995 37.3564 28.8995 37.3151 28.8788 37.3151V37.1909L27.843 24.5041H41.7231L40.6665 37.1288V37.1495Z" fill="#16110D"/>
<path d="M42.1996 24.0694C42.1996 26.8426 38.8642 29.0778 34.7623 29.0778C30.6604 29.0778 27.3251 26.8426 27.3251 24.0694C27.3251 21.2961 30.6604 18.1917 34.7623 18.1917C38.8642 18.1917 42.1996 21.2961 42.1996 24.0694Z" fill="#97C6FF"/>
<path d="M34.7623 29.5332C30.4119 29.5332 26.8693 27.091 26.8693 24.0694C26.8693 21.0478 30.3083 17.7571 34.7623 17.7571C39.2164 17.7571 42.6553 21.1512 42.6553 24.0694C42.6553 26.9876 39.1128 29.5332 34.7623 29.5332ZM34.7623 18.647C30.8883 18.647 27.7809 21.6066 27.7809 24.0694C27.7809 26.5322 30.9091 28.6226 34.7623 28.6226C38.6156 28.6226 41.7438 26.5736 41.7438 24.0694C41.7438 21.5652 38.6363 18.647 34.7623 18.647Z" fill="#16110D"/>
<path d="M41.1223 22.4967C41.1223 24.8561 38.2841 26.7808 34.7623 26.7808C31.2405 26.7808 28.4023 24.8561 28.4023 22.4967C28.4023 20.1374 31.2405 18.2126 34.7623 18.2126C38.2841 18.2126 41.1223 20.1374 41.1223 22.4967Z" fill="#E9F3FF"/>
<path d="M34.7623 27.2154C31.0126 27.2154 27.9466 25.0837 27.9466 22.476C27.9466 19.8683 31.0126 17.7366 34.7623 17.7366C38.512 17.7366 41.5781 19.8683 41.5781 22.476C41.5781 25.0837 38.512 27.2154 34.7623 27.2154ZM34.7623 18.6472C31.5098 18.6472 28.8581 20.365 28.8581 22.476C28.8581 24.587 31.5098 26.3048 34.7623 26.3048C38.0148 26.3048 40.6666 24.587 40.6666 22.476C40.6666 20.365 38.0148 18.6472 34.7623 18.6472Z" fill="#16110D"/>
<path d="M36.3161 18.2538C35.7567 18.0883 35.4253 18.6057 35.1352 19.0196C35.0316 19.1852 34.8245 19.4749 34.8038 19.5163C34.7002 19.4749 34.493 19.1852 34.3894 19.0196C34.0994 18.6057 33.7472 18.109 33.2086 18.2538C31.6341 18.6678 30.619 21.1306 30.619 22.0619C30.619 23.49 32.4421 24.6076 34.783 24.6076C37.124 24.6076 38.9471 23.49 38.9471 22.0619C38.9471 21.1306 37.8491 18.6678 36.3368 18.2538H36.3161Z" fill="#16110D"/>
<path d="M1.38799 21.586C0.476462 21.6481 -0.0828849 22.0827 -1.87289e-05 22.745C0.18643 24.0281 1.09796 26.4289 4.7855 29.7196C8.2866 32.8447 11.9741 34.4176 14.0872 35.142C15.1438 35.4938 16.1382 35.4317 16.6561 34.9971L33.4365 20.7996C33.8508 20.4477 33.0429 19.744 32.2764 19.7854L1.38799 21.586Z" fill="#E9F3FF"/>
<path d="M18.1063 39.364C17.8991 39.364 17.6919 39.364 17.464 39.3226C15.3924 39.0743 11.2905 38.2671 7.10577 35.7836C2.83817 33.2793 1.34657 31.0649 0.849377 29.6575C0.725078 29.3057 0.745794 28.9332 0.911527 28.602C1.13941 28.1674 1.63661 27.8363 2.27882 27.65L32.1935 19.7855C32.8564 19.6199 33.7058 19.8682 34.0373 20.3649C34.2237 20.6547 34.2237 21.0065 33.9959 21.2756L20.3644 38.5155C19.9293 39.0536 19.1007 39.364 18.1063 39.364ZM32.6286 20.634C32.6286 20.634 32.4835 20.634 32.4214 20.6547L2.5067 28.5192C2.11309 28.6227 1.80234 28.809 1.69876 29.0159C1.63661 29.1194 1.63661 29.2229 1.69876 29.3471C2.07165 30.3819 3.33536 32.5136 7.58226 34.9971C11.6427 37.3772 15.5996 38.1636 17.6091 38.412C18.6656 38.5362 19.4321 38.2671 19.6807 37.936L33.2293 20.7996C33.1258 20.7168 32.8979 20.634 32.6493 20.634H32.6286Z" fill="#16110D"/>
<path d="M67.6188 18.2952C68.551 18.2538 69.1104 17.7985 69.0275 17.1569C68.8618 15.8737 67.971 13.4937 64.3456 10.1823C60.8859 7.03649 57.2191 5.44289 55.0853 4.71852C54.0495 4.36669 53.0136 4.40808 52.4957 4.8427L35.4253 18.854C35.0109 19.2058 35.7982 19.9095 36.5647 19.8681L67.5981 18.2952H67.6188Z" fill="#E9F3FF"/>
<path d="M36.2125 19.951C35.6532 19.951 35.0524 19.7026 34.8038 19.3094C34.6173 19.0196 34.638 18.6678 34.8452 18.3988L48.8082 1.28305C49.3468 0.62077 50.4655 0.331024 51.7292 0.496593C53.8008 0.765643 57.9027 1.59349 62.0667 4.07703C66.2929 6.60196 67.7638 8.81644 68.2403 10.2445C68.3646 10.5963 68.3439 10.9688 68.1574 11.3C67.9295 11.7346 67.4323 12.0657 66.7694 12.2313L36.6475 19.9096C36.5025 19.951 36.3575 19.951 36.2125 19.951ZM35.6324 18.8748C35.7775 18.9782 36.1089 19.1024 36.4197 19.0196L66.5415 11.3414C66.9559 11.2379 67.2459 11.0516 67.3702 10.8447C67.4323 10.7412 67.4323 10.6377 67.3702 10.5135C67.018 9.47872 65.7957 7.34702 61.5903 4.84278C57.5713 2.44203 53.6144 1.63488 51.6049 1.38653C50.5276 1.26235 49.7611 1.5314 49.5125 1.86254L35.6324 18.8955V18.8748Z" fill="#16110D"/>
<path d="M34.7623 21.3584C36.1811 21.3584 37.3312 20.7098 37.3312 19.9097C37.3312 19.1096 36.1811 18.4609 34.7623 18.4609C33.3436 18.4609 32.1935 19.1096 32.1935 19.9097C32.1935 20.7098 33.3436 21.3584 34.7623 21.3584Z" fill="#E9F3FF"/>
<path d="M34.7624 21.8137C33.0636 21.8137 31.7377 20.9859 31.7377 19.9097C31.7377 18.8335 33.0636 18.0056 34.7624 18.0056C36.4611 18.0056 37.787 18.8335 37.787 19.9097C37.787 20.9859 36.4611 21.8137 34.7624 21.8137ZM34.7624 18.8956C33.5401 18.8956 32.6493 19.4336 32.6493 19.889C32.6493 20.3443 33.5608 20.8824 34.7624 20.8824C35.9639 20.8824 36.8754 20.3443 36.8754 19.889C36.8754 19.4336 35.9639 18.8956 34.7624 18.8956Z" fill="#16110D"/>
<path d="M141.121 36.9632L142.219 23.8418H127.345L128.443 36.9632C128.443 36.9632 128.443 37.0252 128.443 37.0666C128.443 37.1908 128.484 37.2943 128.505 37.4185V37.6875H128.546C129.002 39.7571 131.612 41.3507 134.823 41.3507C138.034 41.3507 140.645 39.7571 141.1 37.6875V37.4185C141.142 37.2943 141.183 37.1908 141.183 37.0666C141.183 37.0252 141.183 37.0045 141.183 36.9632H141.121Z" fill="#97C6FF"/>
<path d="M142.716 23.3867H127.386C127.096 23.3867 126.889 23.635 126.91 23.9041L128.008 36.9012V37.0461C128.008 37.1496 128.008 37.2531 128.049 37.4393L128.194 38.1223C128.898 40.254 131.612 41.7855 134.803 41.7855C137.993 41.7855 140.707 40.2747 141.411 38.1223L141.577 37.3566C141.577 37.3566 141.618 37.1703 141.618 37.0461V36.9219L142.737 23.366L142.716 23.3867ZM140.686 36.9219V37.0668C140.686 37.0668 140.686 37.1496 140.686 37.191C140.686 37.2531 140.665 37.2945 140.645 37.3773V37.5842C140.437 38.3707 139.878 39.0743 139.091 39.6331L139.94 27.3189L137.371 28.8298H134.803V40.8749C131.902 40.8749 129.396 39.4469 128.981 37.5635V37.4807L128.94 37.3359C128.94 37.2738 128.94 37.2117 128.919 37.1703C128.919 37.1289 128.919 37.0875 128.898 37.0875V36.9633L127.863 24.2766H141.743L140.686 36.9012V36.9219Z" fill="#16110D"/>
<path d="M142.219 23.8418C142.219 26.6151 138.884 28.8503 134.782 28.8503C130.68 28.8503 127.345 26.6151 127.345 23.8418C127.345 21.0685 130.68 17.9641 134.782 17.9641C138.884 17.9641 142.219 21.0685 142.219 23.8418Z" fill="#97C6FF"/>
<path d="M134.782 29.3056C130.431 29.3056 126.889 26.8635 126.889 23.8419C126.889 20.8202 130.328 17.5295 134.782 17.5295C139.236 17.5295 142.675 20.9237 142.675 23.8419C142.675 26.76 139.132 29.3056 134.782 29.3056ZM134.782 18.4195C130.908 18.4195 127.8 21.379 127.8 23.8419C127.8 26.3047 130.929 28.395 134.782 28.395C138.635 28.395 141.763 26.3461 141.763 23.8419C141.763 21.3376 138.656 18.4195 134.782 18.4195Z" fill="#16110D"/>
<path d="M141.142 22.269C141.142 24.6283 138.304 26.5531 134.782 26.5531C131.26 26.5531 128.422 24.6283 128.422 22.269C128.422 19.9096 131.26 17.9849 134.782 17.9849C138.304 17.9849 141.142 19.9096 141.142 22.269Z" fill="#E9F3FF"/>
<path d="M134.782 27.0084C131.032 27.0084 127.966 24.8767 127.966 22.269C127.966 19.6612 131.032 17.5295 134.782 17.5295C138.532 17.5295 141.598 19.6612 141.598 22.269C141.598 24.8767 138.532 27.0084 134.782 27.0084ZM134.782 18.4402C131.529 18.4402 128.878 20.158 128.878 22.269C128.878 24.38 131.529 26.0977 134.782 26.0977C138.034 26.0977 140.686 24.38 140.686 22.269C140.686 20.158 138.034 18.4402 134.782 18.4402Z" fill="#16110D"/>
<path d="M136.336 18.0263C135.776 17.8607 135.445 18.3781 135.155 18.7921C135.051 18.9576 134.844 19.2474 134.823 19.2888C134.72 19.2474 134.513 18.9576 134.409 18.7921C134.119 18.3781 133.767 17.8814 133.228 18.0263C131.654 18.4402 130.639 20.9031 130.639 21.8344C130.639 23.2624 132.462 24.38 134.803 24.38C137.144 24.38 138.967 23.2624 138.967 21.8344C138.967 20.9031 137.869 18.4402 136.356 18.0263H136.336Z" fill="#16110D"/>
<path d="M117.339 4.13911C116.841 3.70449 115.847 3.62171 114.811 3.95285C112.781 4.59443 109.238 6.08455 105.427 9.31315C101.801 12.3762 100.848 14.8804 100.62 16.2257C100.517 16.8879 101.055 17.3639 101.988 17.426L132.814 19.5163C133.58 19.5577 134.388 18.8541 133.974 18.5022L117.318 4.11842L117.339 4.13911Z" fill="#E9F3FF"/>
<path d="M133.228 19.6613C133.083 19.6613 132.938 19.6613 132.793 19.5992L102.92 11.7347C102.257 11.5691 101.78 11.2173 101.553 10.7826C101.387 10.4515 101.366 10.079 101.49 9.70645C102.05 8.19563 103.583 5.91905 107.705 3.60108C112.014 1.17964 115.743 0.331094 118.105 0.041348C119.348 -0.103525 120.446 0.206917 120.964 0.869194L134.616 18.1298C134.823 18.3988 134.844 18.7507 134.658 19.0404C134.409 19.4336 133.829 19.682 133.249 19.682L133.228 19.6613ZM118.685 0.910586C118.54 0.910586 118.374 0.910586 118.209 0.931282C116.344 1.15894 112.553 1.904 108.161 4.38754C104.08 6.68481 102.754 8.91999 102.34 10.0376C102.298 10.1618 102.298 10.2859 102.34 10.3894C102.443 10.5964 102.733 10.7826 103.148 10.8861L133.021 18.7507C133.332 18.8334 133.663 18.7093 133.808 18.6058L120.239 1.40729C120.032 1.13824 119.472 0.88989 118.685 0.88989V0.910586Z" fill="#16110D"/>
<path d="M152.101 35.2041C152.598 35.6387 153.572 35.7215 154.608 35.411C156.638 34.7695 160.18 33.3 164.034 30.0921C167.68 27.0291 168.674 24.5456 168.923 23.1796C169.047 22.5173 168.508 22.0413 167.576 21.9585L136.916 19.6406C136.149 19.5785 135.341 20.2822 135.735 20.6547L152.101 35.2041Z" fill="#E9F3FF"/>
<path d="M150.775 39.3432C149.781 39.3432 148.931 39.0328 148.517 38.474L135.196 21.1099C134.989 20.8409 134.989 20.4891 135.196 20.1993C135.528 19.7026 136.377 19.4335 137.04 19.6198L166.706 27.6706C167.348 27.8569 167.845 28.188 168.053 28.6226C168.218 28.9538 168.239 29.347 168.094 29.7195C167.514 31.2303 165.94 33.5069 161.776 35.8042C157.446 38.2049 153.717 39.0328 151.334 39.3018C151.148 39.3225 150.961 39.3432 150.775 39.3432ZM149.221 37.9152C149.47 38.2256 150.195 38.5154 151.231 38.4119C153.51 38.1429 157.114 37.3564 161.32 35.0177C165.442 32.7205 166.789 30.506 167.224 29.3884C167.265 29.2642 167.265 29.14 167.224 29.0366C167.12 28.8296 166.83 28.6433 166.437 28.5399L136.771 20.489C136.46 20.4063 136.108 20.5304 135.963 20.6339L149.201 37.9152H149.221Z" fill="#16110D"/>
<path d="M137.351 19.6819C137.351 20.489 136.191 21.1306 134.782 21.1306C133.373 21.1306 132.213 20.489 132.213 19.6819C132.213 18.8747 133.373 18.2332 134.782 18.2332C136.191 18.2332 137.351 18.8747 137.351 19.6819Z" fill="#E9F3FF"/>
<path d="M134.782 21.5859C133.083 21.5859 131.757 20.7581 131.757 19.6819C131.757 18.6057 133.083 17.7778 134.782 17.7778C136.481 17.7778 137.806 18.6057 137.806 19.6819C137.806 20.7581 136.481 21.5859 134.782 21.5859ZM134.782 18.6678C133.56 18.6678 132.669 19.2059 132.669 19.6612C132.669 20.1165 133.58 20.6546 134.782 20.6546C135.983 20.6546 136.895 20.1165 136.895 19.6612C136.895 19.2059 135.983 18.6678 134.782 18.6678Z" fill="#16110D"/>
<path d="M66.5415 58.2182L37.3105 34.6453C36.5232 34.0451 36.2953 32.9482 36.834 32.0376C37.3519 31.1476 38.4291 30.7958 39.3821 31.2097L72.86 46.8974L71.4928 49.8155L47.5651 38.6189C47.5651 38.6189 47.4201 38.681 47.4823 38.7431L67.4945 54.8654L66.5415 58.2182Z" fill="#16110D"/>
<path d="M66.728 58.777L37.1033 34.8936C36.1918 34.1899 35.9432 32.8861 36.544 31.872C37.1447 30.8372 38.3877 30.4232 39.5064 30.9199L73.2951 46.7318L71.6585 50.2295L49.3675 39.7986L67.8674 54.7205L66.7073 58.777H66.728ZM38.5535 31.3753C37.9734 31.3753 37.4348 31.6857 37.1033 32.2031C36.6683 32.9482 36.834 33.8588 37.4969 34.3762L66.3551 57.6387L67.1216 54.9689L47.2751 38.9707C47.1094 38.8466 47.0887 38.6189 47.1923 38.4533C47.2959 38.2878 47.5237 38.205 47.7102 38.3085L71.3478 49.3809L72.4458 47.0629L39.2578 31.5201C39.03 31.4167 38.8021 31.3753 38.5742 31.3753H38.5535Z" fill="#97C6FF"/>
<path d="M104.826 57.349L102.795 54.8447L123.16 38.412C123.16 38.412 123.16 38.3913 123.16 38.412L98.8179 49.8156L97.4506 46.8974L130.866 31.2304C131.861 30.7958 132.917 31.1476 133.456 32.0376C133.974 32.9275 133.767 34.0244 132.938 34.666L104.826 57.349Z" fill="#16110D"/>
<path d="M104.784 57.8043L102.34 54.7826L102.588 54.5757L120.902 39.7986L98.6314 50.2295L96.9948 46.7318L130.701 30.92C131.84 30.4233 133.104 30.8165 133.705 31.8513C134.326 32.8861 134.057 34.1693 133.104 34.9143L104.743 57.8043H104.784ZM103.272 54.8861L104.888 56.8729L132.752 34.3969C133.456 33.8588 133.622 32.9482 133.187 32.2031C132.731 31.4374 131.84 31.1683 131.011 31.5408L97.9063 47.063L98.9836 49.3809L123.284 37.998L123.616 38.4741L123.408 38.681L103.293 54.9275L103.272 54.8861Z" fill="#97C6FF"/>
<path d="M104.328 63.6613C101.18 58.5908 93.9702 55.3208 85.8493 55.3208C77.2934 55.3208 69.7526 58.9633 66.9351 64.4064L64.387 63.206L65.9614 70.8015C67.3287 77.9417 76.0297 83.5503 85.7457 83.5503C95.4618 83.5503 103.976 78.1693 105.675 71.2568C105.716 71.0706 105.758 70.8843 105.779 70.7187L107.25 63.5993L104.349 63.6613H104.328Z" fill="#16110D"/>
<path d="M106.566 59.9567L106.524 59.8119C106.483 59.6256 106.421 59.4186 106.359 59.2324L105.095 54.8034H103.707C99.9988 50.7676 93.3694 48.0771 85.8079 48.0771C78.2464 48.0771 71.6171 50.7676 67.9088 54.8034H66.2722L65.0706 59.9153C65.0706 59.9153 65.0292 60.0809 65.0085 60.1844V60.2879C64.8842 60.9295 64.8013 61.571 64.8013 62.2333C64.8013 70.0565 74.2066 76.3895 85.8079 76.3895C97.4092 76.3895 106.814 70.0565 106.814 62.2333C106.814 61.4676 106.711 60.7018 106.545 59.9567H106.566Z" fill="#97C6FF"/>
<path d="M85.8286 76.8446C73.9995 76.8446 64.3663 70.2839 64.3663 62.2331C64.3663 61.7364 64.4077 61.2397 64.4906 60.743H64.4699L64.6563 59.8945L65.9614 54.3686H67.7431C71.6999 50.1466 78.4535 47.6423 85.8286 47.6423C93.2037 47.6423 99.9573 50.1466 103.914 54.3686H105.447L106.794 59.108C106.856 59.2943 106.918 59.5012 106.96 59.6875L107.167 60.4119H107.125C107.229 61.012 107.291 61.6329 107.291 62.2331C107.291 70.2839 97.6578 76.8446 85.8286 76.8446ZM65.485 60.2256V60.3705C65.3192 60.9913 65.2571 61.6122 65.2571 62.2331C65.2571 69.7872 74.4759 75.934 85.8079 75.934C97.1399 75.934 106.359 69.7872 106.359 62.2331C106.359 61.5087 106.276 60.7844 106.11 60.06L106.069 59.9151C106.027 59.7289 105.965 59.5426 105.903 59.3564L104.722 55.2585H103.479L103.334 55.1136C99.5637 50.9951 92.9965 48.5323 85.7665 48.5323C78.5364 48.5323 71.99 50.9951 68.1988 55.1136L68.0538 55.2585H66.5829L65.4021 60.2256H65.485Z" fill="#16110D"/>
<path d="M105.344 56.8315C105.344 64.1373 96.5598 70.0564 85.725 70.0564C74.8903 70.0564 66.1064 64.1373 66.1064 56.8315C66.1064 49.5258 74.8903 43.6067 85.725 43.6067C96.5598 43.6067 105.344 49.5258 105.344 56.8315Z" fill="#97C6FF"/>
<path d="M85.7043 70.4909C74.6417 70.4909 65.63 64.3649 65.63 56.8108C65.63 49.2567 74.6417 43.1306 85.7043 43.1306C96.767 43.1306 105.779 49.2567 105.779 56.8108C105.779 64.3649 96.767 70.4909 85.7043 70.4909ZM85.7043 44.0412C75.1389 44.0412 66.5415 49.7741 66.5415 56.8108C66.5415 63.8475 75.1389 69.5803 85.7043 69.5803C96.2698 69.5803 104.867 63.8475 104.867 56.8108C104.867 49.7741 96.2698 44.0412 85.7043 44.0412Z" fill="#16110D"/>
<path d="M85.8286 40.6265C76.3405 40.6265 68.9861 47.8287 68.9861 54.0169C68.9861 60.205 76.5476 65.5032 85.8286 65.5032C95.1097 65.5032 102.671 60.3499 102.671 54.0169C102.671 47.6839 95.3168 40.6265 85.8286 40.6265Z" fill="#16110D"/>
<path d="M99.8537 50.5192C99.8537 55.7346 93.5766 59.9773 85.8286 59.9773C78.0806 59.9773 71.8035 55.7553 71.8035 50.5192C71.8035 45.283 78.0806 41.061 85.8286 41.061C93.5766 41.061 99.8537 45.283 99.8537 50.5192Z" fill="#97C6FF"/>
<path d="M99.7294 53.2719C99.7294 53.2719 94.571 59.9567 85.8286 59.9567C76.6098 59.9567 71.8035 52.9614 71.8035 52.9614C71.8035 48.6153 77.9563 44.1863 85.7043 44.1863C93.4523 44.1863 99.7294 48.0565 99.7294 53.2719Z" fill="#E9F3FF"/>
<path d="M85.8286 60.412C77.8528 60.412 71.3478 55.9623 71.3478 50.5192C71.3478 45.0761 77.8321 40.6265 85.8286 40.6265C93.8252 40.6265 100.31 45.0761 100.31 50.5192C100.31 55.9623 93.8252 60.412 85.8286 60.412ZM85.8286 41.5164C78.35 41.5164 72.2593 45.5521 72.2593 50.5192C72.2593 55.4863 78.35 59.522 85.8286 59.522C93.3073 59.522 99.398 55.4863 99.398 50.5192C99.398 45.5521 93.3073 41.5164 85.8286 41.5164Z" fill="#16110D"/>
<path d="M133.021 103.088C132.565 103.088 132.109 102.943 131.716 102.653L100.144 78.6661C99.4394 78.128 99.2944 77.1139 99.833 76.4103C100.372 75.7066 101.387 75.5617 102.091 76.0998L122.269 91.4357L100.289 68.8976C99.6673 68.256 99.688 67.2419 100.33 66.621C100.972 66.0001 101.988 66.0208 102.609 66.6624L134.43 99.3623C135.217 100.169 135.362 101.473 134.637 102.322C134.202 102.839 133.601 103.088 133 103.088H133.021Z" fill="#16110D"/>
<path d="M133.021 103.419C132.482 103.419 131.964 103.232 131.529 102.901L99.9573 78.9144C99.543 78.6039 99.2737 78.1486 99.2115 77.6312C99.1494 77.1138 99.2737 76.6171 99.5844 76.2032C99.8952 75.7893 100.351 75.5202 100.869 75.4581C101.387 75.396 101.884 75.5202 102.298 75.8307L118.934 88.476L100.061 69.1251C99.7087 68.7526 99.5016 68.2559 99.5223 67.7385C99.5223 67.2211 99.7502 66.745 100.123 66.3725C100.89 65.6275 102.112 65.6482 102.858 66.4139L134.678 99.1138C135.611 100.066 135.693 101.556 134.906 102.508C134.43 103.067 133.746 103.398 133.021 103.398V103.419ZM101.138 76.0997C101.138 76.0997 101.014 76.0997 100.972 76.0997C100.641 76.1411 100.33 76.3274 100.123 76.5964C99.9159 76.8655 99.833 77.1966 99.8745 77.5484C99.9159 77.8796 100.102 78.19 100.372 78.397L131.944 102.384C132.689 102.963 133.808 102.839 134.43 102.094C135.01 101.39 134.927 100.293 134.243 99.5691L102.423 66.8692C101.925 66.3725 101.117 66.3518 100.62 66.8485C100.372 67.0762 100.227 67.4073 100.227 67.7385C100.227 68.0903 100.351 68.4007 100.579 68.6491L122.559 91.1872L122.124 91.6839L101.946 76.3481C101.718 76.1825 101.449 76.079 101.18 76.079L101.138 76.0997Z" fill="#97C6FF"/>
<path d="M37.2898 103.088C36.6683 103.088 36.0675 102.819 35.6324 102.301C34.9074 101.432 35.0731 100.128 35.8603 99.3416L68.2817 66.6417C68.9032 66.0208 69.9183 66.0001 70.5605 66.6417C71.182 67.2626 71.2028 68.2767 70.5605 68.9182L48.1038 91.5805L68.9239 76.0998C69.6283 75.5617 70.6434 75.7273 71.182 76.4309C71.7207 77.1346 71.5549 78.1487 70.8506 78.6868L38.5742 102.694C38.1806 102.984 37.7248 103.129 37.2898 103.129V103.088Z" fill="#16110D"/>
<path d="M37.2897 103.419C36.5647 103.419 35.8603 103.088 35.3838 102.529C34.5759 101.577 34.6795 100.066 35.6324 99.1139L68.0538 66.414C68.4267 66.0414 68.9032 65.8345 69.4211 65.8345C69.939 65.8345 70.4155 66.0414 70.7884 66.3933C71.1613 66.7658 71.3685 67.2418 71.3685 67.7592C71.3685 68.2766 71.1613 68.7733 70.8091 69.1252L51.4184 88.683L68.7375 75.81C69.5868 75.1684 70.8091 75.3547 71.4513 76.2032C71.7621 76.6172 71.8864 77.1346 71.8242 77.6313C71.7414 78.1487 71.4721 78.604 71.0577 78.8937L38.7813 102.901C38.3463 103.232 37.8284 103.398 37.2897 103.398V103.419ZM69.4211 66.4968C69.0896 66.4968 68.7582 66.6209 68.5096 66.8693L36.0882 99.5692C35.3838 100.273 35.301 101.39 35.881 102.094C36.5025 102.818 37.6212 102.963 38.367 102.384L70.6434 78.3763C70.9127 78.1694 71.0992 77.8796 71.1406 77.5278C71.182 77.1967 71.0992 76.8448 70.892 76.5758C70.4777 76.017 69.6697 75.8928 69.1104 76.3067L48.2902 91.7874L47.8552 91.2907L70.3119 68.6285C70.8091 68.1317 70.8091 67.3246 70.3119 66.8279C70.0633 66.5795 69.7319 66.4554 69.4004 66.4554L69.4211 66.4968Z" fill="#97C6FF"/>
<path d="M81.4574 74.3405L76.9619 73.223C76.154 73.016 75.6568 72.2088 75.8639 71.4017C76.0711 70.5945 76.879 70.0978 77.687 70.3048L82.1825 71.4224C82.9904 71.6293 83.4876 72.4365 83.2805 73.2436C83.0733 74.0508 82.2653 74.5475 81.4574 74.3405Z" fill="#E9F3FF"/>
<path d="M81.9339 68.7112L79.1993 68.1731C78.5157 68.0489 78.0599 67.3866 78.1842 66.683C78.3085 66 78.9714 65.5447 79.6758 65.6688L82.4104 66.1863C83.094 66.3104 83.5498 66.9727 83.4255 67.6764C83.3012 68.3594 82.6382 68.8147 81.9339 68.6905V68.7112Z" fill="#E9F3FF"/>
<path d="M82.3068 80.5907L78.9921 80.2595C78.1635 80.1767 77.542 79.4317 77.6248 78.6038C77.7077 77.776 78.4535 77.1551 79.2822 77.2379L82.5968 77.569C83.4255 77.6518 84.047 78.3969 83.9641 79.2247C83.8812 80.0526 83.1354 80.6734 82.3068 80.5907Z" fill="#97C6FF"/>
<path d="M83.757 62.0676C83.757 62.9368 83.0526 63.6198 82.2032 63.6198C81.3538 63.6198 80.6495 62.9161 80.6495 62.0676C80.6495 61.219 81.3538 60.5154 82.2032 60.5154C83.0526 60.5154 83.757 61.219 83.757 62.0676Z" fill="#97C6FF"/>
<path d="M86.2222 56.5624C86.5123 56.728 86.5123 56.997 86.2222 57.1626C85.9322 57.3282 85.4764 57.3282 85.1864 57.1626C84.8964 56.997 84.8964 56.728 85.1864 56.5624C85.4764 56.3968 85.9322 56.3968 86.2222 56.5624Z" fill="#16110D"/>
<path d="M88.9154 55.0104C89.2054 55.176 89.2054 55.445 88.9154 55.6106C88.6254 55.7762 88.1696 55.7762 87.8796 55.6106C87.5895 55.445 87.5895 55.176 87.8796 55.0104C88.1696 54.8448 88.6254 54.8448 88.9154 55.0104Z" fill="#16110D"/>
<path d="M91.5878 53.4582C91.8779 53.6237 91.8779 53.8928 91.5878 54.0584C91.2978 54.2239 90.842 54.2239 90.552 54.0584C90.262 53.8928 90.262 53.6237 90.552 53.4582C90.842 53.2926 91.2978 53.2926 91.5878 53.4582Z" fill="#16110D"/>
<path d="M94.281 51.9267C94.571 52.0922 94.571 52.3613 94.281 52.5269C93.991 52.6924 93.5352 52.6924 93.2452 52.5269C92.9551 52.3613 92.9551 52.0922 93.2452 51.9267C93.5352 51.7611 93.991 51.7611 94.281 51.9267Z" fill="#16110D"/>
<path d="M83.5291 55.0104C83.8191 55.176 83.8191 55.445 83.5291 55.6106C83.2391 55.7762 82.7833 55.7762 82.4933 55.6106C82.2032 55.445 82.2032 55.176 82.4933 55.0104C82.7833 54.8448 83.2391 54.8448 83.5291 55.0104Z" fill="#16110D"/>
<path d="M86.2222 53.4582C86.5123 53.6237 86.5123 53.8928 86.2222 54.0584C85.9322 54.2239 85.4764 54.2239 85.1864 54.0584C84.8964 53.8928 84.8964 53.6237 85.1864 53.4582C85.4764 53.2926 85.9322 53.2926 86.2222 53.4582Z" fill="#16110D"/>
<path d="M88.9154 51.9267C89.2054 52.0922 89.2054 52.3613 88.9154 52.5269C88.6254 52.6924 88.1696 52.6924 87.8796 52.5269C87.5895 52.3613 87.5895 52.0922 87.8796 51.9267C88.1696 51.7611 88.6254 51.7611 88.9154 51.9267Z" fill="#16110D"/>
<path d="M91.5878 50.3744C91.8779 50.54 91.8779 50.809 91.5878 50.9746C91.2978 51.1402 90.842 51.1402 90.552 50.9746C90.262 50.809 90.262 50.54 90.552 50.3744C90.842 50.2089 91.2978 50.2089 91.5878 50.3744Z" fill="#16110D"/>
<path d="M80.8567 53.4582C81.1467 53.6237 81.1467 53.8928 80.8567 54.0584C80.5667 54.2239 80.1109 54.2239 79.8209 54.0584C79.5308 53.8928 79.5308 53.6237 79.8209 53.4582C80.1109 53.2926 80.5667 53.2926 80.8567 53.4582Z" fill="#16110D"/>
<path d="M83.5291 51.9267C83.8191 52.0922 83.8191 52.3613 83.5291 52.5269C83.2391 52.6924 82.7833 52.6924 82.4933 52.5269C82.2032 52.3613 82.2032 52.0922 82.4933 51.9267C82.7833 51.7611 83.2391 51.7611 83.5291 51.9267Z" fill="#16110D"/>
<path d="M86.2222 50.3744C86.5123 50.54 86.5123 50.809 86.2222 50.9746C85.9322 51.1402 85.4764 51.1402 85.1864 50.9746C84.8964 50.809 84.8964 50.54 85.1864 50.3744C85.4764 50.2089 85.9322 50.2089 86.2222 50.3744Z" fill="#16110D"/>
<path d="M88.9154 48.8222C89.2054 48.9877 89.2054 49.2568 88.9154 49.4224C88.6254 49.5879 88.1696 49.5879 87.8796 49.4224C87.5895 49.2568 87.5895 48.9877 87.8796 48.8222C88.1696 48.6566 88.6254 48.6566 88.9154 48.8222Z" fill="#16110D"/>
<path d="M78.1635 51.9267C78.4535 52.0922 78.4535 52.3613 78.1635 52.5269C77.8735 52.6924 77.4177 52.6924 77.1277 52.5269C76.8376 52.3613 76.8376 52.0922 77.1277 51.9267C77.4177 51.7611 77.8735 51.7611 78.1635 51.9267Z" fill="#16110D"/>
<path d="M80.8567 50.3744C81.1467 50.54 81.1467 50.809 80.8567 50.9746C80.5667 51.1402 80.1109 51.1402 79.8209 50.9746C79.5308 50.809 79.5308 50.54 79.8209 50.3744C80.1109 50.2089 80.5667 50.2089 80.8567 50.3744Z" fill="#16110D"/>
<path d="M83.5291 48.8222C83.8191 48.9877 83.8191 49.2568 83.5291 49.4224C83.2391 49.5879 82.7833 49.5879 82.4933 49.4224C82.2032 49.2568 82.2032 48.9877 82.4933 48.8222C82.7833 48.6566 83.2391 48.6566 83.5291 48.8222Z" fill="#16110D"/>
<path d="M86.2222 47.2699C86.5123 47.4355 86.5123 47.7045 86.2222 47.8701C85.9322 48.0357 85.4764 48.0357 85.1864 47.8701C84.8964 47.7045 84.8964 47.4355 85.1864 47.2699C85.4764 47.1044 85.9322 47.1044 86.2222 47.2699Z" fill="#16110D"/>
<path d="M41.5367 110.372L42.6347 97.251H27.7602L28.8582 110.372C28.8582 110.372 28.8582 110.434 28.8582 110.476C28.8582 110.6 28.8996 110.703 28.9203 110.828V111.097H28.9618C29.4175 113.166 32.0278 114.76 35.2389 114.76C38.4499 114.76 41.0602 113.166 41.516 111.097V110.828C41.5574 110.703 41.5988 110.6 41.5988 110.476C41.5988 110.434 41.5988 110.414 41.5988 110.372H41.5367Z" fill="#97C6FF"/>
<path d="M43.1111 96.8163H27.7809C27.4909 96.8163 27.2837 97.0647 27.3044 97.3338L28.4024 110.331V110.476C28.4024 110.579 28.4024 110.683 28.4438 110.869L28.5888 111.552C29.2932 113.684 32.0071 115.215 35.1974 115.215C38.3878 115.215 41.1016 113.704 41.806 111.552L41.9717 110.786C41.9717 110.786 42.0132 110.6 42.0132 110.476V110.352L43.1318 96.7957L43.1111 96.8163ZM41.0809 110.352V110.496C41.0809 110.496 41.0809 110.579 41.0809 110.621C41.0809 110.683 41.0602 110.724 41.0395 110.807V111.014C40.8323 111.8 40.273 112.504 39.4857 113.063L40.3351 100.749L37.7663 102.259H35.1974V114.305C32.2971 114.305 29.7904 112.877 29.3761 110.993V110.91L29.3346 110.766C29.3346 110.703 29.3346 110.641 29.3139 110.6C29.3139 110.559 29.3139 110.517 29.2932 110.517V110.393L28.2574 97.7063H42.1375L41.0809 110.331V110.352Z" fill="#16110D"/>
<path d="M42.6139 97.2717C42.6139 100.045 39.2786 102.28 35.1767 102.28C31.0748 102.28 27.7394 100.045 27.7394 97.2717C27.7394 94.4985 31.0748 91.394 35.1767 91.394C39.2786 91.394 42.6139 94.4985 42.6139 97.2717Z" fill="#97C6FF"/>
<path d="M35.1974 102.715C30.8469 102.715 27.3044 100.273 27.3044 97.2511C27.3044 94.2294 30.7433 90.9387 35.1974 90.9387C39.6514 90.9387 43.0904 94.3329 43.0904 97.2511C43.0904 100.169 39.5479 102.715 35.1974 102.715ZM35.1974 91.8287C31.3234 91.8287 28.2159 94.7882 28.2159 97.2511C28.2159 99.7139 31.3441 101.804 35.1974 101.804C39.0507 101.804 42.1789 99.7553 42.1789 97.2511C42.1789 94.7468 39.0714 91.8287 35.1974 91.8287Z" fill="#16110D"/>
<path d="M41.5574 95.6781C41.5574 98.0375 38.7192 99.9622 35.1974 99.9622C31.6756 99.9622 28.8374 98.0375 28.8374 95.6781C28.8374 93.3188 31.6756 91.394 35.1974 91.394C38.7192 91.394 41.5574 93.3188 41.5574 95.6781Z" fill="#E9F3FF"/>
<path d="M35.1974 100.418C31.4477 100.418 28.3817 98.2859 28.3817 95.6781C28.3817 93.0704 31.4477 90.9387 35.1974 90.9387C38.9471 90.9387 42.0131 93.0704 42.0131 95.6781C42.0131 98.2859 38.9471 100.418 35.1974 100.418ZM35.1974 91.8494C31.9449 91.8494 29.2932 93.5671 29.2932 95.6781C29.2932 97.7891 31.9449 99.5069 35.1974 99.5069C38.4499 99.5069 41.1016 97.7891 41.1016 95.6781C41.1016 93.5671 38.4499 91.8494 35.1974 91.8494Z" fill="#16110D"/>
<path d="M36.7304 91.4562C36.1711 91.2907 35.8396 91.8081 35.5496 92.222C35.446 92.3876 35.2388 92.6773 35.2181 92.7187C35.1145 92.6773 34.9074 92.3876 34.8038 92.222C34.5138 91.8081 34.1616 91.3114 33.623 91.4562C32.0485 91.8702 31.0334 94.333 31.0334 95.2643C31.0334 96.6924 32.8564 97.81 35.1974 97.81C37.5384 97.81 39.3614 96.6924 39.3614 95.2643C39.3614 94.333 38.2635 91.8702 36.7512 91.4562H36.7304Z" fill="#16110D"/>
<path d="M17.7334 77.569C17.2362 77.1344 16.2418 77.0516 15.2059 77.3828C13.1757 78.0244 9.63319 79.5145 5.82134 82.7431C2.19595 85.8061 1.24299 88.3103 1.01511 89.6556C0.911522 90.3179 1.45015 90.7939 2.3824 90.856L33.2086 92.9463C33.9751 92.9877 34.7831 92.284 34.3688 91.9322L17.7126 77.5484L17.7334 77.569Z" fill="#E9F3FF"/>
<path d="M33.623 93.0705C33.4779 93.0705 33.3329 93.0705 33.1879 93.0084L3.31465 85.1438C2.65172 84.9783 2.17524 84.6264 1.94735 84.1918C1.78162 83.8607 1.76091 83.4882 1.8852 83.1156C2.44455 81.6048 3.97758 79.3282 8.10017 77.0103C12.4092 74.5888 16.1382 73.7403 18.4999 73.4505C19.7429 73.3057 20.8408 73.6161 21.3588 74.2784L35.011 91.539C35.2181 91.808 35.2388 92.1598 35.0524 92.4496C34.8038 92.8428 34.2237 93.0912 33.6437 93.0912L33.623 93.0705ZM19.0799 74.3198C18.9349 74.3198 18.7692 74.3198 18.6035 74.3405C16.739 74.5681 12.9478 75.3132 8.55593 77.7967C4.47477 80.094 3.14891 82.3292 2.73458 83.4468C2.69315 83.5709 2.69315 83.6951 2.73458 83.7986C2.83817 84.0056 3.1282 84.1918 3.54253 84.2953L33.4158 92.1598C33.7265 92.2426 34.058 92.1184 34.203 92.015L20.6337 74.8579C20.4265 74.5888 19.8672 74.3405 19.0799 74.3405V74.3198Z" fill="#16110D"/>
<path d="M52.5164 108.634C53.0136 109.069 53.9873 109.151 55.0231 108.841C57.0534 108.199 60.5959 106.73 64.4492 103.522C68.0953 100.459 69.0897 97.9755 69.3383 96.6095C69.4626 95.9473 68.924 95.4713 67.9917 95.3885L37.3312 93.0705C36.5647 93.0084 35.7568 93.7121 36.1504 94.0846L52.5164 108.634Z" fill="#E9F3FF"/>
<path d="M51.1699 112.753C50.1755 112.753 49.3261 112.442 48.9118 111.883L35.591 94.5192C35.3839 94.2502 35.3839 93.8983 35.591 93.6086C35.9225 93.1119 36.7719 92.8635 37.4348 93.0291L67.1009 101.08C67.7431 101.266 68.2403 101.597 68.4475 102.032C68.6132 102.363 68.6339 102.756 68.4889 103.129C67.9089 104.64 66.3344 106.916 62.1704 109.213C57.8406 111.614 54.1116 112.442 51.7292 112.711C51.5428 112.732 51.3563 112.753 51.1699 112.753ZM49.6161 111.325C49.8647 111.635 50.5898 111.925 51.6257 111.821C53.9045 111.552 57.5092 110.766 61.7146 108.427C65.8372 106.13 67.1838 103.915 67.6188 102.798C67.6603 102.674 67.6603 102.549 67.6188 102.446C67.5152 102.239 67.2252 102.053 66.8316 101.949L37.1655 93.8983C36.8548 93.8156 36.5026 93.9397 36.3576 94.0432L49.5954 111.325H49.6161Z" fill="#16110D"/>
<path d="M37.7662 93.0911C37.7662 93.8982 36.6061 94.5398 35.1974 94.5398C33.7887 94.5398 32.6285 93.8982 32.6285 93.0911C32.6285 92.2839 33.7887 91.6423 35.1974 91.6423C36.6061 91.6423 37.7662 92.2839 37.7662 93.0911Z" fill="#E9F3FF"/>
<path d="M35.1974 94.9951C33.4986 94.9951 32.1728 94.1673 32.1728 93.0911C32.1728 92.0149 33.4986 91.187 35.1974 91.187C36.8962 91.187 38.222 92.0149 38.222 93.0911C38.222 94.1673 36.8962 94.9951 35.1974 94.9951ZM35.1974 92.0769C33.9751 92.0769 33.0843 92.615 33.0843 93.0704C33.0843 93.5257 33.9958 94.0638 35.1974 94.0638C36.399 94.0638 37.3105 93.5257 37.3105 93.0704C37.3105 92.615 36.399 92.0769 35.1974 92.0769Z" fill="#16110D"/>
<path d="M142.074 110.828L143.172 97.7065H128.298L129.396 110.828C129.396 110.828 129.396 110.89 129.396 110.931C129.396 111.056 129.437 111.159 129.458 111.283V111.552H129.499C129.955 113.622 132.565 115.215 135.776 115.215C138.987 115.215 141.598 113.622 142.053 111.552V111.283C142.095 111.159 142.136 111.056 142.136 110.931C142.136 110.89 142.136 110.869 142.136 110.828H142.074Z" fill="#97C6FF"/>
<path d="M143.649 97.2719H128.318C128.049 97.2719 127.821 97.5203 127.842 97.7893L128.94 110.786V110.931C128.94 111.035 128.94 111.138 128.981 111.325L129.126 112.008C129.831 114.139 132.544 115.671 135.735 115.671C138.925 115.671 141.639 114.16 142.343 112.008L142.509 111.242C142.509 111.242 142.551 111.056 142.551 110.931V110.807L143.669 97.2512L143.649 97.2719ZM141.618 110.807V110.952C141.618 110.952 141.618 111.035 141.618 111.076C141.618 111.138 141.598 111.18 141.577 111.263V111.469C141.37 112.256 140.81 112.96 140.023 113.518L140.873 101.204L138.304 102.715H135.735V114.76C132.835 114.76 130.328 113.332 129.913 111.449V111.366L129.872 111.221C129.872 111.159 129.872 111.097 129.851 111.056C129.851 111.014 129.851 110.973 129.831 110.973V110.849L128.795 98.1618H142.675L141.618 110.786V110.807Z" fill="#16110D"/>
<path d="M143.172 97.7271C143.172 100.5 139.837 102.736 135.735 102.736C131.633 102.736 128.298 100.5 128.298 97.7271C128.298 94.9538 131.633 91.8494 135.735 91.8494C139.837 91.8494 143.172 94.9538 143.172 97.7271Z" fill="#97C6FF"/>
<path d="M135.735 103.17C131.384 103.17 127.842 100.728 127.842 97.7064C127.842 94.6847 131.281 91.394 135.735 91.394C140.189 91.394 143.628 94.7882 143.628 97.7064C143.628 100.625 140.085 103.17 135.735 103.17ZM135.735 92.284C131.861 92.284 128.753 95.2435 128.753 97.7064C128.753 100.169 131.882 102.26 135.735 102.26C139.588 102.26 142.716 100.211 142.716 97.7064C142.716 95.2021 139.609 92.284 135.735 92.284Z" fill="#16110D"/>
<path d="M142.095 96.1335C142.095 98.4928 139.257 100.418 135.735 100.418C132.213 100.418 129.375 98.4928 129.375 96.1335C129.375 93.7741 132.213 91.8494 135.735 91.8494C139.257 91.8494 142.095 93.7741 142.095 96.1335Z" fill="#E9F3FF"/>
<path d="M135.735 100.873C131.985 100.873 128.919 98.7412 128.919 96.1335C128.919 93.5257 131.985 91.394 135.735 91.394C139.485 91.394 142.551 93.5257 142.551 96.1335C142.551 98.7412 139.485 100.873 135.735 100.873ZM135.735 92.3047C132.482 92.3047 129.831 94.0225 129.831 96.1335C129.831 98.2445 132.482 99.9622 135.735 99.9622C138.987 99.9622 141.639 98.2445 141.639 96.1335C141.639 94.0225 138.987 92.3047 135.735 92.3047Z" fill="#16110D"/>
<path d="M137.289 91.9116C136.729 91.746 136.398 92.2634 136.108 92.6773C136.004 92.8429 135.797 93.1326 135.776 93.174C135.673 93.1326 135.465 92.8429 135.362 92.6773C135.072 92.2634 134.72 91.7667 134.181 91.9116C132.607 92.3255 131.591 94.7883 131.591 95.7196C131.591 97.1477 133.415 98.2653 135.756 98.2653C138.096 98.2653 139.92 97.1477 139.92 95.7196C139.92 94.7883 138.822 92.3255 137.309 91.9116H137.289Z" fill="#16110D"/>
<path d="M102.36 95.223C101.449 95.2851 100.89 95.7197 100.972 96.382C101.159 97.6651 102.07 100.066 105.758 103.357C109.259 106.482 112.947 108.055 115.06 108.779C116.116 109.131 117.111 109.069 117.629 108.634L134.409 94.4365C134.823 94.0847 134.015 93.381 133.249 93.4224L102.36 95.223Z" fill="#E9F3FF"/>
<path d="M119.058 113.001C118.851 113.001 118.644 113.001 118.416 112.96C116.344 112.711 112.242 111.904 108.057 109.421C103.79 106.916 102.298 104.702 101.801 103.294C101.677 102.943 101.698 102.57 101.863 102.239C102.091 101.804 102.588 101.473 103.231 101.287L133.145 93.4224C133.808 93.2569 134.658 93.5052 134.989 94.0019C135.175 94.2917 135.175 94.6435 134.948 94.9125L121.316 112.152C120.881 112.691 120.052 113.001 119.058 113.001ZM133.58 94.271C133.58 94.271 133.435 94.271 133.373 94.2917L103.458 102.156C103.065 102.26 102.754 102.446 102.65 102.653C102.588 102.756 102.588 102.86 102.65 102.984C103.023 104.019 104.287 106.151 108.534 108.634C112.594 111.014 116.551 111.801 118.561 112.049C119.617 112.173 120.384 111.904 120.632 111.573L134.181 94.4365C134.077 94.3537 133.85 94.271 133.601 94.271H133.58Z" fill="#16110D"/>
<path d="M168.571 91.9322C169.503 91.8908 170.062 91.4354 169.979 90.7939C169.814 89.5107 168.923 87.1307 165.297 83.8193C161.838 80.6735 158.171 79.0799 156.037 78.3555C155.001 78.0037 153.965 78.045 153.447 78.4797L136.377 92.4909C135.963 92.8428 136.75 93.5465 137.516 93.5051L168.55 91.9322H168.571Z" fill="#E9F3FF"/>
<path d="M137.164 93.5879C136.605 93.5879 136.004 93.3396 135.756 92.9464C135.569 92.6566 135.59 92.3048 135.797 92.0357L149.76 74.92C150.299 74.2577 151.417 73.968 152.681 74.1336C154.753 74.4026 158.855 75.2305 163.019 77.714C167.245 80.2389 168.716 82.4534 169.192 83.8814C169.316 84.2333 169.296 84.6058 169.109 84.9369C168.881 85.3716 168.384 85.7027 167.721 85.8683L137.599 93.5465C137.454 93.5879 137.309 93.5879 137.164 93.5879ZM136.584 92.5117C136.729 92.6152 137.061 92.7394 137.371 92.6566L167.493 84.9783C167.908 84.8749 168.198 84.6886 168.322 84.4816C168.384 84.3781 168.384 84.2747 168.322 84.1505C167.97 83.1157 166.748 80.984 162.542 78.4797C158.523 76.079 154.566 75.2718 152.557 75.0235C151.479 74.8993 150.713 75.1684 150.464 75.4995L136.584 92.5324V92.5117Z" fill="#16110D"/>
<path d="M138.304 93.5466C138.304 94.3538 137.144 94.9954 135.735 94.9954C134.326 94.9954 133.166 94.3538 133.166 93.5466C133.166 92.7395 134.326 92.0979 135.735 92.0979C137.144 92.0979 138.304 92.7395 138.304 93.5466Z" fill="#E9F3FF"/>
<path d="M135.735 95.4507C134.036 95.4507 132.71 94.6228 132.71 93.5466C132.71 92.4704 134.036 91.6426 135.735 91.6426C137.434 91.6426 138.759 92.4704 138.759 93.5466C138.759 94.6228 137.434 95.4507 135.735 95.4507ZM135.735 92.5325C134.513 92.5325 133.622 93.0706 133.622 93.5259C133.622 93.9812 134.533 94.5193 135.735 94.5193C136.936 94.5193 137.848 93.9812 137.848 93.5259C137.848 93.0706 136.936 92.5325 135.735 92.5325Z" fill="#16110D"/>
</g>
<defs>
<clipPath id="clip0_57_501">
<rect width="170" height="198" fill="white"/>
</clipPath>
</defs>
</svg>
