<svg width="182" height="93" viewBox="0 0 182 93" fill="none" xmlns="http://www.w3.org/2000/svg">
<path d="M93.6579 67.3789H86.7416C80.6573 67.3789 75.6651 62.3461 75.6651 56.2124C75.6651 54.3251 77.1731 52.8048 79.0452 52.8048C80.9173 52.8048 82.4253 54.3251 82.4253 56.2124C82.4253 58.6239 84.4015 60.616 86.7936 60.616H93.7099C96.102 60.616 98.0782 58.6239 98.0782 56.2124V49.6593C98.0782 47.2478 96.102 45.2556 93.7099 45.2556H84.1935C82.3214 45.2556 80.8133 43.7353 80.8133 41.848V19.9869C80.8133 18.0996 82.3214 16.5793 84.1935 16.5793C86.0656 16.5793 87.5736 18.0996 87.5736 19.9869V38.4928H93.7099C99.7942 38.4928 104.786 43.5256 104.786 49.6593V56.2124C104.786 62.3461 99.7942 67.3789 93.7099 67.3789H93.6579Z" fill="#013177"/>
<path d="M4.26547 92.2804C2.8094 92.2804 1.45736 91.2843 1.04134 89.8164C0.52131 88.034 1.56135 86.1467 3.38144 85.6224L87.0537 61.8741C87.6257 61.7168 88.2498 61.7168 88.8218 61.8741L178.786 85.6224C180.554 86.0942 181.646 87.9291 181.178 89.7639C180.71 91.5464 178.89 92.6473 177.07 92.1755L87.9897 68.6368L5.20156 92.1755C4.88955 92.2804 4.57749 92.2804 4.26547 92.2804Z" fill="#013177"/>
<path d="M146.624 0H35.3759C33.5115 0 32 1.07961 32 2.41133V20.5887C32 21.9205 33.5115 23 35.3759 23H146.624C148.489 23 150 21.9205 150 20.5887V2.41133C150 1.07961 148.489 0 146.624 0Z" fill="#074EA3"/>
</svg>
