<svg width="147" height="257" viewBox="0 0 147 257" fill="none" xmlns="http://www.w3.org/2000/svg">
<path d="M106.595 210.93C105.936 211.311 105.936 211.957 106.595 212.338C107.255 212.719 108.317 212.719 108.977 212.338C109.637 211.957 109.637 211.311 108.977 210.93C108.317 210.549 107.255 210.549 106.595 210.93Z" fill="#16110D"/>
<path d="M100.369 207.229C99.7095 207.61 99.7095 208.256 100.369 208.637C101.029 209.018 102.091 209.018 102.751 208.637C103.411 208.256 103.411 207.61 102.751 207.229C102.091 206.848 101.029 206.848 100.369 207.229Z" fill="#16110D"/>
<path d="M94.1147 203.531C93.4548 203.912 93.4548 204.557 94.1147 204.939C94.7746 205.32 95.8362 205.32 96.4961 204.939C97.156 204.557 97.156 203.912 96.4961 203.531C95.8362 203.149 94.7746 203.149 94.1147 203.531Z" fill="#16110D"/>
<path d="M87.86 199.829C87.2001 200.211 87.2001 200.856 87.86 201.237C88.5199 201.619 89.5815 201.619 90.2414 201.237C90.9013 200.856 90.9013 200.211 90.2414 199.829C89.5815 199.448 88.5199 199.448 87.86 199.829Z" fill="#16110D"/>
<path d="M81.634 196.159C80.9741 196.54 80.9741 197.186 81.634 197.567C82.2939 197.948 83.3555 197.948 84.0154 197.567C84.6753 197.186 84.6753 196.54 84.0154 196.159C83.3555 195.778 82.2939 195.778 81.634 196.159Z" fill="#16110D"/>
<path d="M112.85 207.229C112.19 207.61 112.19 208.256 112.85 208.637C113.51 209.018 114.572 209.018 115.232 208.637C115.891 208.256 115.891 207.61 115.232 207.229C114.572 206.848 113.51 206.848 112.85 207.229Z" fill="#16110D"/>
<path d="M106.595 203.531C105.936 203.912 105.936 204.557 106.595 204.939C107.255 205.32 108.317 205.32 108.977 204.939C109.637 204.557 109.637 203.912 108.977 203.531C108.317 203.149 107.255 203.149 106.595 203.531Z" fill="#16110D"/>
<path d="M100.369 199.829C99.7095 200.211 99.7095 200.856 100.369 201.237C101.029 201.619 102.091 201.619 102.751 201.237C103.411 200.856 103.411 200.211 102.751 199.829C102.091 199.448 101.029 199.448 100.369 199.829Z" fill="#16110D"/>
<path d="M94.1147 196.159C93.4548 196.54 93.4548 197.186 94.1147 197.567C94.7746 197.948 95.8362 197.948 96.4961 197.567C97.156 197.186 97.156 196.54 96.4961 196.159C95.8362 195.778 94.7746 195.778 94.1147 196.159Z" fill="#16110D"/>
<path d="M87.86 192.458C87.2001 192.84 87.2001 193.485 87.86 193.866C88.5199 194.248 89.5815 194.248 90.2414 193.866C90.9013 193.485 90.9013 192.84 90.2414 192.458C89.5815 192.077 88.5199 192.077 87.86 192.458Z" fill="#16110D"/>
<path d="M119.105 203.531C118.445 203.912 118.445 204.557 119.105 204.939C119.765 205.32 120.826 205.32 121.486 204.939C122.146 204.557 122.146 203.912 121.486 203.531C120.826 203.149 119.765 203.149 119.105 203.531Z" fill="#16110D"/>
<path d="M112.85 199.829C112.19 200.211 112.19 200.856 112.85 201.237C113.51 201.619 114.572 201.619 115.232 201.237C115.891 200.856 115.891 200.211 115.232 199.829C114.572 199.448 113.51 199.448 112.85 199.829Z" fill="#16110D"/>
<path d="M106.595 196.159C105.936 196.54 105.936 197.186 106.595 197.567C107.255 197.948 108.317 197.948 108.977 197.567C109.637 197.186 109.637 196.54 108.977 196.159C108.317 195.778 107.255 195.778 106.595 196.159Z" fill="#16110D"/>
<path d="M100.369 192.458C99.7095 192.84 99.7095 193.485 100.369 193.866C101.029 194.248 102.091 194.248 102.751 193.866C103.411 193.485 103.411 192.84 102.751 192.458C102.091 192.077 101.029 192.077 100.369 192.458Z" fill="#16110D"/>
<path d="M94.1147 188.757C93.4548 189.139 93.4548 189.784 94.1147 190.165C94.7746 190.547 95.8362 190.547 96.4961 190.165C97.156 189.784 97.156 189.139 96.4961 188.757C95.8362 188.376 94.7746 188.376 94.1147 188.757Z" fill="#16110D"/>
<path d="M125.331 199.829C124.671 200.211 124.671 200.856 125.331 201.237C125.991 201.619 127.052 201.619 127.712 201.237C128.372 200.856 128.372 200.211 127.712 199.829C127.052 199.448 125.991 199.448 125.331 199.829Z" fill="#16110D"/>
<path d="M119.105 196.159C118.445 196.54 118.445 197.186 119.105 197.567C119.765 197.948 120.826 197.948 121.486 197.567C122.146 197.186 122.146 196.54 121.486 196.159C120.826 195.778 119.765 195.778 119.105 196.159Z" fill="#16110D"/>
<path d="M112.85 192.458C112.19 192.84 112.19 193.485 112.85 193.866C113.51 194.248 114.572 194.248 115.232 193.866C115.891 193.485 115.891 192.84 115.232 192.458C114.572 192.077 113.51 192.077 112.85 192.458Z" fill="#16110D"/>
<path d="M106.595 188.757C105.936 189.139 105.936 189.784 106.595 190.165C107.255 190.547 108.317 190.547 108.977 190.165C109.637 189.784 109.637 189.139 108.977 188.757C108.317 188.376 107.255 188.376 106.595 188.757Z" fill="#16110D"/>
<path d="M100.369 185.087C99.7095 185.468 99.7095 186.113 100.369 186.495C101.029 186.876 102.091 186.876 102.751 186.495C103.411 186.113 103.411 185.468 102.751 185.087C102.091 184.705 101.029 184.705 100.369 185.087Z" fill="#16110D"/>
<path d="M131.586 196.159C130.926 196.54 130.926 197.186 131.586 197.567C132.245 197.948 133.307 197.948 133.967 197.567C134.627 197.186 134.627 196.54 133.967 196.159C133.307 195.778 132.245 195.778 131.586 196.159Z" fill="#16110D"/>
<path d="M125.331 192.458C124.671 192.84 124.671 193.485 125.331 193.866C125.991 194.248 127.052 194.248 127.712 193.866C128.372 193.485 128.372 192.84 127.712 192.458C127.052 192.077 125.991 192.077 125.331 192.458Z" fill="#16110D"/>
<path d="M119.105 188.757C118.445 189.139 118.445 189.784 119.105 190.165C119.765 190.547 120.826 190.547 121.486 190.165C122.146 189.784 122.146 189.139 121.486 188.757C120.826 188.376 119.765 188.376 119.105 188.757Z" fill="#16110D"/>
<path d="M112.85 185.087C112.19 185.468 112.19 186.113 112.85 186.495C113.51 186.876 114.572 186.876 115.232 186.495C115.891 186.113 115.891 185.468 115.232 185.087C114.572 184.705 113.51 184.705 112.85 185.087Z" fill="#16110D"/>
<path d="M106.595 181.386C105.936 181.767 105.936 182.412 106.595 182.794C107.255 183.175 108.317 183.175 108.977 182.794C109.637 182.412 109.637 181.767 108.977 181.386C108.317 181.004 107.255 181.004 106.595 181.386Z" fill="#16110D"/>
<path d="M137.898 192.428C137.238 192.809 137.238 193.454 137.898 193.836C138.558 194.217 139.619 194.217 140.279 193.836C140.939 193.454 140.939 192.809 140.279 192.428C139.619 192.046 138.558 192.046 137.898 192.428Z" fill="#16110D"/>
<path d="M131.643 188.729C130.983 189.11 130.983 189.756 131.643 190.137C132.303 190.518 133.364 190.518 134.024 190.137C134.684 189.756 134.684 189.11 134.024 188.729C133.364 188.348 132.303 188.348 131.643 188.729Z" fill="#16110D"/>
<path d="M125.388 185.028C124.728 185.41 124.728 186.055 125.388 186.436C126.048 186.818 127.11 186.818 127.77 186.436C128.43 186.055 128.43 185.41 127.77 185.028C127.11 184.647 126.048 184.647 125.388 185.028Z" fill="#16110D"/>
<path d="M119.162 181.358C118.502 181.739 118.502 182.384 119.162 182.766C119.822 183.147 120.884 183.147 121.544 182.766C122.204 182.384 122.204 181.739 121.544 181.358C120.884 180.976 119.822 180.976 119.162 181.358Z" fill="#16110D"/>
<path d="M112.908 177.657C112.248 178.038 112.248 178.683 112.908 179.065C113.567 179.446 114.629 179.446 115.289 179.065C115.949 178.683 115.949 178.038 115.289 177.657C114.629 177.275 113.567 177.275 112.908 177.657Z" fill="#16110D"/>
<path d="M144.124 188.729C143.464 189.11 143.464 189.756 144.124 190.137C144.784 190.518 145.845 190.518 146.505 190.137C147.165 189.756 147.165 189.11 146.505 188.729C145.845 188.348 144.784 188.348 144.124 188.729Z" fill="#16110D"/>
<path d="M137.898 185.028C137.238 185.41 137.238 186.055 137.898 186.436C138.558 186.818 139.619 186.818 140.279 186.436C140.939 186.055 140.939 185.41 140.279 185.028C139.619 184.647 138.558 184.647 137.898 185.028Z" fill="#16110D"/>
<path d="M131.643 181.358C130.983 181.739 130.983 182.384 131.643 182.766C132.303 183.147 133.364 183.147 134.024 182.766C134.684 182.384 134.684 181.739 134.024 181.358C133.364 180.976 132.303 180.976 131.643 181.358Z" fill="#16110D"/>
<path d="M125.388 177.657C124.728 178.038 124.728 178.683 125.388 179.065C126.048 179.446 127.11 179.446 127.77 179.065C128.43 178.683 128.43 178.038 127.77 177.657C127.11 177.275 126.048 177.275 125.388 177.657Z" fill="#16110D"/>
<path d="M119.162 173.956C118.502 174.337 118.502 174.983 119.162 175.364C119.822 175.745 120.884 175.745 121.544 175.364C122.204 174.983 122.204 174.337 121.544 173.956C120.884 173.575 119.822 173.575 119.162 173.956Z" fill="#16110D"/>
<path d="M144.124 181.358C143.464 181.739 143.464 182.384 144.124 182.766C144.784 183.147 145.845 183.147 146.505 182.766C147.165 182.384 147.165 181.739 146.505 181.358C145.845 180.976 144.784 180.976 144.124 181.358Z" fill="#16110D"/>
<path d="M137.898 177.657C137.238 178.038 137.238 178.683 137.898 179.065C138.558 179.446 139.619 179.446 140.279 179.065C140.939 178.683 140.939 178.038 140.279 177.657C139.619 177.275 138.558 177.275 137.898 177.657Z" fill="#16110D"/>
<path d="M131.643 173.956C130.983 174.337 130.983 174.983 131.643 175.364C132.303 175.745 133.364 175.745 134.024 175.364C134.684 174.983 134.684 174.337 134.024 173.956C133.364 173.575 132.303 173.575 131.643 173.956Z" fill="#16110D"/>
<path d="M125.388 170.286C124.728 170.667 124.728 171.312 125.388 171.694C126.048 172.075 127.11 172.075 127.77 171.694C128.43 171.312 128.43 170.667 127.77 170.286C127.11 169.904 126.048 169.904 125.388 170.286Z" fill="#16110D"/>
<path d="M144.124 173.956C143.464 174.337 143.464 174.983 144.124 175.364C144.784 175.745 145.845 175.745 146.505 175.364C147.165 174.983 147.165 174.337 146.505 173.956C145.845 173.575 144.784 173.575 144.124 173.956Z" fill="#16110D"/>
<path d="M137.898 170.286C137.238 170.667 137.238 171.312 137.898 171.694C138.558 172.075 139.619 172.075 140.279 171.694C140.939 171.312 140.939 170.667 140.279 170.286C139.619 169.904 138.558 169.904 137.898 170.286Z" fill="#16110D"/>
<path d="M131.643 166.584C130.983 166.966 130.983 167.611 131.643 167.992C132.303 168.374 133.364 168.374 134.024 167.992C134.684 167.611 134.684 166.966 134.024 166.584C133.364 166.203 132.303 166.203 131.643 166.584Z" fill="#16110D"/>
<path d="M19.2591 255.306C18.5992 255.687 18.5992 256.333 19.2591 256.714C19.919 257.095 20.9805 257.095 21.6404 256.714C22.3003 256.333 22.3003 255.687 21.6404 255.306C20.9805 254.925 19.919 254.925 19.2591 255.306Z" fill="#16110D"/>
<path d="M13.0044 251.605C12.3445 251.987 12.3445 252.632 13.0044 253.013C13.6643 253.395 14.7259 253.395 15.3858 253.013C16.0457 252.632 16.0457 251.987 15.3858 251.605C14.7259 251.224 13.6643 251.224 13.0044 251.605Z" fill="#16110D"/>
<path d="M25.5425 251.575C24.8826 251.956 24.8826 252.601 25.5425 252.983C26.2024 253.364 27.264 253.364 27.9239 252.983C28.5838 252.601 28.5838 251.956 27.9239 251.575C27.264 251.193 26.2024 251.193 25.5425 251.575Z" fill="#16110D"/>
<path d="M19.2877 247.876C18.6278 248.257 18.6278 248.903 19.2877 249.284C19.9476 249.665 21.0092 249.665 21.6691 249.284C22.329 248.903 22.329 248.257 21.6691 247.876C21.0092 247.495 19.9476 247.495 19.2877 247.876Z" fill="#16110D"/>
<path d="M31.7972 255.276C31.1373 255.657 31.1373 256.302 31.7972 256.684C32.4571 257.065 33.5186 257.065 34.1785 256.684C34.8384 256.302 34.8384 255.657 34.1785 255.276C33.5186 254.894 32.4571 254.894 31.7972 255.276Z" fill="#16110D"/>
<path d="M31.7972 247.876C31.1373 248.257 31.1373 248.903 31.7972 249.284C32.4571 249.665 33.5186 249.665 34.1785 249.284C34.8384 248.903 34.8384 248.257 34.1785 247.876C33.5186 247.495 32.4571 247.495 31.7972 247.876Z" fill="#16110D"/>
<path d="M25.5425 244.203C24.8826 244.585 24.8826 245.23 25.5425 245.612C26.2024 245.993 27.264 245.993 27.9239 245.612C28.5838 245.23 28.5838 244.585 27.9239 244.203C27.264 243.822 26.2024 243.822 25.5425 244.203Z" fill="#16110D"/>
<path d="M38.0519 251.575C37.392 251.956 37.392 252.601 38.0519 252.983C38.7118 253.364 39.7733 253.364 40.4332 252.983C41.0931 252.601 41.0931 251.956 40.4332 251.575C39.7733 251.193 38.7118 251.193 38.0519 251.575Z" fill="#16110D"/>
<path d="M38.0519 244.203C37.392 244.585 37.392 245.23 38.0519 245.612C38.7118 245.993 39.7733 245.993 40.4332 245.612C41.0931 245.23 41.0931 244.585 40.4332 244.203C39.7733 243.822 38.7118 243.822 38.0519 244.203Z" fill="#16110D"/>
<path d="M31.7972 240.505C31.1373 240.886 31.1373 241.531 31.7972 241.913C32.4571 242.294 33.5186 242.294 34.1785 241.913C34.8384 241.531 34.8384 240.886 34.1785 240.505C33.5186 240.123 32.4571 240.123 31.7972 240.505Z" fill="#16110D"/>
<path d="M44.2779 247.876C43.618 248.257 43.618 248.903 44.2779 249.284C44.9378 249.665 45.9994 249.665 46.6593 249.284C47.3192 248.903 47.3192 248.257 46.6593 247.876C45.9994 247.495 44.9378 247.495 44.2779 247.876Z" fill="#16110D"/>
<path d="M44.2779 240.505C43.618 240.886 43.618 241.531 44.2779 241.913C44.9378 242.294 45.9994 242.294 46.6593 241.913C47.3192 241.531 47.3192 240.886 46.6593 240.505C45.9994 240.123 44.9378 240.123 44.2779 240.505Z" fill="#16110D"/>
<path d="M38.0519 236.804C37.392 237.185 37.392 237.83 38.0519 238.212C38.7118 238.593 39.7733 238.593 40.4332 238.212C41.0931 237.83 41.0931 237.185 40.4332 236.804C39.7733 236.422 38.7118 236.422 38.0519 236.804Z" fill="#16110D"/>
<path d="M50.5326 244.203C49.8727 244.585 49.8727 245.23 50.5326 245.612C51.1925 245.993 52.2541 245.993 52.914 245.612C53.5739 245.23 53.5739 244.585 52.914 244.203C52.2541 243.822 51.1925 243.822 50.5326 244.203Z" fill="#16110D"/>
<path d="M56.7873 240.505C56.1274 240.886 56.1274 241.531 56.7873 241.913C57.4472 242.294 58.5088 242.294 59.1687 241.913C59.8286 241.531 59.8286 240.886 59.1687 240.505C58.5088 240.123 57.4472 240.123 56.7873 240.505Z" fill="#16110D"/>
<path d="M44.2779 233.133C43.618 233.515 43.618 234.16 44.2779 234.541C44.9378 234.923 45.9994 234.923 46.6593 234.541C47.3192 234.16 47.3192 233.515 46.6593 233.133C45.9994 232.752 44.9378 232.752 44.2779 233.133Z" fill="#16110D"/>
<path d="M50.5326 236.804C49.8727 237.185 49.8727 237.83 50.5326 238.212C51.1925 238.593 52.2541 238.593 52.914 238.212C53.5739 237.83 53.5739 237.185 52.914 236.804C52.2541 236.422 51.1925 236.422 50.5326 236.804Z" fill="#16110D"/>
<path d="M63.0133 236.804C62.3534 237.185 62.3534 237.83 63.0133 238.212C63.6732 238.593 64.7348 238.593 65.3947 238.212C66.0546 237.83 66.0546 237.185 65.3947 236.804C64.7348 236.422 63.6732 236.422 63.0133 236.804Z" fill="#16110D"/>
<path d="M56.7873 233.133C56.1274 233.515 56.1274 234.16 56.7873 234.541C57.4472 234.923 58.5088 234.923 59.1687 234.541C59.8286 234.16 59.8286 233.515 59.1687 233.133C58.5088 232.752 57.4472 232.752 56.7873 233.133Z" fill="#16110D"/>
<path d="M50.5326 229.432C49.8727 229.814 49.8727 230.459 50.5326 230.841C51.1925 231.222 52.2541 231.222 52.914 230.841C53.5739 230.459 53.5739 229.814 52.914 229.432C52.2541 229.051 51.1925 229.051 50.5326 229.432Z" fill="#16110D"/>
<path d="M69.2681 233.133C68.6082 233.515 68.6082 234.16 69.2681 234.541C69.928 234.923 70.9895 234.923 71.6494 234.541C72.3093 234.16 72.3093 233.515 71.6494 233.133C70.9895 232.752 69.928 232.752 69.2681 233.133Z" fill="#16110D"/>
<path d="M63.0133 229.432C62.3534 229.814 62.3534 230.459 63.0133 230.841C63.6732 231.222 64.7348 231.222 65.3947 230.841C66.0546 230.459 66.0546 229.814 65.3947 229.432C64.7348 229.051 63.6732 229.051 63.0133 229.432Z" fill="#16110D"/>
<path d="M56.7873 225.731C56.1274 226.113 56.1274 226.758 56.7873 227.139C57.4472 227.521 58.5088 227.521 59.1687 227.139C59.8286 226.758 59.8286 226.113 59.1687 225.731C58.5088 225.35 57.4472 225.35 56.7873 225.731Z" fill="#16110D"/>
<path d="M75.5227 229.432C74.8628 229.814 74.8628 230.459 75.5227 230.841C76.1826 231.222 77.2442 231.222 77.9041 230.841C78.564 230.459 78.564 229.814 77.9041 229.432C77.2442 229.051 76.1826 229.051 75.5227 229.432Z" fill="#16110D"/>
<path d="M69.2681 225.731C68.6082 226.113 68.6082 226.758 69.2681 227.139C69.928 227.521 70.9895 227.521 71.6494 227.139C72.3093 226.758 72.3093 226.113 71.6494 225.731C70.9895 225.35 69.928 225.35 69.2681 225.731Z" fill="#16110D"/>
<path d="M63.0133 222.061C62.3534 222.442 62.3534 223.088 63.0133 223.469C63.6732 223.85 64.7348 223.85 65.3947 223.469C66.0546 223.088 66.0546 222.442 65.3947 222.061C64.7348 221.68 63.6732 221.68 63.0133 222.061Z" fill="#16110D"/>
<path d="M81.8062 225.703C81.1463 226.084 81.1463 226.73 81.8062 227.111C82.4661 227.492 83.5276 227.492 84.1875 227.111C84.8474 226.73 84.8474 226.084 84.1875 225.703C83.5276 225.322 82.4661 225.322 81.8062 225.703Z" fill="#16110D"/>
<path d="M75.5801 222.002C74.9202 222.384 74.9202 223.029 75.5801 223.41C76.24 223.792 77.3016 223.792 77.9615 223.41C78.6214 223.029 78.6214 222.384 77.9615 222.002C77.3016 221.621 76.24 221.621 75.5801 222.002Z" fill="#16110D"/>
<path d="M69.3254 218.332C68.6655 218.713 68.6655 219.359 69.3254 219.74C69.9853 220.121 71.0469 220.121 71.7068 219.74C72.3667 219.359 72.3667 218.713 71.7068 218.332C71.0469 217.951 69.9853 217.951 69.3254 218.332Z" fill="#16110D"/>
<path d="M88.0609 222.002C87.401 222.384 87.401 223.029 88.0609 223.41C88.7208 223.792 89.7823 223.792 90.4422 223.41C91.1021 223.029 91.1021 222.384 90.4422 222.002C89.7823 221.621 88.7208 221.621 88.0609 222.002Z" fill="#16110D"/>
<path d="M81.8062 218.332C81.1463 218.713 81.1463 219.359 81.8062 219.74C82.4661 220.121 83.5276 220.121 84.1875 219.74C84.8474 219.359 84.8474 218.713 84.1875 218.332C83.5276 217.951 82.4661 217.951 81.8062 218.332Z" fill="#16110D"/>
<path d="M75.5801 214.631C74.9202 215.012 74.9202 215.657 75.5801 216.039C76.24 216.42 77.3016 216.42 77.9615 216.039C78.6214 215.657 78.6214 215.012 77.9615 214.631C77.3016 214.249 76.24 214.249 75.5801 214.631Z" fill="#16110D"/>
<path d="M94.3155 218.332C93.6556 218.713 93.6556 219.359 94.3155 219.74C94.9754 220.121 96.037 220.121 96.6969 219.74C97.3568 219.359 97.3568 218.713 96.6969 218.332C96.037 217.951 94.9754 217.951 94.3155 218.332Z" fill="#16110D"/>
<path d="M88.0609 214.631C87.401 215.012 87.401 215.657 88.0609 216.039C88.7208 216.42 89.7823 216.42 90.4422 216.039C91.1021 215.657 91.1021 215.012 90.4422 214.631C89.7823 214.249 88.7208 214.249 88.0609 214.631Z" fill="#16110D"/>
<path d="M81.8062 210.93C81.1463 211.311 81.1463 211.957 81.8062 212.338C82.4661 212.719 83.5276 212.719 84.1875 212.338C84.8474 211.957 84.8474 211.311 84.1875 210.93C83.5276 210.549 82.4661 210.549 81.8062 210.93Z" fill="#16110D"/>
<path d="M100.542 214.631C99.8816 215.012 99.8816 215.657 100.542 216.039C101.201 216.42 102.263 216.42 102.923 216.039C103.583 215.657 103.583 215.012 102.923 214.631C102.263 214.249 101.201 214.249 100.542 214.631Z" fill="#16110D"/>
<path d="M94.3155 210.93C93.6556 211.311 93.6556 211.957 94.3155 212.338C94.9754 212.719 96.037 212.719 96.6969 212.338C97.3568 211.957 97.3568 211.311 96.6969 210.93C96.037 210.549 94.9754 210.549 94.3155 210.93Z" fill="#16110D"/>
<path d="M88.0609 207.229C87.401 207.61 87.401 208.256 88.0609 208.637C88.7208 209.018 89.7823 209.018 90.4422 208.637C91.1021 208.256 91.1021 207.61 90.4422 207.229C89.7823 206.848 88.7208 206.848 88.0609 207.229Z" fill="#16110D"/>
<path d="M9.13105 247.963C8.47115 247.581 7.40959 247.581 6.74969 247.963C6.08979 248.344 6.08979 248.989 6.74969 249.371C7.40959 249.752 8.47115 249.752 9.13105 249.371C9.79095 248.989 9.79095 248.344 9.13105 247.963Z" fill="#16110D"/>
<path d="M0.494928 244.292C-0.164973 244.674 -0.164973 245.319 0.494928 245.7C1.15483 246.082 2.21639 246.082 2.87629 245.7C3.53619 245.319 3.53619 244.674 2.87629 244.292C2.21639 243.911 1.15483 243.911 0.494928 244.292Z" fill="#16110D"/>
<path d="M15.4431 244.234C14.7832 243.852 13.7216 243.852 13.0617 244.234C12.4018 244.615 12.4018 245.26 13.0617 245.642C13.7216 246.023 14.7832 246.023 15.4431 245.642C16.103 245.26 16.103 244.615 15.4431 244.234Z" fill="#16110D"/>
<path d="M6.77835 240.563C6.11845 240.945 6.11845 241.59 6.77835 241.971C7.43825 242.353 8.49984 242.353 9.15974 241.971C9.81964 241.59 9.81964 240.945 9.15974 240.563C8.49984 240.182 7.43825 240.182 6.77835 240.563Z" fill="#16110D"/>
<path d="M0.552279 236.862C-0.107622 237.244 -0.107622 237.889 0.552279 238.27C1.21218 238.652 2.27376 238.652 2.93366 238.27C3.59356 237.889 3.59356 237.244 2.93366 236.862C2.27376 236.481 1.21218 236.481 0.552279 236.862Z" fill="#16110D"/>
<path d="M21.6691 240.563C21.0092 240.182 19.9476 240.182 19.2877 240.563C18.6278 240.945 18.6278 241.59 19.2877 241.971C19.9476 242.353 21.0092 242.353 21.6691 241.971C22.329 241.59 22.329 240.945 21.6691 240.563Z" fill="#16110D"/>
<path d="M13.0331 236.862C12.3732 237.244 12.3732 237.889 13.0331 238.27C13.693 238.652 14.7545 238.652 15.4144 238.27C16.0743 237.889 16.0743 237.244 15.4144 236.862C14.7545 236.481 13.693 236.481 13.0331 236.862Z" fill="#16110D"/>
<path d="M6.77835 233.161C6.11845 233.543 6.11845 234.188 6.77835 234.57C7.43825 234.951 8.49984 234.951 9.15974 234.57C9.81964 234.188 9.81964 233.543 9.15974 233.161C8.49984 232.78 7.43825 232.78 6.77835 233.161Z" fill="#16110D"/>
<path d="M0.552279 229.491C-0.107622 229.872 -0.107622 230.518 0.552279 230.899C1.21218 231.28 2.27376 231.28 2.93366 230.899C3.59356 230.518 3.59356 229.872 2.93366 229.491C2.27376 229.11 1.21218 229.11 0.552279 229.491Z" fill="#16110D"/>
<path d="M27.9239 236.862C27.264 236.481 26.2024 236.481 25.5425 236.862C24.8826 237.244 24.8826 237.889 25.5425 238.27C26.2024 238.652 27.264 238.652 27.9239 238.27C28.5838 237.889 28.5838 237.244 27.9239 236.862Z" fill="#16110D"/>
<path d="M19.2877 233.161C18.6278 233.543 18.6278 234.188 19.2877 234.57C19.9476 234.951 21.0092 234.951 21.6691 234.57C22.329 234.188 22.329 233.543 21.6691 233.161C21.0092 232.78 19.9476 232.78 19.2877 233.161Z" fill="#16110D"/>
<path d="M13.0331 229.491C12.3732 229.872 12.3732 230.518 13.0331 230.899C13.693 231.28 14.7545 231.28 15.4144 230.899C16.0743 230.518 16.0743 229.872 15.4144 229.491C14.7545 229.11 13.693 229.11 13.0331 229.491Z" fill="#16110D"/>
<path d="M6.77835 225.79C6.11845 226.171 6.11845 226.817 6.77835 227.198C7.43825 227.579 8.49984 227.579 9.15974 227.198C9.81964 226.817 9.81964 226.171 9.15974 225.79C8.49984 225.409 7.43825 225.409 6.77835 225.79Z" fill="#16110D"/>
<path d="M34.1785 233.161C33.5186 232.78 32.4571 232.78 31.7972 233.161C31.1373 233.543 31.1373 234.188 31.7972 234.57C32.4571 234.951 33.5186 234.951 34.1785 234.57C34.8384 234.188 34.8384 233.543 34.1785 233.161Z" fill="#16110D"/>
<path d="M25.5138 229.491C24.8539 229.872 24.8539 230.518 25.5138 230.899C26.1737 231.28 27.2353 231.28 27.8952 230.899C28.5551 230.518 28.5551 229.872 27.8952 229.491C27.2353 229.11 26.1737 229.11 25.5138 229.491Z" fill="#16110D"/>
<path d="M19.2877 225.79C18.6278 226.171 18.6278 226.817 19.2877 227.198C19.9476 227.579 21.0092 227.579 21.6691 227.198C22.329 226.817 22.329 226.171 21.6691 225.79C21.0092 225.409 19.9476 225.409 19.2877 225.79Z" fill="#16110D"/>
<path d="M40.4045 229.491C39.7446 229.11 38.6831 229.11 38.0232 229.491C37.3633 229.872 37.3633 230.518 38.0232 230.899C38.6831 231.28 39.7446 231.28 40.4045 230.899C41.0645 230.518 41.0645 229.872 40.4045 229.491Z" fill="#16110D"/>
<path d="M31.7685 225.79C31.1086 226.171 31.1086 226.817 31.7685 227.198C32.4284 227.579 33.4899 227.579 34.1499 227.198C34.8098 226.817 34.8098 226.171 34.1499 225.79C33.4899 225.409 32.4284 225.409 31.7685 225.79Z" fill="#16110D"/>
<path d="M46.6593 225.79C45.9994 225.409 44.9378 225.409 44.2779 225.79C43.618 226.171 43.618 226.817 44.2779 227.198C44.9378 227.579 45.9994 227.579 46.6593 227.198C47.3192 226.817 47.3192 226.171 46.6593 225.79Z" fill="#16110D"/>
<path d="M38.0232 222.089C37.3633 222.471 37.3633 223.116 38.0232 223.497C38.6831 223.879 39.7446 223.879 40.4045 223.497C41.0645 223.116 41.0645 222.471 40.4045 222.089C39.7446 221.708 38.6831 221.708 38.0232 222.089Z" fill="#16110D"/>
<path d="M44.2779 218.39C43.618 218.772 43.618 219.417 44.2779 219.799C44.9378 220.18 45.9994 220.18 46.6593 219.799C47.3192 219.417 47.3192 218.772 46.6593 218.39C45.9994 218.009 44.9378 218.009 44.2779 218.39C43.618 218.772 44.9378 218.009 44.2779 218.39Z" fill="#16110D"/>
<path d="M52.914 222.089C52.2541 221.708 51.1925 221.708 50.5326 222.089C49.8727 222.471 49.8727 223.116 50.5326 223.497C51.1925 223.879 52.2541 223.879 52.914 223.497C53.5739 223.116 53.5739 222.471 52.914 222.089Z" fill="#16110D"/>
<path d="M59.1687 218.419C58.5088 218.037 57.4472 218.037 56.7873 218.419C56.1274 218.8 56.1274 219.445 56.7873 219.827C57.4472 220.208 58.5088 220.208 59.1687 219.827C59.8286 219.445 59.8286 218.8 59.1687 218.419Z" fill="#16110D"/>
<path d="M50.5039 214.718C49.844 215.099 49.844 215.744 50.5039 216.126C51.1638 216.507 52.2254 216.507 52.8853 216.126C53.5452 215.744 53.5452 215.099 52.8853 214.718C52.2254 214.336 51.1638 214.336 50.5039 214.718C49.844 215.099 51.1638 214.336 50.5039 214.718Z" fill="#16110D"/>
<path d="M65.4521 214.69C64.7922 214.308 63.7306 214.308 63.0707 214.69C62.4108 215.071 62.4108 215.717 63.0707 216.098C63.7306 216.479 64.7922 216.479 65.4521 216.098C66.112 215.717 66.112 215.071 65.4521 214.69Z" fill="#16110D"/>
<path d="M56.816 210.989C56.1561 211.37 56.1561 212.015 56.816 212.397C57.4759 212.778 58.5375 212.778 59.1974 212.397C59.8573 212.015 59.8573 211.37 59.1974 210.989C58.5375 210.607 57.4759 210.607 56.816 210.989Z" fill="#16110D"/>
<path d="M71.7068 210.989C71.0469 210.607 69.9853 210.607 69.3254 210.989C68.6655 211.37 68.6655 212.015 69.3254 212.397C69.9853 212.778 71.0469 212.778 71.7068 212.397C72.3667 212.015 72.3667 211.37 71.7068 210.989Z" fill="#16110D"/>
<path d="M63.0707 207.288C62.4108 207.669 62.4108 208.315 63.0707 208.696C63.7306 209.077 64.7922 209.077 65.4521 208.696C66.112 208.315 66.112 207.669 65.4521 207.288C64.7922 206.907 63.7306 206.907 63.0707 207.288Z" fill="#16110D"/>
<path d="M77.9615 207.288C77.3016 206.907 76.24 206.907 75.5801 207.288C74.9202 207.669 74.9202 208.315 75.5801 208.696C76.24 209.077 77.3016 209.077 77.9615 208.696C78.6214 208.315 78.6214 207.669 77.9615 207.288Z" fill="#16110D"/>
<path d="M69.2967 203.589C68.6368 203.971 68.6368 204.616 69.2967 204.997C69.9566 205.379 71.0182 205.379 71.6781 204.997C72.338 204.616 72.338 203.971 71.6781 203.589C71.0182 203.208 69.9566 203.208 69.2967 203.589Z" fill="#16110D"/>
<path d="M84.1875 203.618C83.5276 203.236 82.4661 203.236 81.8062 203.618C81.1463 203.999 81.1463 204.644 81.8062 205.026C82.4661 205.407 83.5276 205.407 84.1875 205.026C84.8474 204.644 84.8474 203.999 84.1875 203.618Z" fill="#16110D"/>
<path d="M75.5514 199.916C74.8915 200.298 74.8915 200.943 75.5514 201.324C76.2113 201.706 77.2729 201.706 77.9328 201.324C78.5927 200.943 78.5927 200.298 77.9328 199.916C77.2729 199.535 76.2113 199.535 75.5514 199.916Z" fill="#16110D"/>
<path d="M100.599 63.5017C97.9307 54.5444 96.0944 47.5841 96.0944 47.5841C96.0944 47.5841 104.558 44.06 108.719 43.0614C112.735 41.7105 117.814 43.0027 122.978 47.2904C133.336 55.8659 139.935 72.224 137.984 84.9698C137.123 90.4616 134.598 93.4278 131.586 96.0122C131.586 96.0122 123.179 103.354 115.691 102.444C112.908 102.121 110.067 92.3118 106.222 81.1813C103.267 75.6601 101.259 69.434 100.599 63.531V63.5017Z" fill="#97C6FF"/>
<path d="M100.742 63.5015C100.054 61.1814 99.4226 59.0082 98.8488 57.0405C101.316 56.042 107.083 53.7806 110.297 52.9877C114.313 51.6368 119.392 52.929 124.556 57.2167C131.069 62.6205 136.09 71.0785 138.443 79.8302C138.443 81.5923 138.357 83.325 138.099 84.9696C137.238 90.4614 134.713 93.4276 131.7 96.012C131.7 96.012 123.294 103.354 115.805 102.444C113.022 102.121 110.182 92.3116 106.337 81.1811C103.382 75.6599 101.374 69.4339 100.714 63.5309L100.742 63.5015Z" fill="#DCE6F1"/>
<path d="M117.01 104.148C124.384 104.148 131.758 98.0098 132.618 97.2756C135.66 94.6619 138.615 91.3726 139.59 85.2347C141.656 71.9309 134.942 55.0736 124.011 46.0283C118.588 41.5349 112.965 39.9491 108.231 41.5349C104.157 42.5041 95.8649 45.9402 95.5206 46.087L94.2008 46.645L94.5738 48.0547C94.5738 48.0547 96.41 55.0736 99.0496 63.8841C99.7382 69.8752 101.775 76.3068 104.817 82.0042L106.337 86.5563C110.268 98.1567 112.276 103.737 115.518 104.118C116.006 104.177 116.523 104.207 117.039 104.207L117.01 104.148ZM111.961 44.1781C115.088 44.1781 118.531 45.6758 121.974 48.5245C131.93 56.7476 138.242 72.6358 136.377 84.6767C135.631 89.4931 133.508 92.1656 130.524 94.7206C127.77 97.0994 121.171 101.417 115.863 100.77C114.342 100.183 111.588 91.96 109.35 85.3815C108.833 83.825 108.288 82.2098 107.714 80.5652C104.731 74.9265 102.808 68.8767 102.177 63.2674L102.12 62.9737C100.197 56.4833 98.6766 50.9915 98.0167 48.4952C100.542 47.4673 106.05 45.3234 109.063 44.5892C109.981 44.2955 110.957 44.1193 111.932 44.1193L111.961 44.1781Z" fill="#15100C"/>
<path d="M86.9993 58.8915C88.0035 52.3718 91.0448 47.7904 95.578 45.9989C100.427 44.09 106.222 45.6171 111.875 50.316C122.605 59.1852 129.663 77.1879 127.626 90.4329C126.622 96.9526 123.581 101.534 119.047 103.325C117.699 103.854 116.264 104.118 114.772 104.118C110.957 104.118 106.825 102.386 102.751 99.0084C92.0203 90.1392 84.9622 72.1365 86.9993 58.8915Z" fill="#15100C"/>
<path d="M97.7299 66.7311C96.7257 73.2508 100.197 82.0612 105.477 86.4371C110.756 90.8129 115.863 89.0802 116.867 82.5899C117.871 76.0701 114.4 67.2597 109.12 62.8839C103.841 58.508 98.7341 60.2407 97.7299 66.7311Z" fill="#15100C"/>
<path d="M111.129 90.5201C111.989 90.5201 112.822 90.3733 113.596 90.0502C116.178 89.0224 117.929 86.4673 118.474 82.8551C119.564 75.7186 115.92 66.3795 110.153 61.6219C107.026 59.0375 103.784 58.2152 101.058 59.3018C98.4758 60.3297 96.7544 62.8847 96.1805 66.497C95.0903 73.6335 98.7341 82.9725 104.501 87.7302C106.739 89.5804 109.006 90.5201 111.129 90.5201ZM103.497 62.0918C104.903 62.0918 106.509 62.7966 108.145 64.1476C112.936 68.1123 116.236 76.4528 115.318 82.3264C114.945 84.764 113.94 86.4086 112.449 86.996C110.842 87.6421 108.661 86.996 106.509 85.1751C101.718 81.2104 98.4185 72.8699 99.3366 66.9963C99.7096 64.5587 100.714 62.9141 102.206 62.3267C102.607 62.1799 103.038 62.0918 103.497 62.0918Z" fill="#97C6FF"/>
<path d="M6.43407 217.687C10.8525 198.481 20.4641 168.701 39.1422 157.365C42.7286 155.192 47.52 152.255 50.2457 150.581L51.4507 137.835C50.4179 137.307 49.3276 136.69 48.266 135.985L48.1226 135.897L47.7209 135.603C45.11 133.812 43.1303 131.639 42.3556 127.85L40.8637 121.184L35.7566 97.8066C35.5558 97.0724 35.4123 96.3382 35.2688 95.5453L35.1254 94.9579H35.1541C34.8672 93.1665 34.6663 91.3163 34.6663 89.3193C34.4368 68.8203 48.2086 43.7106 65.4521 33.2555C73.3422 28.4685 79.8265 27.3231 85.3639 29.7313L86.1386 29.9956L86.5689 30.2306C87.2288 30.5243 87.8313 30.8767 88.4339 31.2878L103.009 39.5109L103.784 41.1555L96.697 46.6474C96.8978 48.1745 97.0413 49.731 97.07 51.4344C97.07 53.3727 97.07 54.8704 96.8691 56.8675L96.7543 57.3374L96.6109 58.6002C96.4674 59.7162 96.324 60.3329 96.1231 61.4489L90.3562 98.6877C89.4094 105.325 85.9664 114.253 81.548 120.89L83.0112 130.963C85.7369 129.319 90.5857 126.059 94.1434 123.915C101.431 119.48 106.796 119.216 111.703 121.654L112.362 121.918L114.055 122.887C114.055 122.887 114.084 122.887 114.113 122.887L126.852 130.141L123.982 134.869C125.532 137.835 126.823 140.948 127.856 143.885C130.065 150.141 125.474 160.772 118.789 164.825L68.3213 195.456L66.1407 196.777L27.1492 220.448C26.6328 225.235 25.8294 231.667 25.399 235.044C25.2556 236.131 24.0792 236.718 23.1611 236.189L8.9589 228.084C6.43406 226.645 5.25773 222.797 6.43407 217.599V217.687Z" fill="#97C6FF"/>
<path d="M6.43406 224.881C10.8525 205.674 20.4641 175.895 39.1422 164.559C42.7286 162.386 47.52 159.449 50.2457 157.775L51.4507 145.029C50.4178 144.501 52.1106 142.592 51.0491 141.887L52.6271 141.153L50.963 135.749C48.3521 133.957 45.9707 135.161 45.196 131.373L40.921 128.407L35.814 105.03C35.6131 104.296 35.4697 103.561 35.3262 102.768L35.1828 102.181H35.2115C34.9245 100.39 34.7237 98.5394 34.7237 96.5424C34.4942 76.0434 48.266 50.9337 65.5095 40.4787C73.3996 35.6916 79.8839 34.5463 85.4213 36.9545L86.1959 37.2188L86.6263 37.4537C87.2862 37.7474 87.8887 38.0998 88.4912 38.511L103.066 46.7341L103.841 48.3787L96.7543 53.8705C96.9552 55.3977 97.0987 56.9542 97.1273 58.6575C97.1273 60.5958 97.1273 62.0936 96.9265 64.0906L96.8117 64.5605L96.6683 65.8233C96.5248 66.9393 96.3814 67.5561 96.1805 68.6721L90.4136 105.911C89.4667 112.548 86.0238 121.476 81.6053 128.113L83.0686 138.186C85.7943 136.542 90.6431 133.282 94.2008 131.138C101.488 126.703 106.854 126.439 111.76 128.877L112.42 129.141L114.113 130.11C114.113 130.11 114.141 130.11 114.17 130.11L126.909 137.364L124.04 142.092C125.589 145.059 126.88 148.172 127.913 151.108C130.122 157.364 125.532 167.995 118.847 172.048L68.3786 202.679L66.1981 204L27.2066 227.671C26.6901 232.458 30.3052 231.225 29.8749 234.602C29.7314 235.689 28.5551 236.276 27.6369 235.747L13.4347 227.642C10.9099 226.203 5.31509 230.021 6.49143 224.822L6.43406 224.881Z" fill="white"/>
<path d="M23.9071 238.127C24.3948 238.127 24.8826 238.009 25.3129 237.774C26.2311 237.304 26.8623 236.394 26.977 235.337C27.3787 232.165 28.1247 226.203 28.6411 221.534L119.593 166.322C126.995 161.828 131.844 150.492 129.348 143.414C128.315 140.448 127.11 137.629 125.79 135.015L129.061 129.641L112.305 120.214C106.682 117.394 100.628 118.158 93.3401 122.563C91.4465 123.708 89.1511 125.206 86.9993 126.586C86.0238 127.203 85.1057 127.82 84.2449 128.349L83.212 121.33C87.4583 114.751 90.9587 105.853 91.9342 98.9804L97.8733 60.9193C97.9881 60.2439 98.1028 59.6859 98.2176 58.8636L98.4471 57.307C98.7054 55.0751 98.7054 53.5479 98.6767 51.4628C98.6767 50.1412 98.5906 48.849 98.4184 47.41L105.821 41.6832L104.243 38.3646L89.2372 29.8772C88.6634 29.4954 87.9748 29.1136 87.2575 28.7612L85.8803 28.2032C79.9699 25.6188 72.9692 26.8229 64.6488 31.8742C47.0036 42.5936 32.8588 68.3788 33.0883 89.3477C33.0883 90.9042 33.2317 92.4607 33.4326 94.1347L33.3465 94.1934L33.6908 95.9555C33.8056 96.6897 34.0064 97.4826 34.2073 98.2462L40.8063 128.231C41.7531 132.989 44.5361 135.397 46.8314 136.983L47.1757 137.247C48.0939 137.864 48.9259 138.363 49.7293 138.774L48.6964 149.611L38.2814 155.955C19.6894 167.232 9.81963 195.543 4.82733 217.305C3.53622 222.973 4.79865 227.672 8.12684 229.58L22.3291 237.686C22.8168 237.95 23.3333 238.097 23.8497 238.097L23.9071 238.127ZM124.614 130.845L122.146 134.898L122.577 135.72C123.982 138.392 125.245 141.359 126.364 144.501C128.315 150.081 124.011 159.831 117.986 163.473L25.6572 219.507L25.5712 220.33C25.0547 225.087 24.2514 231.519 23.821 234.896L9.73357 226.732C7.72517 225.586 7.03658 222.18 7.9834 218.039C11.9428 200.741 21.3822 170.022 39.9455 158.745L51.7663 151.549L53.1435 136.865L52.168 136.366C51.1925 135.867 50.1596 135.279 49.1554 134.604L48.6964 134.281C45.9133 132.372 44.5648 130.434 43.9623 127.526L37.3633 97.4826C37.1625 96.7484 37.019 96.0436 36.8756 95.3094L36.7895 94.722C36.4739 92.7837 36.3304 91.0804 36.3304 89.3477C36.1009 69.4067 49.5571 44.8843 66.3128 34.723C73.6865 30.2296 79.7691 29.1136 84.7901 31.3162L85.8516 31.7568C86.5115 32.0798 87.0854 32.4029 87.6018 32.7553L101.804 40.7728L95.0329 46.0003L95.1476 46.9401C95.3772 48.6141 95.4919 50.0825 95.4919 51.5215C95.4919 53.5479 95.4919 54.8989 95.2911 56.749L95.205 57.0134L95.0329 58.4524C94.9468 59.1572 94.832 59.6565 94.7173 60.2732L94.5451 61.1836L88.7495 98.4812C87.8026 105.118 84.3597 113.753 80.1995 120.008L79.8551 120.537L81.7775 133.664L83.8146 132.431C85.077 131.667 86.8271 130.522 88.6921 129.347C90.7865 127.996 93.0532 126.528 94.9468 125.382C101.316 121.506 106.28 120.83 110.985 123.18L111.731 123.503L124.585 130.845H124.614Z" fill="#16110D"/>
<path d="M22.0708 226.642C26.4893 207.436 36.1009 177.656 54.7789 166.32C58.3653 164.147 63.1568 161.21 65.8825 159.536L67.0875 146.79C63.4437 144.911 59.1113 142.209 58.021 136.835L56.5291 130.168L51.422 106.791C51.2212 106.057 51.0777 105.323 50.9343 104.53L50.7908 103.942H50.8195C50.5326 102.151 50.3318 100.301 50.3318 98.3036C50.1022 77.8047 63.8741 52.6949 81.1176 42.2399C98.361 31.7848 112.506 39.9198 112.735 60.4187C112.735 62.357 112.735 63.8548 112.535 65.8518L112.42 66.3217L112.276 67.5846C112.133 68.7006 111.989 69.3173 111.789 70.4333L106.022 107.672C105.075 114.309 101.632 123.237 97.2134 129.874L98.6767 139.948C101.402 138.303 106.251 135.043 109.809 132.899C128.544 121.534 138.73 139.272 143.521 152.899C145.73 159.154 141.14 169.786 134.455 173.838L83.9867 204.469L81.8061 205.791L31.5103 236.304C24.8252 240.357 20.0624 235.423 22.0995 226.613L22.0708 226.642Z" fill="#97C6FF"/>
<path d="M27.0344 239.389C28.6985 239.389 30.4774 238.831 32.3136 237.715L135.258 175.219C142.66 170.726 147.509 159.39 145.013 152.312C141.886 143.384 136.176 132.048 126.909 128.641C121.458 126.644 115.404 127.584 109.006 131.49C107.112 132.635 104.845 134.104 102.722 135.484C101.747 136.13 100.8 136.718 99.939 137.276L98.9062 130.257C103.152 123.678 106.653 114.78 107.628 107.908L113.567 69.8464C113.682 69.1709 113.797 68.613 113.912 67.7906L114.141 66.2341C114.428 63.8553 114.399 62.2401 114.371 60.3899C114.256 49.8761 110.612 42.0054 104.128 38.2757C97.6437 34.5459 89.2085 35.4563 80.3429 40.8013C62.6977 51.5207 48.5529 77.3059 48.7824 98.2748C48.7824 99.8313 48.9259 101.388 49.1267 103.062H49.0694L49.4136 104.853C49.5571 105.617 49.7292 106.38 49.9301 107.173L56.5291 137.158C57.6194 142.591 61.5214 145.587 65.4521 147.701L64.4192 158.538L54.0042 164.882C35.4123 176.159 25.5425 204.47 20.5502 226.232C19.3451 231.518 20.3206 235.953 23.1898 238.096C24.3087 238.948 25.6285 239.359 27.0631 239.359L27.0344 239.389ZM121.142 130.903C122.749 130.903 124.327 131.167 125.819 131.725C133.938 134.721 139.103 145.176 142.001 153.428C143.952 158.979 139.648 168.758 133.623 172.4L30.6782 234.895C28.3829 236.276 26.4032 236.481 25.026 235.483C23.2472 234.161 22.702 230.901 23.6201 226.995C27.5795 209.697 37.019 178.978 55.5823 167.701L67.4031 160.506L68.7803 145.822L67.8048 145.323C64.0749 143.414 60.5172 141.035 59.5991 136.483L53.0001 106.439C52.7992 105.705 52.6558 105 52.5123 104.266L52.4262 103.678C52.1106 101.77 51.9672 100.007 51.9385 98.3041C51.709 78.3632 65.1652 53.8408 81.9209 43.6794C89.7536 38.9218 97.0412 38.0407 102.521 41.1831C107.973 44.3255 111.043 51.1683 111.129 60.478C111.129 62.2401 111.157 63.7378 110.957 65.7055L110.87 65.9698L110.698 67.4382C110.612 68.1431 110.497 68.6423 110.383 69.2591L110.211 70.1695L104.444 107.467C103.497 114.104 100.054 122.768 95.8936 128.994L95.5493 129.522L97.4716 142.65L99.5087 141.417C100.8 140.653 102.55 139.508 104.415 138.304C106.509 136.953 108.776 135.484 110.641 134.368C114.371 132.107 117.9 130.961 121.171 130.961L121.142 130.903Z" fill="#16110D"/>
<path d="M49.9588 97.2176L34.7237 87.2324L34.1212 91.2852L42.2695 129.053L47.3192 135.337L51.1064 137.599L49.8727 150.638L65.8251 159.772L67.0588 146.732L58.5375 141.534L56.8447 132.166L49.9588 97.2176Z" fill="#16110D"/>
<path d="M26.2597 215.719L9.59005 206.175L5.97494 219.479L6.17578 224.119L9.15968 228.818L23.6201 235.983L22.6159 229.023L24.3087 218.627L26.2597 215.719Z" fill="#16110D"/>
<path d="M24.8251 103.416C22.1568 94.4584 20.3206 87.4982 20.3206 87.4982C20.3206 87.4982 28.7845 83.974 32.9448 82.9755C36.9616 81.6246 42.0399 82.9168 47.2044 87.2045C57.5619 95.78 64.1609 112.138 62.2099 124.884C61.3492 130.376 58.8244 133.342 55.8118 135.926C55.8118 135.926 47.8069 142.74 41.2079 142.152C38.4248 141.917 34.2933 132.226 30.4486 121.066C27.4934 115.545 25.485 109.319 24.8251 103.416Z" fill="#97C6FF"/>
<path d="M47.0896 96.6908C54.8076 103.093 60.4598 113.842 62.0091 124.179C61.9804 124.414 61.9804 124.649 61.9231 124.884C61.0623 130.376 58.5375 133.342 55.5249 135.927C55.5249 135.927 47.52 142.74 40.921 142.153C38.138 141.918 34.0064 132.226 30.1618 121.066C27.2066 115.545 25.1982 109.319 24.5383 103.416C23.7349 100.744 23.0463 98.2767 22.4151 96.1034C25.1982 94.9874 30.0183 93.1372 32.8301 92.4911C36.8468 91.1402 41.9252 92.4324 47.0896 96.7201V96.6908Z" fill="#D7E4F4"/>
<path d="M42.0113 143.826C48.7251 143.826 55.9839 137.894 56.816 137.189C59.886 134.546 62.8412 131.286 63.788 125.118C65.8251 111.815 59.14 94.9574 48.2086 85.9121C42.7859 81.4187 37.1624 79.8328 32.4284 81.4187C28.3255 82.3879 20.0624 85.8239 19.7181 85.9708L18.3983 86.5288L18.7713 87.9385C18.7713 87.9385 20.6076 94.9574 23.2472 103.768C23.9358 109.759 25.9728 116.191 29.0428 121.888C35.5557 140.801 38.7692 143.62 41.0645 143.797C41.3801 143.797 41.6957 143.826 42.04 143.826H42.0113ZM36.1869 84.0912C39.3143 84.0912 42.7573 85.589 46.2002 88.4377C56.1561 96.6608 62.4682 112.549 60.6319 124.59C59.886 129.406 57.7628 132.079 54.7789 134.634C52.168 136.836 45.942 140.919 41.3227 140.478C41.0645 140.39 38.3675 139.127 31.9406 120.478C28.9567 114.869 27.0344 108.79 26.4032 103.181L26.3458 102.887C24.4235 96.3965 22.9028 90.9046 22.2429 88.4377C24.7678 87.4098 30.2765 85.266 33.2891 84.5317C34.2072 84.2381 35.1827 84.0619 36.1583 84.0619L36.1869 84.0912Z" fill="#15100C"/>
<path d="M12.8035 99.0686C10.8238 111.814 17.6236 129.083 27.9812 137.658C38.3388 146.234 48.2947 142.856 50.2744 130.111C52.2254 117.365 45.4542 100.096 35.0967 91.5209C24.7391 82.9455 14.7832 86.3228 12.8035 99.0686Z" fill="#140F0C"/>
<path d="M38.97 144.031C40.462 144.031 41.8965 143.766 43.245 143.238C47.7782 141.446 50.8195 136.894 51.8237 130.345C53.8608 117.1 46.8027 99.1267 36.0722 90.2281C30.42 85.5292 24.6244 84.0021 19.7755 85.911C15.2423 87.7025 12.201 92.2545 11.1968 98.8036C9.15973 112.049 16.2178 130.022 26.9484 138.92C31.0225 142.298 35.1541 144.031 38.97 144.031ZM23.9931 88.4367C27.0918 88.4367 30.5921 89.9344 34.0638 92.7832C43.991 101.006 50.5326 117.629 48.6677 129.816C47.8356 135.132 45.5116 138.803 42.0974 140.154C38.4249 141.593 33.6334 140.213 28.9567 136.365C19.0296 128.142 12.4879 111.52 14.3529 99.3322C15.1849 94.0166 17.5089 90.3456 20.9232 88.9947C21.87 88.6129 22.9029 88.4367 23.9931 88.4367Z" fill="#15100C"/>
<path d="M12.1436 103.357C10.5942 113.489 15.9882 127.204 24.1939 134.018C32.4283 140.831 40.3471 138.129 41.9252 128.027C43.4745 117.895 38.0805 104.18 29.8748 97.3664C21.6404 90.553 13.7216 93.2548 12.1436 103.357Z" fill="#140F0C"/>
<path d="M32.9448 139.451C34.1786 139.451 35.3549 139.246 36.4739 138.805C40.1751 137.337 42.6712 133.607 43.5032 128.291C45.1386 117.66 39.4865 103.211 30.8791 96.1037C26.2884 92.2859 21.5544 91.0524 17.595 92.6089C13.8938 94.0773 11.3976 97.8071 10.5656 103.123C8.93019 113.754 14.5824 128.203 23.1898 135.31C26.4893 138.041 29.8462 139.451 32.9448 139.451ZM21.0666 95.2521C23.448 95.2521 26.1737 96.4268 28.842 98.6588C36.646 105.12 41.8105 118.189 40.3185 127.792C39.6873 131.903 37.9084 134.723 35.2975 135.751C32.4858 136.837 28.8133 135.751 25.1695 132.785C17.3654 126.324 12.201 113.255 13.693 103.651C14.3242 99.5398 16.103 96.7205 18.7139 95.6926C19.4312 95.3989 20.2059 95.2814 21.0379 95.2814L21.0666 95.2521Z" fill="#97C6FF"/>
<path d="M105.964 134.719C106.882 135.806 108.46 135.953 109.551 135.042L119.277 126.643C128.401 118.743 127.368 106.908 124.987 99.9182C124.499 98.4791 122.835 97.8037 121.486 98.4791C120.339 99.0665 119.765 100.417 120.195 101.651C121.658 105.968 123.81 115.924 116.035 122.678L106.308 131.078C105.247 132.018 105.103 133.633 105.993 134.749L105.964 134.719Z" fill="#140F0C"/>
<path d="M107.915 137.306C108.891 137.306 109.838 136.954 110.583 136.308L120.31 127.908C129.376 120.067 129.434 108.026 126.507 99.3626C126.134 98.2466 125.302 97.3362 124.212 96.8957C123.122 96.4258 121.859 96.4845 120.798 96.9838C118.904 97.9236 117.986 100.156 118.646 102.182C120.195 106.822 121.802 115.486 114.945 121.418L105.218 129.817C103.468 131.315 103.239 134.017 104.73 135.808C105.448 136.689 106.452 137.218 107.542 137.306C107.657 137.306 107.772 137.306 107.887 137.306H107.915ZM122.605 99.8325C122.605 99.8325 122.863 99.8325 122.978 99.9206C123.122 99.9793 123.351 100.126 123.466 100.449C124.728 104.15 128.085 116.895 118.244 125.383L108.518 133.782C108.317 133.958 108.087 134.017 107.829 134.017C107.571 134.017 107.341 133.87 107.198 133.694C106.854 133.283 106.911 132.666 107.313 132.343L117.039 123.944C125.675 116.484 123.179 105.501 121.687 101.125C121.544 100.684 121.744 100.185 122.175 99.9793C122.318 99.9206 122.462 99.8619 122.605 99.8619V99.8325Z" fill="#15100C"/>
<path d="M120.597 96.9823C121.658 96.4537 122.921 96.4243 124.011 96.8942C124.413 97.0704 124.728 97.3641 125.073 97.6284C124.527 98.6269 123.896 99.508 123.179 100.301C123.064 100.095 122.892 99.9778 122.777 99.9191C122.663 99.8604 122.548 99.831 122.404 99.831C122.261 99.831 122.117 99.8604 121.974 99.9485C121.544 100.154 121.343 100.653 121.486 101.094C121.544 101.27 121.601 101.476 121.658 101.681C120.798 102.357 119.851 102.915 118.847 103.326C118.847 103.326 118.847 103.326 118.818 103.326C118.703 102.915 118.588 102.533 118.445 102.151C117.756 100.125 118.674 97.9221 120.597 96.9529V96.9823Z" fill="#97C6FF"/>
<path d="M93.3113 133.401C92.5653 138.393 95.8935 143.063 100.771 143.856C105.649 144.649 110.21 141.213 110.985 136.22C111.731 131.228 108.403 126.558 103.525 125.765C98.6479 124.972 94.086 128.408 93.3113 133.401Z" fill="#97C6FF"/>
<path d="M103.698 130.257C107.284 130.844 110.038 133.546 110.928 136.923C109.809 141.446 105.534 144.441 100.943 143.707C97.3568 143.12 94.6025 140.418 93.713 137.041C94.832 132.518 99.107 129.522 103.698 130.257Z" fill="#D7E4F4"/>
<path d="M91.7333 133.165C92.1637 130.316 93.6556 127.82 95.9223 126.117C98.1889 124.413 100.972 123.738 103.755 124.178C109.493 125.089 113.424 130.61 112.535 136.513C111.731 141.829 107.227 145.647 102.12 145.647C101.574 145.647 101.029 145.617 100.484 145.529C94.7459 144.619 90.8152 139.097 91.7046 133.194L91.7333 133.165ZM103.267 127.409C102.894 127.35 102.493 127.321 102.12 127.321C101.374 127.321 100.628 127.438 99.9103 127.673C99.9103 127.732 99.9104 127.761 99.8817 127.82C99.1357 132.813 102.464 137.482 107.341 138.275C107.772 138.334 108.173 138.334 108.575 138.334C108.948 137.629 109.235 136.836 109.378 135.984C110.01 131.902 107.255 128.055 103.267 127.409Z" fill="#15100C"/>
<path d="M111.473 46.6744C110.038 43.6495 108.03 41.2119 105.591 39.4205C102.579 30.7569 96.3527 17.4825 85.3065 11.4326C77.5025 7.14489 68.2926 7.17426 57.9063 11.4326C22.9029 25.9111 31.7685 70.7269 34.8959 82.7972C35.3262 84.4712 34.3794 86.1745 32.7727 86.7032C31.0226 87.2905 29.1576 86.2333 28.6985 84.4124C25.4277 71.0793 16.2752 21.5353 55.4962 5.32407C67.7188 0.27275 78.7649 0.360855 88.3478 5.61775C104.243 14.3401 111.186 34.6922 113.395 42.7978C113.826 44.4424 112.965 46.0283 111.473 46.645V46.6744Z" fill="#140F0C"/>
<path d="M31.7685 88.5542C32.2562 88.5542 32.744 88.4661 33.2318 88.3192C35.6705 87.5263 37.0477 84.9419 36.4165 82.4162C33.117 69.6411 24.9974 26.8224 58.4801 12.99C68.4073 8.87844 77.1582 8.84907 84.5318 12.9019C95.3485 18.8342 101.402 32.4023 104.071 39.9793L104.243 40.4492L104.644 40.7429C106.911 42.3875 108.719 44.6195 110.038 47.3801L110.698 48.7604L112.076 48.2024C114.371 47.2626 115.605 44.7663 114.945 42.3875C112.649 33.9001 105.505 13.1956 89.0938 4.20891C79.0805 -1.28293 67.5753 -1.4004 54.8937 3.85649C14.7832 20.4201 23.5054 70.0523 27.1492 84.8538C27.4648 86.1754 28.2968 87.262 29.4445 87.9374C30.1618 88.3486 30.9651 88.5542 31.7685 88.5542ZM72.5962 6.58773C67.8048 6.58773 62.6977 7.70372 57.3038 9.9357C21.3822 24.796 29.8749 69.8173 33.3465 83.2385C33.5474 84.0609 33.0883 84.9125 32.2849 85.1768C31.8546 85.3237 31.3955 85.2649 31.0225 85.0594C30.6495 84.8538 30.3626 84.472 30.2766 84.0609C26.8049 69.9054 18.3983 22.5053 56.1274 6.91078C67.8909 2.03567 78.5067 2.12377 87.6305 7.11635C102.952 15.5156 109.694 35.1923 111.903 43.2685C111.961 43.5328 111.989 43.7678 111.903 44.0027C110.584 41.7707 108.919 39.8912 106.94 38.3934C103.468 28.6726 97.0699 16.0149 86.0812 9.99443C81.9496 7.73309 77.4451 6.58773 72.6249 6.58773H72.5962Z" fill="#15100C"/>
</svg>
