<svg width="206" height="178" viewBox="0 0 206 178" fill="none" xmlns="http://www.w3.org/2000/svg">
<path d="M2.29165 125.032C2.81367 125.299 2.81367 125.757 2.29165 126.024C1.76963 126.291 0.913537 126.291 0.391516 126.024C-0.130505 125.757 -0.130505 125.299 0.391516 125.032C0.913537 124.765 1.76963 124.765 2.29165 125.032Z" fill="#16110D"/>
<path d="M7.24044 122.418C7.76246 122.684 7.76246 123.142 7.24044 123.409C6.71842 123.676 5.8623 123.676 5.34028 123.409C4.81826 123.142 4.81826 122.684 5.34028 122.418C5.8623 122.151 6.71842 122.151 7.24044 122.418Z" fill="#16110D"/>
<path d="M81.7851 171.711C82.3071 171.978 82.3071 172.436 81.7851 172.703C81.263 172.97 80.4069 172.97 79.8849 172.703C79.3629 172.436 79.3629 171.978 79.8849 171.711C80.4069 171.444 81.263 171.444 81.7851 171.711Z" fill="#16110D"/>
<path d="M86.7338 169.096C87.2558 169.363 87.2558 169.82 86.7338 170.087C86.2118 170.354 85.3557 170.354 84.8337 170.087C84.3116 169.82 84.3116 169.363 84.8337 169.096C85.3557 168.829 86.2118 168.829 86.7338 169.096Z" fill="#16110D"/>
<path d="M91.6826 166.481C92.2046 166.747 92.2046 167.205 91.6826 167.472C91.1606 167.739 90.3045 167.739 89.7824 167.472C89.2604 167.205 89.2604 166.747 89.7824 166.481C90.3045 166.214 91.1606 166.214 91.6826 166.481Z" fill="#16110D"/>
<path d="M96.6313 163.864C97.1534 164.131 97.1534 164.589 96.6313 164.856C96.1093 165.123 95.2532 165.123 94.7312 164.856C94.2092 164.589 94.2092 164.131 94.7312 163.864C95.2532 163.597 96.1093 163.597 96.6313 163.864Z" fill="#16110D"/>
<path d="M101.58 161.25C102.102 161.517 102.102 161.974 101.58 162.241C101.058 162.508 100.202 162.508 99.6799 162.241C99.1579 161.974 99.1579 161.517 99.6799 161.25C100.202 160.983 101.058 160.983 101.58 161.25Z" fill="#16110D"/>
<path d="M106.55 158.634C107.072 158.901 107.072 159.359 106.55 159.626C106.028 159.893 105.172 159.893 104.65 159.626C104.128 159.359 104.128 158.901 104.65 158.634C105.172 158.367 106.028 158.367 106.55 158.634Z" fill="#16110D"/>
<path d="M111.498 156.018C112.021 156.285 112.021 156.742 111.498 157.009C110.976 157.276 110.12 157.276 109.598 157.009C109.076 156.742 109.076 156.285 109.598 156.018C110.12 155.751 110.976 155.751 111.498 156.018Z" fill="#16110D"/>
<path d="M116.447 153.403C116.969 153.67 116.969 154.127 116.447 154.394C115.925 154.661 115.069 154.661 114.547 154.394C114.025 154.127 114.025 153.67 114.547 153.403C115.069 153.136 115.925 153.136 116.447 153.403Z" fill="#16110D"/>
<path d="M121.396 150.788C121.918 151.055 121.918 151.512 121.396 151.779C120.874 152.046 120.018 152.046 119.496 151.779C118.974 151.512 118.974 151.055 119.496 150.788C120.018 150.521 120.874 150.521 121.396 150.788Z" fill="#16110D"/>
<path d="M126.345 148.191C126.867 148.458 126.867 148.916 126.345 149.183C125.823 149.45 124.967 149.45 124.445 149.183C123.923 148.916 123.923 148.458 124.445 148.191C124.967 147.924 125.823 147.924 126.345 148.191Z" fill="#16110D"/>
<path d="M131.294 145.574C131.816 145.841 131.816 146.299 131.294 146.566C130.772 146.833 129.915 146.833 129.393 146.566C128.871 146.299 128.871 145.841 129.393 145.574C129.915 145.307 130.772 145.307 131.294 145.574Z" fill="#16110D"/>
<path d="M76.8363 169.096C77.3583 169.363 77.3583 169.82 76.8363 170.087C76.3143 170.354 75.4582 170.354 74.9361 170.087C74.4141 169.82 74.4141 169.363 74.9361 169.096C75.4582 168.829 76.3143 168.829 76.8363 169.096Z" fill="#16110D"/>
<path d="M81.7851 166.481C82.3071 166.747 82.3071 167.205 81.7851 167.472C81.263 167.739 80.4069 167.739 79.8849 167.472C79.3629 167.205 79.3629 166.747 79.8849 166.481C80.4069 166.214 81.263 166.214 81.7851 166.481Z" fill="#16110D"/>
<path d="M86.7338 163.864C87.2558 164.131 87.2558 164.589 86.7338 164.856C86.2118 165.123 85.3557 165.123 84.8337 164.856C84.3116 164.589 84.3116 164.131 84.8337 163.864C85.3557 163.597 86.2118 163.597 86.7338 163.864Z" fill="#16110D"/>
<path d="M91.6826 161.25C92.2046 161.517 92.2046 161.974 91.6826 162.241C91.1606 162.508 90.3045 162.508 89.7824 162.241C89.2604 161.974 89.2604 161.517 89.7824 161.25C90.3045 160.983 91.1606 160.983 91.6826 161.25Z" fill="#16110D"/>
<path d="M96.6313 158.634C97.1534 158.901 97.1534 159.359 96.6313 159.626C96.1093 159.893 95.2532 159.893 94.7312 159.626C94.2092 159.359 94.2092 158.901 94.7312 158.634C95.2532 158.367 96.1093 158.367 96.6313 158.634Z" fill="#16110D"/>
<path d="M101.58 156.018C102.102 156.285 102.102 156.742 101.58 157.009C101.058 157.276 100.202 157.276 99.6799 157.009C99.1579 156.742 99.1579 156.285 99.6799 156.018C100.202 155.751 101.058 155.751 101.58 156.018Z" fill="#16110D"/>
<path d="M106.55 153.403C107.072 153.67 107.072 154.127 106.55 154.394C106.028 154.661 105.172 154.661 104.65 154.394C104.128 154.127 104.128 153.67 104.65 153.403C105.172 153.136 106.028 153.136 106.55 153.403Z" fill="#16110D"/>
<path d="M111.498 150.788C112.021 151.055 112.021 151.512 111.498 151.779C110.976 152.046 110.12 152.046 109.598 151.779C109.076 151.512 109.076 151.055 109.598 150.788C110.12 150.521 110.976 150.521 111.498 150.788Z" fill="#16110D"/>
<path d="M116.447 148.191C116.969 148.458 116.969 148.916 116.447 149.183C115.925 149.45 115.069 149.45 114.547 149.183C114.025 148.916 114.025 148.458 114.547 148.191C115.069 147.924 115.925 147.924 116.447 148.191Z" fill="#16110D"/>
<path d="M121.396 145.574C121.918 145.841 121.918 146.299 121.396 146.566C120.874 146.833 120.018 146.833 119.496 146.566C118.974 146.299 118.974 145.841 119.496 145.574C120.018 145.307 120.874 145.307 121.396 145.574Z" fill="#16110D"/>
<path d="M126.345 142.96C126.867 143.226 126.867 143.684 126.345 143.951C125.823 144.218 124.967 144.218 124.445 143.951C123.923 143.684 123.923 143.226 124.445 142.96C124.967 142.693 125.823 142.693 126.345 142.96Z" fill="#16110D"/>
<path d="M71.8875 166.481C72.4096 166.747 72.4096 167.205 71.8875 167.472C71.3655 167.739 70.5094 167.739 69.9874 167.472C69.4654 167.205 69.4654 166.747 69.9874 166.481C70.5094 166.214 71.3655 166.214 71.8875 166.481Z" fill="#16110D"/>
<path d="M76.8363 163.864C77.3583 164.131 77.3583 164.589 76.8363 164.856C76.3143 165.123 75.4582 165.123 74.9361 164.856C74.4141 164.589 74.4141 164.131 74.9361 163.864C75.4582 163.597 76.3143 163.597 76.8363 163.864Z" fill="#16110D"/>
<path d="M81.7851 161.25C82.3071 161.517 82.3071 161.974 81.7851 162.241C81.263 162.508 80.4069 162.508 79.8849 162.241C79.3629 161.974 79.3629 161.517 79.8849 161.25C80.4069 160.983 81.263 160.983 81.7851 161.25Z" fill="#16110D"/>
<path d="M86.7338 158.634C87.2558 158.901 87.2558 159.359 86.7338 159.626C86.2118 159.893 85.3557 159.893 84.8337 159.626C84.3116 159.359 84.3116 158.901 84.8337 158.634C85.3557 158.367 86.2118 158.367 86.7338 158.634Z" fill="#16110D"/>
<path d="M91.6826 156.018C92.2046 156.285 92.2046 156.742 91.6826 157.009C91.1606 157.276 90.3045 157.276 89.7824 157.009C89.2604 156.742 89.2604 156.285 89.7824 156.018C90.3045 155.751 91.1606 155.751 91.6826 156.018Z" fill="#16110D"/>
<path d="M96.6313 153.403C97.1534 153.67 97.1534 154.127 96.6313 154.394C96.1093 154.661 95.2532 154.661 94.7312 154.394C94.2092 154.127 94.2092 153.67 94.7312 153.403C95.2532 153.136 96.1093 153.136 96.6313 153.403Z" fill="#16110D"/>
<path d="M101.58 150.788C102.102 151.055 102.102 151.512 101.58 151.779C101.058 152.046 100.202 152.046 99.6799 151.779C99.1579 151.512 99.1579 151.055 99.6799 150.788C100.202 150.521 101.058 150.521 101.58 150.788Z" fill="#16110D"/>
<path d="M106.55 148.191C107.072 148.458 107.072 148.916 106.55 149.183C106.028 149.45 105.172 149.45 104.65 149.183C104.128 148.916 104.128 148.458 104.65 148.191C105.172 147.924 106.028 147.924 106.55 148.191Z" fill="#16110D"/>
<path d="M111.498 145.574C112.021 145.841 112.021 146.299 111.498 146.566C110.976 146.833 110.12 146.833 109.598 146.566C109.076 146.299 109.076 145.841 109.598 145.574C110.12 145.307 110.976 145.307 111.498 145.574Z" fill="#16110D"/>
<path d="M116.447 142.96C116.969 143.226 116.969 143.684 116.447 143.951C115.925 144.218 115.069 144.218 114.547 143.951C114.025 143.684 114.025 143.226 114.547 142.96C115.069 142.693 115.925 142.693 116.447 142.96Z" fill="#16110D"/>
<path d="M121.396 140.344C121.918 140.611 121.918 141.069 121.396 141.336C120.874 141.603 120.018 141.603 119.496 141.336C118.974 141.069 118.974 140.611 119.496 140.344C120.018 140.077 120.874 140.077 121.396 140.344Z" fill="#16110D"/>
<path d="M66.9388 163.864C67.4608 164.131 67.4608 164.589 66.9388 164.856C66.4168 165.123 65.5606 165.123 65.0386 164.856C64.5166 164.589 64.5166 164.131 65.0386 163.864C65.5606 163.597 66.4168 163.597 66.9388 163.864Z" fill="#16110D"/>
<path d="M71.8875 161.25C72.4096 161.517 72.4096 161.974 71.8875 162.241C71.3655 162.508 70.5094 162.508 69.9874 162.241C69.4654 161.974 69.4654 161.517 69.9874 161.25C70.5094 160.983 71.3655 160.983 71.8875 161.25Z" fill="#16110D"/>
<path d="M76.8363 158.634C77.3583 158.901 77.3583 159.359 76.8363 159.626C76.3143 159.893 75.4582 159.893 74.9361 159.626C74.4141 159.359 74.4141 158.901 74.9361 158.634C75.4582 158.367 76.3143 158.367 76.8363 158.634Z" fill="#16110D"/>
<path d="M81.7851 156.018C82.3071 156.285 82.3071 156.742 81.7851 157.009C81.263 157.276 80.4069 157.276 79.8849 157.009C79.3629 156.742 79.3629 156.285 79.8849 156.018C80.4069 155.751 81.263 155.751 81.7851 156.018Z" fill="#16110D"/>
<path d="M86.7338 153.403C87.2558 153.67 87.2558 154.127 86.7338 154.394C86.2118 154.661 85.3557 154.661 84.8337 154.394C84.3116 154.127 84.3116 153.67 84.8337 153.403C85.3557 153.136 86.2118 153.136 86.7338 153.403Z" fill="#16110D"/>
<path d="M91.6826 150.788C92.2046 151.055 92.2046 151.512 91.6826 151.779C91.1606 152.046 90.3045 152.046 89.7824 151.779C89.2604 151.512 89.2604 151.055 89.7824 150.788C90.3045 150.521 91.1606 150.521 91.6826 150.788Z" fill="#16110D"/>
<path d="M96.6313 148.191C97.1534 148.458 97.1534 148.916 96.6313 149.183C96.1093 149.45 95.2532 149.45 94.7312 149.183C94.2092 148.916 94.2092 148.458 94.7312 148.191C95.2532 147.924 96.1093 147.924 96.6313 148.191Z" fill="#16110D"/>
<path d="M101.58 145.574C102.102 145.841 102.102 146.299 101.58 146.566C101.058 146.833 100.202 146.833 99.6799 146.566C99.1579 146.299 99.1579 145.841 99.6799 145.574C100.202 145.307 101.058 145.307 101.58 145.574Z" fill="#16110D"/>
<path d="M106.55 142.96C107.072 143.226 107.072 143.684 106.55 143.951C106.028 144.218 105.172 144.218 104.65 143.951C104.128 143.684 104.128 143.226 104.65 142.96C105.172 142.693 106.028 142.693 106.55 142.96Z" fill="#16110D"/>
<path d="M111.498 140.344C112.021 140.611 112.021 141.069 111.498 141.336C110.976 141.603 110.12 141.603 109.598 141.336C109.076 141.069 109.076 140.611 109.598 140.344C110.12 140.077 110.976 140.077 111.498 140.344Z" fill="#16110D"/>
<path d="M116.447 137.728C116.969 137.995 116.969 138.452 116.447 138.719C115.925 138.986 115.069 138.986 114.547 138.719C114.025 138.452 114.025 137.995 114.547 137.728C115.069 137.461 115.925 137.461 116.447 137.728Z" fill="#16110D"/>
<path d="M61.99 161.25C62.512 161.517 62.512 161.974 61.99 162.241C61.468 162.508 60.6119 162.508 60.0898 162.241C59.5678 161.974 59.5678 161.517 60.0898 161.25C60.6119 160.983 61.468 160.983 61.99 161.25Z" fill="#16110D"/>
<path d="M66.9388 158.634C67.4608 158.901 67.4608 159.359 66.9388 159.626C66.4168 159.893 65.5606 159.893 65.0386 159.626C64.5166 159.359 64.5166 158.901 65.0386 158.634C65.5606 158.367 66.4168 158.367 66.9388 158.634Z" fill="#16110D"/>
<path d="M71.8875 156.018C72.4096 156.285 72.4096 156.742 71.8875 157.009C71.3655 157.276 70.5094 157.276 69.9874 157.009C69.4654 156.742 69.4654 156.285 69.9874 156.018C70.5094 155.751 71.3655 155.751 71.8875 156.018Z" fill="#16110D"/>
<path d="M76.8363 153.403C77.3583 153.67 77.3583 154.127 76.8363 154.394C76.3143 154.661 75.4582 154.661 74.9361 154.394C74.4141 154.127 74.4141 153.67 74.9361 153.403C75.4582 153.136 76.3143 153.136 76.8363 153.403Z" fill="#16110D"/>
<path d="M81.7851 150.788C82.3071 151.055 82.3071 151.512 81.7851 151.779C81.263 152.046 80.4069 152.046 79.8849 151.779C79.3629 151.512 79.3629 151.055 79.8849 150.788C80.4069 150.521 81.263 150.521 81.7851 150.788Z" fill="#16110D"/>
<path d="M86.7338 148.191C87.2558 148.458 87.2558 148.916 86.7338 149.183C86.2118 149.45 85.3557 149.45 84.8337 149.183C84.3116 148.916 84.3116 148.458 84.8337 148.191C85.3557 147.924 86.2118 147.924 86.7338 148.191Z" fill="#16110D"/>
<path d="M91.6826 145.574C92.2046 145.841 92.2046 146.299 91.6826 146.566C91.1606 146.833 90.3045 146.833 89.7824 146.566C89.2604 146.299 89.2604 145.841 89.7824 145.574C90.3045 145.307 91.1606 145.307 91.6826 145.574Z" fill="#16110D"/>
<path d="M96.6313 142.96C97.1534 143.226 97.1534 143.684 96.6313 143.951C96.1093 144.218 95.2532 144.218 94.7312 143.951C94.2092 143.684 94.2092 143.226 94.7312 142.96C95.2532 142.693 96.1093 142.693 96.6313 142.96Z" fill="#16110D"/>
<path d="M101.58 140.344C102.102 140.611 102.102 141.069 101.58 141.336C101.058 141.603 100.202 141.603 99.6799 141.336C99.1579 141.069 99.1579 140.611 99.6799 140.344C100.202 140.077 101.058 140.077 101.58 140.344Z" fill="#16110D"/>
<path d="M106.55 137.728C107.072 137.995 107.072 138.452 106.55 138.719C106.028 138.986 105.172 138.986 104.65 138.719C104.128 138.452 104.128 137.995 104.65 137.728C105.172 137.461 106.028 137.461 106.55 137.728Z" fill="#16110D"/>
<path d="M111.498 135.113C112.021 135.38 112.021 135.837 111.498 136.104C110.976 136.371 110.12 136.371 109.598 136.104C109.076 135.837 109.076 135.38 109.598 135.113C110.12 134.846 110.976 134.846 111.498 135.113Z" fill="#16110D"/>
<path d="M56.9786 158.614C57.5007 158.881 57.5007 159.339 56.9786 159.606C56.4566 159.873 55.6005 159.873 55.0785 159.606C54.5564 159.339 54.5564 158.881 55.0785 158.614C55.6005 158.347 56.4566 158.347 56.9786 158.614Z" fill="#16110D"/>
<path d="M61.9482 156C62.4703 156.267 62.4703 156.724 61.9482 156.991C61.4262 157.258 60.5701 157.258 60.0481 156.991C59.526 156.724 59.526 156.267 60.0481 156C60.5701 155.733 61.4262 155.733 61.9482 156Z" fill="#16110D"/>
<path d="M66.897 153.383C67.419 153.65 67.419 154.107 66.897 154.374C66.375 154.641 65.5189 154.641 64.9969 154.374C64.4748 154.107 64.4748 153.65 64.9969 153.383C65.5189 153.116 66.375 153.116 66.897 153.383Z" fill="#16110D"/>
<path d="M71.8458 150.768C72.3678 151.035 72.3678 151.492 71.8458 151.759C71.3238 152.026 70.4676 152.026 69.9456 151.759C69.4236 151.492 69.4236 151.035 69.9456 150.768C70.4676 150.501 71.3238 150.501 71.8458 150.768Z" fill="#16110D"/>
<path d="M76.7945 148.153C77.3165 148.42 77.3165 148.877 76.7945 149.144C76.2725 149.411 75.4164 149.411 74.8944 149.144C74.3723 148.877 74.3723 148.42 74.8944 148.153C75.4164 147.886 76.2725 147.886 76.7945 148.153Z" fill="#16110D"/>
<path d="M81.7433 145.536C82.2653 145.803 82.2653 146.261 81.7433 146.528C81.2213 146.795 80.3651 146.795 79.8431 146.528C79.3211 146.261 79.3211 145.803 79.8431 145.536C80.3651 145.269 81.2213 145.269 81.7433 145.536Z" fill="#16110D"/>
<path d="M86.6921 142.921C87.2141 143.188 87.2141 143.646 86.6921 143.913C86.1701 144.18 85.3139 144.18 84.7919 143.913C84.2699 143.646 84.2699 143.188 84.7919 142.921C85.3139 142.654 86.1701 142.654 86.6921 142.921Z" fill="#16110D"/>
<path d="M91.6408 140.306C92.1629 140.573 92.1629 141.031 91.6408 141.298C91.1188 141.565 90.2627 141.565 89.7407 141.298C89.2186 141.031 89.2186 140.573 89.7407 140.306C90.2627 140.039 91.1188 140.039 91.6408 140.306Z" fill="#16110D"/>
<path d="M96.5896 137.71C97.1116 137.976 97.1116 138.434 96.5896 138.701C96.0675 138.968 95.2114 138.968 94.6894 138.701C94.1674 138.434 94.1674 137.976 94.6894 137.71C95.2114 137.443 96.0675 137.443 96.5896 137.71Z" fill="#16110D"/>
<path d="M101.538 135.094C102.06 135.361 102.06 135.819 101.538 136.086C101.016 136.353 100.16 136.353 99.6382 136.086C99.1162 135.819 99.1162 135.361 99.6382 135.094C100.16 134.827 101.016 134.827 101.538 135.094Z" fill="#16110D"/>
<path d="M106.487 132.478C107.009 132.745 107.009 133.202 106.487 133.469C105.965 133.736 105.109 133.736 104.587 133.469C104.065 133.202 104.065 132.745 104.587 132.478C105.109 132.211 105.965 132.211 106.487 132.478Z" fill="#16110D"/>
<path d="M51.0902 157.2C51.8283 157.2 52.4266 156.884 52.4266 156.494C52.4266 156.104 51.8283 155.789 51.0902 155.789C50.3522 155.789 49.7538 156.104 49.7538 156.494C49.7538 156.884 50.3522 157.2 51.0902 157.2Z" fill="#16110D"/>
<path d="M56.9786 153.383C57.5007 153.65 57.5007 154.107 56.9786 154.374C56.4566 154.641 55.6005 154.641 55.0785 154.374C54.5564 154.107 54.5564 153.65 55.0785 153.383C55.6005 153.116 56.4566 153.116 56.9786 153.383Z" fill="#16110D"/>
<path d="M61.9482 150.768C62.4703 151.035 62.4703 151.492 61.9482 151.759C61.4262 152.026 60.5701 152.026 60.0481 151.759C59.526 151.492 59.526 151.035 60.0481 150.768C60.5701 150.501 61.4262 150.501 61.9482 150.768Z" fill="#16110D"/>
<path d="M66.897 148.153C67.419 148.42 67.419 148.877 66.897 149.144C66.375 149.411 65.5189 149.411 64.9969 149.144C64.4748 148.877 64.4748 148.42 64.9969 148.153C65.5189 147.886 66.375 147.886 66.897 148.153Z" fill="#16110D"/>
<path d="M71.8458 145.536C72.3678 145.803 72.3678 146.261 71.8458 146.528C71.3238 146.795 70.4676 146.795 69.9456 146.528C69.4236 146.261 69.4236 145.803 69.9456 145.536C70.4676 145.269 71.3238 145.269 71.8458 145.536Z" fill="#16110D"/>
<path d="M76.7945 142.921C77.3165 143.188 77.3165 143.646 76.7945 143.913C76.2725 144.18 75.4164 144.18 74.8944 143.913C74.3723 143.646 74.3723 143.188 74.8944 142.921C75.4164 142.654 76.2725 142.654 76.7945 142.921Z" fill="#16110D"/>
<path d="M81.7433 140.306C82.2653 140.573 82.2653 141.031 81.7433 141.298C81.2213 141.565 80.3651 141.565 79.8431 141.298C79.3211 141.031 79.3211 140.573 79.8431 140.306C80.3651 140.039 81.2213 140.039 81.7433 140.306Z" fill="#16110D"/>
<path d="M86.6921 137.71C87.2141 137.976 87.2141 138.434 86.6921 138.701C86.1701 138.968 85.3139 138.968 84.7919 138.701C84.2699 138.434 84.2699 137.976 84.7919 137.71C85.3139 137.443 86.1701 137.443 86.6921 137.71Z" fill="#16110D"/>
<path d="M90.7012 136.294C91.4393 136.294 92.0376 135.979 92.0376 135.589C92.0376 135.199 91.4393 134.883 90.7012 134.883C89.9632 134.883 89.3648 135.199 89.3648 135.589C89.3648 135.979 89.9632 136.294 90.7012 136.294Z" fill="#16110D"/>
<path d="M96.5896 132.478C97.1116 132.745 97.1116 133.202 96.5896 133.469C96.0675 133.736 95.2114 133.736 94.6894 133.469C94.1674 133.202 94.1674 132.745 94.6894 132.478C95.2114 132.211 96.0675 132.211 96.5896 132.478Z" fill="#16110D"/>
<path d="M101.538 129.862C102.06 130.129 102.06 130.587 101.538 130.854C101.016 131.121 100.16 131.121 99.6382 130.854C99.1162 130.587 99.1162 130.129 99.6382 129.862C100.16 129.595 101.016 129.595 101.538 129.862Z" fill="#16110D"/>
<path d="M47.0811 153.383C47.6031 153.65 47.6031 154.107 47.0811 154.374C46.5591 154.641 45.703 154.641 45.1809 154.374C44.6589 154.107 44.6589 153.65 45.1809 153.383C45.703 153.116 46.5591 153.116 47.0811 153.383Z" fill="#16110D"/>
<path d="M52.0298 150.768C52.5519 151.035 52.5519 151.492 52.0298 151.759C51.5078 152.026 50.6517 152.026 50.1297 151.759C49.6077 151.492 49.6077 151.035 50.1297 150.768C50.6517 150.501 51.5078 150.501 52.0298 150.768Z" fill="#16110D"/>
<path d="M56.9786 148.153C57.5007 148.42 57.5007 148.877 56.9786 149.144C56.4566 149.411 55.6005 149.411 55.0785 149.144C54.5564 148.877 54.5564 148.42 55.0785 148.153C55.6005 147.886 56.4566 147.886 56.9786 148.153Z" fill="#16110D"/>
<path d="M61.9482 145.536C62.4703 145.803 62.4703 146.261 61.9482 146.528C61.4262 146.795 60.5701 146.795 60.0481 146.528C59.526 146.261 59.526 145.803 60.0481 145.536C60.5701 145.269 61.4262 145.269 61.9482 145.536Z" fill="#16110D"/>
<path d="M66.897 142.921C67.419 143.188 67.419 143.646 66.897 143.913C66.375 144.18 65.5189 144.18 64.9969 143.913C64.4748 143.646 64.4748 143.188 64.9969 142.921C65.5189 142.654 66.375 142.654 66.897 142.921Z" fill="#16110D"/>
<path d="M71.8458 140.306C72.3678 140.573 72.3678 141.031 71.8458 141.298C71.3238 141.565 70.4676 141.565 69.9456 141.298C69.4236 141.031 69.4236 140.573 69.9456 140.306C70.4676 140.039 71.3238 140.039 71.8458 140.306Z" fill="#16110D"/>
<path d="M76.7945 137.71C77.3165 137.976 77.3165 138.434 76.7945 138.701C76.2725 138.968 75.4164 138.968 74.8944 138.701C74.3723 138.434 74.3723 137.976 74.8944 137.71C75.4164 137.443 76.2725 137.443 76.7945 137.71Z" fill="#16110D"/>
<path d="M81.7433 135.094C82.2653 135.361 82.2653 135.819 81.7433 136.086C81.2213 136.353 80.3651 136.353 79.8431 136.086C79.3211 135.819 79.3211 135.361 79.8431 135.094C80.3651 134.827 81.2213 134.827 81.7433 135.094Z" fill="#16110D"/>
<path d="M86.6921 132.478C87.2141 132.745 87.2141 133.202 86.6921 133.469C86.1701 133.736 85.3139 133.736 84.7919 133.469C84.2699 133.202 84.2699 132.745 84.7919 132.478C85.3139 132.211 86.1701 132.211 86.6921 132.478Z" fill="#16110D"/>
<path d="M91.6408 129.862C92.1629 130.129 92.1629 130.587 91.6408 130.854C91.1188 131.121 90.2627 131.121 89.7407 130.854C89.2186 130.587 89.2186 130.129 89.7407 129.862C90.2627 129.595 91.1188 129.595 91.6408 129.862Z" fill="#16110D"/>
<path d="M42.1323 150.768C42.6543 151.035 42.6543 151.492 42.1323 151.759C41.6103 152.026 40.7542 152.026 40.2322 151.759C39.7102 151.492 39.7102 151.035 40.2322 150.768C40.7542 150.501 41.6103 150.501 42.1323 150.768Z" fill="#16110D"/>
<path d="M47.0811 148.153C47.6031 148.42 47.6031 148.877 47.0811 149.144C46.5591 149.411 45.703 149.411 45.1809 149.144C44.6589 148.877 44.6589 148.42 45.1809 148.153C45.703 147.886 46.5591 147.886 47.0811 148.153Z" fill="#16110D"/>
<path d="M52.0298 145.536C52.5519 145.803 52.5519 146.261 52.0298 146.528C51.5078 146.795 50.6517 146.795 50.1297 146.528C49.6077 146.261 49.6077 145.803 50.1297 145.536C50.6517 145.269 51.5078 145.269 52.0298 145.536Z" fill="#16110D"/>
<path d="M56.9786 142.921C57.5007 143.188 57.5007 143.646 56.9786 143.913C56.4566 144.18 55.6005 144.18 55.0785 143.913C54.5564 143.646 54.5564 143.188 55.0785 142.921C55.6005 142.654 56.4566 142.654 56.9786 142.921Z" fill="#16110D"/>
<path d="M61.9482 140.306C62.4703 140.573 62.4703 141.031 61.9482 141.298C61.4262 141.565 60.5701 141.565 60.0481 141.298C59.526 141.031 59.526 140.573 60.0481 140.306C60.5701 140.039 61.4262 140.039 61.9482 140.306Z" fill="#16110D"/>
<path d="M66.897 137.71C67.419 137.976 67.419 138.434 66.897 138.701C66.375 138.968 65.5189 138.968 64.9969 138.701C64.4748 138.434 64.4748 137.976 64.9969 137.71C65.5189 137.443 66.375 137.443 66.897 137.71Z" fill="#16110D"/>
<path d="M71.8458 135.094C72.3678 135.361 72.3678 135.819 71.8458 136.086C71.3238 136.353 70.4676 136.353 69.9456 136.086C69.4236 135.819 69.4236 135.361 69.9456 135.094C70.4676 134.827 71.3238 134.827 71.8458 135.094Z" fill="#16110D"/>
<path d="M76.7945 132.478C77.3165 132.745 77.3165 133.202 76.7945 133.469C76.2725 133.736 75.4164 133.736 74.8944 133.469C74.3723 133.202 74.3723 132.745 74.8944 132.478C75.4164 132.211 76.2725 132.211 76.7945 132.478Z" fill="#16110D"/>
<path d="M37.1836 148.153C37.7056 148.42 37.7056 148.877 37.1836 149.144C36.6616 149.411 35.8054 149.411 35.2834 149.144C34.7614 148.877 34.7614 148.42 35.2834 148.153C35.8054 147.886 36.6616 147.886 37.1836 148.153Z" fill="#16110D"/>
<path d="M42.1323 145.536C42.6543 145.803 42.6543 146.261 42.1323 146.528C41.6103 146.795 40.7542 146.795 40.2322 146.528C39.7102 146.261 39.7102 145.803 40.2322 145.536C40.7542 145.269 41.6103 145.269 42.1323 145.536Z" fill="#16110D"/>
<path d="M47.0811 142.921C47.6031 143.188 47.6031 143.646 47.0811 143.913C46.5591 144.18 45.703 144.18 45.1809 143.913C44.6589 143.646 44.6589 143.188 45.1809 142.921C45.703 142.654 46.5591 142.654 47.0811 142.921Z" fill="#16110D"/>
<path d="M52.0298 140.306C52.5519 140.573 52.5519 141.031 52.0298 141.298C51.5078 141.565 50.6517 141.565 50.1297 141.298C49.6077 141.031 49.6077 140.573 50.1297 140.306C50.6517 140.039 51.5078 140.039 52.0298 140.306Z" fill="#16110D"/>
<path d="M56.9786 137.71C57.5007 137.976 57.5007 138.434 56.9786 138.701C56.4566 138.968 55.6005 138.968 55.0785 138.701C54.5564 138.434 54.5564 137.976 55.0785 137.71C55.6005 137.443 56.4566 137.443 56.9786 137.71Z" fill="#16110D"/>
<path d="M61.9482 135.094C62.4703 135.361 62.4703 135.819 61.9482 136.086C61.4262 136.353 60.5701 136.353 60.0481 136.086C59.526 135.819 59.526 135.361 60.0481 135.094C60.5701 134.827 61.4262 134.827 61.9482 135.094Z" fill="#16110D"/>
<path d="M66.897 132.478C67.419 132.745 67.419 133.202 66.897 133.469C66.375 133.736 65.5189 133.736 64.9969 133.469C64.4748 133.202 64.4748 132.745 64.9969 132.478C65.5189 132.211 66.375 132.211 66.897 132.478Z" fill="#16110D"/>
<path d="M32.2348 145.536C32.7568 145.803 32.7568 146.261 32.2348 146.528C31.7128 146.795 30.8567 146.795 30.3347 146.528C29.8126 146.261 29.8126 145.803 30.3347 145.536C30.8567 145.269 31.7128 145.269 32.2348 145.536Z" fill="#16110D"/>
<path d="M37.1836 142.921C37.7056 143.188 37.7056 143.646 37.1836 143.913C36.6616 144.18 35.8054 144.18 35.2834 143.913C34.7614 143.646 34.7614 143.188 35.2834 142.921C35.8054 142.654 36.6616 142.654 37.1836 142.921Z" fill="#16110D"/>
<path d="M42.1323 140.306C42.6543 140.573 42.6543 141.031 42.1323 141.298C41.6103 141.565 40.7542 141.565 40.2322 141.298C39.7102 141.031 39.7102 140.573 40.2322 140.306C40.7542 140.039 41.6103 140.039 42.1323 140.306Z" fill="#16110D"/>
<path d="M47.0811 137.71C47.6031 137.976 47.6031 138.434 47.0811 138.701C46.5591 138.968 45.703 138.968 45.1809 138.701C44.6589 138.434 44.6589 137.976 45.1809 137.71C45.703 137.443 46.5591 137.443 47.0811 137.71Z" fill="#16110D"/>
<path d="M52.0298 135.094C52.5519 135.361 52.5519 135.819 52.0298 136.086C51.5078 136.353 50.6517 136.353 50.1297 136.086C49.6077 135.819 49.6077 135.361 50.1297 135.094C50.6517 134.827 51.5078 134.827 52.0298 135.094Z" fill="#16110D"/>
<path d="M56.9786 132.478C57.5007 132.745 57.5007 133.202 56.9786 133.469C56.4566 133.736 55.6005 133.736 55.0785 133.469C54.5564 133.202 54.5564 132.745 55.0785 132.478C55.6005 132.211 56.4566 132.211 56.9786 132.478Z" fill="#16110D"/>
<path d="M27.286 142.921C27.8081 143.188 27.8081 143.646 27.286 143.913C26.764 144.18 25.9079 144.18 25.3859 143.913C24.8639 143.646 24.8639 143.188 25.3859 142.921C25.9079 142.654 26.764 142.654 27.286 142.921Z" fill="#16110D"/>
<path d="M32.2348 140.306C32.7568 140.573 32.7568 141.031 32.2348 141.298C31.7128 141.565 30.8567 141.565 30.3347 141.298C29.8126 141.031 29.8126 140.573 30.3347 140.306C30.8567 140.039 31.7128 140.039 32.2348 140.306Z" fill="#16110D"/>
<path d="M37.1836 137.71C37.7056 137.976 37.7056 138.434 37.1836 138.701C36.6616 138.968 35.8054 138.968 35.2834 138.701C34.7614 138.434 34.7614 137.976 35.2834 137.71C35.8054 137.443 36.6616 137.443 37.1836 137.71Z" fill="#16110D"/>
<path d="M42.1323 135.094C42.6543 135.361 42.6543 135.819 42.1323 136.086C41.6103 136.353 40.7542 136.353 40.2322 136.086C39.7102 135.819 39.7102 135.361 40.2322 135.094C40.7542 134.827 41.6103 134.827 42.1323 135.094Z" fill="#16110D"/>
<path d="M47.0811 132.478C47.6031 132.745 47.6031 133.202 47.0811 133.469C46.5591 133.736 45.703 133.736 45.1809 133.469C44.6589 133.202 44.6589 132.745 45.1809 132.478C45.703 132.211 46.5591 132.211 47.0811 132.478Z" fill="#16110D"/>
<path d="M22.3373 140.306C22.8593 140.573 22.8593 141.031 22.3373 141.298C21.8153 141.565 20.9591 141.565 20.4371 141.298C19.9151 141.031 19.9151 140.573 20.4371 140.306C20.9591 140.039 21.8153 140.039 22.3373 140.306Z" fill="#16110D"/>
<path d="M27.286 137.71C27.8081 137.976 27.8081 138.434 27.286 138.701C26.764 138.968 25.9079 138.968 25.3859 138.701C24.8639 138.434 24.8639 137.976 25.3859 137.71C25.9079 137.443 26.764 137.443 27.286 137.71Z" fill="#16110D"/>
<path d="M32.2348 135.094C32.7568 135.361 32.7568 135.819 32.2348 136.086C31.7128 136.353 30.8567 136.353 30.3347 136.086C29.8126 135.819 29.8126 135.361 30.3347 135.094C30.8567 134.827 31.7128 134.827 32.2348 135.094Z" fill="#16110D"/>
<path d="M37.1836 132.478C37.7056 132.745 37.7056 133.202 37.1836 133.469C36.6616 133.736 35.8054 133.736 35.2834 133.469C34.7614 133.202 34.7614 132.745 35.2834 132.478C35.8054 132.211 36.6616 132.211 37.1836 132.478Z" fill="#16110D"/>
<path d="M17.3468 137.671C17.8688 137.938 17.8688 138.396 17.3468 138.663C16.8247 138.93 15.9686 138.93 15.4466 138.663C14.9246 138.396 14.9246 137.938 15.4466 137.671C15.9686 137.404 16.8247 137.404 17.3468 137.671Z" fill="#16110D"/>
<path d="M22.2955 135.056C22.8175 135.323 22.8175 135.78 22.2955 136.047C21.7735 136.314 20.9174 136.314 20.3954 136.047C19.8734 135.78 19.8734 135.323 20.3954 135.056C20.9174 134.789 21.7735 134.789 22.2955 135.056Z" fill="#16110D"/>
<path d="M27.2443 132.439C27.7663 132.706 27.7663 133.164 27.2443 133.431C26.7223 133.698 25.8661 133.698 25.3441 133.431C24.8221 133.164 24.8221 132.706 25.3441 132.439C25.8661 132.173 26.7223 132.173 27.2443 132.439Z" fill="#16110D"/>
<path d="M32.193 129.824C32.7151 130.091 32.7151 130.549 32.193 130.816C31.671 131.083 30.8149 131.083 30.2929 130.816C29.7709 130.549 29.7709 130.091 30.2929 129.824C30.8149 129.557 31.671 129.557 32.193 129.824C32.7151 130.091 31.671 129.557 32.193 129.824Z" fill="#16110D"/>
<path d="M12.398 135.056C12.92 135.323 12.92 135.78 12.398 136.047C11.876 136.314 11.0199 136.314 10.4978 136.047C9.97582 135.78 9.97582 135.323 10.4978 135.056C11.0199 134.789 11.876 134.789 12.398 135.056Z" fill="#16110D"/>
<path d="M17.3468 132.439C17.8688 132.706 17.8688 133.164 17.3468 133.431C16.8247 133.698 15.9686 133.698 15.4466 133.431C14.9246 133.164 14.9246 132.706 15.4466 132.439C15.9686 132.173 16.8247 132.173 17.3468 132.439Z" fill="#16110D"/>
<path d="M22.2955 129.824C22.8175 130.091 22.8175 130.549 22.2955 130.816C21.7735 131.083 20.9174 131.083 20.3954 130.816C19.8734 130.549 19.8734 130.091 20.3954 129.824C20.9174 129.557 21.7735 129.557 22.2955 129.824Z" fill="#16110D"/>
<path d="M27.2443 127.228C27.7663 127.495 27.7663 127.952 27.2443 128.219C26.7223 128.486 25.8661 128.486 25.3441 128.219C24.8221 127.952 24.8221 127.495 25.3441 127.228C25.8661 126.961 26.7223 126.961 27.2443 127.228C27.7663 127.495 26.7223 126.961 27.2443 127.228Z" fill="#16110D"/>
<path d="M7.42834 132.439C7.95036 132.706 7.95036 133.164 7.42834 133.431C6.90632 133.698 6.05019 133.698 5.52817 133.431C5.00615 133.164 5.00615 132.706 5.52817 132.439C6.05019 132.173 6.90632 132.173 7.42834 132.439Z" fill="#16110D"/>
<path d="M12.398 129.824C12.92 130.091 12.92 130.549 12.398 130.816C11.876 131.083 11.0199 131.083 10.4978 130.816C9.97582 130.549 9.97582 130.091 10.4978 129.824C11.0199 129.557 11.876 129.557 12.398 129.824Z" fill="#16110D"/>
<path d="M17.3468 127.228C17.8688 127.495 17.8688 127.952 17.3468 128.219C16.8247 128.486 15.9686 128.486 15.4466 128.219C14.9246 127.952 14.9246 127.495 15.4466 127.228C15.9686 126.961 16.8247 126.961 17.3468 127.228Z" fill="#16110D"/>
<path d="M22.2955 125.603C21.7735 125.87 20.9174 125.87 20.3954 125.603C19.8734 125.336 19.8734 124.879 20.3954 124.612C20.9174 124.345 22.8175 125.336 22.2955 125.603Z" fill="#16110D"/>
<path d="M2.47961 129.824C3.00163 130.091 3.00163 130.549 2.47961 130.816C1.95759 131.083 1.10146 131.083 0.579443 130.816C0.0574219 130.549 0.0574219 130.091 0.579443 129.824C1.10146 129.557 1.95759 129.557 2.47961 129.824Z" fill="#16110D"/>
<path d="M7.42834 127.228C7.95036 127.495 7.95036 127.952 7.42834 128.219C6.90632 128.486 6.05019 128.486 5.52817 128.219C5.00615 127.952 5.00615 127.495 5.52817 127.228C6.05019 126.961 6.90632 126.961 7.42834 127.228Z" fill="#16110D"/>
<path d="M12.398 124.612C12.92 124.879 12.92 125.337 12.398 125.604C11.876 125.871 11.0199 125.871 10.4978 125.604C9.97582 125.337 9.97582 124.879 10.4978 124.612C11.0199 124.345 11.876 124.345 12.398 124.612Z" fill="#16110D"/>
<path d="M136.242 142.941C136.764 143.208 136.764 143.666 136.242 143.933C135.72 144.2 134.864 144.2 134.342 143.933C133.82 143.666 133.82 143.208 134.342 142.941C134.864 142.674 135.72 142.674 136.242 142.941Z" fill="#16110D"/>
<path d="M141.191 140.324C141.713 140.591 141.713 141.049 141.191 141.316C140.669 141.583 139.813 141.583 139.291 141.316C138.769 141.049 138.769 140.591 139.291 140.324C139.813 140.057 140.669 140.057 141.191 140.324Z" fill="#16110D"/>
<path d="M146.14 137.71C146.662 137.976 146.662 138.434 146.14 138.701C145.618 138.968 144.762 138.968 144.24 138.701C143.718 138.434 143.718 137.976 144.24 137.71C144.762 137.443 145.618 137.443 146.14 137.71Z" fill="#16110D"/>
<path d="M151.089 135.094C151.611 135.361 151.611 135.819 151.089 136.086C150.567 136.353 149.71 136.353 149.188 136.086C148.666 135.819 148.666 135.361 149.188 135.094C149.71 134.827 150.567 134.827 151.089 135.094Z" fill="#16110D"/>
<path d="M156.037 132.478C156.559 132.745 156.559 133.202 156.037 133.469C155.515 133.736 154.659 133.736 154.137 133.469C153.615 133.202 153.615 132.745 154.137 132.478C154.659 132.211 155.515 132.211 156.037 132.478Z" fill="#16110D"/>
<path d="M160.986 129.881C161.508 130.148 161.508 130.606 160.986 130.872C160.464 131.139 159.608 131.139 159.086 130.872C158.564 130.606 158.564 130.148 159.086 129.881C159.608 129.614 160.464 129.614 160.986 129.881Z" fill="#16110D"/>
<path d="M165.956 127.266C166.478 127.533 166.478 127.99 165.956 128.257C165.434 128.524 164.578 128.524 164.056 128.257C163.534 127.99 163.534 127.533 164.056 127.266C164.578 126.999 165.434 126.999 165.956 127.266Z" fill="#16110D"/>
<path d="M170.905 124.651C171.427 124.918 171.427 125.376 170.905 125.643C170.383 125.91 169.526 125.91 169.004 125.643C168.482 125.376 168.482 124.918 169.004 124.651C169.526 124.384 170.383 124.384 170.905 124.651Z" fill="#16110D"/>
<path d="M174.893 123.236C175.631 123.236 176.229 122.92 176.229 122.531C176.229 122.141 175.631 121.825 174.893 121.825C174.155 121.825 173.556 122.141 173.556 122.531C173.556 122.92 174.155 123.236 174.893 123.236Z" fill="#16110D"/>
<path d="M180.802 119.419C181.324 119.686 181.324 120.144 180.802 120.411C180.28 120.678 179.424 120.678 178.902 120.411C178.38 120.144 178.38 119.686 178.902 119.419C179.424 119.152 180.28 119.152 180.802 119.419Z" fill="#16110D"/>
<path d="M185.751 116.804C186.273 117.071 186.273 117.529 185.751 117.796C185.229 118.063 184.373 118.063 183.851 117.796C183.329 117.529 183.329 117.071 183.851 116.804C184.373 116.537 185.229 116.537 185.751 116.804Z" fill="#16110D"/>
<path d="M190.7 114.188C191.222 114.455 191.222 114.912 190.7 115.179C190.178 115.446 189.321 115.446 188.799 115.179C188.277 114.912 188.277 114.455 188.799 114.188C189.321 113.921 190.178 113.921 190.7 114.188Z" fill="#16110D"/>
<path d="M195.648 111.572C196.17 111.839 196.17 112.297 195.648 112.564C195.126 112.831 194.27 112.831 193.748 112.564C193.226 112.297 193.226 111.839 193.748 111.572C194.27 111.305 195.126 111.305 195.648 111.572Z" fill="#16110D"/>
<path d="M131.294 140.324C131.816 140.591 131.816 141.049 131.294 141.316C130.772 141.583 129.915 141.583 129.393 141.316C128.871 141.049 128.871 140.591 129.393 140.324C129.915 140.057 130.772 140.057 131.294 140.324Z" fill="#16110D"/>
<path d="M136.242 137.71C136.764 137.976 136.764 138.434 136.242 138.701C135.72 138.968 134.864 138.968 134.342 138.701C133.82 138.434 133.82 137.976 134.342 137.71C134.864 137.443 135.72 137.443 136.242 137.71Z" fill="#16110D"/>
<path d="M141.191 135.094C141.713 135.361 141.713 135.819 141.191 136.086C140.669 136.353 139.813 136.353 139.291 136.086C138.769 135.819 138.769 135.361 139.291 135.094C139.813 134.827 140.669 134.827 141.191 135.094Z" fill="#16110D"/>
<path d="M146.14 132.478C146.662 132.745 146.662 133.202 146.14 133.469C145.618 133.736 144.762 133.736 144.24 133.469C143.718 133.202 143.718 132.745 144.24 132.478C144.762 132.211 145.618 132.211 146.14 132.478Z" fill="#16110D"/>
<path d="M151.089 129.881C151.611 130.148 151.611 130.606 151.089 130.872C150.567 131.139 149.71 131.139 149.188 130.872C148.666 130.606 148.666 130.148 149.188 129.881C149.71 129.614 150.567 129.614 151.089 129.881Z" fill="#16110D"/>
<path d="M156.037 127.266C156.559 127.533 156.559 127.99 156.037 128.257C155.515 128.524 154.659 128.524 154.137 128.257C153.615 127.99 153.615 127.533 154.137 127.266C154.659 126.999 155.515 126.999 156.037 127.266Z" fill="#16110D"/>
<path d="M160.986 124.651C161.508 124.918 161.508 125.376 160.986 125.643C160.464 125.91 159.608 125.91 159.086 125.643C158.564 125.376 158.564 124.918 159.086 124.651C159.608 124.384 160.464 124.384 160.986 124.651Z" fill="#16110D"/>
<path d="M165.956 122.034C166.478 122.301 166.478 122.759 165.956 123.026C165.434 123.293 164.578 123.293 164.056 123.026C163.534 122.759 163.534 122.301 164.056 122.034C164.578 121.767 165.434 121.767 165.956 122.034Z" fill="#16110D"/>
<path d="M170.905 119.419C171.427 119.686 171.427 120.144 170.905 120.411C170.383 120.678 169.526 120.678 169.004 120.411C168.482 120.144 168.482 119.686 169.004 119.419C169.526 119.152 170.383 119.152 170.905 119.419Z" fill="#16110D"/>
<path d="M175.853 116.804C176.375 117.071 176.375 117.529 175.853 117.796C175.331 118.063 174.475 118.063 173.953 117.796C173.431 117.529 173.431 117.071 173.953 116.804C174.475 116.537 175.331 116.537 175.853 116.804Z" fill="#16110D"/>
<path d="M180.802 114.188C181.324 114.455 181.324 114.912 180.802 115.179C180.28 115.446 179.424 115.446 178.902 115.179C178.38 114.912 178.38 114.455 178.902 114.188C179.424 113.921 180.28 113.921 180.802 114.188Z" fill="#16110D"/>
<path d="M185.751 111.572C186.273 111.839 186.273 112.297 185.751 112.564C185.229 112.831 184.373 112.831 183.851 112.564C183.329 112.297 183.329 111.839 183.851 111.572C184.373 111.305 185.229 111.305 185.751 111.572Z" fill="#16110D"/>
<path d="M190.7 108.958C191.222 109.225 191.222 109.682 190.7 109.949C190.178 110.216 189.321 110.216 188.799 109.949C188.277 109.682 188.277 109.225 188.799 108.958C189.321 108.691 190.178 108.691 190.7 108.958C191.222 109.225 190.178 108.691 190.7 108.958Z" fill="#16110D"/>
<path d="M126.345 137.71C126.867 137.976 126.867 138.434 126.345 138.701C125.823 138.968 124.967 138.968 124.445 138.701C123.923 138.434 123.923 137.976 124.445 137.71C124.967 137.443 125.823 137.443 126.345 137.71Z" fill="#16110D"/>
<path d="M131.294 135.094C131.816 135.361 131.816 135.819 131.294 136.086C130.772 136.353 129.915 136.353 129.393 136.086C128.871 135.819 128.871 135.361 129.393 135.094C129.915 134.827 130.772 134.827 131.294 135.094Z" fill="#16110D"/>
<path d="M136.242 132.478C136.764 132.745 136.764 133.202 136.242 133.469C135.72 133.736 134.864 133.736 134.342 133.469C133.82 133.202 133.82 132.745 134.342 132.478C134.864 132.211 135.72 132.211 136.242 132.478Z" fill="#16110D"/>
<path d="M141.191 129.881C141.713 130.148 141.713 130.606 141.191 130.872C140.669 131.139 139.813 131.139 139.291 130.872C138.769 130.606 138.769 130.148 139.291 129.881C139.813 129.614 140.669 129.614 141.191 129.881Z" fill="#16110D"/>
<path d="M146.14 127.266C146.662 127.533 146.662 127.99 146.14 128.257C145.618 128.524 144.762 128.524 144.24 128.257C143.718 127.99 143.718 127.533 144.24 127.266C144.762 126.999 145.618 126.999 146.14 127.266Z" fill="#16110D"/>
<path d="M151.089 124.651C151.611 124.918 151.611 125.376 151.089 125.643C150.567 125.91 149.71 125.91 149.188 125.643C148.666 125.376 148.666 124.918 149.188 124.651C149.71 124.384 150.567 124.384 151.089 124.651Z" fill="#16110D"/>
<path d="M156.037 122.034C156.559 122.301 156.559 122.759 156.037 123.026C155.515 123.293 154.659 123.293 154.137 123.026C153.615 122.759 153.615 122.301 154.137 122.034C154.659 121.767 155.515 121.767 156.037 122.034Z" fill="#16110D"/>
<path d="M160.986 119.419C161.508 119.686 161.508 120.144 160.986 120.411C160.464 120.678 159.608 120.678 159.086 120.411C158.564 120.144 158.564 119.686 159.086 119.419C159.608 119.152 160.464 119.152 160.986 119.419Z" fill="#16110D"/>
<path d="M165.956 116.804C166.478 117.071 166.478 117.529 165.956 117.796C165.434 118.063 164.578 118.063 164.056 117.796C163.534 117.529 163.534 117.071 164.056 116.804C164.578 116.537 165.434 116.537 165.956 116.804Z" fill="#16110D"/>
<path d="M170.905 114.188C171.427 114.455 171.427 114.912 170.905 115.179C170.383 115.446 169.526 115.446 169.004 115.179C168.482 114.912 168.482 114.455 169.004 114.188C169.526 113.921 170.383 113.921 170.905 114.188Z" fill="#16110D"/>
<path d="M175.853 111.572C176.375 111.839 176.375 112.297 175.853 112.564C175.331 112.831 174.475 112.831 173.953 112.564C173.431 112.297 173.431 111.839 173.953 111.572C174.475 111.305 175.331 111.305 175.853 111.572Z" fill="#16110D"/>
<path d="M180.802 108.958C181.324 109.225 181.324 109.682 180.802 109.949C180.28 110.216 179.424 110.216 178.902 109.949C178.38 109.682 178.38 109.225 178.902 108.958C179.424 108.691 180.28 108.691 180.802 108.958Z" fill="#16110D"/>
<path d="M185.751 106.361C186.273 106.628 186.273 107.086 185.751 107.352C185.229 107.619 184.373 107.619 183.851 107.352C183.329 107.086 183.329 106.628 183.851 106.361C184.373 106.094 185.229 106.094 185.751 106.361Z" fill="#16110D"/>
<path d="M121.396 135.094C121.918 135.361 121.918 135.819 121.396 136.086C120.874 136.353 120.018 136.353 119.496 136.086C118.974 135.819 118.974 135.361 119.496 135.094C120.018 134.827 120.874 134.827 121.396 135.094Z" fill="#16110D"/>
<path d="M126.345 132.478C126.867 132.745 126.867 133.202 126.345 133.469C125.823 133.736 124.967 133.736 124.445 133.469C123.923 133.202 123.923 132.745 124.445 132.478C124.967 132.211 125.823 132.211 126.345 132.478Z" fill="#16110D"/>
<path d="M131.294 129.881C131.816 130.148 131.816 130.606 131.294 130.872C130.772 131.139 129.915 131.139 129.393 130.872C128.871 130.606 128.871 130.148 129.393 129.881C129.915 129.614 130.772 129.614 131.294 129.881Z" fill="#16110D"/>
<path d="M136.242 127.266C136.764 127.533 136.764 127.99 136.242 128.257C135.72 128.524 134.864 128.524 134.342 128.257C133.82 127.99 133.82 127.533 134.342 127.266C134.864 126.999 135.72 126.999 136.242 127.266Z" fill="#16110D"/>
<path d="M141.191 124.651C141.713 124.918 141.713 125.376 141.191 125.643C140.669 125.91 139.813 125.91 139.291 125.643C138.769 125.376 138.769 124.918 139.291 124.651C139.813 124.384 140.669 124.384 141.191 124.651Z" fill="#16110D"/>
<path d="M146.14 122.034C146.662 122.301 146.662 122.759 146.14 123.026C145.618 123.293 144.762 123.293 144.24 123.026C143.718 122.759 143.718 122.301 144.24 122.034C144.762 121.767 145.618 121.767 146.14 122.034Z" fill="#16110D"/>
<path d="M151.089 119.419C151.611 119.686 151.611 120.144 151.089 120.411C150.567 120.678 149.71 120.678 149.188 120.411C148.666 120.144 148.666 119.686 149.188 119.419C149.71 119.152 150.567 119.152 151.089 119.419Z" fill="#16110D"/>
<path d="M156.037 116.804C156.559 117.071 156.559 117.529 156.037 117.796C155.515 118.063 154.659 118.063 154.137 117.796C153.615 117.529 153.615 117.071 154.137 116.804C154.659 116.537 155.515 116.537 156.037 116.804Z" fill="#16110D"/>
<path d="M160.986 114.188C161.508 114.455 161.508 114.912 160.986 115.179C160.464 115.446 159.608 115.446 159.086 115.179C158.564 114.912 158.564 114.455 159.086 114.188C159.608 113.921 160.464 113.921 160.986 114.188Z" fill="#16110D"/>
<path d="M165.956 111.572C166.478 111.839 166.478 112.297 165.956 112.564C165.434 112.831 164.578 112.831 164.056 112.564C163.534 112.297 163.534 111.839 164.056 111.572C164.578 111.305 165.434 111.305 165.956 111.572Z" fill="#16110D"/>
<path d="M170.905 108.958C171.427 109.225 171.427 109.682 170.905 109.949C170.383 110.216 169.526 110.216 169.004 109.949C168.482 109.682 168.482 109.225 169.004 108.958C169.526 108.691 170.383 108.691 170.905 108.958Z" fill="#16110D"/>
<path d="M116.447 132.478C116.969 132.745 116.969 133.202 116.447 133.469C115.925 133.736 115.069 133.736 114.547 133.469C114.025 133.202 114.025 132.745 114.547 132.478C115.069 132.211 115.925 132.211 116.447 132.478Z" fill="#16110D"/>
<path d="M121.396 129.881C121.918 130.148 121.918 130.606 121.396 130.872C120.874 131.139 120.018 131.139 119.496 130.872C118.974 130.606 118.974 130.148 119.496 129.881C120.018 129.614 120.874 129.614 121.396 129.881Z" fill="#16110D"/>
<path d="M126.345 127.266C126.867 127.533 126.867 127.99 126.345 128.257C125.823 128.524 124.967 128.524 124.445 128.257C123.923 127.99 123.923 127.533 124.445 127.266C124.967 126.999 125.823 126.999 126.345 127.266Z" fill="#16110D"/>
<path d="M131.294 124.651C131.816 124.918 131.816 125.376 131.294 125.643C130.772 125.91 129.915 125.91 129.393 125.643C128.871 125.376 128.871 124.918 129.393 124.651C129.915 124.384 130.772 124.384 131.294 124.651Z" fill="#16110D"/>
<path d="M136.242 122.034C136.764 122.301 136.764 122.759 136.242 123.026C135.72 123.293 134.864 123.293 134.342 123.026C133.82 122.759 133.82 122.301 134.342 122.034C134.864 121.767 135.72 121.767 136.242 122.034Z" fill="#16110D"/>
<path d="M141.191 119.419C141.713 119.686 141.713 120.144 141.191 120.411C140.669 120.678 139.813 120.678 139.291 120.411C138.769 120.144 138.769 119.686 139.291 119.419C139.813 119.152 140.669 119.152 141.191 119.419Z" fill="#16110D"/>
<path d="M145.2 118.006C145.938 118.006 146.537 117.69 146.537 117.3C146.537 116.911 145.938 116.595 145.2 116.595C144.462 116.595 143.864 116.911 143.864 117.3C143.864 117.69 144.462 118.006 145.2 118.006Z" fill="#16110D"/>
<path d="M151.089 114.188C151.611 114.455 151.611 114.912 151.089 115.179C150.567 115.446 149.71 115.446 149.188 115.179C148.666 114.912 148.666 114.455 149.188 114.188C149.71 113.921 150.567 113.921 151.089 114.188Z" fill="#16110D"/>
<path d="M154.158 111.572C154.68 111.305 155.536 111.305 156.058 111.572C156.58 111.839 156.58 112.297 156.058 112.564C155.536 112.831 154.68 112.831 154.158 112.564C153.636 112.297 153.636 111.839 154.158 111.572C154.68 111.305 153.636 111.839 154.158 111.572Z" fill="#16110D"/>
<path d="M111.436 129.843C111.958 130.11 111.958 130.567 111.436 130.834C110.914 131.101 110.058 131.101 109.536 130.834C109.014 130.567 109.014 130.11 109.536 129.843C110.058 129.576 110.914 129.576 111.436 129.843Z" fill="#16110D"/>
<path d="M116.406 127.228C116.928 127.495 116.928 127.952 116.406 128.219C115.884 128.486 115.027 128.486 114.505 128.219C113.983 127.952 113.983 127.495 114.505 127.228C115.027 126.961 115.884 126.961 116.406 127.228Z" fill="#16110D"/>
<path d="M101.643 176.808C102.165 177.075 102.165 177.533 101.643 177.8C101.121 178.067 100.265 178.067 99.7426 177.8C99.2206 177.533 99.2206 177.075 99.7426 176.808C100.265 176.541 101.121 176.541 101.643 176.808Z" fill="#16110D"/>
<path d="M106.592 174.193C107.114 174.46 107.114 174.918 106.592 175.185C106.069 175.452 105.213 175.452 104.691 175.185C104.169 174.918 104.169 174.46 104.691 174.193C105.213 173.926 106.069 173.926 106.592 174.193Z" fill="#16110D"/>
<path d="M111.54 171.578C112.062 171.845 112.062 172.303 111.54 172.57C111.018 172.837 110.162 172.837 109.64 172.57C109.118 172.303 109.118 171.845 109.64 171.578C110.162 171.311 111.018 171.311 111.54 171.578Z" fill="#16110D"/>
<path d="M116.489 168.961C117.011 169.228 117.011 169.686 116.489 169.953C115.967 170.22 115.111 170.22 114.589 169.953C114.067 169.686 114.067 169.228 114.589 168.961C115.111 168.694 115.967 168.694 116.489 168.961Z" fill="#16110D"/>
<path d="M121.438 166.347C121.96 166.614 121.96 167.071 121.438 167.338C120.916 167.605 120.06 167.605 119.538 167.338C119.016 167.071 119.016 166.614 119.538 166.347C120.06 166.08 120.916 166.08 121.438 166.347Z" fill="#16110D"/>
<path d="M126.387 163.731C126.909 163.998 126.909 164.456 126.387 164.723C125.865 164.99 125.008 164.99 124.486 164.723C123.964 164.456 123.964 163.998 124.486 163.731C125.008 163.465 125.865 163.465 126.387 163.731Z" fill="#16110D"/>
<path d="M131.356 161.115C131.878 161.382 131.878 161.839 131.356 162.106C130.834 162.373 129.978 162.373 129.456 162.106C128.934 161.839 128.934 161.382 129.456 161.115C129.978 160.848 130.834 160.848 131.356 161.115Z" fill="#16110D"/>
<path d="M136.305 158.52C136.827 158.787 136.827 159.245 136.305 159.512C135.783 159.779 134.927 159.779 134.405 159.512C133.883 159.245 133.883 158.787 134.405 158.52C134.927 158.253 135.783 158.253 136.305 158.52Z" fill="#16110D"/>
<path d="M141.254 155.903C141.776 156.17 141.776 156.628 141.254 156.895C140.732 157.162 139.876 157.162 139.354 156.895C138.832 156.628 138.832 156.17 139.354 155.903C139.876 155.636 140.732 155.636 141.254 155.903Z" fill="#16110D"/>
<path d="M146.203 153.288C146.725 153.555 146.725 154.013 146.203 154.28C145.68 154.547 144.824 154.547 144.302 154.28C143.78 154.013 143.78 153.555 144.302 153.288C144.824 153.021 145.68 153.021 146.203 153.288Z" fill="#16110D"/>
<path d="M91.7452 176.808C92.2673 177.075 92.2673 177.533 91.7452 177.8C91.2232 178.067 90.3671 178.067 89.8451 177.8C89.323 177.533 89.323 177.075 89.8451 176.808C90.3671 176.541 91.2232 176.541 91.7452 176.808Z" fill="#16110D"/>
<path d="M96.694 174.193C97.216 174.46 97.216 174.918 96.694 175.185C96.172 175.452 95.3159 175.452 94.7938 175.185C94.2718 174.918 94.2718 174.46 94.7938 174.193C95.3159 173.926 96.172 173.926 96.694 174.193Z" fill="#16110D"/>
<path d="M101.643 171.578C102.165 171.845 102.165 172.303 101.643 172.57C101.121 172.837 100.265 172.837 99.7426 172.57C99.2206 172.303 99.2206 171.845 99.7426 171.578C100.265 171.311 101.121 171.311 101.643 171.578Z" fill="#16110D"/>
<path d="M106.592 168.961C107.114 169.228 107.114 169.686 106.592 169.953C106.069 170.22 105.213 170.22 104.691 169.953C104.169 169.686 104.169 169.228 104.691 168.961C105.213 168.694 106.069 168.694 106.592 168.961Z" fill="#16110D"/>
<path d="M111.54 166.347C112.062 166.614 112.062 167.071 111.54 167.338C111.018 167.605 110.162 167.605 109.64 167.338C109.118 167.071 109.118 166.614 109.64 166.347C110.162 166.08 111.018 166.08 111.54 166.347Z" fill="#16110D"/>
<path d="M116.489 163.731C117.011 163.998 117.011 164.456 116.489 164.723C115.967 164.99 115.111 164.99 114.589 164.723C114.067 164.456 114.067 163.998 114.589 163.731C115.111 163.465 115.967 163.465 116.489 163.731Z" fill="#16110D"/>
<path d="M121.438 161.115C121.96 161.382 121.96 161.839 121.438 162.106C120.916 162.373 120.06 162.373 119.538 162.106C119.016 161.839 119.016 161.382 119.538 161.115C120.06 160.848 120.916 160.848 121.438 161.115Z" fill="#16110D"/>
<path d="M126.387 158.52C126.909 158.787 126.909 159.245 126.387 159.512C125.865 159.779 125.008 159.779 124.486 159.512C123.964 159.245 123.964 158.787 124.486 158.52C125.008 158.253 125.865 158.253 126.387 158.52Z" fill="#16110D"/>
<path d="M131.356 155.903C131.878 156.17 131.878 156.628 131.356 156.895C130.834 157.162 129.978 157.162 129.456 156.895C128.934 156.628 128.934 156.17 129.456 155.903C129.978 155.636 130.834 155.636 131.356 155.903Z" fill="#16110D"/>
<path d="M136.305 153.288C136.827 153.555 136.827 154.013 136.305 154.28C135.783 154.547 134.927 154.547 134.405 154.28C133.883 154.013 133.883 153.555 134.405 153.288C134.927 153.021 135.783 153.021 136.305 153.288Z" fill="#16110D"/>
<path d="M141.254 150.673C141.776 150.94 141.776 151.398 141.254 151.664C140.732 151.931 139.876 151.931 139.354 151.664C138.832 151.398 138.832 150.94 139.354 150.673C139.876 150.406 140.732 150.406 141.254 150.673Z" fill="#16110D"/>
<path d="M86.7964 174.193C87.3185 174.46 87.3185 174.918 86.7964 175.185C86.2744 175.452 85.4183 175.452 84.8963 175.185C84.3743 174.918 84.3743 174.46 84.8963 174.193C85.4183 173.926 86.2744 173.926 86.7964 174.193Z" fill="#16110D"/>
<path d="M91.7452 171.578C92.2673 171.845 92.2673 172.303 91.7452 172.57C91.2232 172.837 90.3671 172.837 89.8451 172.57C89.323 172.303 89.323 171.845 89.8451 171.578C90.3671 171.311 91.2232 171.311 91.7452 171.578Z" fill="#16110D"/>
<path d="M96.694 168.961C97.216 169.228 97.216 169.686 96.694 169.953C96.172 170.22 95.3159 170.22 94.7938 169.953C94.2718 169.686 94.2718 169.228 94.7938 168.961C95.3159 168.694 96.172 168.694 96.694 168.961Z" fill="#16110D"/>
<path d="M101.643 166.347C102.165 166.614 102.165 167.071 101.643 167.338C101.121 167.605 100.265 167.605 99.7426 167.338C99.2206 167.071 99.2206 166.614 99.7426 166.347C100.265 166.08 101.121 166.08 101.643 166.347Z" fill="#16110D"/>
<path d="M106.592 163.731C107.114 163.998 107.114 164.456 106.592 164.723C106.069 164.99 105.213 164.99 104.691 164.723C104.169 164.456 104.169 163.998 104.691 163.731C105.213 163.465 106.069 163.465 106.592 163.731Z" fill="#16110D"/>
<path d="M111.54 161.115C112.062 161.382 112.062 161.839 111.54 162.106C111.018 162.373 110.162 162.373 109.64 162.106C109.118 161.839 109.118 161.382 109.64 161.115C110.162 160.848 111.018 160.848 111.54 161.115Z" fill="#16110D"/>
<path d="M116.489 158.52C117.011 158.787 117.011 159.245 116.489 159.512C115.967 159.779 115.111 159.779 114.589 159.512C114.067 159.245 114.067 158.787 114.589 158.52C115.111 158.253 115.967 158.253 116.489 158.52Z" fill="#16110D"/>
<path d="M121.438 155.903C121.96 156.17 121.96 156.628 121.438 156.895C120.916 157.162 120.06 157.162 119.538 156.895C119.016 156.628 119.016 156.17 119.538 155.903C120.06 155.636 120.916 155.636 121.438 155.903Z" fill="#16110D"/>
<path d="M126.387 153.288C126.909 153.555 126.909 154.013 126.387 154.28C125.865 154.547 125.008 154.547 124.486 154.28C123.964 154.013 123.964 153.555 124.486 153.288C125.008 153.021 125.865 153.021 126.387 153.288Z" fill="#16110D"/>
<path d="M131.356 150.673C131.878 150.94 131.878 151.398 131.356 151.664C130.834 151.931 129.978 151.931 129.456 151.664C128.934 151.398 128.934 150.94 129.456 150.673C129.978 150.406 130.834 150.406 131.356 150.673Z" fill="#16110D"/>
<path d="M136.305 148.056C136.827 148.323 136.827 148.781 136.305 149.048C135.783 149.315 134.927 149.315 134.405 149.048C133.883 148.781 133.883 148.323 134.405 148.056C134.927 147.789 135.783 147.789 136.305 148.056Z" fill="#16110D"/>
<path d="M150.191 151.855C150.929 151.855 151.527 151.539 151.527 151.149C151.527 150.76 150.929 150.444 150.191 150.444C149.453 150.444 148.854 150.76 148.854 151.149C148.854 151.539 149.453 151.855 150.191 151.855Z" fill="#16110D"/>
<path d="M156.1 148.038C156.622 148.305 156.622 148.763 156.1 149.03C155.578 149.297 154.722 149.297 154.2 149.03C153.678 148.763 153.678 148.305 154.2 148.038C154.722 147.771 155.578 147.771 156.1 148.038Z" fill="#16110D"/>
<path d="M161.049 145.421C161.571 145.688 161.571 146.146 161.049 146.413C160.527 146.68 159.671 146.68 159.149 146.413C158.627 146.146 158.627 145.688 159.149 145.421C159.671 145.154 160.527 145.154 161.049 145.421Z" fill="#16110D"/>
<path d="M165.997 142.806C166.52 143.073 166.52 143.531 165.997 143.798C165.475 144.065 164.619 144.065 164.097 143.798C163.575 143.531 163.575 143.073 164.097 142.806C164.619 142.539 165.475 142.539 165.997 142.806Z" fill="#16110D"/>
<path d="M170.946 140.21C171.468 140.476 171.468 140.934 170.946 141.201C170.424 141.468 169.568 141.468 169.046 141.201C168.524 140.934 168.524 140.476 169.046 140.21C169.568 139.943 170.424 139.943 170.946 140.21Z" fill="#16110D"/>
<path d="M175.895 137.595C176.417 137.862 176.417 138.319 175.895 138.586C175.373 138.853 174.517 138.853 173.995 138.586C173.473 138.319 173.473 137.862 173.995 137.595C174.517 137.328 175.373 137.328 175.895 137.595Z" fill="#16110D"/>
<path d="M180.844 134.98C181.366 135.246 181.366 135.704 180.844 135.971C180.322 136.238 179.466 136.238 178.944 135.971C178.422 135.704 178.422 135.246 178.944 134.98C179.466 134.713 180.322 134.713 180.844 134.98Z" fill="#16110D"/>
<path d="M185.813 132.363C186.335 132.63 186.335 133.087 185.813 133.354C185.291 133.621 184.435 133.621 183.913 133.354C183.391 133.087 183.391 132.63 183.913 132.363C184.435 132.096 185.291 132.096 185.813 132.363Z" fill="#16110D"/>
<path d="M190.762 129.748C191.284 130.015 191.284 130.473 190.762 130.74C190.24 131.007 189.384 131.007 188.862 130.74C188.34 130.473 188.34 130.015 188.862 129.748C189.384 129.481 190.24 129.481 190.762 129.748Z" fill="#16110D"/>
<path d="M195.711 127.133C196.233 127.4 196.233 127.857 195.711 128.124C195.189 128.391 194.333 128.391 193.811 128.124C193.289 127.857 193.289 127.4 193.811 127.133C194.333 126.866 195.189 126.866 195.711 127.133Z" fill="#16110D"/>
<path d="M200.66 124.516C201.182 124.783 201.182 125.241 200.66 125.508C200.138 125.775 199.282 125.775 198.76 125.508C198.238 125.241 198.238 124.783 198.76 124.516C199.282 124.249 200.138 124.249 200.66 124.516Z" fill="#16110D"/>
<path d="M205.608 121.901C206.13 122.168 206.13 122.626 205.608 122.893C205.086 123.16 204.23 123.16 203.708 122.893C203.186 122.626 203.186 122.168 203.708 121.901C204.23 121.634 205.086 121.634 205.608 121.901Z" fill="#16110D"/>
<path d="M146.203 148.038C146.725 148.305 146.725 148.763 146.203 149.03C145.68 149.297 144.824 149.297 144.302 149.03C143.78 148.763 143.78 148.305 144.302 148.038C144.824 147.771 145.68 147.771 146.203 148.038Z" fill="#16110D"/>
<path d="M151.151 145.421C151.673 145.688 151.673 146.146 151.151 146.413C150.629 146.68 149.773 146.68 149.251 146.413C148.729 146.146 148.729 145.688 149.251 145.421C149.773 145.154 150.629 145.154 151.151 145.421Z" fill="#16110D"/>
<path d="M156.1 142.806C156.622 143.073 156.622 143.531 156.1 143.798C155.578 144.065 154.722 144.065 154.2 143.798C153.678 143.531 153.678 143.073 154.2 142.806C154.722 142.539 155.578 142.539 156.1 142.806Z" fill="#16110D"/>
<path d="M161.049 140.21C161.571 140.476 161.571 140.934 161.049 141.201C160.527 141.468 159.671 141.468 159.149 141.201C158.627 140.934 158.627 140.476 159.149 140.21C159.671 139.943 160.527 139.943 161.049 140.21Z" fill="#16110D"/>
<path d="M165.997 137.595C166.52 137.862 166.52 138.319 165.997 138.586C165.475 138.853 164.619 138.853 164.097 138.586C163.575 138.319 163.575 137.862 164.097 137.595C164.619 137.328 165.475 137.328 165.997 137.595Z" fill="#16110D"/>
<path d="M170.946 134.98C171.468 135.246 171.468 135.704 170.946 135.971C170.424 136.238 169.568 136.238 169.046 135.971C168.524 135.704 168.524 135.246 169.046 134.98C169.568 134.713 170.424 134.713 170.946 134.98Z" fill="#16110D"/>
<path d="M175.895 132.363C176.417 132.63 176.417 133.087 175.895 133.354C175.373 133.621 174.517 133.621 173.995 133.354C173.473 133.087 173.473 132.63 173.995 132.363C174.517 132.096 175.373 132.096 175.895 132.363Z" fill="#16110D"/>
<path d="M180.844 129.748C181.366 130.015 181.366 130.473 180.844 130.74C180.322 131.007 179.466 131.007 178.944 130.74C178.422 130.473 178.422 130.015 178.944 129.748C179.466 129.481 180.322 129.481 180.844 129.748Z" fill="#16110D"/>
<path d="M185.813 127.133C186.335 127.4 186.335 127.857 185.813 128.124C185.291 128.391 184.435 128.391 183.913 128.124C183.391 127.857 183.391 127.4 183.913 127.133C184.435 126.866 185.291 126.866 185.813 127.133Z" fill="#16110D"/>
<path d="M190.762 124.516C191.284 124.783 191.284 125.241 190.762 125.508C190.24 125.775 189.384 125.775 188.862 125.508C188.34 125.241 188.34 124.783 188.862 124.516C189.384 124.249 190.24 124.249 190.762 124.516Z" fill="#16110D"/>
<path d="M195.711 121.901C196.233 122.168 196.233 122.626 195.711 122.893C195.189 123.16 194.333 123.16 193.811 122.893C193.289 122.626 193.289 122.168 193.811 121.901C194.333 121.634 195.189 121.634 195.711 121.901Z" fill="#16110D"/>
<path d="M200.66 119.286C201.182 119.553 201.182 120.011 200.66 120.278C200.138 120.545 199.282 120.545 198.76 120.278C198.238 120.011 198.238 119.553 198.76 119.286C199.282 119.019 200.138 119.019 200.66 119.286Z" fill="#16110D"/>
<path d="M205.608 116.689C206.13 116.956 206.13 117.414 205.608 117.681C205.086 117.948 204.23 117.948 203.708 117.681C203.186 117.414 203.186 116.956 203.708 116.689C204.23 116.423 205.086 116.423 205.608 116.689Z" fill="#16110D"/>
<path d="M141.254 145.421C141.776 145.688 141.776 146.146 141.254 146.413C140.732 146.68 139.876 146.68 139.354 146.413C138.832 146.146 138.832 145.688 139.354 145.421C139.876 145.154 140.732 145.154 141.254 145.421Z" fill="#16110D"/>
<path d="M146.203 142.806C146.725 143.073 146.725 143.531 146.203 143.798C145.68 144.065 144.824 144.065 144.302 143.798C143.78 143.531 143.78 143.073 144.302 142.806C144.824 142.539 145.68 142.539 146.203 142.806Z" fill="#16110D"/>
<path d="M151.151 140.21C151.673 140.476 151.673 140.934 151.151 141.201C150.629 141.468 149.773 141.468 149.251 141.201C148.729 140.934 148.729 140.476 149.251 140.21C149.773 139.943 150.629 139.943 151.151 140.21Z" fill="#16110D"/>
<path d="M156.1 137.595C156.622 137.862 156.622 138.319 156.1 138.586C155.578 138.853 154.722 138.853 154.2 138.586C153.678 138.319 153.678 137.862 154.2 137.595C154.722 137.328 155.578 137.328 156.1 137.595Z" fill="#16110D"/>
<path d="M161.049 134.98C161.571 135.246 161.571 135.704 161.049 135.971C160.527 136.238 159.671 136.238 159.149 135.971C158.627 135.704 158.627 135.246 159.149 134.98C159.671 134.713 160.527 134.713 161.049 134.98Z" fill="#16110D"/>
<path d="M165.997 132.363C166.52 132.63 166.52 133.087 165.997 133.354C165.475 133.621 164.619 133.621 164.097 133.354C163.575 133.087 163.575 132.63 164.097 132.363C164.619 132.096 165.475 132.096 165.997 132.363Z" fill="#16110D"/>
<path d="M170.946 129.748C171.468 130.015 171.468 130.473 170.946 130.74C170.424 131.007 169.568 131.007 169.046 130.74C168.524 130.473 168.524 130.015 169.046 129.748C169.568 129.481 170.424 129.481 170.946 129.748Z" fill="#16110D"/>
<path d="M175.895 127.133C176.417 127.4 176.417 127.857 175.895 128.124C175.373 128.391 174.517 128.391 173.995 128.124C173.473 127.857 173.473 127.4 173.995 127.133C174.517 126.866 175.373 126.866 175.895 127.133Z" fill="#16110D"/>
<path d="M179.904 125.718C180.642 125.718 181.241 125.402 181.241 125.013C181.241 124.623 180.642 124.307 179.904 124.307C179.166 124.307 178.568 124.623 178.568 125.013C178.568 125.402 179.166 125.718 179.904 125.718Z" fill="#16110D"/>
<path d="M185.813 121.901C186.335 122.168 186.335 122.626 185.813 122.893C185.291 123.16 184.435 123.16 183.913 122.893C183.391 122.626 183.391 122.168 183.913 121.901C184.435 121.634 185.291 121.634 185.813 121.901Z" fill="#16110D"/>
<path d="M190.762 119.286C191.284 119.553 191.284 120.011 190.762 120.278C190.24 120.545 189.384 120.545 188.862 120.278C188.34 120.011 188.34 119.553 188.862 119.286C189.384 119.019 190.24 119.019 190.762 119.286Z" fill="#16110D"/>
<path d="M195.711 116.689C196.233 116.956 196.233 117.414 195.711 117.681C195.189 117.948 194.333 117.948 193.811 117.681C193.289 117.414 193.289 116.956 193.811 116.689C194.333 116.423 195.189 116.423 195.711 116.689Z" fill="#16110D"/>
<path d="M200.66 114.073C201.182 114.34 201.182 114.798 200.66 115.065C200.138 115.332 199.282 115.332 198.76 115.065C198.238 114.798 198.238 114.34 198.76 114.073C199.282 113.806 200.138 113.806 200.66 114.073Z" fill="#16110D"/>
<path d="M201.203 104.011C201.203 104.011 201.203 103.915 201.203 103.877V101.185H199.302C199.177 101.109 199.052 101.013 198.906 100.937L120.415 59.5083C116.969 57.6946 110.976 57.9237 106.988 60.0238L6.73927 113.308C6.02932 113.69 5.44466 114.091 4.94352 114.53H3.44009V120.773C3.48186 121.9 4.23357 122.969 5.75787 123.771L84.249 165.199C87.6943 167.013 93.6871 166.784 97.6754 164.684L197.924 111.399C200.033 110.292 201.119 108.879 201.203 107.543V105.863V104.011Z" fill="#97C6FF"/>
<path d="M201.203 107.524V105.844V103.992C201.203 103.954 201.203 103.897 201.203 103.859V101.167H199.302C199.177 101.09 199.052 100.995 198.906 100.919L169.798 85.5498C167.584 85.588 165.977 85.7025 165.308 85.9125C161.174 87.1726 94.4388 122.645 93.1025 128.029C91.7452 133.412 89.2604 160.37 89.2604 160.37V166.364C92.142 166.517 95.3159 165.944 97.7172 164.665L197.966 111.381C200.054 110.273 201.161 108.861 201.244 107.524H201.203Z" fill="#16110D"/>
<path d="M90.0956 167.052C87.7778 167.052 85.5854 166.632 83.9149 165.753L5.42375 124.325C3.75329 123.447 2.79277 122.187 2.75101 120.793V113.901H4.67204C5.17318 113.5 5.73698 113.118 6.38429 112.774L106.633 59.4898C110.789 57.2943 117.115 57.0652 120.749 58.9743L199.24 100.403C199.24 100.403 199.428 100.499 199.511 100.556H201.892V107.543C201.787 109.204 200.514 110.77 198.258 111.953L98.0095 165.238C95.7543 166.441 92.831 167.052 90.0747 167.052H90.0956ZM4.15002 115.18V120.774C4.1709 121.709 4.85997 122.568 6.11283 123.237L84.604 164.665C87.8405 166.384 93.5619 166.154 97.3204 164.15L197.569 110.865C199.365 109.911 200.43 108.689 200.493 107.524V103.954V101.835H199.073L198.906 101.72C198.718 101.606 198.634 101.549 198.551 101.51L120.06 60.0817C116.823 58.3634 111.102 58.5925 107.343 60.5971L7.09423 113.882C6.44692 114.225 5.90403 114.588 5.44465 115.008L5.23583 115.18H4.15002Z" fill="#16110D"/>
<path d="M84.2699 159.186L5.77876 117.758C2.33342 115.944 2.7719 112.775 6.73926 110.675L106.988 57.39C110.956 55.29 116.969 55.0609 120.415 56.8746L198.906 98.3033C202.351 100.117 201.913 103.286 197.945 105.386L97.6962 158.671C93.7289 160.771 87.7152 161 84.2699 159.186Z" fill="#97C6FF"/>
<path d="M90.0956 161.019C87.7778 161.019 85.5645 160.599 83.9149 159.721L5.42375 118.292C3.71152 117.375 2.75101 116.096 2.75101 114.664C2.75101 112.984 4.06651 111.323 6.38429 110.102L106.633 56.817C110.789 54.6214 117.115 54.3923 120.749 56.3015L199.24 97.7302C200.952 98.6466 201.913 99.9257 201.913 101.358C201.913 103.038 200.597 104.699 198.279 105.92L98.0303 159.205C95.7752 160.389 92.8519 161 90.0956 161V161.019ZM114.589 56.2633C112.083 56.2633 109.41 56.817 107.343 57.9243L7.09423 111.209C5.23583 112.202 4.15002 113.462 4.15002 114.664C4.15002 115.619 4.85999 116.516 6.13373 117.185L84.6248 158.613C87.8614 160.331 93.5827 160.102 97.3413 158.098L197.59 104.813C199.449 103.82 200.534 102.56 200.534 101.358C200.534 100.403 199.825 99.5057 198.551 98.8375L120.06 57.4088C118.598 56.6451 116.635 56.2633 114.589 56.2633Z" fill="#16110D"/>
<path d="M91.7452 155.158L91.4111 154.986L15.718 115.027L111.081 64.3198L111.415 64.4916L187.108 104.45L91.7452 155.158Z" fill="#16110D"/>
<path d="M92.1628 151.129L15.1333 110.464L112.375 58.7637L189.405 99.4287L92.1628 151.129Z" fill="#FAFCFF"/>
<path d="M92.1628 151.855L91.8078 151.683L13.7343 110.465L112.375 58.0391L112.73 58.2109L190.804 99.4296L92.1628 151.855ZM16.5115 110.465L92.1628 150.404L188.027 99.4296L112.375 59.49L16.5115 110.465Z" fill="#16110D"/>
<path d="M177.148 75.7566L177.106 76.043L169.255 71.9001C169.109 71.9956 169.004 72.091 168.837 72.1674C166.624 73.332 165.329 75.2029 163.116 74.0384C160.903 72.8738 158.606 72.4728 160.819 71.3083C160.986 71.2319 161.153 71.1555 161.341 71.0792L162.051 65.6762L159.002 64.7026L158.522 69.59L149.857 61.6479C148.332 60.8461 145.722 61.2279 145.242 62.3352L144.135 64.798L143.133 64.7026V70.6019C143.133 70.6019 143.133 70.6401 143.133 70.6591C143.175 71.0028 143.446 71.3464 143.926 71.6137L167.772 84.1951C168.441 84.5387 169.401 84.6914 170.32 84.5769L179.048 83.546C180.447 83.3741 181.261 82.725 181.199 82.0568V76.253L177.148 75.7184V75.7566Z" fill="#16110D"/>
<path d="M169.735 85.2637C168.879 85.2637 168.065 85.0919 167.438 84.7483L143.592 72.1669C143.258 71.9951 142.987 71.766 142.799 71.5369L142.465 71.6896V63.9957L143.718 64.1103L144.636 62.0866C144.887 61.5329 145.493 61.0747 146.328 60.8074C147.601 60.4065 149.188 60.521 150.253 61.0747L150.399 61.1702L158.021 68.1577L158.439 63.8621L162.886 65.313V71.9951L161.675 71.6132C161.425 71.7087 161.32 71.7469 161.216 71.8042C160.965 71.9378 160.819 72.0333 160.736 72.0905C160.986 72.2624 161.55 72.5106 161.988 72.7206C162.469 72.9306 162.991 73.1597 163.492 73.4269C164.661 74.057 165.413 73.5988 166.833 72.6251C167.334 72.2814 167.877 71.8996 168.503 71.5751C168.587 71.5369 168.67 71.4796 168.754 71.4223L169.109 71.1741L169.61 71.3078L176.626 75.0115L181.47 75.6607C181.721 75.6988 181.888 75.8898 181.888 76.0998V82.0563C181.992 83.0873 180.865 83.9846 179.132 84.1755L170.403 85.2064C170.174 85.2255 169.944 85.2446 169.714 85.2446L169.735 85.2637ZM143.843 70.5823C143.843 70.7541 144.031 70.9259 144.302 71.0596L168.148 83.6409C168.691 83.9273 169.485 84.0419 170.257 83.9464L178.985 82.9155C180.029 82.8009 180.551 82.3618 180.531 82.0945V76.7871L177.774 76.4243L177.712 77.0162L169.338 72.606C169.338 72.606 169.255 72.6442 169.234 72.6633C168.67 72.9497 168.169 73.2933 167.689 73.637C166.29 74.5915 164.849 75.6034 162.824 74.5343C162.343 74.267 161.842 74.057 161.404 73.8661C160.234 73.3506 159.316 72.9306 159.295 72.1478C159.274 71.4796 159.942 71.0214 160.548 70.7159C160.61 70.6968 161.466 71.2123 161.529 71.1741V66.2676L159.691 65.4658L159.169 70.9641L149.523 62.1247C148.792 61.7811 147.664 61.7238 146.808 61.9911C146.37 62.1247 146.056 62.3347 145.952 62.5447L144.657 65.4467L143.906 65.3703V70.5632L143.843 70.5823Z" fill="#16110D"/>
<path d="M180.405 75.3364L169.276 69.4562C169.13 69.5517 169.025 69.6472 168.858 69.7235C166.645 70.8881 163.053 70.8881 160.84 69.7235C158.627 68.5589 158.627 66.6689 160.84 65.4852C161.007 65.4088 161.174 65.3325 161.362 65.2561L149.898 59.2041C148.374 58.4022 145.764 58.7841 145.284 59.8914L143.237 64.4352C143.008 64.9315 143.3 65.447 143.968 65.7907L167.814 78.372C168.482 78.7157 169.443 78.8684 170.362 78.7538L179.09 77.7229C181.199 77.4747 181.971 76.081 180.447 75.2792L180.405 75.3364Z" fill="#FAFCFF"/>
<path d="M169.735 79.4602C168.879 79.4602 168.065 79.2884 167.438 78.9447L143.592 66.3634C142.611 65.8479 142.214 65.0079 142.569 64.206L144.615 59.6622C144.866 59.1086 145.472 58.6504 146.307 58.3831C147.581 57.9822 149.168 58.0967 150.232 58.6504L162.865 65.3133L161.654 65.8288C161.404 65.9243 161.299 65.9625 161.195 66.0197C160.339 66.4588 159.879 67.0316 159.879 67.5852C159.879 68.1389 160.339 68.7116 161.195 69.1507C163.179 70.2008 166.54 70.2008 168.524 69.1507C168.608 69.1126 168.691 69.0553 168.775 68.998L169.13 68.7498L169.631 68.8835L180.76 74.7637C181.616 75.2219 182.034 75.9092 181.888 76.6346C181.679 77.551 180.635 78.2192 179.152 78.3911L170.424 79.422C170.195 79.4411 169.965 79.4602 169.735 79.4602ZM147.936 59.414C147.518 59.414 147.121 59.4713 146.745 59.5859C146.307 59.7195 145.994 59.9295 145.889 60.1395L143.843 64.6833C143.718 64.9506 144.156 65.1797 144.281 65.2561L168.127 77.8374C168.67 78.1238 169.464 78.2383 170.236 78.1429L178.965 77.1119C180.009 76.9974 180.468 76.5774 180.51 76.3674C180.551 76.1383 180.176 75.9092 180.05 75.8519L169.318 70.1817C169.318 70.1817 169.234 70.2199 169.213 70.239C166.77 71.5181 162.949 71.5181 160.506 70.239C159.211 69.5517 158.501 68.6162 158.501 67.5661C158.501 66.6879 159.023 65.867 159.963 65.2179L149.543 59.7195C149.126 59.4904 148.541 59.3759 147.936 59.3759V59.414Z" fill="#16110D"/>
<path d="M181.721 95.5729L119.997 63.0027C118.514 62.2199 118.702 60.8453 120.415 59.948L124.236 57.9243C125.948 57.027 128.537 56.9315 130.02 57.7143L191.744 90.3036C193.226 91.0864 193.038 92.4609 191.326 93.3582L187.505 95.382C185.793 96.2793 183.203 96.3747 181.721 95.592V95.5729Z" fill="#FAFCFF"/>
<path d="M184.247 96.7368C183.182 96.7368 182.159 96.5268 181.387 96.1258L119.663 63.5365C118.786 63.0783 118.327 62.4101 118.327 61.6656C118.327 60.8064 118.974 59.9855 120.081 59.3937L123.902 57.3699C125.823 56.3581 128.683 56.2626 130.375 57.1599L192.099 89.7302C192.976 90.1884 193.435 90.8566 193.435 91.6011C193.435 92.4603 192.788 93.2812 191.681 93.873L187.86 95.8967C186.816 96.4504 185.5 96.7368 184.247 96.7368ZM182.076 95.0185C183.35 95.6867 185.688 95.5913 187.171 94.8085L190.992 92.7848C191.66 92.4412 192.057 91.983 192.057 91.6011C192.057 91.2384 191.702 90.9711 191.41 90.8184L129.686 58.2482C128.412 57.58 126.073 57.6754 124.591 58.4582L120.77 60.4819C120.101 60.8446 119.705 61.2837 119.705 61.6656C119.705 62.0283 120.06 62.2765 120.352 62.4483L182.076 95.0376V95.0185Z" fill="#16110D"/>
<path d="M162.385 88.0712L131.523 71.7861C130.771 71.4043 130.876 70.717 131.732 70.2588L133.632 69.247C134.488 68.7888 135.783 68.7506 136.535 69.1324L167.397 85.4175C168.127 85.7993 168.044 86.4866 167.188 86.9448L165.288 87.9567C164.431 88.4149 163.137 88.4531 162.385 88.0712Z" fill="#97C6FF"/>
<path d="M163.659 88.9679C163.074 88.9679 162.49 88.8534 162.051 88.6243L131.189 72.3392C130.646 72.0528 130.333 71.6137 130.333 71.1173C130.333 70.5827 130.709 70.0673 131.377 69.7045L133.277 68.6927C134.363 68.1199 135.908 68.0817 136.869 68.5781L167.731 84.8632C168.274 85.1496 168.587 85.5887 168.587 86.0851C168.587 86.6197 168.211 87.1351 167.543 87.4979L165.643 88.5097C165.058 88.8152 164.348 88.9679 163.659 88.9679ZM135.303 69.4945C134.843 69.4945 134.363 69.59 134.008 69.7809L132.108 70.7927C131.816 70.9455 131.753 71.0791 131.753 71.1173C131.753 71.1173 131.795 71.1746 131.899 71.2318L162.761 87.517C163.304 87.8033 164.327 87.746 164.953 87.4024L166.854 86.3906C167.146 86.2378 167.209 86.1042 167.209 86.066C167.209 86.066 167.167 86.0087 167.062 85.9514L136.201 69.6663C135.971 69.5518 135.637 69.4754 135.303 69.4754V69.4945Z" fill="#16110D"/>
<path d="M107.009 101.968C104.42 100.613 100.244 100.613 97.6545 101.968C95.0653 103.324 95.0653 105.538 97.6545 106.894C100.244 108.249 104.42 108.249 107.009 106.894C109.598 105.538 109.598 103.324 107.009 101.968Z" fill="#16110D"/>
<path d="M117.199 95.6683C108.867 91.2772 95.8379 91.2772 87.5064 95.6683C83.2049 97.9402 80.8454 101.052 80.8454 104.431C80.8454 107.811 83.2049 110.942 87.5064 113.213C91.6617 115.409 97.0072 116.516 102.353 116.516C107.698 116.516 113.044 115.409 117.199 113.213C121.5 110.942 123.86 107.83 123.86 104.431C123.86 101.052 121.5 97.9211 117.199 95.6683ZM115.424 110.426C108.22 114.225 96.4643 114.225 89.2604 110.426C86.1074 108.765 84.3534 106.627 84.3534 104.45C84.3534 102.274 86.0865 100.136 89.2604 98.4748C92.8728 96.5656 97.6127 95.611 102.353 95.611C107.093 95.611 111.833 96.5656 115.445 98.4748C118.598 100.136 120.352 102.274 120.352 104.45C120.352 106.627 118.619 108.765 115.445 110.426H115.424Z" fill="#16110D"/>
<path d="M107.009 98.7427C104.42 97.3872 100.244 97.3872 97.6545 98.7427C95.0653 100.098 95.0653 102.313 97.6545 103.668C100.244 105.024 104.42 105.024 107.009 103.668C109.598 102.313 109.598 100.098 107.009 98.7427Z" fill="#97C6FF"/>
<path d="M117.199 92.4232C108.867 88.0321 95.8379 88.0321 87.5064 92.4232C83.2049 94.6951 80.8454 97.807 80.8454 101.186C80.8454 104.565 83.2049 107.696 87.5064 109.968C91.6617 112.164 97.0072 113.271 102.353 113.271C107.698 113.271 113.044 112.164 117.199 109.968C121.5 107.696 123.86 104.585 123.86 101.186C123.86 97.807 121.5 94.676 117.199 92.4232ZM115.424 107.162C108.22 110.961 96.4643 110.961 89.2604 107.162C86.1074 105.501 84.3534 103.363 84.3534 101.186C84.3534 99.0098 86.0865 96.8906 89.2604 95.2105C92.8728 93.3014 97.6127 92.3468 102.353 92.3468C107.093 92.3468 111.833 93.3014 115.445 95.2105C118.598 96.8715 120.352 99.0098 120.352 101.186C120.352 103.363 118.619 105.501 115.445 107.162H115.424Z" fill="#97C6FF"/>
<path d="M99.5547 2.67482C85.6063 8.55502 73.0986 26.3484 71.9084 42.7862C71.4282 49.3728 72.8481 54.6803 75.6879 58.3076L95.7752 93.1307L105.401 97.4263C106.278 95.6317 120.331 34.4432 120.978 32.6104C122.482 28.3148 132.776 25.6038 132.839 21.4227C133.131 6.1113 113.148 -3.07174 99.5547 2.65573V2.67482ZM97.7798 41.9271C92.2881 44.4281 88.0702 41.3543 88.4252 35.1114C88.7593 28.9448 93.4157 22.0909 98.7821 19.7427C104.086 17.4326 108.178 20.3727 107.97 26.3865C107.761 32.4768 103.209 39.4452 97.7798 41.9271Z" fill="#97C6FF"/>
<path d="M101.288 5.82346C87.3393 11.7037 74.8317 29.497 73.6415 45.9348C73.4118 49.0659 73.6415 51.8723 74.2262 54.3924C90.1374 63.1363 102.06 62.64 114.484 70.3911C118.347 53.9533 122.357 36.7518 122.691 35.7972C124.194 31.5016 131.899 28.2751 131.983 24.0941C132.275 8.78265 114.881 0.115082 101.267 5.84255L101.288 5.82346ZM99.5338 45.0757C94.0421 47.5767 89.8242 44.503 90.1791 38.26C90.5132 32.0935 95.1697 25.2396 100.536 22.8913C105.84 20.5812 109.932 23.5213 109.724 29.5352C109.515 35.6063 104.963 42.5938 99.5338 45.0757Z" fill="#FAFCFF"/>
<path d="M105.944 98.781L95.0026 93.8936L94.8356 93.6072L74.7482 58.7651C71.7414 54.9277 70.3841 49.3529 70.8644 42.7282C72.0546 26.214 84.7293 7.84786 99.1162 1.79584C106.341 -1.25882 115.821 -0.36151 123.254 4.06773C130.166 8.19151 134.05 14.5299 133.904 21.4792C133.862 24.1902 130.688 26.1758 127.619 28.0849C125.155 29.6313 122.607 31.2159 122.002 32.9533C121.751 33.6788 119.12 44.8473 116.343 56.665C110.83 80.1095 106.905 96.7955 106.383 97.8646L105.944 98.781ZM96.5687 92.4426L104.754 96.0891C106.049 91.3162 110.747 71.2891 114.276 56.2641C117.637 41.9263 119.705 33.1251 119.976 32.3614C120.811 30.0132 123.651 28.2186 126.428 26.5003C129.059 24.8585 131.774 23.1593 131.795 21.4602C131.899 15.1981 128.37 9.45156 122.106 5.70961C115.278 1.6431 106.612 0.803075 100.014 3.57135C86.2535 9.37519 74.1426 26.9967 72.9942 42.8618C72.5557 49.0284 73.7877 54.1831 76.5648 57.7723L96.5687 92.4426ZM94.1674 43.7973C92.9145 43.7973 91.7661 43.4918 90.7429 42.9C88.4251 41.5063 87.1932 38.6617 87.3811 35.0915C87.7361 28.5431 92.5596 21.422 98.3435 18.9019C101.058 17.7182 103.668 17.7182 105.694 18.921C107.949 20.2765 109.181 23.0066 109.055 26.4431C108.826 32.8578 104.002 40.2081 98.2809 42.8236C96.861 43.4727 95.462 43.7973 94.1674 43.7973ZM102.248 19.9519C101.33 19.9519 100.306 20.181 99.2623 20.6392C94.2091 22.8538 89.8242 29.3641 89.511 35.1679C89.3439 38.0316 90.2209 40.2463 91.9123 41.2581C93.3113 42.0981 95.2532 42.0409 97.3413 41.0672C102.436 38.738 106.738 32.1323 106.946 26.3476C107.051 23.6175 106.153 21.4792 104.545 20.5056C103.898 20.1237 103.125 19.9137 102.269 19.9137L102.248 19.9519Z" fill="#16110D"/>
<path d="M133.068 24.0748C133.361 8.76341 122.795 1.24133 109.202 6.96881C95.2532 12.849 82.7456 30.6424 81.5554 47.0802C81.0751 53.6668 82.495 58.9742 85.3348 62.6016L105.422 97.4437L128.349 42.3837C129.226 40.5891 129.978 38.7563 130.625 36.9235C132.129 32.6279 133.006 28.2559 133.089 24.0558L133.068 24.0748Z" fill="#16110D"/>
<path d="M105.944 98.7805L104.65 98.2077L84.3951 63.0792C81.4092 59.2418 80.031 53.6671 80.5113 47.0423C81.7015 30.5281 94.3762 12.162 108.763 6.10999C115.215 3.39899 121.333 3.43717 126.011 6.22454C131.419 9.45102 134.3 15.7894 134.154 24.0943C134.071 28.2944 133.235 32.7045 131.649 37.2293C131.001 39.1002 130.208 40.9712 129.331 42.7849L105.965 98.7614L105.944 98.7805ZM117.888 6.05272C115.32 6.05272 112.522 6.66365 109.64 7.86642C95.8796 13.6703 83.7687 31.2918 82.6202 47.1569C82.1818 53.3234 83.4137 58.4782 86.1909 62.0674L105.255 95.1149L127.347 42.0594C128.224 40.2457 128.976 38.4511 129.602 36.6374C131.126 32.3036 131.941 28.0653 132.003 24.0561C132.15 16.5531 129.519 10.6347 124.82 7.82823C122.795 6.62546 120.435 6.01453 117.867 6.01453L117.888 6.05272Z" fill="#16110D"/>
<path d="M106.216 58.2119L95.984 51.8544C94.5433 50.9571 94.6477 48.3415 96.2137 46.0123C97.7798 43.6832 100.202 42.4995 101.643 43.3968L106.8 46.6042L116.322 28.9254C117.658 26.4817 120.081 24.9543 121.73 25.4889C123.38 26.0426 123.609 28.4672 122.273 30.9109L108.011 57.2191C107.552 58.0591 106.696 58.5173 106.216 58.231V58.2119Z" fill="#97C6FF"/>
</svg>
