<svg width="24" height="24" viewBox="0 0 24 24" fill="none" xmlns="http://www.w3.org/2000/svg">
<path d="M20.875 22C18.275 22 15.8293 21.5083 13.538 20.525C11.246 19.5417 9.246 18.196 7.538 16.488C5.82933 14.7793 4.47933 12.7793 3.488 10.488C2.496 8.196 2 5.74167 2 3.125C1.98333 2.825 2.08333 2.56233 2.3 2.337C2.51667 2.11233 2.78333 2 3.1 2H7C7.3 2 7.55833 2.11233 7.775 2.337C7.99167 2.56233 8.1 2.83333 8.1 3.15C8.1 3.88333 8.15 4.575 8.25 5.225C8.35 5.875 8.50833 6.49167 8.725 7.075C8.80833 7.25833 8.825 7.44567 8.775 7.637C8.725 7.829 8.625 8.00833 8.475 8.175L5.975 10.675C6.69167 12.1417 7.70833 13.5333 9.025 14.85C10.3417 16.1667 11.7583 17.2167 13.275 18L15.775 15.5C15.925 15.35 16.1 15.25 16.3 15.2C16.5 15.15 16.7 15.1667 16.9 15.25C17.5167 15.45 18.154 15.604 18.812 15.712C19.4707 15.8207 20.15 15.875 20.85 15.875C21.1667 15.875 21.4377 15.9917 21.663 16.225C21.8877 16.4583 22 16.7417 22 17.075V20.9C22 21.2 21.8917 21.4583 21.675 21.675C21.4583 21.8917 21.1917 22 20.875 22ZM15.125 19C15.875 19.2833 16.6583 19.5083 17.475 19.675C18.2917 19.8417 19.1333 19.95 20 20H19.988H20V17.85C19.4833 17.8167 18.9543 17.7583 18.413 17.675C17.871 17.5917 17.3333 17.4667 16.8 17.3L16.812 17.312L16.8 17.3L15.125 19ZM20 12C20 9.76667 19.225 7.875 17.675 6.325C16.125 4.775 14.2333 4 12 4V2C13.3833 2 14.6833 2.26233 15.9 2.787C17.1167 3.31233 18.175 4.025 19.075 4.925C19.975 5.825 20.6873 6.88333 21.212 8.1C21.7373 9.31667 22 10.6167 22 12H20ZM16 12C16 10.9 15.6083 9.95833 14.825 9.175C14.0417 8.39167 13.1 8 12 8V6C13.6667 6 15.0833 6.58333 16.25 7.75C17.4167 8.91667 18 10.3333 18 12H16ZM5 8.825L6.65 7.15C6.51667 6.66667 6.404 6.15833 6.312 5.625C6.22067 5.09167 6.15833 4.55 6.125 4V4.012V4H4.025C4.05833 4.8 4.15833 5.6 4.325 6.4C4.49167 7.2 4.71667 8.00833 5 8.825Z" fill="white" fill-opacity="0.44"/>
</svg>
