<svg width="20" height="20" viewBox="0 0 20 20" fill="none" xmlns="http://www.w3.org/2000/svg">
<path d="M16.9667 12.6166C16.0843 12.5077 15.2081 12.3533 14.3417 12.1541C14.1301 12.0834 13.9039 12.0685 13.685 12.1108C13.466 12.1531 13.2616 12.2513 13.0917 12.3957C12.8708 12.6207 12.2333 13.2499 11.5708 13.8999C9.19719 12.733 7.27754 10.8119 6.11251 8.43739C6.75834 7.77489 7.36251 7.14156 7.60834 6.92072C7.7528 6.75078 7.85094 6.54643 7.89327 6.32745C7.93561 6.10846 7.92071 5.88226 7.85001 5.67072C7.65052 4.80291 7.49614 3.92535 7.38751 3.04156C7.37587 2.92901 7.34144 2.82002 7.2863 2.72121C7.23117 2.62241 7.1565 2.53587 7.06683 2.46687C6.97716 2.39786 6.87438 2.34784 6.76476 2.31985C6.65513 2.29186 6.54095 2.28648 6.42918 2.30406H2.87918C2.73264 2.31729 2.59547 2.38179 2.49182 2.4862C2.38816 2.59062 2.32467 2.72826 2.31251 2.87489C2.08334 6.07906 3.87084 9.50822 4.23334 10.1666V10.1916L4.28334 10.2874C5.58099 12.538 7.44941 14.4064 9.70001 15.7041V15.7041L9.88334 15.8082C10.7167 16.2499 14.0292 17.9166 17.125 17.6874C17.2731 17.6771 17.4127 17.6145 17.5189 17.5106C17.625 17.4068 17.6907 17.2686 17.7042 17.1207V13.5749C17.7217 13.4631 17.7164 13.3489 17.6884 13.2393C17.6604 13.1297 17.6104 13.0269 17.5414 12.9372C17.4724 12.8476 17.3858 12.7729 17.287 12.7178C17.1882 12.6626 17.0792 12.6282 16.9667 12.6166Z" stroke="white" stroke-linecap="round" stroke-linejoin="round"/>
</svg>
