<svg width="20" height="20" viewBox="0 0 20 20" fill="none" xmlns="http://www.w3.org/2000/svg">
<path d="M17.9688 2.60194C17.8178 2.47114 17.634 2.38387 17.4372 2.34947C17.2405 2.31506 17.038 2.33482 16.8516 2.40663L2.42971 8.07069C2.20843 8.15642 2.02103 8.3118 1.89579 8.51337C1.77055 8.71494 1.71427 8.95177 1.73544 9.18814C1.75661 9.4245 1.85407 9.64757 2.01313 9.82368C2.17219 9.99979 2.38422 10.1194 2.61721 10.1644L6.40627 10.9223V15.6254C6.40653 15.8409 6.47043 16.0515 6.58997 16.2308C6.7095 16.4101 6.87933 16.5501 7.07815 16.6332C7.2122 16.6878 7.35528 16.717 7.50002 16.7191C7.64379 16.72 7.78627 16.6921 7.9191 16.6371C8.05193 16.5821 8.17241 16.5011 8.27346 16.3988L10.4063 14.266L13.5938 17.0707C13.7912 17.2477 14.0473 17.3452 14.3125 17.3441C14.4268 17.3451 14.5404 17.3266 14.6485 17.2894C14.8289 17.2321 14.991 17.1283 15.1185 16.9884C15.2461 16.8485 15.3345 16.6775 15.375 16.4926L18.3203 3.67226C18.3643 3.47874 18.3549 3.2769 18.293 3.08836C18.231 2.89981 18.119 2.73167 17.9688 2.60194ZM2.67971 9.10194C2.67425 9.06901 2.68068 9.03521 2.69785 9.00658C2.71503 8.97795 2.74183 8.95637 2.77346 8.94569L14.8438 4.20351L6.76565 10.0394L2.80471 9.24257C2.77018 9.23871 2.73831 9.22221 2.71523 9.19624C2.69215 9.17027 2.67949 9.13668 2.67971 9.10194ZM7.6094 15.7348C7.58773 15.7575 7.55942 15.7727 7.52854 15.7783C7.49766 15.784 7.46579 15.7796 7.43752 15.766C7.41006 15.754 7.38661 15.7344 7.36999 15.7095C7.35337 15.6845 7.34427 15.6553 7.34377 15.6254V11.5707L9.69533 13.6488L7.6094 15.7348ZM14.4688 16.2816C14.4634 16.3087 14.451 16.3339 14.4328 16.3547C14.4145 16.3754 14.3911 16.3909 14.3649 16.3996C14.3387 16.4084 14.3106 16.41 14.2836 16.4044C14.2566 16.3987 14.2315 16.386 14.211 16.3676L7.62502 10.5707L17.3906 3.52382L14.4688 16.2816Z" fill="white"/>
</svg>
