<svg width="20" height="20" viewBox="0 0 20 20" fill="none" xmlns="http://www.w3.org/2000/svg">
<g clip-path="url(#clip0_22_22708)">
<path d="M10 1.04199C8.44388 1.04366 6.91496 1.45029 5.56359 2.2219C4.21221 2.9935 3.08491 4.10351 2.29252 5.4428C1.50013 6.78209 1.06993 8.30455 1.04421 9.86048C1.01849 11.4164 1.39815 12.9522 2.14585 14.317L1.04169 18.9587L5.68335 17.8545C6.88054 18.5112 8.21202 18.8856 9.57604 18.949C10.9401 19.0124 12.3005 18.7631 13.5535 18.2202C14.8064 17.6774 15.9186 16.8553 16.8052 15.8167C17.6918 14.7782 18.3292 13.5507 18.6688 12.2281C19.0084 10.9056 19.0411 9.52283 18.7645 8.18565C18.4879 6.84847 17.9093 5.59221 17.0729 4.51289C16.2364 3.43356 15.1643 2.55973 13.9385 1.95816C12.7127 1.3566 11.3655 1.04323 10 1.04199V1.04199ZM5.52085 5.11283H7.96252C8.07303 5.11283 8.17901 5.15672 8.25715 5.23486C8.33529 5.313 8.37919 5.41899 8.37919 5.52949C8.36552 6.08516 8.45888 6.63827 8.65419 7.15866C8.73829 7.33286 8.75679 7.53154 8.70628 7.71827C8.65577 7.90501 8.53964 8.06728 8.37919 8.17533L7.52502 9.00866C7.90375 9.74826 8.39897 10.4221 8.99169 11.0045C9.56932 11.6069 10.2405 12.112 10.9792 12.5003L11.8125 11.6462C12.2292 11.2295 12.4209 11.2295 12.8292 11.3712C13.3496 11.5665 13.9027 11.6598 14.4584 11.6462C14.5672 11.6512 14.6703 11.6968 14.7474 11.7738C14.8244 11.8509 14.8699 11.954 14.875 12.0628V14.5045C14.8699 14.6134 14.8244 14.7164 14.7474 14.7935C14.6703 14.8706 14.5672 14.9161 14.4584 14.9212C12.0074 14.8144 9.68404 13.7983 7.94169 12.0712C6.21184 10.3306 5.19528 8.00623 5.09169 5.55449C5.09268 5.4398 5.13783 5.32991 5.21776 5.24765C5.29769 5.1654 5.40624 5.11711 5.52085 5.11283V5.11283Z" stroke="white" stroke-linecap="round" stroke-linejoin="round"/>
</g>
<defs>
<clipPath id="clip0_22_22708">
<rect width="20" height="20" fill="white"/>
</clipPath>
</defs>
</svg>
