<svg width="89" height="71" viewBox="0 0 89 71" fill="none" xmlns="http://www.w3.org/2000/svg">
<path d="M19.5913 48.8964C19.7957 48.8508 19.9145 48.9767 19.8471 49.186C19.7796 49.3953 19.5607 49.6037 19.3562 49.6494C19.1518 49.695 19.033 49.5691 19.1005 49.3598C19.168 49.1504 19.3869 48.9421 19.5913 48.8964Z" fill="#818184"/>
<path d="M19.5634 48.9832C19.63 48.9648 19.6805 48.9731 19.7171 49.0009C19.7352 49.0386 19.7396 49.0958 19.7186 49.1608C19.6675 49.3196 19.4947 49.479 19.3361 49.5235C19.2695 49.5419 19.2191 49.5336 19.1825 49.5059C19.1643 49.4682 19.1599 49.411 19.1809 49.346C19.232 49.1872 19.4072 49.0205 19.5634 48.9832Z" fill="#5E5E5E"/>
<path d="M19.3361 49.5234C19.4924 49.4861 19.6652 49.3266 19.7187 49.1606C19.7396 49.0956 19.7353 49.0385 19.7171 49.0007C19.7651 49.0401 19.7877 49.1112 19.7575 49.205C19.7063 49.3638 19.5312 49.5305 19.375 49.5678C19.2762 49.5917 19.2098 49.5624 19.1825 49.5057C19.2191 49.5335 19.2718 49.5345 19.3361 49.5234Z" fill="#757575"/>
<path d="M19.6425 48.7376C19.3461 48.8095 19.0304 49.1061 18.9327 49.4093C18.835 49.7125 18.9972 49.8923 19.3004 49.8226C19.6036 49.753 19.9124 49.4541 20.0101 49.1509C20.1078 48.8478 19.9457 48.668 19.6425 48.7376ZM19.3494 49.6472C19.1518 49.695 19.0399 49.5713 19.105 49.3692C19.1702 49.1671 19.3867 48.966 19.5843 48.9181C19.7819 48.8702 19.8938 48.9939 19.8286 49.196C19.7635 49.3982 19.5469 49.5993 19.3494 49.6472Z" fill="#2B2927"/>
<path d="M18.9283 48.858C19.0021 48.7703 19.0966 48.6891 19.1932 48.6247C19.2783 48.5724 19.3588 48.5346 19.4484 48.5157C19.5954 48.4833 19.7146 48.5138 19.7763 48.5815L19.9635 48.8012C19.8973 48.7241 19.785 48.6958 19.6356 48.7354C19.5529 48.7565 19.4656 48.7921 19.3804 48.8444C19.2838 48.9088 19.1916 48.9827 19.1155 49.0777C19.0302 49.1777 18.9631 49.2916 18.9259 49.4071C18.877 49.5587 18.8926 49.6752 18.9588 49.7523L18.7716 49.5326C18.7054 49.4555 18.6898 49.3389 18.7387 49.1874C18.7759 49.0719 18.843 48.958 18.9283 48.858Z" fill="url(#paint0_linear_79_1464)"/>
<path d="M19.3674 49.1909C19.3674 49.1909 19.4112 49.1492 19.4319 49.132C19.4503 49.1219 19.4687 49.1119 19.494 49.1042C19.5285 49.0914 19.556 49.1002 19.5719 49.1213L19.5993 49.1541C19.5993 49.1541 19.5535 49.1313 19.5214 49.1369C19.5053 49.1397 19.48 49.1475 19.4593 49.1647C19.4386 49.1819 19.411 49.1969 19.3948 49.2236C19.3717 49.248 19.3556 49.2747 19.3463 49.3036C19.3346 49.3397 19.3391 49.373 19.3574 49.3868L19.33 49.3541C19.33 49.3541 19.3072 49.3069 19.3189 49.2708C19.3282 49.242 19.3375 49.2131 19.3674 49.1909Z" fill="#757575"/>
<path d="M19.5214 49.1369C19.5949 49.1208 19.6314 49.1724 19.6104 49.2373C19.5895 49.3023 19.5111 49.3807 19.4376 49.3968C19.3641 49.413 19.3276 49.3614 19.3486 49.2964C19.3718 49.2242 19.4479 49.1531 19.5214 49.1369Z" fill="#818184"/>
<path d="M19.7272 48.2629L19.4121 49.4761C19.3911 49.5411 19.4023 49.6005 19.4366 49.6354L19.238 49.4041C19.2037 49.3692 19.1994 49.312 19.2134 49.2448L19.5285 48.0316L19.7272 48.2629Z" fill="#818184"/>
<path d="M20.2498 47.8657L20.4484 48.097L19.7272 48.263L19.5285 48.0316L20.2498 47.8657Z" fill="#AAAFAF"/>
<path d="M20.4484 48.0969L19.8773 49.6101L19.6062 49.6742C19.4592 49.7065 19.3724 49.6227 19.412 49.4761L19.7271 48.2629L20.4416 48.0947L20.4484 48.0969Z" fill="#5E5E5E"/>
<path d="M20.0548 49.4363C20.2592 49.3907 20.378 49.5166 20.3105 49.7259C20.2431 49.9353 20.0241 50.1436 19.8197 50.1893C19.6153 50.235 19.4965 50.109 19.564 49.8997C19.6314 49.6904 19.8503 49.482 20.0548 49.4363Z" fill="#818184"/>
<path d="M20.0268 49.523C20.0935 49.5046 20.1439 49.5129 20.1805 49.5407C20.1987 49.5784 20.203 49.6356 20.1821 49.7005C20.1309 49.8593 19.9581 50.0188 19.7996 50.0633C19.733 50.0817 19.6825 50.0734 19.6459 50.0457C19.6277 50.0079 19.6234 49.9508 19.6443 49.8858C19.6955 49.727 19.8706 49.5603 20.0268 49.523Z" fill="#5E5E5E"/>
<path d="M19.8019 50.056C19.9581 50.0187 20.1309 49.8592 20.1844 49.6932C20.2054 49.6282 20.201 49.5711 20.1828 49.5333C20.2332 49.5655 20.2535 49.6437 20.2233 49.7376C20.1721 49.8964 19.9969 50.0631 19.8407 50.1004C19.7419 50.1243 19.6755 50.0949 19.6482 50.0383C19.6848 50.0661 19.7376 50.0671 19.8019 50.056Z" fill="#757575"/>
<path d="M20.1014 49.268C19.8051 49.3399 19.4894 49.6365 19.3917 49.9397C19.294 50.2429 19.4561 50.4226 19.7593 50.353C20.0557 50.2812 20.3714 49.9845 20.4691 49.6814C20.5668 49.3782 20.4046 49.1984 20.1014 49.268ZM19.8083 50.1776C19.6107 50.2255 19.4988 50.1017 19.564 49.8996C19.6291 49.6975 19.8457 49.4964 20.0433 49.4485C20.2408 49.4006 20.3527 49.5243 20.2876 49.7264C20.2225 49.9286 20.0059 50.1297 19.8083 50.1776Z" fill="#2B2927"/>
<path d="M19.3941 49.3907C19.4679 49.303 19.5623 49.2218 19.659 49.1574C19.7441 49.1051 19.8246 49.0673 19.9142 49.0484C20.0612 49.0161 20.1804 49.0465 20.2421 49.1142L20.4293 49.3339C20.3631 49.2568 20.2507 49.2285 20.1014 49.2681C20.0187 49.2892 19.9313 49.3248 19.8462 49.3771C19.7495 49.4415 19.6574 49.5154 19.5813 49.6104C19.4959 49.7104 19.4289 49.8243 19.3917 49.9398C19.3428 50.0914 19.3584 50.2079 19.4246 50.2851L19.2374 50.0653C19.1712 49.9882 19.1556 49.8717 19.2045 49.7201C19.2417 49.6046 19.3087 49.4907 19.3941 49.3907Z" fill="url(#paint1_linear_79_1464)"/>
<path d="M19.8332 49.7234C19.8332 49.7234 19.877 49.6818 19.8977 49.6645C19.9161 49.6545 19.9345 49.6445 19.9598 49.6367C19.9943 49.624 20.0218 49.6328 20.0378 49.6539L20.0652 49.6866C20.0652 49.6866 20.0194 49.6639 19.9872 49.6695C19.9711 49.6723 19.9459 49.6801 19.9251 49.6973C19.9044 49.7145 19.8768 49.7295 19.8606 49.7562C19.8376 49.7806 19.8214 49.8073 19.8121 49.8362C19.8005 49.8722 19.8049 49.9056 19.8232 49.9194L19.7958 49.8867C19.7958 49.8867 19.7731 49.8395 19.7847 49.8034C19.794 49.7745 19.8033 49.7457 19.8332 49.7234Z" fill="#757575"/>
<path d="M19.9849 49.6767C20.0584 49.6606 20.0949 49.7122 20.0739 49.7771C20.0507 49.8493 19.9747 49.9204 19.9011 49.9366C19.8276 49.9527 19.7912 49.9011 19.8121 49.8362C19.8354 49.764 19.9114 49.6929 19.9849 49.6767Z" fill="#818184"/>
<path d="M40.6696 45.0438C40.8832 44.9931 40.9996 45.1263 40.9299 45.3428C40.8601 45.5594 40.632 45.7727 40.4183 45.8234C40.2047 45.8741 40.0882 45.7409 40.158 45.5244C40.2278 45.3078 40.4559 45.0945 40.6696 45.0438Z" fill="#818184"/>
<path d="M40.6485 45.1326C40.7151 45.1142 40.7725 45.1247 40.8091 45.1525C40.8341 45.1924 40.8316 45.2474 40.8083 45.3196C40.7548 45.4856 40.5797 45.6523 40.4143 45.6946C40.3477 45.713 40.2903 45.7025 40.2537 45.6747C40.2287 45.6348 40.2312 45.5798 40.2545 45.5076C40.308 45.3416 40.4831 45.1749 40.6485 45.1326Z" fill="#5E5E5E"/>
<path d="M40.4143 45.6947C40.5797 45.6524 40.7548 45.4857 40.8083 45.3197C40.8293 45.2547 40.8249 45.1975 40.809 45.1526C40.8639 45.1942 40.8797 45.263 40.854 45.3663C40.8005 45.5323 40.6254 45.699 40.46 45.7413C40.3612 45.7652 40.2948 45.7358 40.2606 45.677C40.2972 45.7048 40.3568 45.708 40.4211 45.6969L40.4143 45.6947Z" fill="#757575"/>
<path d="M40.723 44.8778C40.4175 44.9546 40.0834 45.2613 39.9834 45.5717C39.8834 45.8821 40.0569 46.0735 40.3601 46.0039C40.6657 45.927 40.9998 45.6203 41.0998 45.3099C41.1998 44.9995 41.0263 44.8081 40.723 44.8778ZM40.4206 45.8162C40.2139 45.8691 40.0974 45.7359 40.1649 45.5266C40.2323 45.3172 40.4513 45.1089 40.658 45.056C40.8648 45.0031 40.9812 45.1363 40.9138 45.3456C40.8463 45.555 40.6274 45.7633 40.4206 45.8162Z" fill="#2B2927"/>
<path d="M39.9928 45.001C40.0758 44.9082 40.1702 44.8271 40.2669 44.7626C40.352 44.7104 40.4417 44.6676 40.5313 44.6486C40.6875 44.6113 40.8067 44.6418 40.8729 44.7189L41.0715 44.9502C41.0053 44.8731 40.8861 44.8427 40.7299 44.88C40.6403 44.8989 40.5507 44.9417 40.4655 44.994C40.362 45.0562 40.2675 45.1374 40.1914 45.2323C40.1037 45.3395 40.0275 45.4584 39.9903 45.5739C39.9414 45.7255 39.9615 45.8515 40.0277 45.9286L39.8291 45.6973C39.7629 45.6201 39.7428 45.4941 39.7916 45.3426C39.8288 45.2271 39.8982 45.106 39.9928 45.001Z" fill="url(#paint2_linear_79_1464)"/>
<path d="M40.4434 45.3454C40.4434 45.3454 40.4871 45.3037 40.5079 45.2865C40.5263 45.2765 40.5539 45.2615 40.5699 45.2587C40.6113 45.2481 40.6388 45.2569 40.6548 45.278L40.6822 45.3108C40.6822 45.3108 40.6364 45.288 40.5973 45.2914C40.5744 45.292 40.5537 45.3092 40.5353 45.3192C40.5077 45.3342 40.4869 45.3514 40.4707 45.3781C40.4477 45.4025 40.4315 45.4292 40.4222 45.4581C40.4106 45.4942 40.415 45.5275 40.431 45.5486L40.4036 45.5158C40.4036 45.5158 40.3809 45.4687 40.3948 45.4253C40.4041 45.3965 40.4203 45.3698 40.4434 45.3454Z" fill="#757575"/>
<path d="M40.6042 45.2937C40.6777 45.2775 40.7234 45.3241 40.7001 45.3963C40.6769 45.4685 40.5985 45.5468 40.525 45.563C40.4515 45.5791 40.4058 45.5325 40.4291 45.4603C40.4523 45.3882 40.5307 45.3098 40.6042 45.2937Z" fill="#818184"/>
<path d="M40.8295 43.6292L40.4926 45.6402C40.4693 45.7124 40.4805 45.7718 40.5148 45.8067L40.3116 45.5659C40.2773 45.531 40.2661 45.4716 40.2894 45.3994L40.6263 43.3884L40.8364 43.6314L40.8295 43.6292Z" fill="#818184"/>
<path d="M41.366 43.2124L41.5761 43.4554L40.8295 43.6292L40.624 43.3956L41.366 43.2124Z" fill="#AAAFAF"/>
<path d="M41.5761 43.4553L40.9716 45.7785L40.6913 45.8476C40.5351 45.8849 40.4506 45.7939 40.4902 45.6473L40.8272 43.6363L41.5738 43.4626L41.5761 43.4553Z" fill="#5E5E5E"/>
<path d="M41.1582 45.5997C41.3718 45.549 41.4883 45.6822 41.4185 45.8987C41.3487 46.1153 41.1206 46.3286 40.907 46.3793C40.6933 46.43 40.5769 46.2969 40.6467 46.0803C40.7165 45.8637 40.9446 45.6504 41.1582 45.5997Z" fill="#818184"/>
<path d="M41.128 45.6935C41.1946 45.6751 41.2519 45.6857 41.2885 45.7134C41.3136 45.7533 41.311 45.8083 41.2878 45.8805C41.2343 46.0465 41.0591 46.2132 40.8937 46.2555C40.8271 46.2739 40.7698 46.2634 40.7332 46.2356C40.7081 46.1957 40.7106 46.1407 40.7339 46.0685C40.7874 45.9025 40.9625 45.7358 41.128 45.6935Z" fill="#5E5E5E"/>
<path d="M40.8961 46.2481C41.0615 46.2058 41.2366 46.0392 41.2901 45.8731C41.311 45.8082 41.3067 45.751 41.2908 45.706C41.3457 45.7476 41.3615 45.8164 41.3358 45.9197C41.2823 46.0858 41.1072 46.2524 40.9417 46.2947C40.843 46.3187 40.7766 46.2893 40.7424 46.2305C40.779 46.2582 40.8386 46.2615 40.9029 46.2504L40.8961 46.2481Z" fill="#757575"/>
<path d="M41.2048 45.4313C40.8993 45.5082 40.5652 45.8149 40.4652 46.1253C40.3652 46.4357 40.5387 46.6271 40.8419 46.5575C41.1451 46.4878 41.4816 46.1739 41.5816 45.8635C41.6816 45.5531 41.5081 45.3617 41.2048 45.4313ZM40.9024 46.3698C40.6957 46.4227 40.5792 46.2895 40.6467 46.0802C40.7141 45.8708 40.9331 45.6625 41.1398 45.6096C41.3466 45.5567 41.463 45.6899 41.3956 45.8992C41.3281 46.1085 41.1092 46.3169 40.9024 46.3698Z" fill="#2B2927"/>
<path d="M40.4746 45.5546C40.5576 45.4618 40.652 45.3807 40.7487 45.3162C40.8338 45.264 40.9235 45.2212 41.0131 45.2022C41.1693 45.1649 41.2885 45.1954 41.3547 45.2725L41.5533 45.5038C41.4871 45.4267 41.3679 45.3963 41.2117 45.4336C41.1222 45.4525 41.0325 45.4953 40.9473 45.5476C40.8438 45.6098 40.7493 45.6909 40.6732 45.7859C40.5855 45.8931 40.5093 46.012 40.4721 46.1275C40.4232 46.2791 40.4433 46.4051 40.5095 46.4822L40.3109 46.2509C40.2447 46.1737 40.2246 46.0477 40.2734 45.8961C40.3107 45.7806 40.38 45.6596 40.4746 45.5546Z" fill="url(#paint3_linear_79_1464)"/>
<path d="M40.9297 45.9085C40.9297 45.9085 40.9735 45.8668 40.9942 45.8496C41.0126 45.8396 41.0402 45.8246 41.0563 45.8218C41.0976 45.8112 41.1251 45.8201 41.1411 45.8412L41.1685 45.8739C41.1685 45.8739 41.1227 45.8512 41.0837 45.8545C41.0607 45.8551 41.04 45.8723 41.0216 45.8823C40.994 45.8973 40.9733 45.9146 40.9571 45.9412C40.934 45.9657 40.9178 45.9923 40.9085 46.0212C40.8969 46.0573 40.9014 46.0906 40.9173 46.1117L40.8899 46.0789C40.8899 46.0789 40.8672 46.0318 40.8811 45.9884C40.8904 45.9596 40.9066 45.9329 40.9297 45.9085Z" fill="#757575"/>
<path d="M41.0837 45.8546C41.1572 45.8384 41.2029 45.885 41.1796 45.9572C41.1563 46.0294 41.078 46.1077 41.0045 46.1239C40.931 46.14 40.8853 46.0934 40.9085 46.0213C40.9318 45.9491 41.0102 45.8707 41.0837 45.8546Z" fill="#818184"/>
<path d="M39.4198 45.3423C39.6335 45.2916 39.7499 45.4247 39.6801 45.6413C39.6103 45.8579 39.3822 46.0712 39.1686 46.1219C38.955 46.1726 38.8385 46.0394 38.9083 45.8228C38.9781 45.6063 39.2062 45.3929 39.4198 45.3423Z" fill="#818184"/>
<path d="M39.3896 45.4361C39.4562 45.4177 39.5136 45.4282 39.5502 45.4559C39.5752 45.4959 39.5727 45.5509 39.5494 45.623C39.4959 45.7891 39.3208 45.9557 39.1554 45.998C39.0888 46.0164 39.0314 46.0059 38.9948 45.9782C38.9698 45.9382 38.9723 45.8833 38.9956 45.8111C39.0491 45.6451 39.2242 45.4784 39.3896 45.4361Z" fill="#5E5E5E"/>
<path d="M39.1577 45.9908C39.3231 45.9485 39.4983 45.7818 39.5518 45.6158C39.5727 45.5508 39.5684 45.4937 39.5525 45.4487C39.6074 45.4903 39.6231 45.5591 39.5975 45.6624C39.5439 45.8284 39.3688 45.9951 39.2034 46.0374C39.1046 46.0614 39.0382 46.032 39.004 45.9732C39.0406 46.0009 39.1003 46.0042 39.1646 45.993L39.1577 45.9908Z" fill="#757575"/>
<path d="M39.4665 45.174C39.161 45.2509 38.8269 45.5575 38.7269 45.8679C38.6268 46.1783 38.8004 46.3698 39.1036 46.3001C39.4068 46.2305 39.7432 45.9166 39.8433 45.6062C39.9433 45.2958 39.7697 45.1044 39.4665 45.174ZM39.1641 46.1124C38.9573 46.1653 38.8409 46.0322 38.9083 45.8228C38.9758 45.6135 39.1947 45.4052 39.4015 45.3523C39.6082 45.2994 39.7247 45.4325 39.6572 45.6419C39.5898 45.8512 39.3709 46.0596 39.1641 46.1124Z" fill="#2B2927"/>
<path d="M38.7362 45.2973C38.8192 45.2045 38.9137 45.1234 39.0103 45.0589C39.0955 45.0066 39.1852 44.9638 39.2747 44.9449C39.431 44.9076 39.5502 44.938 39.6164 45.0152L39.815 45.2465C39.7488 45.1694 39.6296 45.1389 39.4734 45.1762C39.3838 45.1952 39.2941 45.238 39.209 45.2902C39.1054 45.3525 39.011 45.4336 38.9349 45.5286C38.8472 45.6358 38.7709 45.7547 38.7337 45.8702C38.6849 46.0218 38.705 46.1478 38.7712 46.2249L38.5725 45.9935C38.5063 45.9164 38.4862 45.7904 38.5351 45.6388C38.5723 45.5233 38.6417 45.4022 38.7362 45.2973Z" fill="url(#paint4_linear_79_1464)"/>
<path d="M39.1913 45.6512C39.1913 45.6512 39.2351 45.6095 39.2558 45.5923C39.2742 45.5823 39.3019 45.5672 39.3179 45.5645C39.3593 45.5539 39.3868 45.5627 39.4028 45.5838L39.4301 45.6166C39.4301 45.6166 39.3844 45.5938 39.3453 45.5972C39.3224 45.5978 39.3016 45.615 39.2832 45.625C39.2556 45.64 39.2349 45.6572 39.2187 45.6839C39.1957 45.7083 39.1795 45.735 39.1702 45.7639C39.1586 45.8 39.163 45.8333 39.179 45.8543L39.1516 45.8216C39.1516 45.8216 39.1288 45.7744 39.1428 45.7311C39.1521 45.7023 39.1683 45.6756 39.1913 45.6512Z" fill="#757575"/>
<path d="M39.3453 45.5972C39.4188 45.581 39.4576 45.6254 39.4412 45.6998C39.4249 45.7742 39.3396 45.8503 39.2661 45.8665C39.1926 45.8826 39.1538 45.8383 39.1702 45.7639C39.1934 45.6917 39.2718 45.6133 39.3453 45.5972Z" fill="#818184"/>
<path d="M39.5706 43.9327L39.2337 45.9437C39.2104 46.0158 39.2216 46.0752 39.2559 46.1102L39.0527 45.8694C39.0184 45.8344 39.0072 45.7751 39.0305 45.7029L39.3674 43.6919L39.5706 43.9327Z" fill="#818184"/>
<path d="M40.114 43.5181L40.3195 43.7517L39.5706 43.9327L39.3674 43.6919L40.114 43.5181Z" fill="#AAAFAF"/>
<path d="M40.3195 43.7516L39.715 46.0748L39.4347 46.1438C39.2785 46.1811 39.194 46.0902 39.2337 45.9436L39.5706 43.9326L40.3172 43.7588L40.3195 43.7516Z" fill="#5E5E5E"/>
<path d="M39.8993 45.9032C40.1129 45.8525 40.2294 45.9856 40.1596 46.2022C40.0898 46.4188 39.8617 46.6321 39.6481 46.6828C39.4344 46.7335 39.318 46.6003 39.3878 46.3838C39.4576 46.1672 39.6857 45.9539 39.8993 45.9032Z" fill="#818184"/>
<path d="M39.8714 45.9898C39.938 45.9714 39.9953 45.9819 40.0319 46.0096C40.057 46.0496 40.0545 46.1046 40.0312 46.1768C39.9777 46.3428 39.8026 46.5094 39.6372 46.5518C39.5705 46.5701 39.5132 46.5596 39.4766 46.5319C39.4515 46.4919 39.4541 46.437 39.4773 46.3648C39.5309 46.1988 39.706 46.0321 39.8714 45.9898Z" fill="#5E5E5E"/>
<path d="M39.6372 46.5517C39.8026 46.5094 39.9777 46.3427 40.0312 46.1767C40.0522 46.1118 40.0478 46.0546 40.0319 46.0096C40.0868 46.0512 40.1026 46.12 40.0769 46.2233C40.0234 46.3893 39.8483 46.556 39.6829 46.5983C39.5841 46.6223 39.5177 46.5929 39.4835 46.5341C39.5201 46.5618 39.5797 46.5651 39.644 46.5539L39.6372 46.5517Z" fill="#757575"/>
<path d="M39.9483 45.7277C39.6427 45.8046 39.3087 46.1113 39.2086 46.4217C39.1086 46.7321 39.2822 46.9235 39.5854 46.8538C39.8909 46.777 40.225 46.4703 40.325 46.1599C40.4251 45.8495 40.2515 45.6581 39.9483 45.7277ZM39.6459 46.6662C39.4391 46.719 39.3227 46.5859 39.3901 46.3766C39.4576 46.1672 39.6765 45.9589 39.8833 45.906C40.09 45.8531 40.2065 45.9862 40.139 46.1956C40.0715 46.4049 39.8526 46.6133 39.6459 46.6662Z" fill="#2B2927"/>
<path d="M39.2157 45.8581C39.2987 45.7653 39.3931 45.6842 39.4898 45.6197C39.5749 45.5674 39.6646 45.5246 39.7542 45.5057C39.9104 45.4684 40.0296 45.4988 40.0958 45.5759L40.2944 45.8073C40.2282 45.7302 40.109 45.6997 39.9528 45.737C39.8632 45.756 39.7736 45.7988 39.6884 45.851C39.5849 45.9133 39.4904 45.9944 39.4143 46.0894C39.3266 46.1966 39.2504 46.3155 39.2132 46.431C39.1643 46.5826 39.1844 46.7086 39.2506 46.7857L39.052 46.5543C38.9858 46.4772 38.9657 46.3512 39.0145 46.1996C39.0517 46.0841 39.1211 45.963 39.2157 45.8581Z" fill="url(#paint5_linear_79_1464)"/>
<path d="M39.6731 46.2047C39.6731 46.2047 39.7169 46.1631 39.7376 46.1459C39.756 46.1358 39.7836 46.1208 39.7997 46.118C39.841 46.1075 39.8685 46.1163 39.8845 46.1374L39.9119 46.1701C39.9119 46.1701 39.8661 46.1474 39.8271 46.1508C39.8041 46.1514 39.7834 46.1686 39.765 46.1786C39.7374 46.1936 39.7167 46.2108 39.7005 46.2375C39.6774 46.2619 39.6612 46.2886 39.6519 46.3175C39.6403 46.3535 39.6448 46.3868 39.6607 46.4079L39.6333 46.3752C39.6333 46.3752 39.6106 46.328 39.6245 46.2847C39.6339 46.2558 39.65 46.2292 39.6731 46.2047Z" fill="#757575"/>
<path d="M39.8271 46.1508C39.9006 46.1347 39.9394 46.1791 39.923 46.2535C39.8997 46.3257 39.8214 46.404 39.7479 46.4201C39.6744 46.4363 39.6355 46.3919 39.6519 46.3175C39.6752 46.2453 39.7536 46.167 39.8271 46.1508Z" fill="#818184"/>
<path d="M38.161 45.6457C38.3747 45.5951 38.4911 45.7282 38.4213 45.9448C38.3515 46.1613 38.1234 46.3747 37.9098 46.4253C37.6961 46.476 37.5797 46.3429 37.6495 46.1263C37.7193 45.9098 37.9474 45.6964 38.161 45.6457Z" fill="#818184"/>
<path d="M38.1331 45.7323C38.1997 45.714 38.2571 45.7245 38.2937 45.7522C38.3187 45.7922 38.3162 45.8471 38.2929 45.9193C38.2394 46.0853 38.0643 46.252 37.8989 46.2943C37.8323 46.3127 37.7749 46.3022 37.7383 46.2745C37.7133 46.2345 37.7158 46.1795 37.7391 46.1074C37.7926 45.9413 37.9677 45.7747 38.1331 45.7323Z" fill="#5E5E5E"/>
<path d="M37.8989 46.2944C38.0643 46.2521 38.2394 46.0854 38.2929 45.9194C38.3139 45.8544 38.3095 45.7972 38.2936 45.7523C38.3485 45.7939 38.3643 45.8627 38.3386 45.966C38.2851 46.132 38.11 46.2987 37.9446 46.341C37.8458 46.365 37.7794 46.3356 37.7452 46.2768C37.7818 46.3045 37.8414 46.3078 37.9057 46.2966L37.8989 46.2944Z" fill="#757575"/>
<path d="M38.2168 45.4726C37.9113 45.5494 37.5772 45.8561 37.4772 46.1665C37.3772 46.4769 37.5507 46.6683 37.8539 46.5987C38.1595 46.5219 38.4936 46.2152 38.5936 45.9048C38.6936 45.5944 38.5201 45.403 38.2168 45.4726ZM37.9144 46.411C37.7077 46.4639 37.5912 46.3308 37.6587 46.1214C37.7261 45.9121 37.9451 45.7037 38.1518 45.6509C38.3586 45.598 38.475 45.7311 38.4076 45.9404C38.3401 46.1498 38.1212 46.3581 37.9144 46.411Z" fill="#2B2927"/>
<path d="M37.4774 45.6007C37.5604 45.508 37.6548 45.4268 37.7515 45.3624C37.8366 45.3101 37.9263 45.2673 38.0159 45.2484C38.1721 45.2111 38.2913 45.2415 38.3575 45.3186L38.5561 45.55C38.4899 45.4728 38.3707 45.4424 38.2145 45.4797C38.1249 45.4987 38.0352 45.5415 37.9501 45.5937C37.8466 45.656 37.7521 45.7371 37.676 45.8321C37.5883 45.9393 37.5121 46.0582 37.4749 46.1736C37.426 46.3252 37.4461 46.4512 37.5123 46.5284L37.3137 46.297C37.2475 46.2199 37.2274 46.0939 37.2762 45.9423C37.3134 45.8268 37.3828 45.7057 37.4774 45.6007Z" fill="url(#paint6_linear_79_1464)"/>
<path d="M37.9348 45.9474C37.9348 45.9474 37.9786 45.9057 37.9993 45.8885C38.0177 45.8785 38.0453 45.8635 38.0614 45.8607C38.1028 45.8501 38.1302 45.859 38.1462 45.8801L38.1736 45.9128C38.1736 45.9128 38.1278 45.8901 38.0888 45.8935C38.0658 45.894 38.0451 45.9113 38.0267 45.9213C37.9991 45.9363 37.9784 45.9535 37.9622 45.9802C37.9391 46.0046 37.923 46.0313 37.9137 46.0601C37.902 46.0962 37.9065 46.1295 37.9225 46.1506L37.8951 46.1179C37.8951 46.1179 37.8723 46.0707 37.8863 46.0274C37.8956 45.9985 37.9118 45.9719 37.9348 45.9474Z" fill="#757575"/>
<path d="M38.0888 45.8934C38.1623 45.8772 38.208 45.9238 38.1847 45.996C38.1615 46.0682 38.0831 46.1465 38.0096 46.1627C37.9361 46.1789 37.8904 46.1323 37.9137 46.0601C37.9369 45.9879 38.0153 45.9096 38.0888 45.8934Z" fill="#818184"/>
<path d="M38.321 44.2311L37.984 46.2421C37.9608 46.3143 37.972 46.3737 38.0062 46.4086L37.8031 46.1679C37.7688 46.1329 37.7576 46.0735 37.7808 46.0013L38.1178 43.9903L38.321 44.2311Z" fill="#818184"/>
<path d="M38.8575 43.8144L39.0607 44.0552L38.321 44.2311L38.1109 43.9881L38.8575 43.8144Z" fill="#AAAFAF"/>
<path d="M39.0607 44.0551L38.4562 46.3782L38.1759 46.4473C38.0197 46.4846 37.9352 46.3936 37.9748 46.247L38.3118 44.2361L39.0583 44.0623L39.0607 44.0551Z" fill="#5E5E5E"/>
<path d="M38.6428 46.1994C38.8564 46.1488 38.9729 46.2819 38.9031 46.4985C38.8333 46.715 38.6052 46.9284 38.3915 46.979C38.1779 47.0297 38.0614 46.8966 38.1312 46.68C38.201 46.4635 38.4291 46.2501 38.6428 46.1994Z" fill="#818184"/>
<path d="M38.6149 46.2861C38.6815 46.2677 38.7388 46.2782 38.7754 46.3059C38.8005 46.3459 38.7979 46.4008 38.7747 46.473C38.7212 46.639 38.546 46.8057 38.3806 46.848C38.314 46.8664 38.2567 46.8559 38.2201 46.8282C38.195 46.7882 38.1976 46.7333 38.2208 46.6611C38.2743 46.495 38.4494 46.3284 38.6149 46.2861Z" fill="#5E5E5E"/>
<path d="M38.3807 46.848C38.5461 46.8057 38.7212 46.639 38.7747 46.473C38.7957 46.408 38.7913 46.3508 38.7754 46.3059C38.8303 46.3475 38.8461 46.4163 38.8204 46.5196C38.7669 46.6856 38.5918 46.8523 38.4264 46.8946C38.3276 46.9185 38.2612 46.8892 38.227 46.8303C38.2636 46.8581 38.3232 46.8614 38.3875 46.8502L38.3807 46.848Z" fill="#757575"/>
<path d="M38.6986 46.0261C38.3931 46.1029 38.059 46.4096 37.959 46.72C37.8589 47.0304 38.0325 47.2218 38.3357 47.1522C38.6389 47.0826 38.9753 46.7687 39.0754 46.4583C39.1754 46.1479 39.0018 45.9565 38.6986 46.0261ZM38.3962 46.9645C38.1894 47.0174 38.073 46.8842 38.1405 46.6749C38.2079 46.4656 38.4268 46.2572 38.6336 46.2043C38.8404 46.1514 38.9568 46.2846 38.8893 46.4939C38.8219 46.7033 38.603 46.9116 38.3962 46.9645Z" fill="#2B2927"/>
<path d="M37.9592 46.1543C38.0422 46.0615 38.1366 45.9804 38.2333 45.916C38.3184 45.8637 38.4081 45.8209 38.4977 45.802C38.6539 45.7646 38.7731 45.7951 38.8393 45.8722L39.0379 46.1036C38.9717 46.0264 38.8525 45.996 38.6963 46.0333C38.6067 46.0522 38.5171 46.0951 38.4319 46.1473C38.3284 46.2096 38.2339 46.2907 38.1578 46.3857C38.0701 46.4929 37.9939 46.6117 37.9567 46.7272C37.9078 46.8788 37.9279 47.0048 37.9941 47.0819L37.7955 46.8506C37.7293 46.7735 37.7092 46.6475 37.758 46.4959C37.7952 46.3804 37.8646 46.2593 37.9592 46.1543Z" fill="url(#paint7_linear_79_1464)"/>
<path d="M38.4166 46.501C38.4166 46.501 38.4604 46.4593 38.4811 46.4421C38.4995 46.4321 38.5271 46.4171 38.5432 46.4143C38.5845 46.4037 38.612 46.4126 38.628 46.4337L38.6554 46.4664C38.6554 46.4664 38.6096 46.4437 38.5706 46.447C38.5476 46.4476 38.5269 46.4648 38.5085 46.4748C38.4809 46.4899 38.4602 46.5071 38.444 46.5337C38.4209 46.5582 38.4047 46.5848 38.3954 46.6137C38.3838 46.6498 38.3883 46.6831 38.4042 46.7042L38.3768 46.6715C38.3768 46.6715 38.3541 46.6243 38.368 46.581C38.3774 46.5521 38.3935 46.5255 38.4166 46.501Z" fill="#757575"/>
<path d="M38.5706 46.4471C38.6441 46.431 38.6898 46.4776 38.6665 46.5497C38.6432 46.6219 38.5649 46.7003 38.4914 46.7164C38.4179 46.7326 38.3722 46.686 38.3954 46.6138C38.4187 46.5416 38.4971 46.4633 38.5706 46.4471Z" fill="#818184"/>
<path d="M33.7344 45.6534L36.3861 46.4203L46.3947 44.0441L49.0485 41.72L37.7654 40.6097L33.7344 45.6534Z" fill="#A32B1D"/>
<path d="M61.0455 32.8211C58.5488 32.8213 55.0911 33.213 51.7748 33.8255C51.203 33.9281 36.685 36.8511 28.3199 38.5777C25.1663 39.2268 22.2216 39.8635 21.8862 39.9626C21.1762 40.1641 20.5003 40.4483 19.8632 40.7768C18.7868 41.3383 17.8766 42.2083 17.1676 43.2309C16.0366 43.6792 14.9713 44.8419 14.5285 45.8864C14.2688 46.504 14.4331 47.2183 14.9178 47.6454C16.4585 49.0105 19.7321 49.2368 22.7965 48.5112C33.1084 46.0653 49.5222 42.0161 53.3929 41.0962C59.6297 39.616 63.4835 35.2164 63.647 34.0499C63.7961 32.9983 62.342 32.8246 61.05 32.8305L61.0455 32.8211Z" fill="url(#paint8_linear_79_1464)"/>
<path d="M14.8617 45.2527C14.5941 46.0829 15.54 47.0331 17.9873 47.3039C20.8819 47.6232 36.8531 44.0529 48.2249 41.1438C50.0056 40.634 51.7037 40.1214 53.4965 38.9382C54.134 38.5141 54.6851 37.9109 54.8972 37.1585C55.3679 35.5093 54.4994 33.6597 52.6544 33.6627C55.6904 33.1431 58.7622 32.8183 61.0386 32.8188C62.3374 32.8151 63.7847 32.9866 63.6355 34.0382C63.5171 34.8766 61.9098 36.6614 60.0199 38.0285C56.3274 40.7031 54.3969 40.83 42.9568 43.6214C41.1534 44.0602 38.6753 45.0624 34.1125 45.7753C33.1316 46.0169 32.153 46.2514 31.1812 46.488C28.4568 47.1479 25.1442 47.937 22.7851 48.4994C19.7207 49.2251 16.4447 49.006 14.9132 47.6359C14.4355 47.211 14.2619 46.5017 14.5192 45.8914C14.6097 45.6815 14.7253 45.4638 14.8548 45.2505L14.8617 45.2527Z" fill="url(#paint9_linear_79_1464)"/>
<g style="mix-blend-mode:screen" opacity="0.5">
<path d="M22.3628 40.1082C23.2957 39.8271 27.6577 38.8663 31.59 38.0379C31.9191 38.3352 32.2298 38.6664 32.5543 38.9781C28.6884 39.8359 24.0141 40.8475 23.1433 41.1007C20.7744 41.7875 20.0379 42.2833 19.3116 42.0173C18.7549 41.814 19.6928 40.9051 22.3628 40.1082Z" fill="#F3F2EA"/>
</g>
<g style="mix-blend-mode:screen" opacity="0.2">
<path d="M32.8377 40.8065C32.8373 40.902 32.6021 41.1609 32.7121 41.1963C33.6722 41.5137 34.749 42.4345 34.934 42.6375C28.9039 44.0887 23.6504 45.32 23.074 44.8713C21.2193 43.421 26.6454 42.078 32.8285 40.8115L32.8377 40.8065Z" fill="#F3F2EA"/>
</g>
<g style="mix-blend-mode:multiply" opacity="0.3">
<path d="M24.1387 39.6367C23.9669 39.5813 23.7995 39.5592 23.6388 39.5632C23.7215 39.5421 23.818 39.5253 23.9075 39.5064C23.9947 39.5185 24.075 39.5285 24.1643 39.5573C25.6149 40.0247 26.9406 42.2688 27.1211 44.558C27.1844 45.3036 27.1057 45.9715 26.9312 46.5129C33.2989 45.0031 41.2979 43.047 46.6619 41.7318C48.7639 41.2139 50.5925 40.7674 52.0328 40.4188C52.1679 39.9523 52.2232 39.3805 52.1755 38.7516C52.0146 36.7076 50.8393 34.7033 49.5537 34.289C49.5262 34.2802 49.5033 34.2807 49.4758 34.2719C49.5332 34.2585 49.5975 34.2474 49.6457 34.239C50.9288 34.7083 52.0927 36.7009 52.2559 38.7376C52.3059 39.3593 52.253 39.924 52.1247 40.3926C52.9908 40.1777 53.7144 40.0045 54.2634 39.8786C56.9097 39.2493 59.1028 38.3545 60.782 37.4534C60.6599 37.5495 60.531 37.6434 60.4089 37.7395C58.7806 38.5773 56.7233 39.3805 54.2837 39.9569C53.7255 40.0878 52.9835 40.2709 52.0945 40.4864C51.9409 40.9629 51.7007 41.3317 51.3898 41.5662C51.3003 41.5851 51.2084 41.6113 51.1096 41.6352C51.5097 41.4534 51.8166 41.0662 51.9957 40.5104C50.5622 40.8612 48.7589 41.3 46.6822 41.81C41.3021 43.1281 33.2779 45.092 26.901 46.6067C26.729 47.0931 26.4658 47.4625 26.1389 47.6998C26.0562 47.721 25.9666 47.7399 25.8839 47.7611C26.7117 47.3824 27.1668 46.1585 27.043 44.5648C26.8601 42.3066 25.5618 40.0953 24.1387 39.6367Z" fill="#C2C1B7"/>
</g>
<path d="M21.8034 20.0629C23.7914 19.8988 25.0436 22.1828 24.2835 23.3403C23.7842 23.6416 19.2148 24.8224 18.311 24.7304L17.4938 21.1203C17.4938 21.1203 17.4337 20.6946 21.8034 20.0629Z" fill="url(#paint10_linear_79_1464)"/>
<path style="mix-blend-mode:screen" d="M20.1912 20.3561C20.1912 20.3561 19.4211 21.1916 19.6229 21.2248C20.8223 21.4121 21.9401 22.9118 21.8229 23.4876C20.7365 23.7032 19.2322 23.9913 19.0049 24.0137L17.562 21.2857C17.5141 21.1986 17.549 21.0903 17.641 21.0402C18.1931 20.7401 19.0703 20.6084 20.1912 20.3561Z" fill="url(#paint11_linear_79_1464)"/>
<path d="M18.5897 21.346C19.1377 21.9768 19.3689 23.1668 19.1037 23.9898C18.8385 24.8127 18.1723 24.9725 17.6243 24.3417C17.0763 23.7109 16.8451 22.5209 17.1103 21.6979C17.3756 20.875 18.0417 20.7152 18.5897 21.346Z" fill="#DBDAD0"/>
<path d="M18.5385 21.5048C19.0249 22.0679 19.2314 23.1225 18.9941 23.8588C18.7568 24.5951 18.1641 24.7388 17.6801 24.1684C17.1938 23.6053 16.9873 22.5507 17.2246 21.8144C17.4619 21.0781 18.0546 20.9344 18.5385 21.5048Z" fill="#3A3A3A"/>
<path d="M20.9959 20.0018L20.7859 19.7588L19.4197 20.9839L19.6298 21.2269L20.9959 20.0018Z" fill="#F9F8F0"/>
<path d="M22.1118 18.3057L20.996 20.0019L20.7859 19.7589L21.7076 18.3587C21.8431 18.3386 21.9763 18.3257 22.1118 18.3057Z" fill="#DBDAD0"/>
<path d="M22.1117 18.3057C22.7914 18.2219 23.464 18.1598 24.1412 18.1071L23.4964 20.7201C23.4964 20.7201 21.1059 21.0971 19.6206 21.232L20.9867 20.0069L22.1025 18.3107L22.1117 18.3057Z" fill="#C2C1B7"/>
<path d="M25.7258 27.2714C27.7138 27.1073 28.9659 29.3913 28.2058 30.5488C27.7066 30.8501 23.1371 32.0309 22.2334 31.9389L21.4162 28.3288C21.4162 28.3288 21.3561 27.9031 25.7258 27.2714Z" fill="url(#paint12_linear_79_1464)"/>
<path style="mix-blend-mode:screen" d="M24.1135 27.5646C24.1135 27.5646 23.3435 28.4001 23.5452 28.4332C24.7446 28.6205 25.8625 30.1203 25.7452 30.6961C24.6588 30.9117 23.1545 31.1998 22.9272 31.2222L21.4843 28.4942C21.4365 28.407 21.4714 28.2988 21.5634 28.2487C22.1154 27.9486 22.9926 27.8169 24.1135 27.5646Z" fill="url(#paint13_linear_79_1464)"/>
<path d="M22.5144 28.5473C23.0624 29.1781 23.2935 30.3681 23.0283 31.1911C22.7631 32.014 22.0969 32.1738 21.5489 31.543C21.001 30.9122 20.7698 29.7222 21.035 28.8992C21.3002 28.0763 21.9664 27.9165 22.5144 28.5473Z" fill="#DBDAD0"/>
<path d="M22.4609 28.7133C22.9472 29.2764 23.1537 30.331 22.9164 31.0673C22.6791 31.8036 22.0865 31.9473 21.6025 31.3769C21.1161 30.8138 20.9096 29.7592 21.1469 29.0229C21.3842 28.2866 21.9769 28.1429 22.4609 28.7133Z" fill="#3A3A3A"/>
<path d="M24.9206 27.2031L24.7105 26.9601L23.342 28.1925L23.5521 28.4354L24.9206 27.2031Z" fill="#F9F8F0"/>
<path d="M26.0364 25.5068L24.9206 27.2031L24.7105 26.9601L25.6323 25.5599C25.7677 25.5398 25.9009 25.5269 26.0364 25.5068Z" fill="#DBDAD0"/>
<path d="M26.0364 25.5068C26.716 25.4231 27.3886 25.3609 28.0658 25.3082L27.421 27.9212C27.421 27.9212 25.0305 28.2983 23.5452 28.4332L24.9114 27.2081L26.0272 25.5118L26.0364 25.5068Z" fill="#C2C1B7"/>
<path d="M13.8773 4.32097L31.7856 37.3838L31.639 37.8386L13.7308 4.77574C13.692 4.70749 13.6832 4.64088 13.7041 4.57591L13.8507 4.12113C13.832 4.17888 13.8409 4.2455 13.8773 4.32097Z" fill="#DBDAD0"/>
<path d="M31.7879 37.3766L31.6459 37.8408L42.5689 35.2413L42.7155 34.7865L31.7879 37.3766Z" fill="#707576"/>
<path d="M14.0741 3.94606C13.8674 3.99895 13.7795 4.1539 13.8774 4.32093L31.7857 37.3838L42.7064 34.7915L18.0279 3.45127C17.8727 3.24987 17.5245 3.12966 17.2695 3.19091L14.0649 3.95106L14.0741 3.94606Z" fill="#F5F4EC"/>
<path d="M14.074 3.94614L14.4025 3.86873L34.8109 36.6616L31.7879 37.3766L13.8796 4.31378C13.7817 4.14675 13.8696 3.99181 14.0763 3.93892L14.074 3.94614Z" fill="#F9F8F0"/>
<path d="M31.9324 36.8812C32.961 36.2326 33.9795 35.7799 34.9329 35.5533L37.8824 34.8544C40.2163 34.2997 42.8933 34.517 44.6893 35.2313C45.1477 35.3631 46.2682 36.784 46.7798 37.8572C44.935 37.2946 42.7963 37.2906 40.4624 37.8452L37.5128 38.5441C36.5595 38.7708 35.541 39.2234 34.5124 39.8721C33.9141 40.245 33.3155 40.6896 32.7189 41.1985C32.342 39.7543 31.4622 38.3871 30.4422 38.138C31.0364 37.6363 31.3386 37.2636 31.9392 36.8834L31.9324 36.8812Z" fill="url(#paint14_linear_79_1464)"/>
<path d="M37.5105 38.5514L40.4601 37.8525C42.794 37.2979 44.9327 37.3018 46.7775 37.8645L32.7166 41.2058C34.3427 39.8334 36.0035 38.9184 37.5082 38.5586L37.5105 38.5514Z" fill="#C2C1B7"/>
<path d="M45.2361 49.7824C47.224 49.6183 48.4762 51.9023 47.7161 53.0598C47.2168 53.3611 42.6474 54.5419 41.7437 54.4498L40.9264 50.8398C40.9264 50.8398 40.8663 50.414 45.2361 49.7824Z" fill="url(#paint15_linear_79_1464)"/>
<path style="mix-blend-mode:screen" d="M43.6238 50.0756C43.6238 50.0756 42.8537 50.9111 43.0555 50.9442C44.2549 51.1315 45.3727 52.6313 45.2555 53.2071C44.1691 53.4227 42.6648 53.7108 42.4375 53.7332L40.9946 51.0052C40.9468 50.9181 40.9817 50.8098 41.0737 50.7597C41.6257 50.4596 42.5029 50.3279 43.6238 50.0756Z" fill="url(#paint16_linear_79_1464)"/>
<path d="M42.0247 51.0583C42.5726 51.6891 42.8038 52.8791 42.5386 53.7021C42.2734 54.525 41.6072 54.6848 41.0592 54.054C40.5112 53.4232 40.2801 52.2331 40.5453 51.4102C40.8105 50.5873 41.4767 50.4275 42.0247 51.0583Z" fill="#DBDAD0"/>
<path d="M41.9711 51.2244C42.4575 51.7875 42.664 52.8421 42.4267 53.5784C42.1894 54.3147 41.5967 54.4584 41.1127 53.888C40.6264 53.3249 40.4199 52.2703 40.6572 51.534C40.8945 50.7977 41.4871 50.654 41.9711 51.2244Z" fill="#3A3A3A"/>
<path d="M44.4309 49.7142L44.2208 49.4712L42.8523 50.7036L43.0624 50.9466L44.4309 49.7142Z" fill="#F9F8F0"/>
<path d="M45.5467 48.0178L44.4309 49.7141L44.2208 49.4711L45.1425 48.0709C45.278 48.0508 45.4112 48.0379 45.5467 48.0178Z" fill="#DBDAD0"/>
<path d="M45.5467 48.0179C46.2263 47.9342 46.8989 47.872 47.5761 47.8194L46.9313 50.4323C46.9313 50.4323 44.5408 50.8094 43.0555 50.9443L44.4217 49.7192L45.5375 48.0229L45.5467 48.0179Z" fill="#C2C1B7"/>
<path d="M53.1531 56.0392C55.1411 55.8751 56.3932 58.1591 55.6332 59.3166C55.1339 59.6179 50.5645 60.7987 49.6607 60.7067L48.8435 57.0966C48.8435 57.0966 48.7834 56.6709 53.1531 56.0392Z" fill="url(#paint17_linear_79_1464)"/>
<path style="mix-blend-mode:screen" d="M51.5409 56.3324C51.5409 56.3324 50.7708 57.1679 50.9726 57.2011C52.172 57.3884 53.2898 58.8881 53.1726 59.4639C52.0862 59.6795 50.5819 59.9676 50.3546 59.99L48.9117 57.262C48.8638 57.1749 48.8987 57.0666 48.9907 57.0166C49.5428 56.7164 50.42 56.5847 51.5409 56.3324Z" fill="url(#paint18_linear_79_1464)"/>
<path d="M49.9395 57.3223C50.4874 57.9531 50.7186 59.1432 50.4534 59.9661C50.1882 60.789 49.522 60.9488 48.974 60.318C48.426 59.6872 48.1949 58.4972 48.4601 57.6743C48.7253 56.8513 49.3915 56.6915 49.9395 57.3223Z" fill="#DBDAD0"/>
<path d="M49.8883 57.4811C50.3746 58.0442 50.5811 59.0988 50.3438 59.8351C50.1065 60.5714 49.5138 60.7151 49.0298 60.1447C48.5458 59.5744 48.337 58.527 48.5743 57.7907C48.8116 57.0544 49.4043 56.9107 49.8883 57.4811Z" fill="#3A3A3A"/>
<path d="M52.3388 55.9759L52.1356 55.7352L50.7694 56.9603L50.9726 57.2011L52.3388 55.9759Z" fill="#F9F8F0"/>
<path d="M53.4614 54.2819L52.3456 55.9781L52.1356 55.7351L53.0573 54.3349C53.1928 54.3148 53.3259 54.3019 53.4614 54.2819Z" fill="#DBDAD0"/>
<path d="M53.4614 54.2819C54.1411 54.1981 54.8137 54.136 55.4909 54.0833L54.8461 56.6963C54.8461 56.6963 52.4556 57.0733 50.9703 57.2082L52.3364 55.9831L53.4522 54.2869L53.4614 54.2819Z" fill="#C2C1B7"/>
<path d="M69.58 68.9507C69.7583 69.1038 70.0403 69.1708 70.2447 69.1251L73.4492 68.365C73.5733 68.3332 73.647 68.2693 73.6726 68.1899L73.526 68.6447C73.5004 68.7241 73.4244 68.7952 73.3027 68.8197L70.0981 69.5799C69.8914 69.6328 69.6117 69.5586 69.4334 69.4055L34.0252 40.5597L34.1717 40.105L69.58 68.9507Z" fill="#DBDAD0"/>
<path d="M45.1016 37.5078C41.9391 37.0543 37.0611 37.9445 34.1809 40.1L69.5892 68.9458C69.7675 69.0989 70.0495 69.1658 70.2539 69.1202L73.4584 68.36C73.7134 68.2988 73.7695 68.0778 73.5821 67.8819L45.1039 37.5005L45.1016 37.5078Z" fill="#F5F4EC"/>
<path d="M57.7645 14.8628L62.8783 24.0489L62.776 24.3666L57.6621 15.1805C57.6325 15.1311 57.6327 15.0833 57.6467 15.04L57.749 14.7224C57.7351 14.7657 57.7418 14.8157 57.7645 14.8628Z" fill="#DBDAD0"/>
<path d="M62.8783 24.049L62.7828 24.3688L66.5732 23.4628L66.6755 23.1451L62.8783 24.049Z" fill="#707576"/>
<path d="M57.9035 14.5968C57.7634 14.6313 57.7055 14.7402 57.7646 14.8628L62.8785 24.0489L66.6665 23.1501L59.7904 14.4638C59.6831 14.3257 59.4403 14.2315 59.2657 14.2788L57.9012 14.604L57.9035 14.5968Z" fill="#F5F4EC"/>
<path d="M58.8299 32.0194L58.3779 31.4912L55.4082 34.1597L55.8603 34.6879L58.8299 32.0194Z" fill="#D84F3F"/>
<path d="M63.4408 25.035L62.9865 24.514L58.3779 31.4911L58.8299 32.0193L63.4408 25.035Z" fill="#DBDAD0"/>
<path d="M67.1301 24.1601L66.6757 23.6391L62.9865 24.514L63.4409 25.0349L67.1301 24.1601Z" fill="#B2BBBD"/>
<path d="M58.8299 32.0194L63.4339 25.0328L67.1232 24.158L63.5004 33.4449C61.3615 33.4887 58.7203 33.9841 55.8603 34.688L58.8276 32.0266L58.8299 32.0194Z" fill="#C2C1B7"/>
<g style="mix-blend-mode:multiply" opacity="0.4">
<path d="M62.0201 27.1828L63.4339 25.0328L67.1232 24.158L64.7676 30.1958C63.914 29.1239 63.0213 28.0792 62.0133 27.1806L62.0201 27.1828Z" fill="#C2C1B7"/>
</g>
<path d="M68.1493 23.0224C68.1837 23.0335 68.2318 23.049 68.2638 23.0912C68.3619 23.2105 68.4 23.4219 68.3512 23.5735C68.3349 23.6241 68.3072 23.6629 68.2772 23.6852L67.1726 24.4049C67.2485 24.3577 67.3086 24.2655 67.355 24.145C67.4667 23.7985 67.3794 23.2922 67.1488 23.0187C67.0598 22.9183 66.9728 22.8584 66.8765 22.8513L68.1517 23.0152L68.1493 23.0224Z" fill="#DBDAD0"/>
<path d="M66.7824 22.8608C66.8972 22.834 67.0324 22.8856 67.1465 23.0259C67.3771 23.2995 67.4713 23.8079 67.3527 24.1522C67.2969 24.3254 67.1955 24.4282 67.0829 24.4477L63.1342 25.3744C63.249 25.3477 63.3436 25.2427 63.404 25.0789C63.5156 24.7324 63.4283 24.2262 63.1978 23.9526C63.0836 23.8123 62.9485 23.7607 62.8336 23.7875L66.7824 22.8608Z" fill="url(#paint19_linear_79_1464)"/>
<path d="M62.7647 23.8131C62.8935 23.7431 63.0539 23.7868 63.1978 23.9527C63.4283 24.2262 63.5225 24.7347 63.4039 25.079C63.3365 25.2883 63.2052 25.3894 63.063 25.3834L62.2072 25.3546C62.3058 25.3546 62.398 25.2807 62.4514 25.1385C62.5328 24.8859 62.4655 24.5295 62.3011 24.3331C62.203 24.2138 62.0838 24.1834 61.9918 24.2334L62.7623 23.8204L62.7647 23.8131Z" fill="url(#paint20_linear_79_1464)"/>
<path d="M62.3034 24.3259C62.4678 24.5223 62.5328 24.8858 62.4537 25.1313C62.3722 25.3839 62.1701 25.4224 61.9989 25.2238C61.8345 25.0274 61.7696 24.6638 61.8487 24.4183C61.9301 24.1657 62.1322 24.1272 62.3034 24.3259Z" fill="#DBDAD0"/>
<g style="mix-blend-mode:multiply">
<path d="M62.2662 24.4414C62.3872 24.584 62.4365 24.8549 62.3761 25.0425C62.3156 25.2302 62.1617 25.2603 62.0407 25.1177C61.9197 24.9751 61.8704 24.7043 61.9309 24.5166C61.9914 24.3289 62.1452 24.2988 62.2662 24.4414Z" fill="#3F4146"/>
</g>
<path d="M73.3862 32.9335C73.512 33.0378 73.7022 33.0832 73.8492 33.0509L75.2138 32.7257C75.3033 32.7067 75.3563 32.6601 75.3749 32.6023L75.2726 32.9199C75.254 32.9777 75.201 33.0244 75.1114 33.0433L73.7469 33.3685C73.5999 33.4008 73.4096 33.3554 73.2839 33.2512L63.5206 25.1644L63.6229 24.8468L73.3862 32.9335Z" fill="#DBDAD0"/>
<path d="M63.623 24.8469L73.3863 32.9336C73.5121 33.0379 73.7023 33.0833 73.8493 33.051L75.2138 32.7258C75.3953 32.6807 75.435 32.5341 75.3048 32.3965L67.411 23.948L63.623 24.8469Z" fill="#F5F4EC"/>
<path d="M70.6559 69.0265L70.2539 69.1201C70.0471 69.173 69.7675 69.0988 69.5892 68.9457L34.1809 40.1C34.8832 39.5693 35.7089 39.1262 36.5963 38.7509L70.6559 69.0265Z" fill="#F9F8F0"/>
<path d="M17.1607 43.2287C17.3985 42.891 17.6569 42.5838 17.9359 42.2833C17.5163 43.2556 19.0715 44.458 20.7665 44.6378L20.5644 45.7121C17.6617 45.1591 17.0388 43.8189 17.163 43.2215L17.1607 43.2287Z" fill="url(#paint21_linear_79_1464)"/>
<path opacity="0.4" d="M32.0685 23.6021L33.7332 23.3816L33.6738 23.3067L32.0803 23.5183L27.1325 16.7841L28.4136 16.6233L28.3543 16.5484L27.057 16.712C27.057 16.712 27.0294 16.727 27.0248 16.7415C27.0201 16.7559 27.0155 16.7703 27.0269 16.782L32.0318 23.5982L32.0662 23.6093L32.0685 23.6021ZM26.2149 15.6518L20.8586 8.37167C20.8472 8.36002 20.845 8.34336 20.8565 8.33114C20.8612 8.3167 20.8727 8.30449 20.8888 8.3017L21.7819 8.19112L21.8413 8.26602L20.9642 8.37382L26.2428 15.5651L27.462 15.4082L27.5214 15.4831L26.2241 15.6468C26.2241 15.6468 26.2172 15.6445 26.2104 15.6423L26.2149 15.6518ZM68.115 63.3948L60.8431 56.0073C60.8293 56.0029 60.8294 55.9791 60.8341 55.9646C60.8387 55.9502 60.8503 55.9379 60.8663 55.9352L62.2187 55.7654L62.2849 55.8425L60.9555 56.0117L68.1337 63.3132L69.1578 63.1731L69.224 63.2502L68.1219 63.3971C68.1219 63.3971 68.115 63.3948 68.1081 63.3926L68.115 63.3948ZM59.7831 54.9167L53.8614 48.8967C53.8476 48.8922 53.8477 48.8684 53.8524 48.8539C53.857 48.8395 53.8686 48.8273 53.8846 48.8245L55.5309 48.614L55.5971 48.6911L53.9761 48.8938L59.811 54.8301L61.1886 54.6525L61.2548 54.7297L59.7923 54.9117C59.7923 54.9117 59.7854 54.9095 59.7785 54.9073L59.7831 54.9167Z" fill="#C2C1B7"/>
<path d="M63.5073 33.447C61.3684 33.4908 58.7272 33.9863 55.8603 34.6879L58.8276 32.0265L64.431 31.0753L63.505 33.4542L63.5073 33.447Z" fill="#A32B1D"/>
<defs>
<linearGradient id="paint0_linear_79_1464" x1="19.7497" y1="48.5456" x2="18.7063" y2="49.4523" gradientUnits="userSpaceOnUse">
<stop stop-color="#494644"/>
<stop offset="0.08" stop-color="#4F4C4A"/>
<stop offset="0.31" stop-color="#5D5957"/>
<stop offset="0.5" stop-color="#625E5C"/>
<stop offset="0.92" stop-color="#4D4A48"/>
<stop offset="1" stop-color="#494644"/>
</linearGradient>
<linearGradient id="paint1_linear_79_1464" x1="20.2125" y1="49.0803" x2="19.1692" y2="49.9869" gradientUnits="userSpaceOnUse">
<stop stop-color="#494644"/>
<stop offset="0.08" stop-color="#4F4C4A"/>
<stop offset="0.31" stop-color="#5D5957"/>
<stop offset="0.5" stop-color="#625E5C"/>
<stop offset="0.92" stop-color="#4D4A48"/>
<stop offset="1" stop-color="#494644"/>
</linearGradient>
<linearGradient id="paint2_linear_79_1464" x1="40.8411" y1="44.6792" x2="39.7578" y2="45.6161" gradientUnits="userSpaceOnUse">
<stop stop-color="#494644"/>
<stop offset="0.08" stop-color="#4F4C4A"/>
<stop offset="0.31" stop-color="#5D5957"/>
<stop offset="0.5" stop-color="#625E5C"/>
<stop offset="0.92" stop-color="#4D4A48"/>
<stop offset="1" stop-color="#494644"/>
</linearGradient>
<linearGradient id="paint3_linear_79_1464" x1="41.3189" y1="45.2333" x2="40.2421" y2="46.1727" gradientUnits="userSpaceOnUse">
<stop stop-color="#494644"/>
<stop offset="0.08" stop-color="#4F4C4A"/>
<stop offset="0.31" stop-color="#5D5957"/>
<stop offset="0.5" stop-color="#625E5C"/>
<stop offset="0.92" stop-color="#4D4A48"/>
<stop offset="1" stop-color="#494644"/>
</linearGradient>
<linearGradient id="paint4_linear_79_1464" x1="39.5807" y1="44.977" x2="38.5039" y2="45.9165" gradientUnits="userSpaceOnUse">
<stop stop-color="#494644"/>
<stop offset="0.08" stop-color="#4F4C4A"/>
<stop offset="0.31" stop-color="#5D5957"/>
<stop offset="0.5" stop-color="#625E5C"/>
<stop offset="0.92" stop-color="#4D4A48"/>
<stop offset="1" stop-color="#494644"/>
</linearGradient>
<linearGradient id="paint5_linear_79_1464" x1="40.0648" y1="45.5331" x2="38.9815" y2="46.47" gradientUnits="userSpaceOnUse">
<stop stop-color="#494644"/>
<stop offset="0.08" stop-color="#4F4C4A"/>
<stop offset="0.31" stop-color="#5D5957"/>
<stop offset="0.5" stop-color="#625E5C"/>
<stop offset="0.92" stop-color="#4D4A48"/>
<stop offset="1" stop-color="#494644"/>
</linearGradient>
<linearGradient id="paint6_linear_79_1464" x1="38.3266" y1="45.2769" x2="37.2433" y2="46.2137" gradientUnits="userSpaceOnUse">
<stop stop-color="#494644"/>
<stop offset="0.08" stop-color="#4F4C4A"/>
<stop offset="0.31" stop-color="#5D5957"/>
<stop offset="0.5" stop-color="#625E5C"/>
<stop offset="0.92" stop-color="#4D4A48"/>
<stop offset="1" stop-color="#494644"/>
</linearGradient>
<linearGradient id="paint7_linear_79_1464" x1="38.8108" y1="45.833" x2="37.7275" y2="46.7699" gradientUnits="userSpaceOnUse">
<stop stop-color="#494644"/>
<stop offset="0.08" stop-color="#4F4C4A"/>
<stop offset="0.31" stop-color="#5D5957"/>
<stop offset="0.5" stop-color="#625E5C"/>
<stop offset="0.92" stop-color="#4D4A48"/>
<stop offset="1" stop-color="#494644"/>
</linearGradient>
<linearGradient id="paint8_linear_79_1464" x1="38.3608" y1="36.7584" x2="40.1695" y2="44.4008" gradientUnits="userSpaceOnUse">
<stop stop-color="#F5F4EC"/>
<stop offset="0.21" stop-color="#F1F0E7"/>
<stop offset="0.42" stop-color="#E5E4DB"/>
<stop offset="0.63" stop-color="#D2D1C7"/>
<stop offset="0.76" stop-color="#C2C1B7"/>
<stop offset="0.95" stop-color="#C5C4BA"/>
<stop offset="1" stop-color="#C8C7BD"/>
</linearGradient>
<linearGradient id="paint9_linear_79_1464" x1="38.416" y1="37.0503" x2="40.1832" y2="44.4911" gradientUnits="userSpaceOnUse">
<stop stop-color="#CC4333"/>
<stop offset="0.35" stop-color="#B63627"/>
<stop offset="0.7" stop-color="#A82D1F"/>
<stop offset="1" stop-color="#A32B1D"/>
</linearGradient>
<linearGradient id="paint10_linear_79_1464" x1="20.8012" y1="20.6389" x2="21.5863" y2="23.9254" gradientUnits="userSpaceOnUse">
<stop stop-color="#F5F4EC"/>
<stop offset="0.21" stop-color="#F1F0E7"/>
<stop offset="0.42" stop-color="#E5E4DB"/>
<stop offset="0.63" stop-color="#D2D1C7"/>
<stop offset="0.76" stop-color="#C2C1B7"/>
<stop offset="0.95" stop-color="#C5C4BA"/>
<stop offset="1" stop-color="#C8C7BD"/>
</linearGradient>
<linearGradient id="paint11_linear_79_1464" x1="19.3384" y1="24.5069" x2="19.9448" y2="20.3855" gradientUnits="userSpaceOnUse">
<stop/>
<stop offset="0.13" stop-color="#171717"/>
<stop offset="0.39" stop-color="#555552"/>
<stop offset="0.77" stop-color="#B7B6B0"/>
<stop offset="1" stop-color="#F5F4EC"/>
</linearGradient>
<linearGradient id="paint12_linear_79_1464" x1="24.7226" y1="27.8477" x2="25.5068" y2="31.1272" gradientUnits="userSpaceOnUse">
<stop stop-color="#F5F4EC"/>
<stop offset="0.21" stop-color="#F1F0E7"/>
<stop offset="0.42" stop-color="#E5E4DB"/>
<stop offset="0.63" stop-color="#D2D1C7"/>
<stop offset="0.76" stop-color="#C2C1B7"/>
<stop offset="0.95" stop-color="#C5C4BA"/>
<stop offset="1" stop-color="#C8C7BD"/>
</linearGradient>
<linearGradient id="paint13_linear_79_1464" x1="23.2614" y1="31.7144" x2="23.8678" y2="27.5931" gradientUnits="userSpaceOnUse">
<stop/>
<stop offset="0.13" stop-color="#171717"/>
<stop offset="0.39" stop-color="#555552"/>
<stop offset="0.77" stop-color="#B7B6B0"/>
<stop offset="1" stop-color="#F5F4EC"/>
</linearGradient>
<linearGradient id="paint14_linear_79_1464" x1="43.387" y1="33.4945" x2="33.4812" y2="42.0793" gradientUnits="userSpaceOnUse">
<stop stop-color="#E3E2D9"/>
<stop offset="0.08" stop-color="#E8E7DE"/>
<stop offset="0.3" stop-color="#F1F0E8"/>
<stop offset="0.58" stop-color="#F5F4EC"/>
<stop offset="0.76" stop-color="#F2F1E9"/>
<stop offset="0.89" stop-color="#E9E8E0"/>
<stop offset="1" stop-color="#DBDAD0"/>
</linearGradient>
<linearGradient id="paint15_linear_79_1464" x1="44.2396" y1="50.3606" x2="45.0168" y2="53.6414" gradientUnits="userSpaceOnUse">
<stop stop-color="#F5F4EC"/>
<stop offset="0.21" stop-color="#F1F0E7"/>
<stop offset="0.42" stop-color="#E5E4DB"/>
<stop offset="0.63" stop-color="#D2D1C7"/>
<stop offset="0.76" stop-color="#C2C1B7"/>
<stop offset="0.95" stop-color="#C5C4BA"/>
<stop offset="1" stop-color="#C8C7BD"/>
</linearGradient>
<linearGradient id="paint16_linear_79_1464" x1="42.7756" y1="54.2249" x2="43.3819" y2="50.1035" gradientUnits="userSpaceOnUse">
<stop/>
<stop offset="0.13" stop-color="#171717"/>
<stop offset="0.39" stop-color="#555552"/>
<stop offset="0.77" stop-color="#B7B6B0"/>
<stop offset="1" stop-color="#F5F4EC"/>
</linearGradient>
<linearGradient id="paint17_linear_79_1464" x1="52.1493" y1="56.6177" x2="52.9265" y2="59.8985" gradientUnits="userSpaceOnUse">
<stop stop-color="#F5F4EC"/>
<stop offset="0.21" stop-color="#F1F0E7"/>
<stop offset="0.42" stop-color="#E5E4DB"/>
<stop offset="0.63" stop-color="#D2D1C7"/>
<stop offset="0.76" stop-color="#C2C1B7"/>
<stop offset="0.95" stop-color="#C5C4BA"/>
<stop offset="1" stop-color="#C8C7BD"/>
</linearGradient>
<linearGradient id="paint18_linear_79_1464" x1="50.6893" y1="60.4806" x2="51.2935" y2="56.3659" gradientUnits="userSpaceOnUse">
<stop/>
<stop offset="0.13" stop-color="#171717"/>
<stop offset="0.39" stop-color="#555552"/>
<stop offset="0.77" stop-color="#B7B6B0"/>
<stop offset="1" stop-color="#F5F4EC"/>
</linearGradient>
<linearGradient id="paint19_linear_79_1464" x1="65.0249" y1="23.268" x2="65.4029" y2="24.8491" gradientUnits="userSpaceOnUse">
<stop stop-color="#F5F4EC"/>
<stop offset="0.5" stop-color="#D8D7CD"/>
<stop offset="0.95" stop-color="#C2C1B7"/>
</linearGradient>
<linearGradient id="paint20_linear_79_1464" x1="62.6108" y1="23.8388" x2="62.9909" y2="25.4131" gradientUnits="userSpaceOnUse">
<stop stop-color="#F5F4EC"/>
<stop offset="0.27" stop-color="#F1F0E7"/>
<stop offset="0.55" stop-color="#E5E4DB"/>
<stop offset="0.83" stop-color="#D2D1C7"/>
<stop offset="1" stop-color="#C2C1B7"/>
</linearGradient>
<linearGradient id="paint21_linear_79_1464" x1="20.2353" y1="45.3306" x2="17.0267" y2="42.9103" gradientUnits="userSpaceOnUse">
<stop stop-color="#1C1C1B"/>
<stop offset="0.47" stop-color="#252523"/>
<stop offset="0.5" stop-color="#262624"/>
<stop offset="1" stop-color="#353532"/>
</linearGradient>
</defs>
</svg>
