<svg width="36" height="36" viewBox="0 0 36 36" fill="none" xmlns="http://www.w3.org/2000/svg">
<g clip-path="url(#clip0_79_1458)">
<path d="M23.0946 6.03031C22.0357 5.86012 20.9649 6.26482 20.286 7.09604L13.3639 15.5733C12.8839 16.1611 12.128 16.4526 11.3761 16.3379L7.24908 15.7111C6.21973 15.5547 5.17054 15.6334 4.17601 15.9386L3.53062 16.1371C3.01526 16.2961 2.90509 16.9769 3.34377 17.2901L3.89333 17.6819C4.73919 18.2858 5.71252 18.6901 6.73804 18.8645L10.854 19.5685C11.6026 19.6965 12.2293 20.2115 12.4996 20.9206L16.4015 31.1477C16.7833 32.1503 17.6728 32.874 18.7317 33.0442C17.1811 28.618 16.7462 23.3329 16.628 21.137C16.6119 20.838 16.8779 20.6016 17.1757 20.6512L17.2599 21.5558C17.3009 21.9958 17.6743 22.3313 18.1168 22.3225L19.3063 22.3002C19.4663 22.2976 19.6223 22.2414 19.7481 22.1403C19.8793 22.035 20.0412 21.9774 20.2085 21.9795L20.6351 21.9836L20.1828 21.8276C20.0427 21.779 19.9196 21.6877 19.8324 21.5682L19.6862 21.365L19.4451 21.0424L20.3184 21.1912C20.8788 21.2858 21.4503 21.3109 22.0151 21.2627L24.8668 21.0217L25.4868 24.1563C25.6196 24.8286 26.1974 25.3202 26.8806 25.3425L27.9159 25.3776L27.0084 20.8407L27.8027 20.773C27.9327 20.7615 27.962 20.5835 27.8415 20.5321L27.1095 20.218L29.3984 16.1967L28.398 15.9029C27.7443 15.7104 27.0456 15.9924 26.706 16.5804L25.1051 19.3599L22.5031 18.2454C21.9796 18.021 21.4305 17.8646 20.8691 17.7795L19.9931 17.6469L20.3243 17.4164L20.5275 17.2702C20.647 17.183 20.7924 17.1353 20.9417 17.1335L21.4207 17.1276L21.0143 16.9959C20.855 16.9453 20.7179 16.8399 20.6272 16.6977C20.5397 16.5627 20.4111 16.4601 20.2589 16.4063L19.1376 16.0098C18.7201 15.8633 18.2605 16.063 18.0834 16.4685L17.7181 17.3007C17.4216 17.257 17.2428 16.9487 17.3526 16.6688C18.1561 14.6219 20.2339 9.74275 23.0987 6.02784L23.0946 6.03031Z" fill="#3D0046"/>
</g>
<defs>
<clipPath id="clip0_79_1458">
<rect width="25.6768" height="25.3645" fill="white" transform="translate(21.6421 35.1962) rotate(-147.444)"/>
</clipPath>
</defs>
</svg>
