<svg width="450" height="511" viewBox="0 0 450 511" fill="none" xmlns="http://www.w3.org/2000/svg">
<path d="M220.947 9.15146C279.256 9.15147 335.188 35.0631 376.435 81.205C417.683 127.349 440.863 189.942 440.863 255.217C440.863 320.492 417.683 383.086 376.435 429.229C335.188 475.371 279.256 501.283 220.947 501.283" stroke="white" stroke-width="0.857372" stroke-dasharray="3.43 3.43"/>
<path d="M214.942 14.314C215.061 14.377 215.061 14.4837 214.942 14.5468C214.823 14.6098 214.626 14.6098 214.506 14.5468C214.387 14.4837 214.387 14.377 214.506 14.314C214.626 14.251 214.823 14.251 214.942 14.314Z" fill="white"/>
<path d="M216.077 13.703C216.197 13.7661 216.197 13.8728 216.077 13.9358C215.958 13.9989 215.761 13.9989 215.642 13.9358C215.523 13.8728 215.523 13.7661 215.642 13.703C215.761 13.64 215.958 13.64 216.077 13.703Z" fill="white"/>
<path d="M213.806 13.703C213.926 13.7661 213.926 13.8728 213.806 13.9358C213.687 13.9989 213.49 13.9989 213.371 13.9358C213.252 13.8728 213.252 13.7661 213.371 13.703C213.49 13.64 213.687 13.64 213.806 13.703Z" fill="white"/>
<path d="M214.942 13.092C215.061 13.1551 215.061 13.2617 214.942 13.3248C214.823 13.3878 214.626 13.3878 214.506 13.3248C214.387 13.2617 214.387 13.1551 214.506 13.092C214.626 13.029 214.823 13.029 214.942 13.092Z" fill="white"/>
<path d="M213.806 12.4811C213.926 12.5442 213.926 12.6508 213.806 12.7139C213.687 12.7769 213.49 12.7769 213.371 12.7139C213.252 12.6508 213.252 12.5442 213.371 12.4811C213.49 12.4181 213.687 12.4181 213.806 12.4811Z" fill="white"/>
<path d="M222.901 17.3546C223.021 17.4176 223.021 17.5243 222.901 17.5874C222.782 17.6504 222.585 17.6504 222.466 17.5874C222.347 17.5243 222.347 17.4176 222.466 17.3546C222.585 17.2916 222.782 17.2916 222.901 17.3546Z" fill="white"/>
<path d="M224.037 16.7436C224.156 16.8067 224.156 16.9134 224.037 16.9764C223.918 17.0394 223.721 17.0394 223.601 16.9764C223.482 16.9134 223.482 16.8067 223.601 16.7436C223.721 16.6806 223.918 16.6806 224.037 16.7436Z" fill="white"/>
<path d="M225.172 16.1277C225.292 16.1908 225.292 16.2975 225.172 16.3605C225.053 16.4235 224.856 16.4235 224.737 16.3605C224.618 16.2975 224.618 16.1908 224.737 16.1277C224.856 16.0647 225.053 16.0647 225.172 16.1277Z" fill="white"/>
<path d="M226.308 15.5167C226.427 15.5797 226.427 15.6864 226.308 15.7495C226.189 15.8125 225.992 15.8125 225.872 15.7495C225.753 15.6864 225.753 15.5797 225.872 15.5167C225.992 15.4537 226.189 15.4537 226.308 15.5167Z" fill="white"/>
<path d="M227.438 14.9057C227.558 14.9687 227.558 15.0754 227.438 15.1384C227.319 15.2015 227.122 15.2015 227.003 15.1384C226.884 15.0754 226.884 14.9687 227.003 14.9057C227.122 14.8426 227.319 14.8426 227.438 14.9057Z" fill="white"/>
<path d="M228.574 14.2947C228.693 14.3578 228.693 14.4644 228.574 14.5275C228.455 14.5905 228.258 14.5905 228.138 14.5275C228.019 14.4644 228.019 14.3578 228.138 14.2947C228.258 14.2317 228.455 14.2317 228.574 14.2947Z" fill="white"/>
<path d="M220.635 17.3546C220.755 17.4176 220.755 17.5243 220.635 17.5874C220.516 17.6504 220.319 17.6504 220.2 17.5874C220.081 17.5243 220.081 17.4176 220.2 17.3546C220.319 17.2916 220.516 17.2916 220.635 17.3546Z" fill="white"/>
<path d="M221.771 16.7436C221.89 16.8067 221.89 16.9134 221.771 16.9764C221.652 17.0394 221.455 17.0394 221.335 16.9764C221.216 16.9134 221.216 16.8067 221.335 16.7436C221.455 16.6806 221.652 16.6806 221.771 16.7436Z" fill="white"/>
<path d="M222.901 16.1325C223.021 16.1956 223.021 16.3023 222.901 16.3653C222.782 16.4284 222.585 16.4284 222.466 16.3653C222.347 16.3023 222.347 16.1956 222.466 16.1325C222.585 16.0695 222.782 16.0695 222.901 16.1325Z" fill="white"/>
<path d="M224.037 15.5167C224.156 15.5797 224.156 15.6864 224.037 15.7495C223.918 15.8125 223.721 15.8125 223.601 15.7495C223.482 15.6864 223.482 15.5797 223.601 15.5167C223.721 15.4537 223.918 15.4537 224.037 15.5167Z" fill="white"/>
<path d="M225.172 14.9057C225.292 14.9687 225.292 15.0754 225.172 15.1384C225.053 15.2015 224.856 15.2015 224.737 15.1384C224.618 15.0754 224.618 14.9687 224.737 14.9057C224.856 14.8426 225.053 14.8426 225.172 14.9057Z" fill="white"/>
<path d="M226.308 14.2947C226.427 14.3578 226.427 14.4644 226.308 14.5275C226.189 14.5905 225.992 14.5905 225.872 14.5275C225.753 14.4644 225.753 14.3578 225.872 14.2947C225.992 14.2317 226.189 14.2317 226.308 14.2947Z" fill="white"/>
<path d="M227.438 13.6788C227.558 13.7419 227.558 13.8485 227.438 13.9116C227.319 13.9746 227.122 13.9746 227.003 13.9116C226.884 13.8485 226.884 13.7419 227.003 13.6788C227.122 13.6158 227.319 13.6158 227.438 13.6788Z" fill="white"/>
<path d="M228.574 13.0677C228.693 13.1308 228.693 13.2375 228.574 13.3005C228.455 13.3635 228.258 13.3635 228.138 13.3005C228.019 13.2375 228.019 13.1308 228.138 13.0677C228.258 13.0047 228.455 13.0047 228.574 13.0677Z" fill="white"/>
<path d="M219.489 16.7339C219.609 16.797 219.609 16.9037 219.489 16.9667C219.37 17.0297 219.173 17.0297 219.054 16.9667C218.935 16.9037 218.935 16.797 219.054 16.7339C219.173 16.6709 219.37 16.6709 219.489 16.7339Z" fill="white"/>
<path d="M220.625 16.1229C220.744 16.1859 220.744 16.2926 220.625 16.3557C220.506 16.4187 220.309 16.4187 220.189 16.3557C220.07 16.2926 220.07 16.1859 220.189 16.1229C220.309 16.0599 220.506 16.0599 220.625 16.1229Z" fill="white"/>
<path d="M221.761 15.5119C221.88 15.5749 221.88 15.6816 221.761 15.7446C221.641 15.8077 221.444 15.8077 221.325 15.7446C221.206 15.6816 221.206 15.5749 221.325 15.5119C221.444 15.4488 221.641 15.4488 221.761 15.5119Z" fill="white"/>
<path d="M222.896 14.9009C223.015 14.964 223.015 15.0706 222.896 15.1337C222.777 15.1967 222.58 15.1967 222.461 15.1337C222.341 15.0706 222.341 14.964 222.461 14.9009C222.58 14.8379 222.777 14.8379 222.896 14.9009Z" fill="white"/>
<path d="M224.027 14.285C224.146 14.348 224.146 14.4547 224.027 14.5177C223.907 14.5808 223.71 14.5808 223.591 14.5177C223.472 14.4547 223.472 14.348 223.591 14.285C223.71 14.2219 223.907 14.2219 224.027 14.285Z" fill="white"/>
<path d="M225.162 13.6739C225.281 13.7369 225.281 13.8436 225.162 13.9066C225.043 13.9697 224.846 13.9697 224.727 13.9066C224.607 13.8436 224.607 13.7369 224.727 13.6739C224.846 13.6108 225.043 13.6108 225.162 13.6739Z" fill="white"/>
<path d="M226.298 13.0629C226.417 13.1259 226.417 13.2326 226.298 13.2957C226.178 13.3587 225.981 13.3587 225.862 13.2957C225.743 13.2326 225.743 13.1259 225.862 13.0629C225.981 12.9999 226.178 12.9999 226.298 13.0629Z" fill="white"/>
<path d="M227.428 12.4519C227.547 12.5149 227.547 12.6216 227.428 12.6847C227.309 12.7477 227.112 12.7477 226.993 12.6847C226.873 12.6216 226.873 12.5149 226.993 12.4519C227.112 12.3888 227.309 12.3888 227.428 12.4519Z" fill="white"/>
<path d="M218.359 16.1229C218.478 16.1859 218.478 16.2926 218.359 16.3557C218.24 16.4187 218.043 16.4187 217.923 16.3557C217.804 16.2926 217.804 16.1859 217.923 16.1229C218.043 16.0599 218.24 16.0599 218.359 16.1229Z" fill="white"/>
<path d="M219.489 15.5119C219.609 15.5749 219.609 15.6816 219.489 15.7446C219.37 15.8077 219.173 15.8077 219.054 15.7446C218.935 15.6816 218.935 15.5749 219.054 15.5119C219.173 15.4488 219.37 15.4488 219.489 15.5119Z" fill="white"/>
<path d="M220.625 15.1336C220.506 15.1967 220.309 15.1967 220.189 15.1336C220.07 15.0706 220.07 14.9639 220.189 14.9009C220.309 14.8378 220.744 15.0706 220.625 15.1336Z" fill="white"/>
<path d="M217.223 15.5119C217.343 15.5749 217.343 15.6816 217.223 15.7446C217.104 15.8077 216.907 15.8077 216.788 15.7446C216.669 15.6816 216.669 15.5749 216.788 15.5119C216.907 15.4488 217.104 15.4488 217.223 15.5119Z" fill="white"/>
<path d="M218.359 14.9009C218.478 14.964 218.478 15.0706 218.359 15.1337C218.24 15.1967 218.043 15.1967 217.923 15.1337C217.804 15.0706 217.804 14.964 217.923 14.9009C218.043 14.8379 218.24 14.8379 218.359 14.9009Z" fill="white"/>
<path d="M216.088 14.9009C216.207 14.964 216.207 15.0706 216.088 15.1337C215.969 15.1967 215.772 15.1967 215.652 15.1337C215.533 15.0706 215.533 14.964 215.652 14.9009C215.772 14.8379 215.969 14.8379 216.088 14.9009Z" fill="white"/>
<path d="M217.223 14.285C217.343 14.348 217.343 14.4547 217.223 14.5177C217.104 14.5808 216.907 14.5808 216.788 14.5177C216.669 14.4547 216.669 14.348 216.788 14.285C216.907 14.2219 217.104 14.2219 217.223 14.285Z" fill="white"/>
<path d="M227.273 4.0528L220.319 0.299377L213.366 4.0528V11.5645L220.319 15.3179V7.82561L227.273 4.0528Z" fill="#E1E2E3"/>
<path d="M227.413 3.98005L220.319 0.149048L213.252 3.96551L213.231 3.9752V4.12553V11.6324L220.184 15.3858L220.324 15.4634L220.464 15.3858L227.345 11.6712L227.413 11.6324V4.12553V3.9752V3.98005ZM220.319 0.44971L223.586 2.21488L216.912 5.81797L213.646 4.05279L220.319 0.44971ZM220.179 15.09L213.506 11.4869V4.28071L220.179 7.8838V15.09ZM223.15 6.12833L220.319 7.65588L217.052 5.8907L223.726 2.28762L226.993 4.05279L223.15 6.12833Z" fill="#494949"/>
<path d="M217.56 7.81588L216.269 7.11758C216.129 7.03999 215.984 7.03514 215.865 7.09818C215.73 7.17092 215.652 7.3261 215.652 7.52007C215.652 7.84983 215.865 8.21838 216.129 8.36387L217.42 9.06217C217.498 9.10582 217.576 9.12522 217.654 9.12522C217.716 9.12522 217.773 9.11067 217.83 9.08157C217.965 9.00883 218.043 8.85365 218.043 8.65968C218.043 8.32992 217.835 7.96137 217.566 7.81588H217.56ZM217.69 8.85365C217.649 8.87305 217.592 8.85365 217.56 8.83425L216.269 8.13594C216.088 8.03896 215.932 7.75284 215.932 7.52007C215.932 7.40369 215.969 7.34065 216.005 7.3261C216.046 7.30185 216.103 7.3261 216.135 7.34549L216.223 7.39399C216.254 7.67525 216.435 7.97106 216.658 8.0923L217.758 8.68392C217.752 8.78091 217.721 8.83425 217.69 8.85365Z" fill="white"/>
<path d="M435.286 236.374C435.406 236.437 435.406 236.543 435.286 236.606C435.167 236.669 434.97 236.669 434.851 236.606C434.732 236.543 434.732 236.437 434.851 236.374C434.97 236.31 435.167 236.31 435.286 236.374Z" fill="white"/>
<path d="M436.422 235.762C436.541 235.826 436.541 235.932 436.422 235.995C436.303 236.058 436.106 236.058 435.986 235.995C435.867 235.932 435.867 235.826 435.986 235.762C436.106 235.699 436.303 235.699 436.422 235.762Z" fill="white"/>
<path d="M434.151 235.762C434.27 235.826 434.27 235.932 434.151 235.995C434.032 236.058 433.835 236.058 433.715 235.995C433.596 235.932 433.596 235.826 433.715 235.762C433.835 235.699 434.032 235.699 434.151 235.762Z" fill="white"/>
<path d="M435.286 235.152C435.406 235.215 435.406 235.321 435.286 235.384C435.167 235.447 434.97 235.447 434.851 235.384C434.732 235.321 434.732 235.215 434.851 235.152C434.97 235.088 435.167 235.088 435.286 235.152Z" fill="white"/>
<path d="M434.151 234.541C434.27 234.604 434.27 234.71 434.151 234.773C434.032 234.836 433.835 234.836 433.715 234.773C433.596 234.71 433.596 234.604 433.715 234.541C433.835 234.478 434.032 234.478 434.151 234.541Z" fill="white"/>
<path d="M443.246 239.414C443.365 239.477 443.365 239.584 443.246 239.647C443.127 239.71 442.93 239.71 442.81 239.647C442.691 239.584 442.691 239.477 442.81 239.414C442.93 239.351 443.127 239.351 443.246 239.414Z" fill="white"/>
<path d="M444.381 238.803C444.501 238.866 444.501 238.973 444.381 239.036C444.262 239.099 444.065 239.099 443.946 239.036C443.827 238.973 443.827 238.866 443.946 238.803C444.065 238.74 444.262 238.74 444.381 238.803Z" fill="white"/>
<path d="M445.517 238.187C445.636 238.25 445.636 238.357 445.517 238.42C445.398 238.483 445.201 238.483 445.081 238.42C444.962 238.357 444.962 238.25 445.081 238.187C445.201 238.124 445.398 238.124 445.517 238.187Z" fill="white"/>
<path d="M446.653 237.576C446.772 237.639 446.772 237.746 446.653 237.809C446.533 237.872 446.336 237.872 446.217 237.809C446.098 237.746 446.098 237.639 446.217 237.576C446.336 237.513 446.533 237.513 446.653 237.576Z" fill="white"/>
<path d="M447.783 236.965C447.902 237.028 447.902 237.135 447.783 237.198C447.664 237.261 447.467 237.261 447.347 237.198C447.228 237.135 447.228 237.028 447.347 236.965C447.467 236.902 447.664 236.902 447.783 236.965Z" fill="white"/>
<path d="M448.919 236.354C449.038 236.417 449.038 236.524 448.919 236.587C448.799 236.65 448.602 236.65 448.483 236.587C448.364 236.524 448.364 236.417 448.483 236.354C448.602 236.291 448.799 236.291 448.919 236.354Z" fill="white"/>
<path d="M440.98 239.414C441.099 239.477 441.099 239.584 440.98 239.647C440.861 239.71 440.664 239.71 440.544 239.647C440.425 239.584 440.425 239.477 440.544 239.414C440.664 239.351 440.861 239.351 440.98 239.414Z" fill="white"/>
<path d="M442.116 238.803C442.235 238.866 442.235 238.973 442.116 239.036C441.996 239.099 441.799 239.099 441.68 239.036C441.561 238.973 441.561 238.866 441.68 238.803C441.799 238.74 441.996 238.74 442.116 238.803Z" fill="white"/>
<path d="M443.246 238.192C443.365 238.255 443.365 238.362 443.246 238.425C443.127 238.488 442.93 238.488 442.81 238.425C442.691 238.362 442.691 238.255 442.81 238.192C442.93 238.129 443.127 238.129 443.246 238.192Z" fill="white"/>
<path d="M444.381 237.576C444.501 237.639 444.501 237.746 444.381 237.809C444.262 237.872 444.065 237.872 443.946 237.809C443.827 237.746 443.827 237.639 443.946 237.576C444.065 237.513 444.262 237.513 444.381 237.576Z" fill="white"/>
<path d="M445.517 236.965C445.636 237.028 445.636 237.135 445.517 237.198C445.398 237.261 445.201 237.261 445.081 237.198C444.962 237.135 444.962 237.028 445.081 236.965C445.201 236.902 445.398 236.902 445.517 236.965Z" fill="white"/>
<path d="M446.653 236.354C446.772 236.417 446.772 236.524 446.653 236.587C446.533 236.65 446.336 236.65 446.217 236.587C446.098 236.524 446.098 236.417 446.217 236.354C446.336 236.291 446.533 236.291 446.653 236.354Z" fill="white"/>
<path d="M447.783 235.738C447.902 235.801 447.902 235.908 447.783 235.971C447.664 236.034 447.467 236.034 447.347 235.971C447.228 235.908 447.228 235.801 447.347 235.738C447.467 235.675 447.664 235.675 447.783 235.738Z" fill="white"/>
<path d="M448.919 235.127C449.038 235.19 449.038 235.297 448.919 235.36C448.799 235.423 448.602 235.423 448.483 235.36C448.364 235.297 448.364 235.19 448.483 235.127C448.602 235.064 448.799 235.064 448.919 235.127Z" fill="white"/>
<path d="M439.834 238.793C439.953 238.856 439.953 238.963 439.834 239.026C439.715 239.089 439.518 239.089 439.398 239.026C439.279 238.963 439.279 238.856 439.398 238.793C439.518 238.73 439.715 238.73 439.834 238.793Z" fill="white"/>
<path d="M440.97 238.182C441.089 238.245 441.089 238.352 440.97 238.415C440.85 238.478 440.653 238.478 440.534 238.415C440.415 238.352 440.415 238.245 440.534 238.182C440.653 238.119 440.85 238.119 440.97 238.182Z" fill="white"/>
<path d="M442.105 237.571C442.224 237.634 442.224 237.741 442.105 237.804C441.986 237.867 441.789 237.867 441.67 237.804C441.55 237.741 441.55 237.634 441.67 237.571C441.789 237.508 441.986 237.508 442.105 237.571Z" fill="white"/>
<path d="M443.241 236.96C443.36 237.023 443.36 237.13 443.241 237.193C443.121 237.256 442.924 237.256 442.805 237.193C442.686 237.13 442.686 237.023 442.805 236.96C442.924 236.897 443.121 236.897 443.241 236.96Z" fill="white"/>
<path d="M444.371 236.345C444.49 236.408 444.49 236.514 444.371 236.577C444.252 236.64 444.055 236.64 443.936 236.577C443.816 236.514 443.816 236.408 443.936 236.345C444.055 236.281 444.252 236.281 444.371 236.345Z" fill="white"/>
<path d="M445.507 235.733C445.626 235.796 445.626 235.903 445.507 235.966C445.387 236.029 445.19 236.029 445.071 235.966C444.952 235.903 444.952 235.796 445.071 235.733C445.19 235.67 445.387 235.67 445.507 235.733Z" fill="white"/>
<path d="M446.642 235.122C446.762 235.185 446.762 235.292 446.642 235.355C446.523 235.418 446.326 235.418 446.207 235.355C446.087 235.292 446.087 235.185 446.207 235.122C446.326 235.059 446.523 235.059 446.642 235.122Z" fill="white"/>
<path d="M447.773 234.511C447.892 234.574 447.892 234.681 447.773 234.744C447.653 234.807 447.456 234.807 447.337 234.744C447.218 234.681 447.218 234.574 447.337 234.511C447.456 234.448 447.653 234.448 447.773 234.511Z" fill="white"/>
<path d="M438.704 238.182C438.823 238.245 438.823 238.352 438.704 238.415C438.584 238.478 438.387 238.478 438.268 238.415C438.149 238.352 438.149 238.245 438.268 238.182C438.387 238.119 438.584 238.119 438.704 238.182Z" fill="white"/>
<path d="M439.834 237.571C439.953 237.634 439.953 237.741 439.834 237.804C439.715 237.867 439.518 237.867 439.398 237.804C439.279 237.741 439.279 237.634 439.398 237.571C439.518 237.508 439.715 237.508 439.834 237.571Z" fill="white"/>
<path d="M440.97 237.193C440.85 237.256 440.653 237.256 440.534 237.193C440.415 237.13 440.415 237.023 440.534 236.96C440.653 236.897 441.089 237.13 440.97 237.193Z" fill="white"/>
<path d="M437.568 237.571C437.687 237.634 437.687 237.741 437.568 237.804C437.449 237.867 437.252 237.867 437.132 237.804C437.013 237.741 437.013 237.634 437.132 237.571C437.252 237.508 437.449 237.508 437.568 237.571Z" fill="white"/>
<path d="M438.704 236.96C438.823 237.023 438.823 237.13 438.704 237.193C438.584 237.256 438.387 237.256 438.268 237.193C438.149 237.13 438.149 237.023 438.268 236.96C438.387 236.897 438.584 236.897 438.704 236.96Z" fill="white"/>
<path d="M436.432 236.96C436.552 237.023 436.552 237.13 436.432 237.193C436.313 237.256 436.116 237.256 435.997 237.193C435.878 237.13 435.878 237.023 435.997 236.96C436.116 236.897 436.313 236.897 436.432 236.96Z" fill="white"/>
<path d="M437.568 236.345C437.687 236.408 437.687 236.514 437.568 236.577C437.449 236.64 437.252 236.64 437.132 236.577C437.013 236.514 437.013 236.408 437.132 236.345C437.252 236.281 437.449 236.281 437.568 236.345Z" fill="white"/>
<path d="M447.617 226.112L440.664 222.359L433.71 226.112V233.624L440.664 237.377V229.885L447.617 226.112Z" fill="#E1E2E3"/>
<path d="M447.757 226.039L440.664 222.208L433.596 226.025L433.575 226.035V226.185V233.692L440.529 237.445L440.669 237.523L440.809 237.445L447.69 233.73L447.757 233.692V226.185V226.035V226.039ZM440.664 222.509L443.93 224.274L437.257 227.877L433.99 226.112L440.664 222.509ZM440.524 237.149L433.85 233.546V226.34L440.524 229.943V237.149ZM443.495 228.188L440.664 229.715L437.397 227.95L444.07 224.347L447.337 226.112L443.495 228.188Z" fill="#494949"/>
<path d="M437.905 229.875L436.614 229.177C436.474 229.099 436.329 229.095 436.209 229.158C436.075 229.23 435.997 229.385 435.997 229.579C435.997 229.909 436.209 230.278 436.474 230.423L437.765 231.122C437.843 231.165 437.921 231.185 437.998 231.185C438.061 231.185 438.118 231.17 438.175 231.141C438.309 231.068 438.387 230.913 438.387 230.719C438.387 230.389 438.18 230.021 437.91 229.875H437.905ZM438.035 230.913C437.993 230.932 437.936 230.913 437.905 230.894L436.614 230.195C436.432 230.098 436.277 229.812 436.277 229.579C436.277 229.463 436.313 229.4 436.349 229.385C436.391 229.361 436.448 229.385 436.479 229.405L436.567 229.453C436.598 229.735 436.78 230.03 437.003 230.152L438.102 230.743C438.097 230.84 438.066 230.894 438.035 230.913Z" fill="white"/>
<path d="M376.128 89.7627C376.247 89.8258 376.247 89.9325 376.128 89.9955C376.009 90.0585 375.812 90.0585 375.692 89.9955C375.573 89.9325 375.573 89.8258 375.692 89.7627C375.812 89.6997 376.009 89.6997 376.128 89.7627Z" fill="white"/>
<path d="M377.263 89.1518C377.383 89.2148 377.383 89.3215 377.263 89.3845C377.144 89.4476 376.947 89.4476 376.828 89.3845C376.709 89.3215 376.709 89.2148 376.828 89.1518C376.947 89.0887 377.144 89.0887 377.263 89.1518Z" fill="white"/>
<path d="M374.992 89.1518C375.112 89.2148 375.112 89.3215 374.992 89.3845C374.873 89.4476 374.676 89.4476 374.557 89.3845C374.437 89.3215 374.437 89.2148 374.557 89.1518C374.676 89.0887 374.873 89.0887 374.992 89.1518Z" fill="white"/>
<path d="M376.128 88.5408C376.247 88.6038 376.247 88.7105 376.128 88.7735C376.009 88.8366 375.812 88.8366 375.692 88.7735C375.573 88.7105 375.573 88.6038 375.692 88.5408C375.812 88.4777 376.009 88.4777 376.128 88.5408Z" fill="white"/>
<path d="M374.992 87.9299C375.112 87.993 375.112 88.0996 374.992 88.1627C374.873 88.2257 374.676 88.2257 374.557 88.1627C374.437 88.0996 374.437 87.993 374.557 87.9299C374.676 87.8669 374.873 87.8669 374.992 87.9299Z" fill="white"/>
<path d="M384.087 92.8033C384.206 92.8664 384.206 92.973 384.087 93.0361C383.968 93.0991 383.771 93.0991 383.652 93.0361C383.532 92.973 383.532 92.8664 383.652 92.8033C383.771 92.7403 383.968 92.7403 384.087 92.8033Z" fill="white"/>
<path d="M385.223 92.1924C385.342 92.2554 385.342 92.3621 385.223 92.4251C385.104 92.4882 384.907 92.4882 384.787 92.4251C384.668 92.3621 384.668 92.2554 384.787 92.1924C384.907 92.1293 385.104 92.1293 385.223 92.1924Z" fill="white"/>
<path d="M386.358 91.5765C386.478 91.6395 386.478 91.7462 386.358 91.8092C386.239 91.8723 386.042 91.8723 385.923 91.8092C385.804 91.7462 385.804 91.6395 385.923 91.5765C386.042 91.5134 386.239 91.5134 386.358 91.5765Z" fill="white"/>
<path d="M387.494 90.9654C387.613 91.0285 387.613 91.1352 387.494 91.1982C387.375 91.2612 387.178 91.2612 387.058 91.1982C386.939 91.1352 386.939 91.0285 387.058 90.9654C387.178 90.9024 387.375 90.9024 387.494 90.9654Z" fill="white"/>
<path d="M388.624 90.3544C388.744 90.4175 388.744 90.5241 388.624 90.5872C388.505 90.6502 388.308 90.6502 388.189 90.5872C388.07 90.5241 388.07 90.4175 388.189 90.3544C388.308 90.2914 388.505 90.2914 388.624 90.3544Z" fill="white"/>
<path d="M389.76 89.7434C389.879 89.8065 389.879 89.9132 389.76 89.9762C389.641 90.0393 389.444 90.0393 389.324 89.9762C389.205 89.9132 389.205 89.8065 389.324 89.7434C389.444 89.6804 389.641 89.6804 389.76 89.7434Z" fill="white"/>
<path d="M381.821 92.8033C381.941 92.8664 381.941 92.973 381.821 93.0361C381.702 93.0991 381.505 93.0991 381.386 93.0361C381.266 92.973 381.266 92.8664 381.386 92.8033C381.505 92.7403 381.702 92.7403 381.821 92.8033Z" fill="white"/>
<path d="M382.957 92.1924C383.076 92.2554 383.076 92.3621 382.957 92.4251C382.838 92.4882 382.641 92.4882 382.521 92.4251C382.402 92.3621 382.402 92.2554 382.521 92.1924C382.641 92.1293 382.838 92.1293 382.957 92.1924Z" fill="white"/>
<path d="M384.087 91.5813C384.206 91.6444 384.206 91.7511 384.087 91.8141C383.968 91.8772 383.771 91.8772 383.652 91.8141C383.532 91.7511 383.532 91.6444 383.652 91.5813C383.771 91.5183 383.968 91.5183 384.087 91.5813Z" fill="white"/>
<path d="M385.223 90.9654C385.342 91.0285 385.342 91.1352 385.223 91.1982C385.104 91.2612 384.907 91.2612 384.787 91.1982C384.668 91.1352 384.668 91.0285 384.787 90.9654C384.907 90.9024 385.104 90.9024 385.223 90.9654Z" fill="white"/>
<path d="M386.358 90.3544C386.478 90.4175 386.478 90.5241 386.358 90.5872C386.239 90.6502 386.042 90.6502 385.923 90.5872C385.804 90.5241 385.804 90.4175 385.923 90.3544C386.042 90.2914 386.239 90.2914 386.358 90.3544Z" fill="white"/>
<path d="M387.494 89.7434C387.613 89.8065 387.613 89.9132 387.494 89.9762C387.375 90.0393 387.178 90.0393 387.058 89.9762C386.939 89.9132 386.939 89.8065 387.058 89.7434C387.178 89.6804 387.375 89.6804 387.494 89.7434Z" fill="white"/>
<path d="M388.624 89.1275C388.744 89.1905 388.744 89.2972 388.624 89.3602C388.505 89.4233 388.308 89.4233 388.189 89.3602C388.07 89.2972 388.07 89.1905 388.189 89.1275C388.308 89.0644 388.505 89.0644 388.624 89.1275Z" fill="white"/>
<path d="M389.76 88.5164C389.879 88.5794 389.879 88.6861 389.76 88.7492C389.641 88.8122 389.444 88.8122 389.324 88.7492C389.205 88.6861 389.205 88.5794 389.324 88.5164C389.444 88.4534 389.641 88.4534 389.76 88.5164Z" fill="white"/>
<path d="M380.675 92.1826C380.795 92.2456 380.795 92.3523 380.675 92.4154C380.556 92.4784 380.359 92.4784 380.24 92.4154C380.121 92.3523 380.121 92.2456 380.24 92.1826C380.359 92.1196 380.556 92.1196 380.675 92.1826Z" fill="white"/>
<path d="M381.811 91.5716C381.93 91.6347 381.93 91.7414 381.811 91.8044C381.692 91.8674 381.495 91.8674 381.375 91.8044C381.256 91.7414 381.256 91.6347 381.375 91.5716C381.495 91.5086 381.692 91.5086 381.811 91.5716Z" fill="white"/>
<path d="M382.946 90.9606C383.066 91.0236 383.066 91.1303 382.946 91.1933C382.827 91.2564 382.63 91.2564 382.511 91.1933C382.392 91.1303 382.392 91.0236 382.511 90.9606C382.63 90.8975 382.827 90.8975 382.946 90.9606Z" fill="white"/>
<path d="M384.082 90.3496C384.201 90.4126 384.201 90.5193 384.082 90.5824C383.963 90.6454 383.766 90.6454 383.646 90.5824C383.527 90.5193 383.527 90.4126 383.646 90.3496C383.766 90.2865 383.963 90.2865 384.082 90.3496Z" fill="white"/>
<path d="M385.212 89.7337C385.332 89.7967 385.332 89.9034 385.212 89.9665C385.093 90.0295 384.896 90.0295 384.777 89.9665C384.658 89.9034 384.658 89.7967 384.777 89.7337C384.896 89.6706 385.093 89.6706 385.212 89.7337Z" fill="white"/>
<path d="M386.348 89.1227C386.467 89.1857 386.467 89.2924 386.348 89.3554C386.229 89.4185 386.032 89.4185 385.912 89.3554C385.793 89.2924 385.793 89.1857 385.912 89.1227C386.032 89.0596 386.229 89.0596 386.348 89.1227Z" fill="white"/>
<path d="M387.484 88.5116C387.603 88.5747 387.603 88.6814 387.484 88.7444C387.364 88.8075 387.167 88.8075 387.048 88.7444C386.929 88.6814 386.929 88.5747 387.048 88.5116C387.167 88.4486 387.364 88.4486 387.484 88.5116Z" fill="white"/>
<path d="M388.614 87.9006C388.733 87.9637 388.733 88.0703 388.614 88.1334C388.495 88.1964 388.298 88.1964 388.178 88.1334C388.059 88.0703 388.059 87.9637 388.178 87.9006C388.298 87.8376 388.495 87.8376 388.614 87.9006Z" fill="white"/>
<path d="M379.545 91.5716C379.664 91.6347 379.664 91.7414 379.545 91.8044C379.426 91.8674 379.229 91.8674 379.109 91.8044C378.99 91.7414 378.99 91.6347 379.109 91.5716C379.229 91.5086 379.426 91.5086 379.545 91.5716Z" fill="white"/>
<path d="M380.675 90.9606C380.795 91.0236 380.795 91.1303 380.675 91.1933C380.556 91.2564 380.359 91.2564 380.24 91.1933C380.121 91.1303 380.121 91.0236 380.24 90.9606C380.359 90.8975 380.556 90.8975 380.675 90.9606Z" fill="white"/>
<path d="M381.811 90.5824C381.692 90.6454 381.495 90.6454 381.375 90.5824C381.256 90.5193 381.256 90.4126 381.375 90.3496C381.495 90.2866 381.93 90.5193 381.811 90.5824Z" fill="white"/>
<path d="M378.409 90.9606C378.529 91.0236 378.529 91.1303 378.409 91.1933C378.29 91.2564 378.093 91.2564 377.974 91.1933C377.854 91.1303 377.854 91.0236 377.974 90.9606C378.093 90.8975 378.29 90.8975 378.409 90.9606Z" fill="white"/>
<path d="M379.545 90.3496C379.664 90.4126 379.664 90.5193 379.545 90.5824C379.426 90.6454 379.229 90.6454 379.109 90.5824C378.99 90.5193 378.99 90.4126 379.109 90.3496C379.229 90.2865 379.426 90.2865 379.545 90.3496Z" fill="white"/>
<path d="M377.274 90.3496C377.393 90.4126 377.393 90.5193 377.274 90.5824C377.155 90.6454 376.957 90.6454 376.838 90.5824C376.719 90.5193 376.719 90.4126 376.838 90.3496C376.957 90.2865 377.155 90.2865 377.274 90.3496Z" fill="white"/>
<path d="M378.409 89.7337C378.529 89.7967 378.529 89.9034 378.409 89.9665C378.29 90.0295 378.093 90.0295 377.974 89.9665C377.854 89.9034 377.854 89.7967 377.974 89.7337C378.093 89.6706 378.29 89.6706 378.409 89.7337Z" fill="white"/>
<path d="M388.458 79.5015L381.505 75.7481L374.551 79.5015V87.0132L381.505 90.7666V83.2743L388.458 79.5015Z" fill="#E1E2E3"/>
<path d="M388.598 79.4288L381.505 75.5978L374.437 79.4142L374.417 79.4239V79.5743V87.0811L381.37 90.8345L381.51 90.9121L381.65 90.8345L388.531 87.1199L388.598 87.0811V79.5743V79.4239V79.4288ZM381.505 75.8984L384.772 77.6636L378.098 81.2667L374.831 79.5015L381.505 75.8984ZM381.365 90.5387L374.691 86.9356V79.7294L381.365 83.3325V90.5387ZM384.336 81.5771L381.505 83.1046L378.238 81.3394L384.912 77.7363L388.178 79.5015L384.336 81.5771Z" fill="#494949"/>
<path d="M378.746 83.2646L377.455 82.5663C377.315 82.4887 377.17 82.4839 377.051 82.5469C376.916 82.6196 376.838 82.7748 376.838 82.9688C376.838 83.2986 377.051 83.6671 377.315 83.8126L378.606 84.5109C378.684 84.5545 378.762 84.5739 378.84 84.5739C378.902 84.5739 378.959 84.5594 379.016 84.5303C379.151 84.4576 379.229 84.3024 379.229 84.1084C379.229 83.7787 379.021 83.4101 378.752 83.2646H378.746ZM378.876 84.3024C378.835 84.3218 378.777 84.3024 378.746 84.283L377.455 83.5847C377.274 83.4877 377.118 83.2016 377.118 82.9688C377.118 82.8524 377.154 82.7894 377.191 82.7748C377.232 82.7506 377.289 82.7748 377.32 82.7942L377.409 82.8427C377.44 83.124 377.621 83.4198 377.844 83.541L378.943 84.1327C378.938 84.2296 378.907 84.283 378.876 84.3024Z" fill="white"/>
<path d="M425.855 336.686C425.975 336.749 425.975 336.856 425.855 336.919C425.736 336.982 425.539 336.982 425.42 336.919C425.301 336.856 425.301 336.749 425.42 336.686C425.539 336.623 425.736 336.623 425.855 336.686Z" fill="white"/>
<path d="M426.991 336.075C427.11 336.138 427.11 336.245 426.991 336.308C426.872 336.371 426.675 336.371 426.555 336.308C426.436 336.245 426.436 336.138 426.555 336.075C426.675 336.012 426.872 336.012 426.991 336.075Z" fill="white"/>
<path d="M424.72 336.075C424.839 336.138 424.839 336.245 424.72 336.308C424.601 336.371 424.404 336.371 424.284 336.308C424.165 336.245 424.165 336.138 424.284 336.075C424.404 336.012 424.601 336.012 424.72 336.075Z" fill="white"/>
<path d="M425.855 335.464C425.975 335.527 425.975 335.634 425.855 335.697C425.736 335.76 425.539 335.76 425.42 335.697C425.301 335.634 425.301 335.527 425.42 335.464C425.539 335.401 425.736 335.401 425.855 335.464Z" fill="white"/>
<path d="M424.72 334.853C424.839 334.916 424.839 335.023 424.72 335.086C424.601 335.149 424.404 335.149 424.284 335.086C424.165 335.023 424.165 334.916 424.284 334.853C424.404 334.79 424.601 334.79 424.72 334.853Z" fill="white"/>
<path d="M433.815 339.726C433.934 339.789 433.934 339.896 433.815 339.959C433.696 340.022 433.498 340.022 433.379 339.959C433.26 339.896 433.26 339.789 433.379 339.726C433.498 339.663 433.696 339.663 433.815 339.726Z" fill="white"/>
<path d="M434.95 339.115C435.07 339.178 435.07 339.285 434.95 339.348C434.831 339.411 434.634 339.411 434.515 339.348C434.396 339.285 434.396 339.178 434.515 339.115C434.634 339.052 434.831 339.052 434.95 339.115Z" fill="white"/>
<path d="M436.086 338.5C436.205 338.563 436.205 338.669 436.086 338.732C435.967 338.795 435.77 338.795 435.65 338.732C435.531 338.669 435.531 338.563 435.65 338.5C435.77 338.437 435.967 338.437 436.086 338.5Z" fill="white"/>
<path d="M437.222 337.889C437.341 337.952 437.341 338.058 437.222 338.121C437.102 338.184 436.905 338.184 436.786 338.121C436.667 338.058 436.667 337.952 436.786 337.889C436.905 337.825 437.102 337.825 437.222 337.889Z" fill="white"/>
<path d="M438.352 337.278C438.471 337.341 438.471 337.447 438.352 337.51C438.233 337.573 438.036 337.573 437.916 337.51C437.797 337.447 437.797 337.341 437.916 337.278C438.036 337.214 438.233 337.214 438.352 337.278Z" fill="white"/>
<path d="M439.488 336.666C439.607 336.73 439.607 336.836 439.488 336.899C439.368 336.962 439.171 336.962 439.052 336.899C438.933 336.836 438.933 336.73 439.052 336.666C439.171 336.603 439.368 336.603 439.488 336.666Z" fill="white"/>
<path d="M431.549 339.726C431.668 339.789 431.668 339.896 431.549 339.959C431.43 340.022 431.233 340.022 431.113 339.959C430.994 339.896 430.994 339.789 431.113 339.726C431.233 339.663 431.43 339.663 431.549 339.726Z" fill="white"/>
<path d="M432.684 339.115C432.804 339.178 432.804 339.285 432.684 339.348C432.565 339.411 432.368 339.411 432.249 339.348C432.13 339.285 432.13 339.178 432.249 339.115C432.368 339.052 432.565 339.052 432.684 339.115Z" fill="white"/>
<path d="M433.815 338.504C433.934 338.568 433.934 338.674 433.815 338.737C433.696 338.8 433.498 338.8 433.379 338.737C433.26 338.674 433.26 338.568 433.379 338.504C433.498 338.441 433.696 338.441 433.815 338.504Z" fill="white"/>
<path d="M434.95 337.889C435.07 337.952 435.07 338.058 434.95 338.121C434.831 338.184 434.634 338.184 434.515 338.121C434.396 338.058 434.396 337.952 434.515 337.889C434.634 337.825 434.831 337.825 434.95 337.889Z" fill="white"/>
<path d="M436.086 337.278C436.205 337.341 436.205 337.447 436.086 337.51C435.967 337.573 435.77 337.573 435.65 337.51C435.531 337.447 435.531 337.341 435.65 337.278C435.77 337.214 435.967 337.214 436.086 337.278Z" fill="white"/>
<path d="M437.222 336.666C437.341 336.73 437.341 336.836 437.222 336.899C437.102 336.962 436.905 336.962 436.786 336.899C436.667 336.836 436.667 336.73 436.786 336.666C436.905 336.603 437.102 336.603 437.222 336.666Z" fill="white"/>
<path d="M438.352 336.051C438.471 336.114 438.471 336.22 438.352 336.283C438.233 336.347 438.036 336.347 437.916 336.283C437.797 336.22 437.797 336.114 437.916 336.051C438.036 335.988 438.233 335.988 438.352 336.051Z" fill="white"/>
<path d="M439.488 335.44C439.607 335.503 439.607 335.609 439.488 335.672C439.368 335.735 439.171 335.735 439.052 335.672C438.933 335.609 438.933 335.503 439.052 335.44C439.171 335.377 439.368 335.377 439.488 335.44Z" fill="white"/>
<path d="M430.403 339.106C430.522 339.169 430.522 339.276 430.403 339.339C430.284 339.402 430.087 339.402 429.967 339.339C429.848 339.276 429.848 339.169 429.967 339.106C430.087 339.043 430.284 339.043 430.403 339.106Z" fill="white"/>
<path d="M431.538 338.495C431.658 338.558 431.658 338.664 431.538 338.727C431.419 338.79 431.222 338.79 431.103 338.727C430.984 338.664 430.984 338.558 431.103 338.495C431.222 338.432 431.419 338.432 431.538 338.495Z" fill="white"/>
<path d="M432.674 337.884C432.793 337.947 432.793 338.053 432.674 338.116C432.555 338.179 432.358 338.179 432.238 338.116C432.119 338.053 432.119 337.947 432.238 337.884C432.358 337.821 432.555 337.821 432.674 337.884Z" fill="white"/>
<path d="M433.81 337.273C433.929 337.336 433.929 337.442 433.81 337.505C433.69 337.568 433.493 337.568 433.374 337.505C433.255 337.442 433.255 337.336 433.374 337.273C433.493 337.21 433.69 337.21 433.81 337.273Z" fill="white"/>
<path d="M434.94 336.657C435.059 336.72 435.059 336.827 434.94 336.89C434.821 336.953 434.624 336.953 434.504 336.89C434.385 336.827 434.385 336.72 434.504 336.657C434.624 336.594 434.821 336.594 434.94 336.657Z" fill="white"/>
<path d="M436.076 336.046C436.195 336.109 436.195 336.216 436.076 336.279C435.956 336.342 435.759 336.342 435.64 336.279C435.521 336.216 435.521 336.109 435.64 336.046C435.759 335.983 435.956 335.983 436.076 336.046Z" fill="white"/>
<path d="M437.211 335.435C437.33 335.498 437.33 335.605 437.211 335.668C437.092 335.731 436.895 335.731 436.776 335.668C436.656 335.605 436.656 335.498 436.776 335.435C436.895 335.372 437.092 335.372 437.211 335.435Z" fill="white"/>
<path d="M438.342 334.824C438.461 334.887 438.461 334.993 438.342 335.057C438.222 335.12 438.025 335.12 437.906 335.057C437.787 334.993 437.787 334.887 437.906 334.824C438.025 334.761 438.222 334.761 438.342 334.824Z" fill="white"/>
<path d="M429.272 338.495C429.392 338.558 429.392 338.664 429.272 338.727C429.153 338.79 428.956 338.79 428.837 338.727C428.718 338.664 428.718 338.558 428.837 338.495C428.956 338.432 429.153 338.432 429.272 338.495Z" fill="white"/>
<path d="M430.403 337.884C430.522 337.947 430.522 338.053 430.403 338.116C430.284 338.179 430.087 338.179 429.967 338.116C429.848 338.053 429.848 337.947 429.967 337.884C430.087 337.821 430.284 337.821 430.403 337.884Z" fill="white"/>
<path d="M431.538 337.505C431.419 337.569 431.222 337.569 431.103 337.505C430.984 337.442 430.984 337.336 431.103 337.273C431.222 337.21 431.658 337.442 431.538 337.505Z" fill="white"/>
<path d="M428.137 337.884C428.256 337.947 428.256 338.053 428.137 338.116C428.018 338.179 427.821 338.179 427.701 338.116C427.582 338.053 427.582 337.947 427.701 337.884C427.821 337.821 428.018 337.821 428.137 337.884Z" fill="white"/>
<path d="M429.272 337.273C429.392 337.336 429.392 337.442 429.272 337.505C429.153 337.568 428.956 337.568 428.837 337.505C428.718 337.442 428.718 337.336 428.837 337.273C428.956 337.21 429.153 337.21 429.272 337.273Z" fill="white"/>
<path d="M427.001 337.273C427.121 337.336 427.121 337.442 427.001 337.505C426.882 337.568 426.685 337.568 426.566 337.505C426.447 337.442 426.447 337.336 426.566 337.273C426.685 337.21 426.882 337.21 427.001 337.273Z" fill="white"/>
<path d="M428.137 336.657C428.256 336.72 428.256 336.827 428.137 336.89C428.018 336.953 427.821 336.953 427.701 336.89C427.582 336.827 427.582 336.72 427.701 336.657C427.821 336.594 428.018 336.594 428.137 336.657Z" fill="white"/>
<path d="M438.186 326.425L431.232 322.671L424.279 326.425V333.936L431.232 337.69V330.197L438.186 326.425Z" fill="#E1E2E3"/>
<path d="M438.326 326.352L431.233 322.521L424.165 326.337L424.144 326.347V326.497V334.004L431.098 337.757L431.238 337.835L431.378 337.757L438.259 334.043L438.326 334.004V326.497V326.347V326.352ZM431.233 322.821L434.499 324.587L427.826 328.19L424.559 326.424L431.233 322.821ZM431.093 337.462L424.419 333.859V326.652L431.093 330.256V337.462ZM434.064 328.5L431.233 330.028L427.966 328.262L434.639 324.659L437.906 326.424L434.064 328.5Z" fill="#494949"/>
<path d="M428.474 330.188L427.183 329.489C427.043 329.412 426.898 329.407 426.778 329.47C426.644 329.543 426.566 329.698 426.566 329.892C426.566 330.222 426.778 330.59 427.043 330.736L428.334 331.434C428.412 331.478 428.49 331.497 428.567 331.497C428.63 331.497 428.687 331.482 428.744 331.453C428.878 331.381 428.956 331.225 428.956 331.032C428.956 330.702 428.749 330.333 428.479 330.188H428.474ZM428.604 331.225C428.562 331.245 428.505 331.225 428.474 331.206L427.183 330.508C427.001 330.411 426.846 330.125 426.846 329.892C426.846 329.776 426.882 329.712 426.918 329.698C426.96 329.674 427.017 329.698 427.048 329.717L427.136 329.766C427.167 330.047 427.349 330.343 427.572 330.464L428.671 331.056C428.666 331.153 428.635 331.206 428.604 331.225Z" fill="white"/>
<path d="M415.567 159.21C415.686 159.273 415.686 159.38 415.567 159.443C415.448 159.506 415.251 159.506 415.131 159.443C415.012 159.38 415.012 159.273 415.131 159.21C415.251 159.147 415.448 159.147 415.567 159.21Z" fill="white"/>
<path d="M416.702 158.599C416.822 158.662 416.822 158.769 416.702 158.832C416.583 158.895 416.386 158.895 416.267 158.832C416.148 158.769 416.148 158.662 416.267 158.599C416.386 158.536 416.583 158.536 416.702 158.599Z" fill="white"/>
<path d="M414.431 158.599C414.551 158.662 414.551 158.769 414.431 158.832C414.312 158.895 414.115 158.895 413.996 158.832C413.877 158.769 413.877 158.662 413.996 158.599C414.115 158.536 414.312 158.536 414.431 158.599Z" fill="white"/>
<path d="M415.567 157.988C415.686 158.051 415.686 158.158 415.567 158.221C415.448 158.284 415.251 158.284 415.131 158.221C415.012 158.158 415.012 158.051 415.131 157.988C415.251 157.925 415.448 157.925 415.567 157.988Z" fill="white"/>
<path d="M414.431 157.377C414.551 157.44 414.551 157.547 414.431 157.61C414.312 157.673 414.115 157.673 413.996 157.61C413.877 157.547 413.877 157.44 413.996 157.377C414.115 157.314 414.312 157.314 414.431 157.377Z" fill="white"/>
<path d="M423.526 162.25C423.646 162.313 423.646 162.42 423.526 162.483C423.407 162.546 423.21 162.546 423.091 162.483C422.972 162.42 422.972 162.313 423.091 162.25C423.21 162.187 423.407 162.187 423.526 162.25Z" fill="white"/>
<path d="M424.662 161.64C424.781 161.703 424.781 161.809 424.662 161.872C424.543 161.935 424.346 161.935 424.226 161.872C424.107 161.809 424.107 161.703 424.226 161.64C424.346 161.576 424.543 161.576 424.662 161.64Z" fill="white"/>
<path d="M425.797 161.024C425.917 161.087 425.917 161.193 425.797 161.256C425.678 161.319 425.481 161.319 425.362 161.256C425.243 161.193 425.243 161.087 425.362 161.024C425.481 160.96 425.678 160.96 425.797 161.024Z" fill="white"/>
<path d="M426.933 160.413C427.052 160.476 427.052 160.582 426.933 160.645C426.814 160.708 426.617 160.708 426.497 160.645C426.378 160.582 426.378 160.476 426.497 160.413C426.617 160.349 426.814 160.349 426.933 160.413Z" fill="white"/>
<path d="M428.063 159.801C428.183 159.865 428.183 159.971 428.063 160.034C427.944 160.097 427.747 160.097 427.628 160.034C427.509 159.971 427.509 159.865 427.628 159.801C427.747 159.738 427.944 159.738 428.063 159.801Z" fill="white"/>
<path d="M429.199 159.191C429.318 159.254 429.318 159.36 429.199 159.423C429.08 159.486 428.883 159.486 428.764 159.423C428.644 159.36 428.644 159.254 428.764 159.191C428.883 159.127 429.08 159.127 429.199 159.191Z" fill="white"/>
<path d="M421.26 162.25C421.38 162.313 421.38 162.42 421.26 162.483C421.141 162.546 420.944 162.546 420.825 162.483C420.706 162.42 420.706 162.313 420.825 162.25C420.944 162.187 421.141 162.187 421.26 162.25Z" fill="white"/>
<path d="M422.396 161.64C422.515 161.703 422.515 161.809 422.396 161.872C422.277 161.935 422.08 161.935 421.96 161.872C421.841 161.809 421.841 161.703 421.96 161.64C422.08 161.576 422.277 161.576 422.396 161.64Z" fill="white"/>
<path d="M423.526 161.028C423.646 161.091 423.646 161.198 423.526 161.261C423.407 161.324 423.21 161.324 423.091 161.261C422.972 161.198 422.972 161.091 423.091 161.028C423.21 160.965 423.407 160.965 423.526 161.028Z" fill="white"/>
<path d="M424.662 160.413C424.781 160.476 424.781 160.582 424.662 160.645C424.543 160.708 424.346 160.708 424.226 160.645C424.107 160.582 424.107 160.476 424.226 160.413C424.346 160.349 424.543 160.349 424.662 160.413Z" fill="white"/>
<path d="M425.797 159.801C425.917 159.865 425.917 159.971 425.797 160.034C425.678 160.097 425.481 160.097 425.362 160.034C425.243 159.971 425.243 159.865 425.362 159.801C425.481 159.738 425.678 159.738 425.797 159.801Z" fill="white"/>
<path d="M426.933 159.191C427.052 159.254 427.052 159.36 426.933 159.423C426.814 159.486 426.617 159.486 426.497 159.423C426.378 159.36 426.378 159.254 426.497 159.191C426.617 159.127 426.814 159.127 426.933 159.191Z" fill="white"/>
<path d="M428.063 158.575C428.183 158.638 428.183 158.744 428.063 158.807C427.944 158.87 427.747 158.87 427.628 158.807C427.509 158.744 427.509 158.638 427.628 158.575C427.747 158.512 427.944 158.512 428.063 158.575Z" fill="white"/>
<path d="M429.199 157.964C429.318 158.027 429.318 158.133 429.199 158.196C429.08 158.259 428.883 158.259 428.764 158.196C428.644 158.133 428.644 158.027 428.764 157.964C428.883 157.9 429.08 157.9 429.199 157.964Z" fill="white"/>
<path d="M420.114 161.63C420.234 161.693 420.234 161.799 420.114 161.863C419.995 161.926 419.798 161.926 419.679 161.863C419.56 161.799 419.56 161.693 419.679 161.63C419.798 161.567 419.995 161.567 420.114 161.63Z" fill="white"/>
<path d="M421.25 161.019C421.369 161.082 421.369 161.188 421.25 161.251C421.131 161.315 420.934 161.315 420.814 161.251C420.695 161.188 420.695 161.082 420.814 161.019C420.934 160.956 421.131 160.956 421.25 161.019Z" fill="white"/>
<path d="M422.386 160.408C422.505 160.471 422.505 160.577 422.386 160.64C422.266 160.704 422.069 160.704 421.95 160.64C421.831 160.577 421.831 160.471 421.95 160.408C422.069 160.345 422.266 160.345 422.386 160.408Z" fill="white"/>
<path d="M423.521 159.797C423.64 159.86 423.64 159.966 423.521 160.03C423.402 160.093 423.205 160.093 423.086 160.03C422.966 159.966 422.966 159.86 423.086 159.797C423.205 159.734 423.402 159.734 423.521 159.797Z" fill="white"/>
<path d="M424.652 159.181C424.771 159.244 424.771 159.351 424.652 159.414C424.532 159.477 424.335 159.477 424.216 159.414C424.097 159.351 424.097 159.244 424.216 159.181C424.335 159.118 424.532 159.118 424.652 159.181Z" fill="white"/>
<path d="M425.787 158.57C425.906 158.633 425.906 158.739 425.787 158.803C425.668 158.866 425.471 158.866 425.352 158.803C425.232 158.739 425.232 158.633 425.352 158.57C425.471 158.507 425.668 158.507 425.787 158.57Z" fill="white"/>
<path d="M426.923 157.959C427.042 158.022 427.042 158.128 426.923 158.191C426.803 158.255 426.606 158.255 426.487 158.191C426.368 158.128 426.368 158.022 426.487 157.959C426.606 157.896 426.803 157.896 426.923 157.959Z" fill="white"/>
<path d="M428.053 157.348C428.172 157.411 428.172 157.517 428.053 157.581C427.934 157.644 427.737 157.644 427.618 157.581C427.498 157.517 427.498 157.411 427.618 157.348C427.737 157.285 427.934 157.285 428.053 157.348Z" fill="white"/>
<path d="M418.984 161.019C419.103 161.082 419.103 161.188 418.984 161.251C418.865 161.315 418.668 161.315 418.548 161.251C418.429 161.188 418.429 161.082 418.548 161.019C418.668 160.956 418.865 160.956 418.984 161.019Z" fill="white"/>
<path d="M420.114 160.408C420.234 160.471 420.234 160.577 420.114 160.64C419.995 160.704 419.798 160.704 419.679 160.64C419.56 160.577 419.56 160.471 419.679 160.408C419.798 160.345 419.995 160.345 420.114 160.408Z" fill="white"/>
<path d="M421.25 160.029C421.131 160.092 420.934 160.092 420.814 160.029C420.695 159.966 420.695 159.86 420.814 159.797C420.934 159.734 421.369 159.966 421.25 160.029Z" fill="white"/>
<path d="M417.848 160.408C417.968 160.471 417.968 160.577 417.848 160.64C417.729 160.704 417.532 160.704 417.413 160.64C417.294 160.577 417.294 160.471 417.413 160.408C417.532 160.345 417.729 160.345 417.848 160.408Z" fill="white"/>
<path d="M418.984 159.797C419.103 159.86 419.103 159.966 418.984 160.03C418.865 160.093 418.668 160.093 418.548 160.03C418.429 159.966 418.429 159.86 418.548 159.797C418.668 159.734 418.865 159.734 418.984 159.797Z" fill="white"/>
<path d="M416.713 159.797C416.832 159.86 416.832 159.966 416.713 160.03C416.594 160.093 416.397 160.093 416.277 160.03C416.158 159.966 416.158 159.86 416.277 159.797C416.397 159.734 416.594 159.734 416.713 159.797Z" fill="white"/>
<path d="M417.848 159.181C417.968 159.244 417.968 159.351 417.848 159.414C417.729 159.477 417.532 159.477 417.413 159.414C417.294 159.351 417.294 159.244 417.413 159.181C417.532 159.118 417.729 159.118 417.848 159.181Z" fill="white"/>
<path d="M427.898 148.949L420.944 145.195L413.991 148.949V156.46L420.944 160.214V152.721L427.898 148.949Z" fill="#E1E2E3"/>
<path d="M428.038 148.876L420.944 145.045L413.877 148.861L413.856 148.871V149.021V156.528L420.809 160.282L420.949 160.359L421.089 160.282L427.97 156.567L428.038 156.528V149.021V148.871V148.876ZM420.944 145.346L424.211 147.111L417.537 150.714L414.271 148.949L420.944 145.346ZM420.804 159.986L414.131 156.383V149.177L420.804 152.78V159.986ZM423.775 151.024L420.944 152.552L417.677 150.787L424.351 147.183L427.618 148.949L423.775 151.024Z" fill="#494949"/>
<path d="M418.185 152.712L416.894 152.013C416.754 151.936 416.609 151.931 416.49 151.994C416.355 152.067 416.277 152.222 416.277 152.416C416.277 152.746 416.49 153.114 416.754 153.26L418.045 153.958C418.123 154.002 418.201 154.021 418.279 154.021C418.341 154.021 418.398 154.007 418.455 153.977C418.59 153.905 418.668 153.75 418.668 153.556C418.668 153.226 418.46 152.857 418.191 152.712H418.185ZM418.315 153.75C418.274 153.769 418.217 153.75 418.185 153.73L416.894 153.032C416.713 152.935 416.557 152.649 416.557 152.416C416.557 152.3 416.594 152.237 416.63 152.222C416.671 152.198 416.728 152.222 416.76 152.241L416.848 152.29C416.879 152.571 417.06 152.867 417.283 152.988L418.383 153.58C418.377 153.677 418.346 153.73 418.315 153.75Z" fill="white"/>
<path d="M299.822 34.0335C299.941 34.0966 299.941 34.2033 299.822 34.2663C299.702 34.3294 299.505 34.3294 299.386 34.2663C299.267 34.2033 299.267 34.0966 299.386 34.0335C299.505 33.9705 299.702 33.9705 299.822 34.0335Z" fill="white"/>
<path d="M300.957 33.4226C301.077 33.4856 301.077 33.5923 300.957 33.6554C300.838 33.7184 300.641 33.7184 300.522 33.6554C300.402 33.5923 300.402 33.4856 300.522 33.4226C300.641 33.3595 300.838 33.3595 300.957 33.4226Z" fill="white"/>
<path d="M298.686 33.4226C298.805 33.4856 298.805 33.5923 298.686 33.6554C298.567 33.7184 298.37 33.7184 298.251 33.6554C298.131 33.5923 298.131 33.4856 298.251 33.4226C298.37 33.3595 298.567 33.3595 298.686 33.4226Z" fill="white"/>
<path d="M299.822 32.8116C299.941 32.8746 299.941 32.9813 299.822 33.0443C299.702 33.1074 299.505 33.1074 299.386 33.0443C299.267 32.9813 299.267 32.8746 299.386 32.8116C299.505 32.7485 299.702 32.7485 299.822 32.8116Z" fill="white"/>
<path d="M298.686 32.2006C298.805 32.2636 298.805 32.3703 298.686 32.4334C298.567 32.4964 298.37 32.4964 298.251 32.4334C298.131 32.3703 298.131 32.2636 298.251 32.2006C298.37 32.1376 298.567 32.1376 298.686 32.2006Z" fill="white"/>
<path d="M307.781 37.0741C307.9 37.1372 307.9 37.2439 307.781 37.3069C307.662 37.3699 307.465 37.3699 307.346 37.3069C307.226 37.2439 307.226 37.1372 307.346 37.0741C307.465 37.0111 307.662 37.0111 307.781 37.0741Z" fill="white"/>
<path d="M308.917 36.4632C309.036 36.5262 309.036 36.6329 308.917 36.6959C308.797 36.759 308.6 36.759 308.481 36.6959C308.362 36.6329 308.362 36.5262 308.481 36.4632C308.6 36.4001 308.797 36.4001 308.917 36.4632Z" fill="white"/>
<path d="M310.052 35.8473C310.172 35.9103 310.172 36.017 310.052 36.08C309.933 36.1431 309.736 36.1431 309.617 36.08C309.497 36.017 309.497 35.9103 309.617 35.8473C309.736 35.7842 309.933 35.7842 310.052 35.8473Z" fill="white"/>
<path d="M311.188 35.2362C311.307 35.2993 311.307 35.406 311.188 35.469C311.069 35.5321 310.872 35.5321 310.752 35.469C310.633 35.406 310.633 35.2993 310.752 35.2362C310.872 35.1732 311.069 35.1732 311.188 35.2362Z" fill="white"/>
<path d="M312.318 34.6252C312.438 34.6883 312.438 34.7949 312.318 34.858C312.199 34.921 312.002 34.921 311.883 34.858C311.763 34.7949 311.763 34.6883 311.883 34.6252C312.002 34.5622 312.199 34.5622 312.318 34.6252Z" fill="white"/>
<path d="M313.454 34.0143C313.573 34.0773 313.573 34.184 313.454 34.247C313.335 34.3101 313.138 34.3101 313.018 34.247C312.899 34.184 312.899 34.0773 313.018 34.0143C313.138 33.9512 313.335 33.9512 313.454 34.0143Z" fill="white"/>
<path d="M305.515 37.0741C305.634 37.1372 305.634 37.2439 305.515 37.3069C305.396 37.3699 305.199 37.3699 305.08 37.3069C304.96 37.2439 304.96 37.1372 305.08 37.0741C305.199 37.0111 305.396 37.0111 305.515 37.0741Z" fill="white"/>
<path d="M306.651 36.4632C306.77 36.5262 306.77 36.6329 306.651 36.6959C306.531 36.759 306.334 36.759 306.215 36.6959C306.096 36.6329 306.096 36.5262 306.215 36.4632C306.334 36.4001 306.531 36.4001 306.651 36.4632Z" fill="white"/>
<path d="M307.781 35.8521C307.9 35.9151 307.9 36.0218 307.781 36.0849C307.662 36.1479 307.465 36.1479 307.346 36.0849C307.226 36.0218 307.226 35.9151 307.346 35.8521C307.465 35.789 307.662 35.789 307.781 35.8521Z" fill="white"/>
<path d="M308.917 35.2362C309.036 35.2993 309.036 35.406 308.917 35.469C308.797 35.5321 308.6 35.5321 308.481 35.469C308.362 35.406 308.362 35.2993 308.481 35.2362C308.6 35.1732 308.797 35.1732 308.917 35.2362Z" fill="white"/>
<path d="M310.052 34.6252C310.172 34.6883 310.172 34.7949 310.052 34.858C309.933 34.921 309.736 34.921 309.617 34.858C309.497 34.7949 309.497 34.6883 309.617 34.6252C309.736 34.5622 309.933 34.5622 310.052 34.6252Z" fill="white"/>
<path d="M311.188 34.0143C311.307 34.0773 311.307 34.184 311.188 34.247C311.069 34.3101 310.872 34.3101 310.752 34.247C310.633 34.184 310.633 34.0773 310.752 34.0143C310.872 33.9512 311.069 33.9512 311.188 34.0143Z" fill="white"/>
<path d="M312.318 33.3984C312.438 33.4614 312.438 33.5681 312.318 33.6311C312.199 33.6942 312.002 33.6942 311.883 33.6311C311.763 33.5681 311.763 33.4614 311.883 33.3984C312.002 33.3353 312.199 33.3353 312.318 33.3984Z" fill="white"/>
<path d="M313.454 32.7873C313.573 32.8503 313.573 32.957 313.454 33.02C313.335 33.0831 313.138 33.0831 313.018 33.02C312.899 32.957 312.899 32.8503 313.018 32.7873C313.138 32.7242 313.335 32.7242 313.454 32.7873Z" fill="white"/>
<path d="M304.369 36.4535C304.488 36.5165 304.488 36.6232 304.369 36.6862C304.25 36.7493 304.053 36.7493 303.934 36.6862C303.814 36.6232 303.814 36.5165 303.934 36.4535C304.053 36.3904 304.25 36.3904 304.369 36.4535Z" fill="white"/>
<path d="M305.505 35.8424C305.624 35.9055 305.624 36.0122 305.505 36.0752C305.386 36.1383 305.189 36.1383 305.069 36.0752C304.95 36.0122 304.95 35.9055 305.069 35.8424C305.189 35.7794 305.386 35.7794 305.505 35.8424Z" fill="white"/>
<path d="M306.64 35.2314C306.76 35.2945 306.76 35.4012 306.64 35.4642C306.521 35.5272 306.324 35.5272 306.205 35.4642C306.086 35.4012 306.086 35.2945 306.205 35.2314C306.324 35.1684 306.521 35.1684 306.64 35.2314Z" fill="white"/>
<path d="M307.776 34.6205C307.895 34.6835 307.895 34.7902 307.776 34.8532C307.657 34.9163 307.46 34.9163 307.34 34.8532C307.221 34.7902 307.221 34.6835 307.34 34.6205C307.46 34.5574 307.657 34.5574 307.776 34.6205Z" fill="white"/>
<path d="M308.906 34.0046C309.026 34.0676 309.026 34.1743 308.906 34.2373C308.787 34.3004 308.59 34.3004 308.471 34.2373C308.352 34.1743 308.352 34.0676 308.471 34.0046C308.59 33.9415 308.787 33.9415 308.906 34.0046Z" fill="white"/>
<path d="M310.042 33.3935C310.161 33.4565 310.161 33.5632 310.042 33.6262C309.923 33.6893 309.726 33.6893 309.606 33.6262C309.487 33.5632 309.487 33.4565 309.606 33.3935C309.726 33.3304 309.923 33.3304 310.042 33.3935Z" fill="white"/>
<path d="M311.177 32.7825C311.297 32.8456 311.297 32.9522 311.177 33.0153C311.058 33.0783 310.861 33.0783 310.742 33.0153C310.623 32.9522 310.623 32.8456 310.742 32.7825C310.861 32.7195 311.058 32.7195 311.177 32.7825Z" fill="white"/>
<path d="M312.308 32.1715C312.427 32.2345 312.427 32.3412 312.308 32.4043C312.189 32.4673 311.992 32.4673 311.872 32.4043C311.753 32.3412 311.753 32.2345 311.872 32.1715C311.992 32.1084 312.189 32.1084 312.308 32.1715Z" fill="white"/>
<path d="M303.239 35.8424C303.358 35.9055 303.358 36.0122 303.239 36.0752C303.12 36.1383 302.923 36.1383 302.803 36.0752C302.684 36.0122 302.684 35.9055 302.803 35.8424C302.923 35.7794 303.12 35.7794 303.239 35.8424Z" fill="white"/>
<path d="M304.369 35.2314C304.488 35.2945 304.488 35.4012 304.369 35.4642C304.25 35.5272 304.053 35.5272 303.934 35.4642C303.814 35.4012 303.814 35.2945 303.934 35.2314C304.053 35.1684 304.25 35.1684 304.369 35.2314Z" fill="white"/>
<path d="M305.505 34.8532C305.386 34.9163 305.189 34.9163 305.069 34.8532C304.95 34.7902 304.95 34.6835 305.069 34.6205C305.189 34.5574 305.624 34.7902 305.505 34.8532Z" fill="white"/>
<path d="M302.103 35.2314C302.222 35.2945 302.222 35.4012 302.103 35.4642C301.984 35.5272 301.787 35.5272 301.668 35.4642C301.548 35.4012 301.548 35.2945 301.668 35.2314C301.787 35.1684 301.984 35.1684 302.103 35.2314Z" fill="white"/>
<path d="M303.239 34.6205C303.358 34.6835 303.358 34.7902 303.239 34.8532C303.12 34.9163 302.923 34.9163 302.803 34.8532C302.684 34.7902 302.684 34.6835 302.803 34.6205C302.923 34.5574 303.12 34.5574 303.239 34.6205Z" fill="white"/>
<path d="M300.968 34.6205C301.087 34.6835 301.087 34.7902 300.968 34.8532C300.848 34.9163 300.651 34.9163 300.532 34.8532C300.413 34.7902 300.413 34.6835 300.532 34.6205C300.651 34.5574 300.848 34.5574 300.968 34.6205Z" fill="white"/>
<path d="M302.103 34.0046C302.222 34.0676 302.222 34.1743 302.103 34.2373C301.984 34.3004 301.787 34.3004 301.668 34.2373C301.548 34.1743 301.548 34.0676 301.668 34.0046C301.787 33.9415 301.984 33.9415 302.103 34.0046Z" fill="white"/>
<path d="M312.152 23.7723L305.199 20.0189L298.245 23.7723V31.284L305.199 35.0374V27.5452L312.152 23.7723Z" fill="#E1E2E3"/>
<path d="M312.292 23.6996L305.199 19.8686L298.131 23.685L298.111 23.6947V23.8451V31.3519L305.064 35.1053L305.204 35.1829L305.344 35.1053L312.225 31.3907L312.292 31.3519V23.8451V23.6947V23.6996ZM305.199 20.1693L308.466 21.9344L301.792 25.5375L298.525 23.7723L305.199 20.1693ZM305.059 34.8095L298.385 31.2064V24.0003L305.059 27.6033V34.8095ZM308.03 25.8479L305.199 27.3754L301.932 25.6102L308.606 22.0072L311.872 23.7723L308.03 25.8479Z" fill="#494949"/>
<path d="M302.44 27.5354L301.149 26.8371C301.009 26.7595 300.864 26.7547 300.745 26.8177C300.61 26.8905 300.532 27.0456 300.532 27.2396C300.532 27.5694 300.745 27.9379 301.009 28.0834L302.3 28.7817C302.378 28.8254 302.456 28.8448 302.534 28.8448C302.596 28.8448 302.653 28.8302 302.71 28.8011C302.845 28.7284 302.923 28.5732 302.923 28.3792C302.923 28.0495 302.715 27.6809 302.445 27.5354H302.44ZM302.57 28.5732C302.528 28.5926 302.471 28.5732 302.44 28.5538L301.149 27.8555C300.968 27.7585 300.812 27.4724 300.812 27.2396C300.812 27.1232 300.848 27.0602 300.885 27.0456C300.926 27.0214 300.983 27.0456 301.014 27.065L301.102 27.1135C301.134 27.3948 301.315 27.6906 301.538 27.8118L302.637 28.4035C302.632 28.5005 302.601 28.5538 302.57 28.5732Z" fill="white"/>
<path d="M390.703 412.135C390.822 412.198 390.822 412.304 390.703 412.367C390.584 412.43 390.387 412.43 390.268 412.367C390.148 412.304 390.148 412.198 390.268 412.135C390.387 412.072 390.584 412.072 390.703 412.135Z" fill="white"/>
<path d="M391.839 411.524C391.958 411.587 391.958 411.693 391.839 411.756C391.719 411.819 391.522 411.819 391.403 411.756C391.284 411.693 391.284 411.587 391.403 411.524C391.522 411.461 391.719 411.461 391.839 411.524Z" fill="white"/>
<path d="M389.568 411.524C389.687 411.587 389.687 411.693 389.568 411.756C389.448 411.819 389.251 411.819 389.132 411.756C389.013 411.693 389.013 411.587 389.132 411.524C389.251 411.461 389.448 411.461 389.568 411.524Z" fill="white"/>
<path d="M390.703 410.913C390.822 410.976 390.822 411.082 390.703 411.145C390.584 411.208 390.387 411.208 390.268 411.145C390.148 411.082 390.148 410.976 390.268 410.913C390.387 410.85 390.584 410.85 390.703 410.913Z" fill="white"/>
<path d="M389.568 410.302C389.687 410.365 389.687 410.471 389.568 410.534C389.448 410.597 389.251 410.597 389.132 410.534C389.013 410.471 389.013 410.365 389.132 410.302C389.251 410.239 389.448 410.239 389.568 410.302Z" fill="white"/>
<path d="M398.663 415.175C398.782 415.238 398.782 415.345 398.663 415.408C398.543 415.471 398.346 415.471 398.227 415.408C398.108 415.345 398.108 415.238 398.227 415.175C398.346 415.112 398.543 415.112 398.663 415.175Z" fill="white"/>
<path d="M399.798 414.564C399.917 414.627 399.917 414.734 399.798 414.797C399.679 414.86 399.482 414.86 399.363 414.797C399.243 414.734 399.243 414.627 399.363 414.564C399.482 414.501 399.679 414.501 399.798 414.564Z" fill="white"/>
<path d="M400.934 413.948C401.053 414.011 401.053 414.118 400.934 414.181C400.814 414.244 400.617 414.244 400.498 414.181C400.379 414.118 400.379 414.011 400.498 413.948C400.617 413.885 400.814 413.885 400.934 413.948Z" fill="white"/>
<path d="M402.069 413.337C402.189 413.4 402.189 413.507 402.069 413.57C401.95 413.633 401.753 413.633 401.634 413.57C401.514 413.507 401.514 413.4 401.634 413.337C401.753 413.274 401.95 413.274 402.069 413.337Z" fill="white"/>
<path d="M403.2 412.726C403.319 412.789 403.319 412.896 403.2 412.959C403.08 413.022 402.883 413.022 402.764 412.959C402.645 412.896 402.645 412.789 402.764 412.726C402.883 412.663 403.08 412.663 403.2 412.726Z" fill="white"/>
<path d="M404.335 412.115C404.455 412.178 404.455 412.285 404.335 412.348C404.216 412.411 404.019 412.411 403.9 412.348C403.78 412.285 403.78 412.178 403.9 412.115C404.019 412.052 404.216 412.052 404.335 412.115Z" fill="white"/>
<path d="M396.397 415.175C396.516 415.238 396.516 415.345 396.397 415.408C396.277 415.471 396.08 415.471 395.961 415.408C395.842 415.345 395.842 415.238 395.961 415.175C396.08 415.112 396.277 415.112 396.397 415.175Z" fill="white"/>
<path d="M397.532 414.564C397.651 414.627 397.651 414.734 397.532 414.797C397.413 414.86 397.216 414.86 397.097 414.797C396.977 414.734 396.977 414.627 397.097 414.564C397.216 414.501 397.413 414.501 397.532 414.564Z" fill="white"/>
<path d="M398.663 413.953C398.782 414.016 398.782 414.123 398.663 414.186C398.543 414.249 398.346 414.249 398.227 414.186C398.108 414.123 398.108 414.016 398.227 413.953C398.346 413.89 398.543 413.89 398.663 413.953Z" fill="white"/>
<path d="M399.798 413.337C399.917 413.4 399.917 413.507 399.798 413.57C399.679 413.633 399.482 413.633 399.363 413.57C399.243 413.507 399.243 413.4 399.363 413.337C399.482 413.274 399.679 413.274 399.798 413.337Z" fill="white"/>
<path d="M400.934 412.726C401.053 412.789 401.053 412.896 400.934 412.959C400.814 413.022 400.617 413.022 400.498 412.959C400.379 412.896 400.379 412.789 400.498 412.726C400.617 412.663 400.814 412.663 400.934 412.726Z" fill="white"/>
<path d="M402.069 412.115C402.189 412.178 402.189 412.285 402.069 412.348C401.95 412.411 401.753 412.411 401.634 412.348C401.514 412.285 401.514 412.178 401.634 412.115C401.753 412.052 401.95 412.052 402.069 412.115Z" fill="white"/>
<path d="M403.2 411.499C403.319 411.562 403.319 411.669 403.2 411.732C403.08 411.795 402.883 411.795 402.764 411.732C402.645 411.669 402.645 411.562 402.764 411.499C402.883 411.436 403.08 411.436 403.2 411.499Z" fill="white"/>
<path d="M404.335 410.888C404.455 410.951 404.455 411.058 404.335 411.121C404.216 411.184 404.019 411.184 403.9 411.121C403.78 411.058 403.78 410.951 403.9 410.888C404.019 410.825 404.216 410.825 404.335 410.888Z" fill="white"/>
<path d="M395.251 414.554C395.37 414.618 395.37 414.724 395.251 414.787C395.131 414.85 394.934 414.85 394.815 414.787C394.696 414.724 394.696 414.618 394.815 414.554C394.934 414.491 395.131 414.491 395.251 414.554Z" fill="white"/>
<path d="M396.386 413.943C396.505 414.006 396.505 414.113 396.386 414.176C396.267 414.239 396.07 414.239 395.951 414.176C395.831 414.113 395.831 414.006 395.951 413.943C396.07 413.88 396.267 413.88 396.386 413.943Z" fill="white"/>
<path d="M397.522 413.332C397.641 413.395 397.641 413.502 397.522 413.565C397.403 413.628 397.205 413.628 397.086 413.565C396.967 413.502 396.967 413.395 397.086 413.332C397.205 413.269 397.403 413.269 397.522 413.332Z" fill="white"/>
<path d="M398.657 412.721C398.777 412.784 398.777 412.891 398.657 412.954C398.538 413.017 398.341 413.017 398.222 412.954C398.103 412.891 398.103 412.784 398.222 412.721C398.341 412.658 398.538 412.658 398.657 412.721Z" fill="white"/>
<path d="M399.788 412.106C399.907 412.169 399.907 412.275 399.788 412.338C399.668 412.401 399.471 412.401 399.352 412.338C399.233 412.275 399.233 412.169 399.352 412.106C399.471 412.043 399.668 412.043 399.788 412.106Z" fill="white"/>
<path d="M400.923 411.494C401.043 411.557 401.043 411.664 400.923 411.727C400.804 411.79 400.607 411.79 400.488 411.727C400.369 411.664 400.369 411.557 400.488 411.494C400.607 411.431 400.804 411.431 400.923 411.494Z" fill="white"/>
<path d="M402.059 410.883C402.178 410.947 402.178 411.053 402.059 411.116C401.94 411.179 401.743 411.179 401.623 411.116C401.504 411.053 401.504 410.947 401.623 410.883C401.743 410.82 401.94 410.82 402.059 410.883Z" fill="white"/>
<path d="M403.189 410.272C403.309 410.335 403.309 410.442 403.189 410.505C403.07 410.568 402.873 410.568 402.754 410.505C402.634 410.442 402.634 410.335 402.754 410.272C402.873 410.209 403.07 410.209 403.189 410.272Z" fill="white"/>
<path d="M394.12 413.943C394.24 414.006 394.24 414.113 394.12 414.176C394.001 414.239 393.804 414.239 393.685 414.176C393.565 414.113 393.565 414.006 393.685 413.943C393.804 413.88 394.001 413.88 394.12 413.943Z" fill="white"/>
<path d="M395.251 413.332C395.37 413.395 395.37 413.502 395.251 413.565C395.131 413.628 394.934 413.628 394.815 413.565C394.696 413.502 394.696 413.395 394.815 413.332C394.934 413.269 395.131 413.269 395.251 413.332Z" fill="white"/>
<path d="M396.386 412.954C396.267 413.017 396.07 413.017 395.951 412.954C395.831 412.891 395.831 412.784 395.951 412.721C396.07 412.658 396.505 412.891 396.386 412.954Z" fill="white"/>
<path d="M392.985 413.332C393.104 413.395 393.104 413.502 392.985 413.565C392.865 413.628 392.668 413.628 392.549 413.565C392.43 413.502 392.43 413.395 392.549 413.332C392.668 413.269 392.865 413.269 392.985 413.332Z" fill="white"/>
<path d="M394.12 412.721C394.24 412.784 394.24 412.891 394.12 412.954C394.001 413.017 393.804 413.017 393.685 412.954C393.565 412.891 393.565 412.784 393.685 412.721C393.804 412.658 394.001 412.658 394.12 412.721Z" fill="white"/>
<path d="M391.849 412.721C391.968 412.784 391.968 412.891 391.849 412.954C391.73 413.017 391.533 413.017 391.414 412.954C391.294 412.891 391.294 412.784 391.414 412.721C391.533 412.658 391.73 412.658 391.849 412.721Z" fill="white"/>
<path d="M392.985 412.106C393.104 412.169 393.104 412.275 392.985 412.338C392.865 412.401 392.668 412.401 392.549 412.338C392.43 412.275 392.43 412.169 392.549 412.106C392.668 412.043 392.865 412.043 392.985 412.106Z" fill="white"/>
<path d="M403.034 401.873L396.08 398.12L389.127 401.873V409.385L396.08 413.139V405.646L403.034 401.873Z" fill="#E1E2E3"/>
<path d="M403.174 401.801L396.08 397.97L389.013 401.786L388.992 401.796V401.946V409.453L395.945 413.206L396.085 413.284L396.225 413.206L403.106 409.492L403.174 409.453V401.946V401.796V401.801ZM396.08 398.27L399.347 400.035L392.674 403.639L389.407 401.873L396.08 398.27ZM395.94 412.911L389.267 409.307V402.101L395.94 405.704V412.911ZM398.911 403.949L396.08 405.476L392.814 403.711L399.487 400.108L402.754 401.873L398.911 403.949Z" fill="#494949"/>
<path d="M393.322 405.636L392.031 404.938C391.891 404.86 391.745 404.856 391.626 404.919C391.491 404.991 391.414 405.147 391.414 405.341C391.414 405.67 391.626 406.039 391.891 406.184L393.182 406.883C393.259 406.926 393.337 406.946 393.415 406.946C393.477 406.946 393.534 406.931 393.591 406.902C393.726 406.829 393.804 406.674 393.804 406.48C393.804 406.15 393.597 405.782 393.327 405.636H393.322ZM393.451 406.674C393.41 406.694 393.353 406.674 393.322 406.655L392.031 405.956C391.849 405.859 391.694 405.573 391.694 405.341C391.694 405.224 391.73 405.161 391.766 405.147C391.808 405.122 391.865 405.147 391.896 405.166L391.984 405.214C392.015 405.496 392.196 405.792 392.419 405.913L393.519 406.504C393.514 406.601 393.482 406.655 393.451 406.674Z" fill="white"/>
<path d="M326.4 473.865C326.52 473.928 326.52 474.035 326.4 474.098C326.281 474.161 326.084 474.161 325.965 474.098C325.845 474.035 325.845 473.928 325.965 473.865C326.084 473.802 326.281 473.802 326.4 473.865Z" fill="white"/>
<path d="M327.536 473.254C327.655 473.317 327.655 473.424 327.536 473.487C327.417 473.55 327.22 473.55 327.1 473.487C326.981 473.424 326.981 473.317 327.1 473.254C327.22 473.191 327.417 473.191 327.536 473.254Z" fill="white"/>
<path d="M325.265 473.254C325.384 473.317 325.384 473.424 325.265 473.487C325.145 473.55 324.948 473.55 324.829 473.487C324.71 473.424 324.71 473.317 324.829 473.254C324.948 473.191 325.145 473.191 325.265 473.254Z" fill="white"/>
<path d="M326.4 472.643C326.52 472.706 326.52 472.813 326.4 472.876C326.281 472.939 326.084 472.939 325.965 472.876C325.845 472.813 325.845 472.706 325.965 472.643C326.084 472.58 326.281 472.58 326.4 472.643Z" fill="white"/>
<path d="M325.265 472.033C325.384 472.096 325.384 472.202 325.265 472.265C325.145 472.328 324.948 472.328 324.829 472.265C324.71 472.202 324.71 472.096 324.829 472.033C324.948 471.969 325.145 471.969 325.265 472.033Z" fill="white"/>
<path d="M334.36 476.906C334.479 476.969 334.479 477.076 334.36 477.139C334.24 477.202 334.043 477.202 333.924 477.139C333.805 477.076 333.805 476.969 333.924 476.906C334.043 476.843 334.24 476.843 334.36 476.906Z" fill="white"/>
<path d="M335.495 476.295C335.614 476.358 335.614 476.465 335.495 476.528C335.376 476.591 335.179 476.591 335.06 476.528C334.94 476.465 334.94 476.358 335.06 476.295C335.179 476.232 335.376 476.232 335.495 476.295Z" fill="white"/>
<path d="M336.631 475.679C336.75 475.742 336.75 475.849 336.631 475.912C336.512 475.975 336.315 475.975 336.195 475.912C336.076 475.849 336.076 475.742 336.195 475.679C336.315 475.616 336.512 475.616 336.631 475.679Z" fill="white"/>
<path d="M337.766 475.068C337.886 475.131 337.886 475.238 337.766 475.301C337.647 475.364 337.45 475.364 337.331 475.301C337.212 475.238 337.212 475.131 337.331 475.068C337.45 475.005 337.647 475.005 337.766 475.068Z" fill="white"/>
<path d="M338.897 474.457C339.016 474.52 339.016 474.627 338.897 474.69C338.778 474.753 338.58 474.753 338.461 474.69C338.342 474.627 338.342 474.52 338.461 474.457C338.58 474.394 338.778 474.394 338.897 474.457Z" fill="white"/>
<path d="M340.032 473.846C340.152 473.909 340.152 474.016 340.032 474.079C339.913 474.142 339.716 474.142 339.597 474.079C339.478 474.016 339.478 473.909 339.597 473.846C339.716 473.783 339.913 473.783 340.032 473.846Z" fill="white"/>
<path d="M332.094 476.906C332.213 476.969 332.213 477.076 332.094 477.139C331.974 477.202 331.777 477.202 331.658 477.139C331.539 477.076 331.539 476.969 331.658 476.906C331.777 476.843 331.974 476.843 332.094 476.906Z" fill="white"/>
<path d="M333.229 476.295C333.349 476.358 333.349 476.465 333.229 476.528C333.11 476.591 332.913 476.591 332.794 476.528C332.674 476.465 332.674 476.358 332.794 476.295C332.913 476.232 333.11 476.232 333.229 476.295Z" fill="white"/>
<path d="M334.36 475.684C334.479 475.747 334.479 475.854 334.36 475.917C334.24 475.98 334.043 475.98 333.924 475.917C333.805 475.854 333.805 475.747 333.924 475.684C334.043 475.621 334.24 475.621 334.36 475.684Z" fill="white"/>
<path d="M335.495 475.068C335.614 475.131 335.614 475.238 335.495 475.301C335.376 475.364 335.179 475.364 335.06 475.301C334.94 475.238 334.94 475.131 335.06 475.068C335.179 475.005 335.376 475.005 335.495 475.068Z" fill="white"/>
<path d="M336.631 474.457C336.75 474.52 336.75 474.627 336.631 474.69C336.512 474.753 336.315 474.753 336.195 474.69C336.076 474.627 336.076 474.52 336.195 474.457C336.315 474.394 336.512 474.394 336.631 474.457Z" fill="white"/>
<path d="M337.766 473.846C337.886 473.909 337.886 474.016 337.766 474.079C337.647 474.142 337.45 474.142 337.331 474.079C337.212 474.016 337.212 473.909 337.331 473.846C337.45 473.783 337.647 473.783 337.766 473.846Z" fill="white"/>
<path d="M338.897 473.23C339.016 473.293 339.016 473.4 338.897 473.463C338.778 473.526 338.58 473.526 338.461 473.463C338.342 473.4 338.342 473.293 338.461 473.23C338.58 473.167 338.778 473.167 338.897 473.23Z" fill="white"/>
<path d="M340.032 472.619C340.152 472.682 340.152 472.789 340.032 472.852C339.913 472.915 339.716 472.915 339.597 472.852C339.478 472.789 339.478 472.682 339.597 472.619C339.716 472.556 339.913 472.556 340.032 472.619Z" fill="white"/>
<path d="M330.948 476.285C331.067 476.348 331.067 476.455 330.948 476.518C330.829 476.581 330.631 476.581 330.512 476.518C330.393 476.455 330.393 476.348 330.512 476.285C330.631 476.222 330.829 476.222 330.948 476.285Z" fill="white"/>
<path d="M332.083 475.674C332.203 475.737 332.203 475.844 332.083 475.907C331.964 475.97 331.767 475.97 331.648 475.907C331.529 475.844 331.529 475.737 331.648 475.674C331.767 475.611 331.964 475.611 332.083 475.674Z" fill="white"/>
<path d="M333.219 475.063C333.338 475.126 333.338 475.233 333.219 475.296C333.1 475.359 332.903 475.359 332.783 475.296C332.664 475.233 332.664 475.126 332.783 475.063C332.903 475 333.1 475 333.219 475.063Z" fill="white"/>
<path d="M334.354 474.452C334.474 474.515 334.474 474.622 334.354 474.685C334.235 474.748 334.038 474.748 333.919 474.685C333.8 474.622 333.8 474.515 333.919 474.452C334.038 474.389 334.235 474.389 334.354 474.452Z" fill="white"/>
<path d="M335.485 473.836C335.604 473.899 335.604 474.006 335.485 474.069C335.366 474.132 335.169 474.132 335.049 474.069C334.93 474.006 334.93 473.899 335.049 473.836C335.169 473.773 335.366 473.773 335.485 473.836Z" fill="white"/>
<path d="M336.62 473.225C336.74 473.288 336.74 473.395 336.62 473.458C336.501 473.521 336.304 473.521 336.185 473.458C336.066 473.395 336.066 473.288 336.185 473.225C336.304 473.162 336.501 473.162 336.62 473.225Z" fill="white"/>
<path d="M337.756 472.614C337.875 472.677 337.875 472.784 337.756 472.847C337.637 472.91 337.44 472.91 337.32 472.847C337.201 472.784 337.201 472.677 337.32 472.614C337.44 472.551 337.637 472.551 337.756 472.614Z" fill="white"/>
<path d="M338.886 472.003C339.006 472.066 339.006 472.173 338.886 472.236C338.767 472.299 338.57 472.299 338.451 472.236C338.332 472.173 338.332 472.066 338.451 472.003C338.57 471.94 338.767 471.94 338.886 472.003Z" fill="white"/>
<path d="M329.817 475.674C329.937 475.737 329.937 475.844 329.817 475.907C329.698 475.97 329.501 475.97 329.382 475.907C329.263 475.844 329.263 475.737 329.382 475.674C329.501 475.611 329.698 475.611 329.817 475.674Z" fill="white"/>
<path d="M330.948 475.063C331.067 475.126 331.067 475.233 330.948 475.296C330.829 475.359 330.631 475.359 330.512 475.296C330.393 475.233 330.393 475.126 330.512 475.063C330.631 475 330.829 475 330.948 475.063Z" fill="white"/>
<path d="M332.083 474.685C331.964 474.748 331.767 474.748 331.648 474.685C331.529 474.622 331.529 474.515 331.648 474.452C331.767 474.389 332.203 474.622 332.083 474.685Z" fill="white"/>
<path d="M328.682 475.063C328.801 475.126 328.801 475.233 328.682 475.296C328.562 475.359 328.365 475.359 328.246 475.296C328.127 475.233 328.127 475.126 328.246 475.063C328.365 475 328.562 475 328.682 475.063Z" fill="white"/>
<path d="M329.817 474.452C329.937 474.515 329.937 474.622 329.817 474.685C329.698 474.748 329.501 474.748 329.382 474.685C329.263 474.622 329.263 474.515 329.382 474.452C329.501 474.389 329.698 474.389 329.817 474.452Z" fill="white"/>
<path d="M327.546 474.452C327.665 474.515 327.665 474.622 327.546 474.685C327.427 474.748 327.23 474.748 327.111 474.685C326.991 474.622 326.991 474.515 327.111 474.452C327.23 474.389 327.427 474.389 327.546 474.452Z" fill="white"/>
<path d="M328.682 473.836C328.801 473.899 328.801 474.006 328.682 474.069C328.562 474.132 328.365 474.132 328.246 474.069C328.127 474.006 328.127 473.899 328.246 473.836C328.365 473.773 328.562 473.773 328.682 473.836Z" fill="white"/>
<path d="M338.731 463.604L331.777 459.851L324.824 463.604V471.116L331.777 474.869V467.377L338.731 463.604Z" fill="#E1E2E3"/>
<path d="M338.871 463.531L331.777 459.7L324.71 463.517L324.689 463.526V463.677V471.184L331.643 474.937L331.783 475.015L331.923 474.937L338.803 471.222L338.871 471.184V463.677V463.526V463.531ZM331.777 460.001L335.044 461.766L328.371 465.369L325.104 463.604L331.777 460.001ZM331.637 474.641L324.964 471.038V463.832L331.637 467.435V474.641ZM334.609 465.68L331.777 467.207L328.511 465.442L335.184 461.839L338.451 463.604L334.609 465.68Z" fill="#494949"/>
<path d="M329.019 467.367L327.728 466.669C327.588 466.591 327.442 466.586 327.323 466.65C327.188 466.722 327.111 466.877 327.111 467.071C327.111 467.401 327.323 467.77 327.588 467.915L328.879 468.614C328.957 468.657 329.034 468.677 329.112 468.677C329.174 468.677 329.231 468.662 329.288 468.633C329.423 468.56 329.501 468.405 329.501 468.211C329.501 467.881 329.294 467.513 329.024 467.367H329.019ZM329.148 468.405C329.107 468.424 329.05 468.405 329.019 468.386L327.728 467.687C327.546 467.59 327.391 467.304 327.391 467.071C327.391 466.955 327.427 466.892 327.463 466.877C327.505 466.853 327.562 466.877 327.593 466.897L327.681 466.945C327.712 467.227 327.894 467.522 328.117 467.644L329.216 468.235C329.211 468.332 329.18 468.386 329.148 468.405Z" fill="white"/>
<path d="M222.658 507.303C222.778 507.366 222.778 507.473 222.658 507.536C222.539 507.599 222.342 507.599 222.223 507.536C222.103 507.473 222.103 507.366 222.223 507.303C222.342 507.24 222.539 507.24 222.658 507.303Z" fill="white"/>
<path d="M223.794 506.692C223.913 506.755 223.913 506.862 223.794 506.925C223.675 506.988 223.478 506.988 223.358 506.925C223.239 506.862 223.239 506.755 223.358 506.692C223.478 506.629 223.675 506.629 223.794 506.692Z" fill="white"/>
<path d="M221.523 506.692C221.642 506.755 221.642 506.862 221.523 506.925C221.403 506.988 221.206 506.988 221.087 506.925C220.968 506.862 220.968 506.755 221.087 506.692C221.206 506.629 221.403 506.629 221.523 506.692Z" fill="white"/>
<path d="M222.658 506.081C222.778 506.144 222.778 506.251 222.658 506.314C222.539 506.377 222.342 506.377 222.223 506.314C222.103 506.251 222.103 506.144 222.223 506.081C222.342 506.018 222.539 506.018 222.658 506.081Z" fill="white"/>
<path d="M221.523 505.47C221.642 505.533 221.642 505.64 221.523 505.703C221.403 505.766 221.206 505.766 221.087 505.703C220.968 505.64 220.968 505.533 221.087 505.47C221.206 505.407 221.403 505.407 221.523 505.47Z" fill="white"/>
<path d="M230.618 510.343C230.737 510.406 230.737 510.513 230.618 510.576C230.498 510.639 230.301 510.639 230.182 510.576C230.063 510.513 230.063 510.406 230.182 510.343C230.301 510.28 230.498 510.28 230.618 510.343Z" fill="white"/>
<path d="M231.753 509.732C231.873 509.795 231.873 509.902 231.753 509.965C231.634 510.028 231.437 510.028 231.318 509.965C231.198 509.902 231.198 509.795 231.318 509.732C231.437 509.669 231.634 509.669 231.753 509.732Z" fill="white"/>
<path d="M232.889 509.117C233.008 509.18 233.008 509.286 232.889 509.349C232.77 509.412 232.573 509.412 232.453 509.349C232.334 509.286 232.334 509.18 232.453 509.117C232.573 509.054 232.77 509.054 232.889 509.117Z" fill="white"/>
<path d="M234.024 508.506C234.144 508.569 234.144 508.675 234.024 508.738C233.905 508.801 233.708 508.801 233.589 508.738C233.47 508.675 233.47 508.569 233.589 508.506C233.708 508.442 233.905 508.442 234.024 508.506Z" fill="white"/>
<path d="M235.155 507.895C235.274 507.958 235.274 508.064 235.155 508.127C235.036 508.19 234.838 508.19 234.719 508.127C234.6 508.064 234.6 507.958 234.719 507.895C234.838 507.832 235.036 507.832 235.155 507.895Z" fill="white"/>
<path d="M236.29 507.283C236.41 507.347 236.41 507.453 236.29 507.516C236.171 507.579 235.974 507.579 235.855 507.516C235.736 507.453 235.736 507.347 235.855 507.283C235.974 507.22 236.171 507.22 236.29 507.283Z" fill="white"/>
<path d="M228.352 510.343C228.471 510.406 228.471 510.513 228.352 510.576C228.232 510.639 228.035 510.639 227.916 510.576C227.797 510.513 227.797 510.406 227.916 510.343C228.035 510.28 228.232 510.28 228.352 510.343Z" fill="white"/>
<path d="M229.487 509.732C229.607 509.795 229.607 509.902 229.487 509.965C229.368 510.028 229.171 510.028 229.052 509.965C228.932 509.902 228.932 509.795 229.052 509.732C229.171 509.669 229.368 509.669 229.487 509.732Z" fill="white"/>
<path d="M230.618 509.122C230.737 509.185 230.737 509.291 230.618 509.354C230.498 509.417 230.301 509.417 230.182 509.354C230.063 509.291 230.063 509.185 230.182 509.122C230.301 509.058 230.498 509.058 230.618 509.122Z" fill="white"/>
<path d="M231.753 508.506C231.873 508.569 231.873 508.675 231.753 508.738C231.634 508.801 231.437 508.801 231.318 508.738C231.198 508.675 231.198 508.569 231.318 508.506C231.437 508.442 231.634 508.442 231.753 508.506Z" fill="white"/>
<path d="M232.889 507.895C233.008 507.958 233.008 508.064 232.889 508.127C232.77 508.19 232.573 508.19 232.453 508.127C232.334 508.064 232.334 507.958 232.453 507.895C232.573 507.832 232.77 507.832 232.889 507.895Z" fill="white"/>
<path d="M234.024 507.283C234.144 507.347 234.144 507.453 234.024 507.516C233.905 507.579 233.708 507.579 233.589 507.516C233.47 507.453 233.47 507.347 233.589 507.283C233.708 507.22 233.905 507.22 234.024 507.283Z" fill="white"/>
<path d="M235.155 506.668C235.274 506.731 235.274 506.837 235.155 506.9C235.036 506.963 234.838 506.963 234.719 506.9C234.6 506.837 234.6 506.731 234.719 506.668C234.838 506.605 235.036 506.605 235.155 506.668Z" fill="white"/>
<path d="M236.29 506.057C236.41 506.12 236.41 506.226 236.29 506.289C236.171 506.352 235.974 506.352 235.855 506.289C235.736 506.226 235.736 506.12 235.855 506.057C235.974 505.994 236.171 505.994 236.29 506.057Z" fill="white"/>
<path d="M227.206 509.723C227.325 509.786 227.325 509.893 227.206 509.956C227.087 510.019 226.889 510.019 226.77 509.956C226.651 509.893 226.651 509.786 226.77 509.723C226.889 509.66 227.087 509.66 227.206 509.723Z" fill="white"/>
<path d="M228.341 509.112C228.461 509.175 228.461 509.281 228.341 509.344C228.222 509.407 228.025 509.407 227.906 509.344C227.787 509.281 227.787 509.175 227.906 509.112C228.025 509.049 228.222 509.049 228.341 509.112Z" fill="white"/>
<path d="M229.477 508.501C229.596 508.564 229.596 508.67 229.477 508.733C229.358 508.796 229.161 508.796 229.041 508.733C228.922 508.67 228.922 508.564 229.041 508.501C229.161 508.438 229.358 508.438 229.477 508.501Z" fill="white"/>
<path d="M230.612 507.89C230.732 507.953 230.732 508.059 230.612 508.122C230.493 508.185 230.296 508.185 230.177 508.122C230.058 508.059 230.058 507.953 230.177 507.89C230.296 507.827 230.493 507.827 230.612 507.89Z" fill="white"/>
<path d="M231.743 507.274C231.862 507.337 231.862 507.444 231.743 507.507C231.624 507.57 231.427 507.57 231.307 507.507C231.188 507.444 231.188 507.337 231.307 507.274C231.427 507.211 231.624 507.211 231.743 507.274Z" fill="white"/>
<path d="M232.878 506.663C232.998 506.726 232.998 506.832 232.878 506.896C232.759 506.959 232.562 506.959 232.443 506.896C232.324 506.832 232.324 506.726 232.443 506.663C232.562 506.6 232.759 506.6 232.878 506.663Z" fill="white"/>
<path d="M234.014 506.052C234.133 506.115 234.133 506.222 234.014 506.285C233.895 506.348 233.698 506.348 233.578 506.285C233.459 506.222 233.459 506.115 233.578 506.052C233.698 505.989 233.895 505.989 234.014 506.052Z" fill="white"/>
<path d="M235.144 505.441C235.264 505.504 235.264 505.61 235.144 505.673C235.025 505.737 234.828 505.737 234.709 505.673C234.59 505.61 234.59 505.504 234.709 505.441C234.828 505.378 235.025 505.378 235.144 505.441Z" fill="white"/>
<path d="M226.075 509.112C226.195 509.175 226.195 509.281 226.075 509.344C225.956 509.407 225.759 509.407 225.64 509.344C225.521 509.281 225.521 509.175 225.64 509.112C225.759 509.049 225.956 509.049 226.075 509.112Z" fill="white"/>
<path d="M227.206 508.501C227.325 508.564 227.325 508.67 227.206 508.733C227.087 508.796 226.889 508.796 226.77 508.733C226.651 508.67 226.651 508.564 226.77 508.501C226.889 508.438 227.087 508.438 227.206 508.501Z" fill="white"/>
<path d="M228.341 508.122C228.222 508.185 228.025 508.185 227.906 508.122C227.787 508.059 227.787 507.953 227.906 507.89C228.025 507.827 228.461 508.059 228.341 508.122Z" fill="white"/>
<path d="M224.94 508.501C225.059 508.564 225.059 508.67 224.94 508.733C224.82 508.796 224.623 508.796 224.504 508.733C224.385 508.67 224.385 508.564 224.504 508.501C224.623 508.438 224.82 508.438 224.94 508.501Z" fill="white"/>
<path d="M226.075 507.89C226.195 507.953 226.195 508.059 226.075 508.122C225.956 508.185 225.759 508.185 225.64 508.122C225.521 508.059 225.521 507.953 225.64 507.89C225.759 507.827 225.956 507.827 226.075 507.89Z" fill="white"/>
<path d="M223.804 507.89C223.923 507.953 223.923 508.059 223.804 508.122C223.685 508.185 223.488 508.185 223.369 508.122C223.249 508.059 223.249 507.953 223.369 507.89C223.488 507.827 223.685 507.827 223.804 507.89Z" fill="white"/>
<path d="M224.94 507.274C225.059 507.337 225.059 507.444 224.94 507.507C224.82 507.57 224.623 507.57 224.504 507.507C224.385 507.444 224.385 507.337 224.504 507.274C224.623 507.211 224.82 507.211 224.94 507.274Z" fill="white"/>
<path d="M234.989 497.042L228.035 493.288L221.082 497.042V504.553L228.035 508.307V500.814L234.989 497.042Z" fill="#E1E2E3"/>
<path d="M235.129 496.969L228.035 493.138L220.968 496.954L220.947 496.964V497.114V504.621L227.901 508.375L228.041 508.452L228.181 508.375L235.061 504.66L235.129 504.621V497.114V496.964V496.969ZM228.035 493.438L231.302 495.204L224.629 498.807L221.362 497.042L228.035 493.438ZM227.895 508.079L221.222 504.476V497.269L227.895 500.873V508.079ZM230.867 499.117L228.035 500.645L224.769 498.879L231.442 495.276L234.709 497.042L230.867 499.117Z" fill="#494949"/>
<path d="M225.277 500.805L223.986 500.106C223.846 500.029 223.701 500.024 223.581 500.087C223.446 500.16 223.369 500.315 223.369 500.509C223.369 500.839 223.581 501.207 223.846 501.353L225.137 502.051C225.215 502.095 225.292 502.114 225.37 502.114C225.432 502.114 225.489 502.099 225.546 502.07C225.681 501.998 225.759 501.842 225.759 501.649C225.759 501.319 225.552 500.95 225.282 500.805H225.277ZM225.406 501.842C225.365 501.862 225.308 501.842 225.277 501.823L223.986 501.125C223.804 501.028 223.649 500.742 223.649 500.509C223.649 500.393 223.685 500.329 223.721 500.315C223.763 500.291 223.82 500.315 223.851 500.334L223.939 500.383C223.97 500.664 224.152 500.96 224.375 501.081L225.474 501.673C225.469 501.77 225.438 501.823 225.406 501.842Z" fill="white"/>
</svg>
