<svg width="13" height="17" viewBox="0 0 13 17" fill="none" xmlns="http://www.w3.org/2000/svg">
<path d="M1.44139 13.308C1.54186 13.3635 1.54186 13.4574 1.44139 13.5129C1.34093 13.5684 1.17495 13.5684 1.07449 13.5129C0.97403 13.4574 0.97403 13.3635 1.07449 13.308C1.17495 13.2525 1.34093 13.2525 1.44139 13.308Z" fill="#16110D"/>
<path d="M2.39797 12.7701C2.49843 12.8256 2.49843 12.9196 2.39797 12.9751C2.29751 13.0306 2.13153 13.0306 2.03107 12.9751C1.9306 12.9196 1.9306 12.8256 2.03107 12.7701C2.13153 12.7146 2.29751 12.7146 2.39797 12.7701Z" fill="#16110D"/>
<path d="M0.484821 12.7701C0.585283 12.8256 0.585283 12.9196 0.484821 12.9751C0.384359 13.0306 0.21838 13.0306 0.117918 12.9751C0.0174565 12.9196 0.0174565 12.8256 0.117918 12.7701C0.21838 12.7146 0.384359 12.7146 0.484821 12.7701Z" fill="#16110D"/>
<path d="M1.44139 12.2321C1.54186 12.2876 1.54186 12.3815 1.44139 12.437C1.34093 12.4925 1.17495 12.4925 1.07449 12.437C0.97403 12.3815 0.97403 12.2876 1.07449 12.2321C1.17495 12.1766 1.34093 12.1766 1.44139 12.2321Z" fill="#16110D"/>
<path d="M0.484821 11.6942C0.585283 11.7497 0.585283 11.8436 0.484821 11.8991C0.384359 11.9546 0.21838 11.9546 0.117918 11.8991C0.0174565 11.8436 0.0174565 11.7497 0.117918 11.6942C0.21838 11.6387 0.384359 11.6387 0.484821 11.6942Z" fill="#16110D"/>
<path d="M8.14615 15.985C8.24661 16.0405 8.24661 16.1344 8.14615 16.1899C8.04569 16.2454 7.87971 16.2454 7.77925 16.1899C7.67879 16.1344 7.67879 16.0405 7.77925 15.985C7.87971 15.9295 8.04569 15.9295 8.14615 15.985Z" fill="#16110D"/>
<path d="M9.10273 15.4469C9.20319 15.5024 9.20319 15.5963 9.10273 15.6518C9.00226 15.7073 8.83629 15.7073 8.73582 15.6518C8.63536 15.5963 8.63536 15.5024 8.73582 15.4469C8.83629 15.3914 9.00226 15.3914 9.10273 15.4469Z" fill="#16110D"/>
<path d="M10.0593 14.9049C10.1597 14.9604 10.1597 15.0543 10.0593 15.1098C9.95882 15.1653 9.79284 15.1653 9.69238 15.1098C9.59192 15.0543 9.59192 14.9604 9.69238 14.9049C9.79284 14.8494 9.95882 14.8494 10.0593 14.9049Z" fill="#16110D"/>
<path d="M11.0159 14.3668C11.1163 14.4223 11.1163 14.5163 11.0159 14.5718C10.9154 14.6273 10.7494 14.6273 10.649 14.5718C10.5485 14.5163 10.5485 14.4223 10.649 14.3668C10.7494 14.3113 10.9154 14.3113 11.0159 14.3668Z" fill="#16110D"/>
<path d="M11.9681 13.8287C12.0685 13.8842 12.0685 13.9782 11.9681 14.0337C11.8676 14.0892 11.7016 14.0892 11.6012 14.0337C11.5007 13.9782 11.5007 13.8842 11.6012 13.8287C11.7016 13.7732 11.8676 13.7732 11.9681 13.8287Z" fill="#16110D"/>
<path d="M12.9247 13.2909C13.0251 13.3464 13.0251 13.4403 12.9247 13.4958C12.8242 13.5513 12.6582 13.5513 12.5578 13.4958C12.4573 13.4403 12.4573 13.3464 12.5578 13.2909C12.6582 13.2354 12.8242 13.2354 12.9247 13.2909Z" fill="#16110D"/>
<path d="M6.23737 15.985C6.33783 16.0405 6.33783 16.1344 6.23737 16.1899C6.13691 16.2454 5.97093 16.2454 5.87047 16.1899C5.77 16.1344 5.77 16.0405 5.87047 15.985C5.97093 15.9295 6.13691 15.9295 6.23737 15.985Z" fill="#16110D"/>
<path d="M7.19395 15.4469C7.29441 15.5024 7.29441 15.5963 7.19395 15.6518C7.09349 15.7073 6.9275 15.7073 6.82704 15.6518C6.72658 15.5963 6.72658 15.5024 6.82704 15.4469C6.9275 15.3914 7.09349 15.3914 7.19395 15.4469Z" fill="#16110D"/>
<path d="M8.14615 14.9091C8.24661 14.9646 8.24661 15.0585 8.14615 15.114C8.04569 15.1695 7.87971 15.1695 7.77925 15.114C7.67879 15.0585 7.67879 14.9646 7.77925 14.9091C7.87971 14.8536 8.04569 14.8536 8.14615 14.9091Z" fill="#16110D"/>
<path d="M9.10273 14.3668C9.20319 14.4223 9.20319 14.5163 9.10273 14.5718C9.00226 14.6273 8.83629 14.6273 8.73582 14.5718C8.63536 14.5163 8.63536 14.4223 8.73582 14.3668C8.83629 14.3113 9.00226 14.3113 9.10273 14.3668Z" fill="#16110D"/>
<path d="M10.0593 13.8287C10.1597 13.8842 10.1597 13.9782 10.0593 14.0337C9.95882 14.0892 9.79284 14.0892 9.69238 14.0337C9.59192 13.9782 9.59192 13.8842 9.69238 13.8287C9.79284 13.7732 9.95882 13.7732 10.0593 13.8287Z" fill="#16110D"/>
<path d="M11.0159 13.2909C11.1163 13.3464 11.1163 13.4403 11.0159 13.4958C10.9154 13.5513 10.7494 13.5513 10.649 13.4958C10.5485 13.4403 10.5485 13.3464 10.649 13.2909C10.7494 13.2354 10.9154 13.2354 11.0159 13.2909Z" fill="#16110D"/>
<path d="M11.9681 12.7487C12.0685 12.8042 12.0685 12.8981 11.9681 12.9536C11.8676 13.0091 11.7016 13.0091 11.6012 12.9536C11.5007 12.8981 11.5007 12.8042 11.6012 12.7487C11.7016 12.6932 11.8676 12.6932 11.9681 12.7487Z" fill="#16110D"/>
<path d="M12.9247 12.2108C13.0251 12.2663 13.0251 12.3602 12.9247 12.4157C12.8242 12.4713 12.6582 12.4713 12.5578 12.4157C12.4573 12.3602 12.4573 12.2663 12.5578 12.2108C12.6582 12.1553 12.8242 12.1553 12.9247 12.2108Z" fill="#16110D"/>
<path d="M5.27208 15.4386C5.37255 15.4941 5.37255 15.588 5.27208 15.6435C5.17162 15.699 5.00564 15.699 4.90518 15.6435C4.80472 15.588 4.80472 15.4941 4.90518 15.4386C5.00564 15.3831 5.17162 15.3831 5.27208 15.4386Z" fill="#16110D"/>
<path d="M6.22864 14.9005C6.3291 14.956 6.3291 15.0499 6.22864 15.1054C6.12818 15.1609 5.9622 15.1609 5.86174 15.1054C5.76128 15.0499 5.76128 14.956 5.86174 14.9005C5.9622 14.845 6.12818 14.845 6.22864 14.9005Z" fill="#16110D"/>
<path d="M7.18522 14.3624C7.28568 14.4179 7.28568 14.5119 7.18522 14.5674C7.08475 14.6229 6.91877 14.6229 6.81831 14.5674C6.71785 14.5119 6.71785 14.4179 6.81831 14.3624C6.91877 14.3069 7.08475 14.3069 7.18522 14.3624Z" fill="#16110D"/>
<path d="M8.1418 13.8246C8.24226 13.8801 8.24226 13.974 8.1418 14.0295C8.04133 14.085 7.87535 14.085 7.77489 14.0295C7.67442 13.974 7.67442 13.8801 7.77489 13.8246C7.87535 13.7691 8.04133 13.7691 8.1418 13.8246Z" fill="#16110D"/>
<path d="M9.09398 13.2823C9.19444 13.3379 9.19444 13.4318 9.09398 13.4873C8.99352 13.5428 8.82754 13.5428 8.72708 13.4873C8.62662 13.4318 8.62662 13.3379 8.72708 13.2823C8.82754 13.2268 8.99352 13.2268 9.09398 13.2823Z" fill="#16110D"/>
<path d="M10.0506 12.7445C10.151 12.8 10.151 12.8939 10.0506 12.9494C9.95009 13.0049 9.78412 13.0049 9.68365 12.9494C9.58319 12.8939 9.58319 12.8 9.68365 12.7445C9.78412 12.689 9.95009 12.689 10.0506 12.7445Z" fill="#16110D"/>
<path d="M11.0071 12.2064C11.1076 12.2619 11.1076 12.3559 11.0071 12.4114C10.9067 12.4669 10.7407 12.4669 10.6402 12.4114C10.5398 12.3559 10.5398 12.2619 10.6402 12.2064C10.7407 12.1509 10.9067 12.1509 11.0071 12.2064Z" fill="#16110D"/>
<path d="M11.9593 11.6686C12.0598 11.7241 12.0598 11.818 11.9593 11.8735C11.8589 11.929 11.6929 11.929 11.5924 11.8735C11.492 11.818 11.492 11.7241 11.5924 11.6686C11.6929 11.6131 11.8589 11.6131 11.9593 11.6686Z" fill="#16110D"/>
<path d="M4.31988 14.9005C4.42034 14.956 4.42034 15.0499 4.31988 15.1054C4.21942 15.1609 4.05343 15.1609 3.95297 15.1054C3.85251 15.0499 3.85251 14.956 3.95297 14.9005C4.05343 14.845 4.21942 14.845 4.31988 14.9005Z" fill="#16110D"/>
<path d="M5.27208 14.3624C5.37255 14.4179 5.37255 14.5119 5.27208 14.5674C5.17162 14.6229 5.00564 14.6229 4.90518 14.5674C4.80472 14.5119 4.80472 14.4179 4.90518 14.3624C5.00564 14.3069 5.17162 14.3069 5.27208 14.3624Z" fill="#16110D"/>
<path d="M6.22864 14.0296C6.12818 14.0851 5.9622 14.0851 5.86174 14.0296C5.76128 13.9741 5.76128 13.8801 5.86174 13.8246C5.9622 13.7691 6.3291 13.9741 6.22864 14.0296Z" fill="#16110D"/>
<path d="M3.36327 14.3624C3.46373 14.4179 3.46373 14.5119 3.36327 14.5674C3.26281 14.6229 3.09683 14.6229 2.99637 14.5674C2.89591 14.5119 2.89591 14.4179 2.99637 14.3624C3.09683 14.3069 3.26281 14.3069 3.36327 14.3624Z" fill="#16110D"/>
<path d="M4.31988 13.8246C4.42034 13.8801 4.42034 13.974 4.31988 14.0295C4.21942 14.085 4.05343 14.085 3.95297 14.0295C3.85251 13.974 3.85251 13.8801 3.95297 13.8246C4.05343 13.7691 4.21942 13.7691 4.31988 13.8246Z" fill="#16110D"/>
<path d="M2.40673 13.8246C2.50719 13.8801 2.50719 13.974 2.40673 14.0295C2.30626 14.085 2.14029 14.085 2.03982 14.0295C1.93936 13.974 1.93936 13.8801 2.03982 13.8246C2.14029 13.7691 2.30626 13.7691 2.40673 13.8246Z" fill="#16110D"/>
<path d="M3.36327 13.2823C3.46373 13.3379 3.46373 13.4318 3.36327 13.4873C3.26281 13.5428 3.09683 13.5428 2.99637 13.4873C2.89591 13.4318 2.89591 13.3379 2.99637 13.2823C3.09683 13.2268 3.26281 13.2268 3.36327 13.2823Z" fill="#16110D"/>
<path d="M11.8283 4.27377L5.97091 0.969238L0.113541 4.27377V10.8871L5.97091 14.1916V7.59538L11.8283 4.27377Z" fill="#E1E2E3"/>
<path d="M11.9462 4.20976L5.97094 0.836914L0.017472 4.19695L0 4.20549V4.33784V10.9469L5.85737 14.2514L5.9753 14.3197L6.09324 14.2514L11.8895 10.9811L11.9462 10.9469V4.33784V4.20549V4.20976ZM5.97094 1.10162L8.72272 2.65569L3.10122 5.82787L0.349434 4.2738L5.97094 1.10162ZM5.853 13.991L0.231502 10.8188V4.47446L5.853 7.64664V13.991ZM8.35581 6.10111L5.97094 7.44598L3.21915 5.89191L8.84065 2.71973L11.5924 4.2738L8.35581 6.10111Z" fill="#494949"/>
<path d="M3.6472 7.58686L2.55959 6.97206C2.44166 6.90375 2.31936 6.89948 2.2189 6.95498C2.10533 7.01903 2.03981 7.15565 2.03981 7.32642C2.03981 7.61674 2.21889 7.94122 2.44166 8.0693L3.52927 8.6841C3.59479 8.72252 3.66031 8.7396 3.72582 8.7396C3.77824 8.7396 3.82628 8.72679 3.87433 8.70118C3.9879 8.63713 4.05342 8.50051 4.05342 8.32974C4.05342 8.03942 3.8787 7.71494 3.65157 7.58686H3.6472ZM3.7564 8.50051C3.72145 8.51759 3.67341 8.50051 3.6472 8.48343L2.55959 7.86864C2.40672 7.78325 2.27567 7.53135 2.27567 7.32642C2.27567 7.22396 2.30625 7.16846 2.33682 7.15565C2.37177 7.1343 2.41982 7.15564 2.44602 7.17272L2.52028 7.21542C2.54648 7.46305 2.69937 7.72348 2.88719 7.83021L3.81318 8.35108C3.80881 8.43647 3.7826 8.48343 3.7564 8.50051Z" fill="#16110D"/>
</svg>
