<svg width="39" height="64" viewBox="0 0 39 64" fill="none" xmlns="http://www.w3.org/2000/svg">
<path d="M9.13677 15.8474C9.13677 13.6069 9.6069 11.6488 10.4245 10.0861C9.87263 10.1802 9.34118 10.3496 8.85061 10.6132C6.54086 11.8371 5.21225 14.7366 5.21225 18.5587C5.21225 25.9957 10.1179 34.6566 16.1682 37.8574C18.7028 39.213 21.1352 39.4013 23.0157 38.4034C23.6085 38.0833 24.1195 37.6691 24.5692 37.1607C23.2814 37.0478 21.9324 36.6524 20.5424 35.9181C14.2468 32.5667 9.11634 23.5669 9.11634 15.8474H9.13677Z" fill="#A32B1D"/>
<path d="M32.2343 33.6964C32.2343 22.9079 25.1006 10.3497 16.3522 5.69914C14.206 4.55063 12.1006 3.98578 10.1793 3.98578C8.85064 3.98578 7.62422 4.2682 6.52044 4.81422L6.11164 5.04014C2.8412 6.90412 0.960693 11.0651 0.960693 16.5629C0.960693 20.0084 2.02359 24 2.96384 27.1066C5.33491 34.9579 17.4355 57.9092 19.8475 62.1455C21.8098 58.3611 30.4764 41.6795 30.6399 41.3406C31.7028 39.2507 32.2547 36.69 32.2547 33.7152L32.2343 33.6964ZM23.5063 39.1754C22.566 39.6837 21.5236 39.9285 20.3994 39.9285C18.9277 39.9285 17.3333 39.4954 15.7186 38.6293C9.42296 35.2779 4.29246 26.2782 4.29246 18.5587C4.29246 14.4165 5.78459 11.2346 8.40094 9.84129C10.5881 8.67396 13.3475 8.88105 16.1887 10.3873C22.4843 13.7387 27.6148 22.7385 27.6148 30.458C27.6148 34.6001 26.1227 37.7821 23.5063 39.1754Z" fill="#FF403A"/>
<path d="M22.1163 2.57367C18.5597 0.690867 15.2484 0.333137 12.489 1.57579L9.62735 3.11967C11.8553 3.0067 14.3082 3.6092 16.8019 4.94599C25.816 9.74713 33.1745 22.6443 33.1745 33.6964C33.1745 36.803 32.6022 39.4954 31.478 41.6983C31.3145 42.0372 23.3632 57.3444 20.9513 61.9761L25.2641 59.6414C26.1635 57.9092 36.1997 38.5728 36.3836 38.1963C37.4465 36.1064 37.9984 33.5458 37.9984 30.5709C37.9984 19.7825 30.8648 7.22419 22.1163 2.57367Z" fill="#A32B1D"/>
<path d="M22.6069 1.82059C18.8255 -0.194005 15.0849 -0.551735 12.0597 0.82271L6.00943 4.07995C6.00943 4.07995 5.86635 4.13644 5.80502 4.1741C5.7437 4.21175 5.68239 4.2494 5.62107 4.28706L5.3349 4.43769C5.3349 4.43769 5.2327 4.51298 5.19182 4.56947C1.90094 6.69703 0 10.9898 0 16.5629C0 20.1026 1.08333 24.1883 2.04403 27.3514C4.27201 34.7696 17.8443 61.0912 19.4796 63.2941C19.4796 63.2941 19.5 63.3129 19.5204 63.3317C19.5409 63.3694 19.5818 63.407 19.6022 63.407C19.6022 63.407 19.6226 63.407 19.6431 63.407C19.7248 63.4635 19.8066 63.5012 19.9088 63.5012C19.9497 63.5012 19.9701 63.5012 20.011 63.5012C20.0314 63.5012 20.0723 63.4823 20.0928 63.4635C20.0928 63.4635 20.1336 63.4635 20.1541 63.4635L25.9182 60.3381C25.9182 60.3381 26.0613 60.2251 26.1022 60.1498C26.5519 59.2837 37.0991 38.9683 37.3035 38.5729C38.4277 36.37 39 33.6776 39 30.571C39 19.5189 31.662 6.60291 22.6274 1.82059H22.6069ZM19.8475 62.1456C17.4355 57.9093 5.31446 34.9579 2.96383 27.1066C2.02358 24 0.960687 19.9896 0.960687 16.5629C0.960687 11.084 2.84119 6.90414 6.11163 5.04017L6.52044 4.81424C7.64465 4.26823 8.87107 3.9858 10.1792 3.9858C12.1006 3.9858 14.206 4.56948 16.3522 5.69916C25.1211 10.3497 32.2343 22.9268 32.2343 33.6964C32.2343 36.6712 31.7028 39.2319 30.6195 41.3218C30.4355 41.6607 21.7893 58.3423 19.827 62.1267L19.8475 62.1456ZM36.4245 38.2151C36.2406 38.5917 26.184 57.9281 25.305 59.6603L20.9921 61.9949C23.4041 57.3632 31.3349 42.056 31.5189 41.7171C32.6431 39.5143 33.2154 36.8219 33.2154 33.7152C33.2154 22.6632 25.8774 9.74719 16.8428 4.96487C14.3491 3.64691 11.8962 3.02558 9.66824 3.13855L12.5299 1.59464C15.2689 0.351988 18.6006 0.69089 22.1572 2.59252C30.9261 7.24304 38.0393 19.8202 38.0393 30.5898C38.0393 33.5646 37.5079 36.1252 36.4245 38.2151Z" fill="#1E1E1E"/>
<path d="M16.1887 10.4062C13.3475 8.90001 10.5881 8.69288 8.40097 9.86022C5.78462 11.2535 4.29248 14.4166 4.29248 18.5776C4.29248 26.2971 9.42298 35.2969 15.7186 38.6483C17.3334 39.5144 18.9277 39.9474 20.3994 39.9474C21.5236 39.9474 22.5661 39.7026 23.5063 39.1943C26.1227 37.801 27.6148 34.6379 27.6148 30.4769C27.6148 22.7574 22.4843 13.7576 16.1887 10.4062ZM23.0362 38.4223C21.1557 39.4202 18.7233 39.2319 16.1887 37.8763C10.1588 34.6756 5.23273 26.0147 5.23273 18.5776C5.23273 14.7555 6.56134 11.856 8.87109 10.6322C9.36166 10.3686 9.89311 10.1991 10.445 10.105C9.60694 11.6677 9.15726 13.6258 9.15726 15.8664C9.15726 23.5859 14.2878 32.5857 20.5834 35.937C21.9733 36.6713 23.3224 37.0856 24.6101 37.1797C24.1604 37.6881 23.629 38.1211 23.0566 38.4223H23.0362ZM25.2233 36.3324C23.9151 36.3324 22.5252 35.937 21.0535 35.1651C15.0236 31.9455 10.0975 23.2846 10.0975 15.8664C10.0975 13.5129 10.6085 11.4983 11.5488 10.0108C12.8365 10.0108 14.2469 10.4063 15.6981 11.1782C21.728 14.379 26.6541 23.0399 26.6541 30.4769C26.6541 32.8493 26.1431 34.845 25.2233 36.3324Z" fill="#1E1E1E"/>
</svg>
