<svg width="155" height="152" viewBox="0 0 155 152" fill="none" xmlns="http://www.w3.org/2000/svg">
<g opacity="0.5">
<path d="M67.4753 41.9366L74.5946 49.5712L84.0555 45.1595L78.9946 54.2896L86.114 61.9242L75.8668 59.9323L70.8059 69.0624L69.5337 58.7013L59.2865 56.7094L68.7474 52.2977L67.4753 41.9366Z" fill="#DBDAD0"/>
<path d="M58.5352 85.3598L65.6545 92.9944L75.1155 88.5827L70.0546 97.7128L77.1739 105.347L66.9267 103.356L61.8658 112.486L60.5936 102.125L50.3465 100.133L59.8074 95.721L58.5352 85.3598Z" fill="#DBDAD0"/>
<path d="M101.703 72.3324L108.822 79.9669L118.283 75.5552L113.222 84.6854L120.341 92.3199L110.094 90.3281L105.033 99.4582L103.761 89.0971L93.5138 87.1052L102.975 82.6935L101.703 72.3324Z" fill="#DBDAD0"/>
<path d="M135.233 79.2876C135.233 109.089 111.075 133.247 81.2737 133.247C51.4725 133.247 27.3139 109.089 27.3139 79.2876C27.3139 49.4864 51.4725 25.3278 81.2737 25.3278C111.075 25.3278 135.233 49.4864 135.233 79.2876Z" stroke="#DBDAD0" stroke-width="0.638578"/>
<path d="M151.198 79.2876C151.198 117.906 119.892 149.212 81.2736 149.212C42.6555 149.212 11.3494 117.906 11.3494 79.2876C11.3494 40.6695 42.6555 9.36339 81.2736 9.36339C119.892 9.36339 151.198 40.6695 151.198 79.2876Z" stroke="#DBDAD0" stroke-width="0.638578"/>
<path d="M141.031 79.8064L149.942 80.5297L149.347 87.862L140.436 87.1387L140.489 86.4895L149.018 87.1818L148.798 87.3562L149.319 80.9405L149.507 81.1479L140.978 80.4556L141.031 79.8064Z" fill="#DBDAD0"/>
<path d="M139.109 93.184C139.247 92.6131 139.505 92.128 139.882 91.7289C140.257 91.3381 140.722 91.0654 141.277 90.9108C141.837 90.7665 142.457 90.7766 143.136 90.9413C143.814 91.1059 144.365 91.3798 144.789 91.7631C145.219 92.1566 145.512 92.613 145.666 93.1323C145.818 93.6599 145.825 94.2092 145.687 94.7801C145.538 95.3924 145.265 95.9044 144.867 96.316C144.476 96.738 143.999 97.0252 143.436 97.1778C142.871 97.3387 142.266 97.3408 141.621 97.1842C140.975 97.0276 140.438 96.7484 140.01 96.3466C139.58 95.9531 139.284 95.4781 139.121 94.9217C138.964 94.3755 138.96 93.7963 139.109 93.184ZM137.54 89.36L146.426 91.5163L146.282 92.112L144.159 91.5971L143.054 91.2237L141.894 91.0738L137.389 89.9806L137.54 89.36ZM139.676 93.2823C139.556 93.7787 139.559 94.2526 139.686 94.704C139.821 95.1574 140.069 95.546 140.428 95.8698C140.786 96.2018 141.233 96.4331 141.771 96.5636C142.317 96.6961 142.821 96.6957 143.283 96.5624C143.751 96.4394 144.145 96.2064 144.464 95.8635C144.792 95.5225 145.017 95.1038 145.137 94.6074C145.258 94.1109 145.25 93.636 145.115 93.1826C144.986 92.7395 144.743 92.3519 144.385 92.0199C144.034 91.6981 143.585 91.4709 143.039 91.3384C142.501 91.2079 141.998 91.2042 141.531 91.3272C141.061 91.4585 140.663 91.6905 140.337 92.0231C140.017 92.3661 139.797 92.7858 139.676 93.2823Z" fill="#DBDAD0"/>
<path d="M137.712 98.1215L144.005 100.322L143.794 100.925L137.501 98.7243L137.712 98.1215ZM145.431 101.159C145.479 101.022 145.568 100.923 145.698 100.86C145.828 100.797 145.957 100.789 146.086 100.833C146.223 100.881 146.322 100.97 146.385 101.1C146.448 101.231 146.455 101.364 146.407 101.501C146.357 101.645 146.268 101.745 146.141 101.8C146.018 101.865 145.889 101.874 145.752 101.826C145.616 101.778 145.516 101.689 145.453 101.559C145.388 101.437 145.38 101.304 145.431 101.159Z" fill="#DBDAD0"/>
<path d="M135.354 103.873C135.622 103.293 135.993 102.837 136.467 102.502C136.937 102.176 137.467 101.985 138.056 101.929C138.641 101.881 139.231 101.995 139.826 102.27C140.428 102.549 140.897 102.926 141.231 103.4C141.569 103.885 141.766 104.412 141.821 104.982C141.873 105.559 141.764 106.138 141.496 106.717C141.228 107.297 140.857 107.754 140.383 108.088C139.909 108.422 139.38 108.613 138.794 108.661C138.217 108.713 137.627 108.599 137.024 108.32C136.429 108.044 135.961 107.668 135.619 107.191C135.277 106.713 135.08 106.186 135.029 105.608C134.977 105.031 135.085 104.452 135.354 103.873ZM135.875 104.114C135.661 104.578 135.572 105.044 135.609 105.511C135.653 105.982 135.82 106.411 136.11 106.799C136.4 107.186 136.796 107.496 137.298 107.729C137.808 107.965 138.3 108.066 138.776 108.033C139.258 108.003 139.69 107.852 140.07 107.577C140.459 107.307 140.76 106.939 140.975 106.476C141.189 106.012 141.274 105.545 141.23 105.074C141.189 104.614 141.026 104.187 140.74 103.792C140.458 103.408 140.062 103.098 139.552 102.861C139.05 102.629 138.557 102.527 138.074 102.557C137.588 102.595 137.152 102.745 136.768 103.008C136.388 103.282 136.09 103.651 135.875 104.114Z" fill="#DBDAD0"/>
<path d="M131.223 111.366C131.54 110.872 131.942 110.497 132.429 110.243C132.911 109.996 133.439 109.89 134.014 109.924C134.591 109.971 135.173 110.183 135.761 110.56C136.349 110.936 136.78 111.375 137.056 111.876C137.334 112.388 137.462 112.915 137.438 113.456C137.41 114.005 137.238 114.526 136.92 115.021C136.58 115.551 136.155 115.946 135.645 116.205C135.137 116.476 134.592 116.592 134.011 116.553C133.424 116.521 132.852 116.325 132.293 115.967C131.734 115.608 131.317 115.169 131.044 114.65C130.765 114.137 130.64 113.592 130.667 113.013C130.698 112.445 130.883 111.896 131.223 111.366ZM130.987 107.239L138.684 112.177L138.353 112.693L136.515 111.513L135.592 110.8L134.544 110.28L130.642 107.777L130.987 107.239ZM131.727 111.644C131.451 112.074 131.3 112.523 131.273 112.991C131.253 113.464 131.36 113.912 131.594 114.335C131.824 114.766 132.172 115.131 132.637 115.429C133.11 115.733 133.587 115.897 134.067 115.921C134.549 115.958 134.997 115.866 135.412 115.646C135.833 115.431 136.182 115.108 136.457 114.678C136.733 114.248 136.881 113.797 136.901 113.324C136.924 112.863 136.82 112.417 136.59 111.987C136.363 111.568 136.013 111.207 135.54 110.904C135.075 110.605 134.6 110.437 134.118 110.401C133.631 110.372 133.179 110.461 132.762 110.669C132.348 110.889 132.003 111.214 131.727 111.644Z" fill="#DBDAD0"/>
<path d="M128.25 115.636L133.48 119.771L133.084 120.272L127.854 116.137L128.25 115.636ZM134.554 121.028C134.644 120.914 134.761 120.849 134.904 120.832C135.048 120.815 135.173 120.849 135.28 120.934C135.393 121.023 135.458 121.14 135.475 121.284C135.492 121.427 135.455 121.556 135.366 121.669C135.271 121.789 135.154 121.855 135.016 121.865C134.879 121.887 134.754 121.853 134.64 121.763C134.527 121.673 134.461 121.557 134.445 121.413C134.423 121.276 134.459 121.148 134.554 121.028Z" fill="#DBDAD0"/>
<path d="M125.173 119.286L129.775 123.565L129.513 123.566L131.409 121.527L131.83 121.918L127.847 126.202L127.426 125.81L129.322 123.771L129.34 124.033L124.739 119.754L125.173 119.286Z" fill="#DBDAD0"/>
<path d="M119.746 124.464C120.256 124.026 120.803 123.748 121.385 123.63C121.962 123.517 122.529 123.557 123.088 123.751C123.64 123.95 124.13 124.298 124.557 124.796C124.989 125.3 125.266 125.831 125.386 126.39C125.505 126.961 125.475 127.514 125.295 128.05C125.115 128.585 124.796 129.05 124.337 129.444C123.878 129.837 123.377 130.083 122.832 130.18C122.281 130.283 121.735 130.229 121.196 130.019C120.655 129.82 120.169 129.469 119.737 128.965C119.72 128.946 119.704 128.92 119.688 128.889C119.671 128.869 119.652 128.847 119.63 128.821L124.098 124.987L124.423 125.365L120.216 128.974L120.252 128.624C120.583 129.024 120.97 129.304 121.41 129.464C121.85 129.637 122.29 129.686 122.73 129.611C123.176 129.542 123.59 129.344 123.971 129.017C124.346 128.696 124.605 128.317 124.747 127.881C124.888 127.457 124.906 127.015 124.803 126.554C124.705 126.099 124.484 125.672 124.14 125.271L124.065 125.184C123.71 124.77 123.304 124.48 122.846 124.312C122.387 124.156 121.918 124.126 121.44 124.222C120.967 124.325 120.524 124.554 120.11 124.909C119.787 125.186 119.537 125.502 119.358 125.857C119.174 126.217 119.087 126.6 119.099 127.005L118.543 126.926C118.53 126.466 118.63 126.021 118.844 125.591C119.058 125.172 119.358 124.797 119.746 124.464Z" fill="#DBDAD0"/>
<path d="M114.725 128.385L118.233 133.598L117.978 133.539L120.287 131.984L120.608 132.461L115.755 135.727L115.435 135.25L117.744 133.696L117.703 133.954L114.195 128.741L114.725 128.385Z" fill="#DBDAD0"/>
<path d="M110.75 130.972L113.796 136.902L113.228 137.194L111.839 134.49L107.818 136.556L109.207 139.259L108.639 139.551L105.593 133.621L106.161 133.329L107.561 136.056L111.583 133.99L110.182 131.264L110.75 130.972Z" fill="#DBDAD0"/>
<path d="M103.153 134.673L105.33 140.974L104.727 141.182L102.871 135.811L100.236 142.734L99.705 142.917L97.5279 136.616L98.1315 136.408L99.9874 141.779L102.622 134.856L103.153 134.673Z" fill="#DBDAD0"/>
<path d="M95.1145 137.262L96.3886 143.806L95.7617 143.928L94.6756 138.35L91.0983 144.836L90.5467 144.944L89.2726 138.4L89.8994 138.278L90.9856 143.856L94.5629 137.37L95.1145 137.262ZM93.688 145.373C94.1978 145.274 94.6459 145.325 95.0322 145.528C95.4119 145.74 95.6572 146.087 95.7683 146.568L95.3045 146.659C95.2211 146.319 95.0386 146.073 94.7572 145.919C94.4674 145.768 94.1387 145.728 93.771 145.799C93.4032 145.871 93.1177 146.03 92.9144 146.278C92.7027 146.528 92.6261 146.824 92.6844 147.169L92.2081 147.262C92.122 146.775 92.2193 146.362 92.4999 146.021C92.7738 145.69 93.1698 145.474 93.688 145.373Z" fill="#DBDAD0"/>
<path d="M77.0927 145.161V138.494H77.7313V141.534H82.2524V138.494H82.891V145.161H82.2524V142.096H77.7313V145.161H77.0927Z" fill="#DBDAD0"/>
<path d="M70.9409 138.188L70.7423 139.695L70.7376 139.927L70.4106 142.408C70.3295 143.025 70.4366 143.515 70.7319 143.881C71.0189 144.245 71.4832 144.469 72.1247 144.554C72.5805 144.614 73.0174 144.59 73.4353 144.481C73.8436 144.381 74.2032 144.226 74.514 144.018L74.7705 144.516C74.4023 144.768 73.9756 144.943 73.4902 145.043C73.0036 145.15 72.5071 145.171 72.0006 145.104C71.1818 144.996 70.5802 144.706 70.1957 144.235C69.8113 143.764 69.673 143.118 69.7809 142.3L70.3331 138.108L70.9409 138.188ZM73.328 138.451C73.8176 138.516 74.2339 138.648 74.5769 138.848C74.9103 139.055 75.1551 139.315 75.3115 139.627C75.4594 139.939 75.5088 140.28 75.4599 140.652C75.4154 140.989 75.2994 141.283 75.1119 141.533C74.9148 141.791 74.6236 141.98 74.2384 142.101C73.8521 142.231 73.355 142.255 72.7472 142.175L70.3161 141.855L70.3812 141.361L72.7996 141.68C73.4834 141.77 73.9812 141.707 74.2932 141.49C74.5967 141.272 74.7734 140.974 74.8235 140.594C74.8791 140.172 74.7632 139.813 74.4758 139.517C74.1884 139.222 73.7534 139.036 73.171 138.959C72.6138 138.886 72.1287 138.95 71.7154 139.154C71.2938 139.356 70.9584 139.685 70.7093 140.142L70.5887 139.688C70.8294 139.23 71.1839 138.886 71.6522 138.656C72.111 138.433 72.6696 138.365 73.328 138.451Z" fill="#DBDAD0"/>
<path d="M67.9453 137.677L66.226 144.119L60.5992 142.617L62.3185 136.175L62.9355 136.34L61.315 142.411L61.1916 142.18L65.93 143.445L65.7078 143.584L67.3284 137.513L67.9453 137.677Z" fill="#DBDAD0"/>
<path d="M56.7711 133.977C57.3122 134.206 57.7492 134.539 58.0822 134.975C58.4074 135.409 58.6015 135.911 58.6646 136.484C58.7165 137.06 58.6065 137.67 58.3345 138.313C58.0625 138.956 57.7032 139.456 57.2566 139.812C56.7988 140.173 56.3012 140.388 55.7638 140.457C55.2185 140.522 54.6753 140.44 54.1342 140.211C53.554 139.966 53.0928 139.614 52.7507 139.155C52.3975 138.7 52.191 138.183 52.1313 137.603C52.0636 137.02 52.1592 136.422 52.4179 135.811C52.6766 135.199 53.0388 134.714 53.5044 134.356C53.9622 133.995 54.4788 133.779 55.0542 133.708C55.6185 133.642 56.1908 133.732 56.7711 133.977ZM60.7982 133.046L57.236 141.468L56.6714 141.229L57.5221 139.217L58.069 138.187L58.4041 137.067L60.2101 132.797L60.7982 133.046ZM56.5825 134.521C56.112 134.322 55.6438 134.249 55.1778 134.302C54.7085 134.362 54.2851 134.543 53.9075 134.846C53.5221 135.145 53.2216 135.55 53.006 136.059C52.7871 136.577 52.7062 137.074 52.7632 137.551C52.8091 138.033 52.9755 138.459 53.2624 138.83C53.5459 139.209 53.9229 139.498 54.3934 139.697C54.8639 139.896 55.3338 139.965 55.8031 139.905C56.2612 139.849 56.683 139.671 57.0684 139.372C57.4426 139.078 57.7392 138.671 57.9581 138.154C58.1737 137.644 58.2586 137.148 58.2127 136.667C58.1589 136.182 57.9942 135.752 57.7185 135.376C57.4317 135.005 57.053 134.72 56.5825 134.521Z" fill="#DBDAD0"/>
<path d="M48.4172 129.643L47.1622 131.75L47.12 131.546L49.1498 132.755C49.8667 133.182 50.3347 133.669 50.554 134.216C50.7617 134.766 50.6846 135.345 50.323 135.952C49.9395 136.595 49.4383 136.946 48.8193 137.003C48.2004 137.061 47.5361 136.878 46.8266 136.456L44.5005 135.07L47.9125 129.342L48.4172 129.643ZM52.6305 132.153L49.7257 133.411L49.1442 133.064L52.027 131.793L52.6305 132.153ZM47.0707 131.903L45.1948 135.052L45.1721 134.816L47.0813 135.953C47.6665 136.302 48.1875 136.459 48.6445 136.424C49.1014 136.388 49.4824 136.115 49.7874 135.603C50.3452 134.667 50.0316 133.846 48.8466 133.14L46.8716 131.963L47.0707 131.903Z" fill="#DBDAD0"/>
<path d="M45.5232 127.792L41.3314 132.976L40.8448 132.582L41.7082 126.497L41.9267 126.674L36.1473 128.784L35.6905 128.415L39.8822 123.231L40.3391 123.6L36.6291 128.188L36.5619 128.068L42.0554 126.088L42.2838 126.273L41.4836 132.097L41.3484 132.021L45.0663 127.422L45.5232 127.792Z" fill="#DBDAD0"/>
<path d="M36.3752 119.51C36.8084 119.979 37.089 120.497 37.217 121.062C37.3392 121.621 37.3137 122.184 37.1405 122.749C36.9614 123.309 36.6311 123.81 36.1493 124.255C35.6613 124.706 35.1346 124.995 34.5691 125.123C33.9916 125.25 33.429 125.231 32.8813 125.064C32.3279 124.892 31.8346 124.571 31.4014 124.101C30.9683 123.632 30.6877 123.115 30.5597 122.549C30.4317 121.984 30.4572 121.422 30.6362 120.862C30.809 120.309 31.1394 119.807 31.6274 119.356C32.1091 118.912 32.6358 118.623 33.2076 118.489C33.7793 118.355 34.3419 118.374 34.8954 118.547C35.4488 118.72 35.9421 119.041 36.3752 119.51ZM35.9529 119.9C35.6064 119.525 35.2101 119.265 34.764 119.12C34.3116 118.982 33.851 118.972 33.3823 119.092C32.9135 119.212 32.4758 119.46 32.0692 119.835C31.6562 120.216 31.3745 120.633 31.2238 121.085C31.0669 121.542 31.0426 121.999 31.1509 122.456C31.253 122.918 31.4772 123.336 31.8238 123.712C32.1703 124.087 32.5697 124.344 33.0221 124.483C33.4625 124.621 33.9199 124.633 34.3944 124.519C34.8569 124.405 35.2946 124.158 35.7075 123.777C36.1142 123.401 36.396 122.985 36.5528 122.527C36.704 122.063 36.7314 121.603 36.6351 121.147C36.5268 120.691 36.2994 120.275 35.9529 119.9Z" fill="#DBDAD0"/>
<path d="M30.0929 111.628L29.049 115.895L28.4874 115.638L29.6467 111.005L30.0929 111.628ZM32.9563 115.626L27.5365 119.508L27.1646 118.989L32.5844 115.107L32.9563 115.626ZM30.1908 117.072L29.7443 117.392L28.5246 115.689L28.9711 115.37L30.1908 117.072ZM28.7662 115.391L29.0253 115.928L24.755 115.625L24.3459 115.054L28.7662 115.391Z" fill="#DBDAD0"/>
<path d="M22.3773 87.4019L13.4483 87.8479L13.0814 80.5006L22.0104 80.0547L22.0428 80.7052L13.4966 81.132L13.6911 80.9305L14.0122 87.3594L13.7985 87.1782L22.3448 86.7514L22.3773 87.4019Z" fill="#DBDAD0"/>
<path d="M22.5372 73.8879C22.4744 74.472 22.282 74.9865 21.9601 75.4315C21.6392 75.8679 21.2139 76.199 20.6844 76.4246C20.1473 76.6409 19.5317 76.7117 18.8375 76.637C18.1434 76.5624 17.5611 76.3627 17.0908 76.0381C16.6129 75.7041 16.2636 75.2897 16.0427 74.795C15.8228 74.2918 15.7443 73.7481 15.8071 73.164C15.8745 72.5376 16.0785 71.9943 16.4191 71.5343C16.7522 71.0648 17.1878 70.7178 17.7257 70.493C18.2646 70.2598 18.8642 70.1788 19.5246 70.2498C20.1849 70.3208 20.7535 70.5275 21.2305 70.87C21.7084 71.204 22.0644 71.6362 22.2985 72.1666C22.525 72.6877 22.6046 73.2614 22.5372 73.8879ZM24.5921 77.4744L15.5001 76.4964L15.5656 75.8869L17.737 76.1205L18.8817 76.3463L20.0509 76.3436L24.6603 76.8394L24.5921 77.4744ZM21.9617 73.8645C22.0163 73.3566 21.9512 72.8872 21.7664 72.4562C21.573 72.0244 21.277 71.6714 20.8783 71.3973C20.4805 71.1148 20.0065 70.9439 19.4563 70.8847C18.8975 70.8246 18.398 70.8908 17.9577 71.0832C17.5098 71.2662 17.1498 71.5486 16.8775 71.9304C16.5968 72.3112 16.4291 72.7556 16.3744 73.2636C16.3198 73.7715 16.3892 74.2414 16.5825 74.6732C16.7683 75.0957 17.06 75.4482 17.4578 75.7308C17.848 76.0039 18.3225 76.1706 18.8812 76.2307C19.4315 76.2899 19.9306 76.2279 20.3784 76.0449C20.8272 75.8534 21.1915 75.5714 21.4713 75.1991C21.7436 74.8173 21.9071 74.3725 21.9617 73.8645Z" fill="#DBDAD0"/>
<path d="M23.2771 68.8103L16.7507 67.4498L16.881 66.8247L23.4074 68.1852L23.2771 68.8103ZM15.228 66.8062C15.1984 66.9479 15.1232 67.0584 15.0024 67.1375C14.8815 67.2167 14.7544 67.2424 14.621 67.2146C14.4793 67.185 14.3689 67.1098 14.2897 66.989C14.2105 66.8681 14.1857 66.7368 14.2153 66.5951C14.2465 66.4451 14.3217 66.3346 14.4409 66.2638C14.5534 66.1829 14.6805 66.1572 14.8222 66.1867C14.9639 66.2163 15.0744 66.2915 15.1535 66.4124C15.2344 66.5249 15.2593 66.6562 15.228 66.8062Z" fill="#DBDAD0"/>
<path d="M24.8648 62.8003C24.6744 63.4098 24.3661 63.9111 23.94 64.3043C23.5164 64.6894 23.0164 64.9479 22.4399 65.0801C21.866 65.204 21.2661 65.1683 20.6403 64.9728C20.0064 64.7748 19.4929 64.4627 19.0997 64.0366C18.7009 63.5998 18.437 63.1026 18.3079 62.5449C18.1814 61.9791 18.2134 61.3914 18.4038 60.7819C18.5942 60.1723 18.9025 59.671 19.3286 59.2778C19.7547 58.8846 20.2547 58.6261 20.8286 58.5021C21.3945 58.3755 21.9943 58.4113 22.6282 58.6093C23.254 58.8048 23.7676 59.1169 24.1689 59.5455C24.5702 59.9742 24.8341 60.4714 24.9606 61.0372C25.0871 61.6031 25.0552 62.1907 24.8648 62.8003ZM24.3162 62.6289C24.4685 62.1413 24.4959 61.6681 24.3983 61.2095C24.2926 60.7483 24.0709 60.3445 23.7331 59.9981C23.3953 59.6518 22.9623 59.3961 22.434 59.231C21.8976 59.0635 21.396 59.0272 20.9293 59.1222C20.4544 59.2147 20.0463 59.4217 19.705 59.7433C19.3556 60.0623 19.1047 60.4656 18.9523 60.9532C18.8 61.4409 18.7767 61.9153 18.8824 62.3765C18.9825 62.827 19.2002 63.2295 19.5354 63.584C19.8651 63.9278 20.2981 64.1835 20.8345 64.3511C21.3628 64.5161 21.8644 64.5524 22.3393 64.4599C22.8167 64.3593 23.2289 64.1535 23.5758 63.8426C23.917 63.5211 24.1639 63.1165 24.3162 62.6289Z" fill="#DBDAD0"/>
<path d="M27.9823 54.8321C27.7324 55.3637 27.3827 55.7874 26.9333 56.103C26.4875 56.4109 25.9775 56.5851 25.4034 56.6257C24.8251 56.6549 24.2201 56.521 23.5882 56.224C22.9564 55.927 22.4711 55.5483 22.1324 55.088C21.7896 54.6164 21.5945 54.1108 21.5472 53.571C21.5034 53.0236 21.6065 52.4841 21.8565 51.9524C22.1245 51.3822 22.4946 50.9352 22.9667 50.6115C23.4346 50.2764 23.9596 50.0903 24.5414 50.0534C25.1269 50.0087 25.7202 50.1277 26.3212 50.4102C26.9222 50.6928 27.3923 51.0737 27.7315 51.553C28.0743 52.0246 28.2698 52.5493 28.3181 53.1271C28.3623 53.6935 28.2504 54.2619 27.9823 54.8321ZM28.7548 58.8926L20.4792 55.0024L20.74 54.4476L22.7164 55.3767L23.7248 55.9636L24.8309 56.3424L29.0265 58.3147L28.7548 58.8926ZM27.4459 54.6222C27.6632 54.1599 27.7548 53.6949 27.7206 53.2273C27.6787 52.756 27.5141 52.3258 27.2266 51.9366C26.9427 51.5397 26.5504 51.2236 26.0495 50.9881C25.541 50.7491 25.0472 50.6487 24.5682 50.6869C24.0851 50.7139 23.6526 50.8634 23.2707 51.1354C22.8811 51.4039 22.5776 51.7692 22.3603 52.2316C22.143 52.6939 22.0552 53.1607 22.0971 53.632C22.1349 54.0919 22.2958 54.5204 22.5796 54.9172C22.8594 55.3028 23.2535 55.6151 23.7621 55.8541C24.263 56.0896 24.7549 56.1938 25.238 56.1669C25.7247 56.1322 26.161 55.9846 26.547 55.7238C26.9289 55.4518 27.2286 55.0846 27.4459 54.6222Z" fill="#DBDAD0"/>
<path d="M30.3721 50.2103L24.6476 46.7935L24.9749 46.2451L30.6994 49.662L30.3721 50.2103ZM23.4185 45.688C23.3443 45.8123 23.2371 45.8921 23.097 45.9275C22.9569 45.9629 22.8284 45.9456 22.7114 45.8758C22.5871 45.8016 22.5073 45.6945 22.4719 45.5544C22.4366 45.4143 22.456 45.2821 22.5302 45.1578C22.6087 45.0262 22.7159 44.9464 22.8516 44.9183C22.9844 44.8786 23.1129 44.8958 23.2372 44.97C23.3615 45.0442 23.4413 45.1513 23.4767 45.2914C23.5164 45.4242 23.497 45.5564 23.4185 45.688Z" fill="#DBDAD0"/>
<path d="M32.9462 46.1901L27.8254 42.5485L28.0852 42.5138L26.4716 44.7828L26.0033 44.4497L29.3932 39.6828L29.8616 40.0159L28.248 42.2848L28.1955 42.0281L33.3163 45.6697L32.9462 46.1901Z" fill="#DBDAD0"/>
<path d="M37.6516 40.3479C37.2026 40.8488 36.697 41.196 36.1348 41.3895C35.5782 41.5767 35.0103 41.6107 34.431 41.4916C33.8574 41.3662 33.3265 41.0846 32.8383 40.647C32.3438 40.2037 32.0004 39.713 31.8082 39.1748C31.6154 38.6246 31.5731 38.0722 31.6815 37.5176C31.7899 36.963 32.0458 36.4606 32.4494 36.0105C32.8529 35.5603 33.3184 35.2515 33.8458 35.084C34.379 34.9102 34.9267 34.8923 35.489 35.0304C36.0506 35.1565 36.5787 35.4412 37.0732 35.8845C37.0922 35.9016 37.1115 35.9246 37.1312 35.9537C37.1502 35.9707 37.1724 35.9906 37.1978 36.0134L33.2678 40.3975L32.8969 40.065L36.5967 35.9377L36.6069 36.2898C36.2259 35.9368 35.8065 35.7095 35.3487 35.6079C34.8903 35.4943 34.4476 35.5034 34.0207 35.6352C33.5874 35.7614 33.2031 36.0115 32.8678 36.3856C32.5382 36.7533 32.3314 37.1625 32.2475 37.6133C32.1629 38.052 32.2021 38.4931 32.365 38.9364C32.5215 39.374 32.7964 39.769 33.1894 40.1214L33.275 40.1981C33.6808 40.5618 34.1217 40.797 34.5979 40.9037C35.0733 40.9983 35.5419 40.9666 36.0036 40.8088C36.4589 40.6452 36.8685 40.3606 37.2322 39.9548C37.5164 39.6378 37.7236 39.2919 37.8538 38.9169C37.9898 38.5357 38.0257 38.1448 37.9616 37.7443L38.5227 37.7499C38.5957 38.2041 38.5542 38.6586 38.3982 39.1133C38.2415 39.556 37.9926 39.9675 37.6516 40.3479Z" fill="#DBDAD0"/>
<path d="M42.1179 35.8056L37.9594 31.0949L38.2202 31.1202L36.1329 32.9628L35.7526 32.5319L40.1377 28.6608L40.5181 29.0916L38.4308 30.9342L38.4381 30.6723L42.5966 35.383L42.1179 35.8056Z" fill="#DBDAD0"/>
<path d="M45.7207 32.722L41.9266 27.2401L42.4517 26.8767L44.1816 29.3761L47.8991 26.8031L46.1693 24.3037L46.6944 23.9403L50.4884 29.4221L49.9634 29.7856L48.2189 27.2652L44.5014 29.8382L46.2458 32.3586L45.7207 32.722Z" fill="#DBDAD0"/>
<path d="M52.7698 28.061L49.7888 22.0979L50.36 21.8123L52.9012 26.8959L54.6097 19.688L55.1123 19.4367L58.0932 25.3999L57.522 25.6854L54.9808 20.6019L53.2724 27.8098L52.7698 28.061Z" fill="#DBDAD0"/>
<path d="M60.4016 24.4442L58.2842 18.1226L58.8898 17.9198L60.6948 23.3089L63.3948 16.4109L63.9276 16.2324L66.045 22.554L65.4395 22.7568L63.6345 17.3677L60.9344 24.2657L60.4016 24.4442ZM60.7572 16.2168C60.2647 16.3817 59.8138 16.3891 59.4043 16.2389C59.0002 16.078 58.7116 15.7661 58.5386 15.3032L58.9867 15.1531C59.1137 15.4787 59.3268 15.6992 59.6258 15.8146C59.9329 15.9272 60.2641 15.924 60.6193 15.805C60.9746 15.6861 61.2368 15.4905 61.406 15.2183C61.5833 14.9434 61.6206 14.6391 61.5178 14.3054L61.978 14.1512C62.1267 14.6222 62.0843 15.045 61.8506 15.4196C61.6222 15.7834 61.2578 16.0491 60.7572 16.2168Z" fill="#DBDAD0"/>
<path d="M77.1243 13.9907L77.9945 20.6004L77.3614 20.6837L76.9646 17.6701L72.4822 18.2602L72.8789 21.2739L72.2458 21.3572L71.3756 14.7475L72.0087 14.6641L72.4088 17.7031L76.8913 17.113L76.4912 14.074L77.1243 13.9907Z" fill="#DBDAD0"/>
<path d="M84.2476 20.3707L84.2477 18.8509L84.2222 18.621L84.2224 16.1178C84.2225 15.4962 84.0523 15.0237 83.7117 14.7001C83.3797 14.3765 82.8901 14.2147 82.243 14.2146C81.7833 14.2146 81.3533 14.2954 80.9531 14.4571C80.5614 14.6104 80.2251 14.8104 79.9441 15.0573L79.6248 14.5975C79.9569 14.2995 80.3571 14.0697 80.8254 13.908C81.2937 13.7377 81.7833 13.6526 82.2942 13.6527C83.1201 13.6527 83.7544 13.8614 84.1971 14.2787C84.6398 14.6959 84.8611 15.3175 84.861 16.1434L84.8606 20.3708L84.2476 20.3707ZM81.8465 20.4215C81.3527 20.4215 80.9227 20.3448 80.5566 20.1915C80.199 20.0297 79.9223 19.8041 79.7265 19.5146C79.5392 19.225 79.4456 18.893 79.4456 18.5183C79.4457 18.1778 79.5223 17.8713 79.6756 17.5988C79.8374 17.3179 80.1014 17.0923 80.4675 16.922C80.8337 16.7432 81.3232 16.6539 81.9363 16.6539L84.3884 16.6542L84.3884 17.1523L81.949 17.152C81.2593 17.152 80.774 17.2796 80.493 17.535C80.2205 17.7904 80.0843 18.1097 80.0842 18.4929C80.0842 18.9186 80.2459 19.2592 80.5694 19.5146C80.893 19.7701 81.3485 19.8979 81.936 19.8979C82.4979 19.898 82.9705 19.7703 83.3536 19.5149C83.7453 19.2595 84.0348 18.8892 84.2222 18.4039L84.401 18.8381C84.2221 19.3234 83.9156 19.7108 83.4813 20.0002C83.0556 20.2812 82.5106 20.4216 81.8465 20.4215Z" fill="#DBDAD0"/>
<path d="M87.2842 20.4866L88.1481 13.876L93.9228 14.6306L93.059 21.2412L92.4258 21.1584L93.24 14.9278L93.3925 15.1409L88.5295 14.5055L88.7317 14.3387L87.9174 20.5693L87.2842 20.4866Z" fill="#DBDAD0"/>
<path d="M98.8458 22.6966C98.2795 22.5403 97.8028 22.2674 97.4156 21.878C97.0367 21.4908 96.7786 21.0177 96.6414 20.4587C96.5146 19.8937 96.5441 19.2748 96.7298 18.6017C96.9155 17.9287 97.2065 17.3863 97.6028 16.9745C98.0095 16.5568 98.4749 16.2789 98.9988 16.1408C99.5309 16.005 100.08 16.0153 100.646 16.1715C101.254 16.3391 101.757 16.6281 102.156 17.0386C102.566 17.443 102.838 17.9289 102.973 18.4961C103.116 19.0655 103.099 19.6704 102.922 20.3106C102.746 20.9508 102.45 21.4786 102.035 21.894C101.628 22.3117 101.144 22.5933 100.583 22.7388C100.032 22.8782 99.4532 22.8642 98.8458 22.6966ZM94.9748 24.1457L97.4072 15.3307L97.9982 15.4938L97.4172 17.599L97.0096 18.6922L96.8235 19.8465L95.5903 24.3155L94.9748 24.1457ZM98.9618 22.1324C99.4542 22.2683 99.928 22.2798 100.383 22.1669C100.841 22.0458 101.237 21.8106 101.571 21.4614C101.915 21.1144 102.16 20.6742 102.307 20.1407C102.456 19.599 102.472 19.0954 102.353 18.6298C102.244 18.1582 102.024 17.7573 101.691 17.427C101.361 17.0885 100.949 16.8513 100.457 16.7154C99.9641 16.5795 99.4892 16.5721 99.0318 16.6932C98.5849 16.8083 98.1899 17.0394 97.8469 17.3864C97.5143 17.7274 97.2733 18.1687 97.1238 18.7104C96.9766 19.2439 96.9571 19.7465 97.0655 20.218C97.1821 20.6918 97.4015 21.0968 97.7239 21.4331C98.0567 21.7634 98.4693 21.9965 98.9618 22.1324Z" fill="#DBDAD0"/>
<path d="M107.694 25.9031L108.663 23.6507L108.732 23.847L106.561 22.9131C105.795 22.5832 105.267 22.1615 104.979 21.648C104.701 21.1299 104.702 20.5463 104.981 19.8972C105.277 19.2089 105.728 18.7959 106.335 18.6582C106.941 18.5205 107.623 18.6148 108.382 18.9413L110.869 20.0115L108.234 26.1353L107.694 25.9031ZM103.189 23.9646L105.905 22.3386L106.527 22.6061L103.834 24.2423L103.189 23.9646ZM108.734 23.4864L110.183 20.1195L110.236 20.351L108.195 19.4726C107.569 19.2034 107.032 19.1159 106.584 19.2103C106.135 19.3047 105.793 19.6256 105.558 20.1731C105.127 21.1741 105.545 21.9473 106.812 22.4925L108.924 23.4012L108.734 23.4864Z" fill="#DBDAD0"/>
<path d="M110.805 27.3609L114.284 21.674L114.818 22.0006L114.756 28.1463L114.516 27.9997L119.971 25.1532L120.472 25.4598L116.993 31.1467L116.492 30.8401L119.571 25.8069L119.653 25.9171L114.465 28.5972L114.215 28.4439L114.248 22.5652L114.392 22.6234L111.306 27.6675L110.805 27.3609Z" fill="#DBDAD0"/>
<path d="M120.955 34.3776C120.465 33.9689 120.119 33.4926 119.918 32.9487C119.724 32.4102 119.676 31.8493 119.774 31.2661C119.879 30.6883 120.141 30.1475 120.56 29.6437C120.985 29.1334 121.47 28.7779 122.014 28.5771C122.569 28.3753 123.13 28.3212 123.695 28.4148C124.266 28.5139 124.797 28.7677 125.287 29.1764C125.778 29.5851 126.124 30.0614 126.325 30.6053C126.525 31.1492 126.573 31.7101 126.469 32.2879C126.37 32.8592 126.108 33.4 125.683 33.9103C125.263 34.414 124.779 34.7696 124.229 34.9768C123.68 35.1841 123.12 35.2382 122.548 35.1392C121.977 35.0401 121.446 34.7863 120.955 34.3776ZM121.323 33.936C121.716 34.2629 122.143 34.4688 122.604 34.5538C123.07 34.6321 123.528 34.5813 123.977 34.4013C124.426 34.2213 124.828 33.9187 125.182 33.4934C125.542 33.0616 125.767 32.6119 125.857 32.1442C125.953 31.6699 125.918 31.2137 125.751 30.7755C125.589 30.3308 125.312 29.9449 124.92 29.618C124.527 29.2911 124.098 29.0884 123.631 29.01C123.176 28.9306 122.721 28.9781 122.266 29.1527C121.822 29.3261 121.42 29.6288 121.061 30.0606C120.706 30.4858 120.481 30.9356 120.386 31.4098C120.296 31.8895 120.329 32.349 120.484 32.7883C120.651 33.2265 120.931 33.609 121.323 33.936Z" fill="#DBDAD0"/>
<path d="M128.213 41.372L128.691 37.0054L129.281 37.1875L128.737 41.9314L128.213 41.372ZM124.852 37.7826L129.719 33.2262L130.155 33.6923L125.289 38.2488L124.852 37.7826ZM127.405 35.9872L127.806 35.6119L129.238 37.1409L128.837 37.5162L127.405 35.9872ZM129.037 37.4686L128.71 36.9699L132.984 36.713L133.464 37.2258L129.037 37.4686Z" fill="#DBDAD0"/>
</g>
</svg>
