<svg width="418" height="354" viewBox="0 0 418 354" fill="none" xmlns="http://www.w3.org/2000/svg">
<path d="M404.545 284.976C404.913 284.783 405.386 284.59 405.885 284.59C406.148 284.59 406.41 284.638 406.647 284.783C407.356 285.17 407.777 286.112 407.777 287.368C407.777 289.977 406.069 293.021 403.94 294.156C403.362 294.446 402.548 294.736 401.838 294.349C401.129 293.963 400.708 293.021 400.708 291.764C400.708 289.155 402.416 286.112 404.545 284.976Z" fill="white"/>
<path d="M404.545 297.538C404.781 297.417 405.096 297.296 405.412 297.296C405.569 297.296 405.727 297.321 405.858 297.417C406.305 297.659 406.568 298.287 406.568 299.132C406.568 300.92 405.359 303.094 403.914 303.843C403.546 304.036 403.02 304.229 402.574 303.988C402.127 303.746 401.864 303.118 401.864 302.273C401.864 300.485 403.073 298.311 404.518 297.562L404.545 297.538Z" fill="white"/>
<path d="M400.34 284.541L408.723 280.097C408.723 280.097 408.933 280 409.064 280C409.117 280 409.143 280 409.196 280.024C409.327 280.097 409.458 280.314 409.458 280.773V301.451C409.458 302.369 408.828 303.505 408.118 303.867L399.736 308.312C399.736 308.312 399.42 308.481 399.263 308.384C399.131 308.312 399 308.094 399 307.635V286.957C399 286.039 399.631 284.904 400.34 284.541ZM401.969 304.954C402.285 305.123 402.653 305.22 403.047 305.22C403.52 305.22 404.019 305.075 404.545 304.809C406.384 303.843 407.803 301.331 407.803 299.108C407.803 297.852 407.33 296.861 406.463 296.427C405.727 296.04 404.834 296.088 403.914 296.572C402.074 297.538 400.656 300.05 400.656 302.273C400.656 303.529 401.128 304.519 401.996 304.954H401.969ZM401.207 295.34C401.628 295.557 402.101 295.678 402.574 295.678C403.204 295.678 403.861 295.509 404.518 295.146C407.015 293.818 408.959 290.412 408.959 287.392C408.959 285.701 408.329 284.421 407.225 283.817C406.279 283.309 405.096 283.382 403.914 284.01C401.418 285.339 399.473 288.745 399.473 291.764C399.473 293.455 400.104 294.736 401.207 295.34Z" fill="#709ED6"/>
<path d="M403.94 284.01C405.123 283.382 406.305 283.31 407.251 283.817C408.355 284.397 408.985 285.701 408.985 287.392C408.985 290.412 407.041 293.818 404.545 295.146C403.888 295.509 403.204 295.678 402.6 295.678C402.101 295.678 401.654 295.557 401.234 295.34C400.13 294.76 399.499 293.455 399.499 291.765C399.499 288.745 401.444 285.339 403.94 284.01ZM401.838 294.349C402.547 294.736 403.362 294.446 403.94 294.156C406.042 293.045 407.777 290.001 407.777 287.368C407.777 286.112 407.356 285.146 406.647 284.783C406.41 284.662 406.147 284.59 405.885 284.59C405.385 284.59 404.912 284.783 404.545 284.976C402.442 286.088 400.708 289.131 400.708 291.765C400.708 293.021 401.128 293.987 401.838 294.349Z" fill="#1E1E1E"/>
<path d="M403.94 296.572C404.86 296.088 405.753 296.04 406.489 296.427C407.33 296.886 407.829 297.852 407.829 299.108C407.829 301.33 406.384 303.819 404.571 304.809C404.072 305.075 403.572 305.22 403.073 305.22C402.705 305.22 402.337 305.123 401.996 304.954C401.155 304.495 400.655 303.529 400.655 302.273C400.655 300.05 402.101 297.562 403.914 296.572H403.94ZM402.6 303.988C403.047 304.229 403.572 304.036 403.94 303.843C405.385 303.07 406.594 300.92 406.594 299.132C406.594 298.287 406.331 297.659 405.885 297.417C405.727 297.345 405.596 297.296 405.438 297.296C405.123 297.296 404.807 297.417 404.571 297.538C403.126 298.311 401.917 300.461 401.917 302.248C401.917 303.094 402.18 303.722 402.626 303.964L402.6 303.988Z" fill="#1E1E1E"/>
<path d="M193.876 281.041C194.244 280.848 194.664 280.751 195.111 280.751C195.742 280.751 196.451 280.944 197.161 281.331C200.288 282.998 202.81 287.467 202.81 291.308C202.81 293.216 202.18 294.665 201.05 295.245C200.156 295.704 199 295.607 197.765 294.955C194.638 293.313 192.115 288.819 192.115 284.978C192.115 283.07 192.746 281.621 193.876 281.041Z" fill="white"/>
<path d="M293.836 287.708C293.836 287.708 294.02 287.635 294.099 287.635C294.309 287.635 294.546 287.732 294.677 287.805L301.746 291.549C302.797 292.105 303.664 293.675 303.664 294.979C303.664 295.559 303.48 295.994 303.191 296.139C302.902 296.284 302.534 296.139 302.35 296.042L295.281 292.298C294.23 291.742 293.363 290.172 293.363 288.868C293.363 288.288 293.547 287.853 293.836 287.708Z" fill="white"/>
<path d="M290.762 326.891C287.661 319.571 282.484 313.435 276.887 310.464C274.548 309.232 272.288 308.604 270.186 308.58L276.283 305.294C277.123 305.584 277.991 305.971 278.858 306.43C286.583 310.536 293.442 320.199 295.912 330.514C295.938 330.635 296.017 330.732 296.122 330.804C296.122 330.804 296.122 330.804 296.148 330.828C296.148 330.828 296.175 330.852 296.201 330.877L306.607 336.602C305.74 340.177 303.795 342.762 301.115 343.873C300.984 343.921 300.905 344.018 300.852 344.09L290.946 349.332C292.627 346.941 293.547 343.631 293.547 339.718C293.547 335.805 292.575 331.215 290.735 326.891H290.762Z" fill="#2D2D2D"/>
<path d="M335.407 314.112C335.407 313.774 335.381 313.46 335.381 313.121L351.594 304.497L355.142 323.726L355.983 328.268C356.14 329.186 356.797 329.983 357.717 330.369C358.137 330.563 358.584 330.635 359.031 330.635C359.583 330.635 360.108 330.514 360.581 330.249L390.485 314.353C392.824 313.121 394.322 310.899 394.506 308.435L395.478 294.786C395.504 294.279 395.557 293.192 395.635 291.863C395.714 291.718 395.714 291.549 395.635 291.404C395.793 287.636 396.03 282.176 396.082 280.824L412.585 272.055C412.585 272.175 412.585 272.32 412.585 272.441V303.169C412.585 304.666 412.112 305.874 411.297 306.43C411.297 306.43 411.271 306.478 411.244 306.478L334.987 347.038C335.223 346.385 335.381 345.661 335.381 344.839V314.112H335.407ZM397.843 307.469C397.843 308.266 398.158 308.894 398.736 309.184C398.946 309.305 399.209 309.353 399.472 309.353C399.787 309.353 400.103 309.256 400.444 309.087L408.827 304.642C409.93 304.063 410.798 302.565 410.798 301.236V280.558C410.798 279.761 410.482 279.133 409.904 278.843C409.405 278.577 408.801 278.601 408.196 278.915L399.814 283.36C398.71 283.94 397.843 285.438 397.843 286.766V307.444V307.469ZM338.035 339.114C338.035 339.911 338.35 340.539 338.928 340.829C339.139 340.95 339.401 340.998 339.664 340.998C339.98 340.998 340.321 340.902 340.636 340.733L349.019 336.288C350.123 335.708 350.99 334.21 350.99 332.882V312.203C350.99 311.406 350.675 310.778 350.096 310.488C349.597 310.223 348.993 310.247 348.388 310.561L340.006 315.006C338.902 315.585 338.035 317.083 338.035 318.412V339.09V339.114Z" fill="white"/>
<path d="M314.122 279.809L319.614 276.91C319.798 276.814 320.114 276.693 320.35 276.789L320.455 276.838C320.718 277.007 320.876 277.418 320.876 277.925V290.752C320.876 291.67 320.429 292.709 319.798 293.409C319.562 293.675 319.299 293.917 319.01 294.062L313.518 296.985C313.334 297.081 313.019 297.202 312.756 297.105H312.703C312.441 296.912 312.283 296.501 312.283 295.97V283.143C312.283 281.887 313.124 280.365 314.149 279.833L314.122 279.809Z" fill="white"/>
<path d="M406.541 255.773L336.222 293.168L322.242 245.385L392.561 207.99L406.541 255.773Z" fill="#494949"/>
<path d="M317.933 274.519C317.538 274.519 317.144 274.591 316.724 274.784L311.232 277.683C309.839 278.408 308.762 280.292 308.762 281.983V286.935L297.121 280.775C295.045 279.688 293.363 276.693 293.363 274.132V238.187C293.363 236.955 293.757 236.013 294.467 235.65C295.15 235.288 295.964 235.554 296.516 235.843L309.287 242.607C310.89 243.453 312.362 245.651 312.94 248.067C314.28 253.84 317.696 265.822 320.508 275.557L318.432 274.519C318.274 274.446 318.09 274.446 317.933 274.494V274.519Z" fill="#353535"/>
<path d="M318.563 248.091C317.591 243.839 314.727 239.805 311.468 238.066L263.88 212.339C263.591 212.194 263.302 212.073 263.012 211.977L339.428 171.345C339.428 171.345 339.454 171.321 339.48 171.296C339.507 171.296 339.559 171.296 339.585 171.296C340.19 171.127 340.899 171.248 341.688 171.659L389.276 197.386C392.246 198.956 394.873 202.7 395.793 206.686L410.403 257.126C411.271 260.073 411.822 263.092 412.19 266.112L334.908 307.203C334.54 304.28 333.962 301.357 333.147 298.506L318.537 248.091H318.563ZM319.352 238.066C319.194 237.8 318.8 237.704 318.511 237.849L317.801 238.235C317.512 238.38 317.407 238.742 317.565 239.008C317.67 239.177 317.88 239.298 318.09 239.298C318.195 239.298 318.301 239.274 318.406 239.225L319.115 238.839C319.404 238.694 319.509 238.332 319.352 238.066ZM323.609 235.795C323.451 235.529 323.057 235.433 322.768 235.578L321.349 236.327C321.06 236.472 320.955 236.834 321.112 237.1C321.217 237.269 321.428 237.39 321.638 237.39C321.743 237.39 321.848 237.39 321.953 237.317L323.372 236.568C323.661 236.423 323.766 236.061 323.609 235.795ZM327.866 233.524C327.708 233.259 327.314 233.162 327.025 233.307L325.606 234.056C325.317 234.201 325.212 234.563 325.369 234.829C325.474 234.998 325.685 235.119 325.895 235.119C326 235.119 326.105 235.095 326.21 235.046L327.629 234.297C327.918 234.153 328.023 233.79 327.866 233.524ZM332.123 231.254C331.965 230.988 331.571 230.891 331.282 231.036L329.863 231.785C329.574 231.93 329.469 232.292 329.626 232.558C329.731 232.727 329.941 232.848 330.152 232.848C330.257 232.848 330.362 232.824 330.467 232.776L331.886 232.027C332.175 231.882 332.28 231.519 332.123 231.254ZM336.38 228.983C336.222 228.717 335.828 228.621 335.539 228.766L334.12 229.514C333.831 229.659 333.725 230.022 333.883 230.287C333.988 230.457 334.198 230.577 334.409 230.577C334.514 230.577 334.619 230.553 334.724 230.505L336.143 229.756C336.432 229.611 336.537 229.249 336.38 228.983ZM340.636 226.712C340.479 226.446 340.085 226.35 339.796 226.495L338.377 227.244C338.088 227.389 337.982 227.751 338.14 228.017C338.245 228.186 338.455 228.307 338.666 228.307C338.771 228.307 338.876 228.282 338.981 228.234L340.4 227.485C340.689 227.34 340.794 226.978 340.636 226.712ZM344.893 224.441C344.736 224.176 344.342 224.079 344.053 224.224L342.634 224.973C342.345 225.118 342.239 225.48 342.397 225.746C342.502 225.915 342.712 226.036 342.923 226.036C343.028 226.036 343.133 226.036 343.238 225.963L344.657 225.215C344.946 225.07 345.051 224.707 344.893 224.441ZM349.15 222.171C348.993 221.905 348.599 221.808 348.31 221.953L346.891 222.702C346.601 222.847 346.496 223.209 346.654 223.475C346.759 223.644 346.969 223.765 347.18 223.765C347.285 223.765 347.39 223.741 347.495 223.693L348.914 222.944C349.203 222.799 349.308 222.436 349.15 222.171ZM353.407 219.9C353.25 219.634 352.856 219.538 352.567 219.683L351.148 220.431C350.858 220.576 350.753 220.939 350.911 221.204C351.016 221.374 351.226 221.494 351.437 221.494C351.542 221.494 351.647 221.47 351.752 221.422L353.171 220.673C353.46 220.528 353.565 220.166 353.407 219.9ZM357.664 217.629C357.507 217.364 357.113 217.267 356.823 217.412L355.404 218.161C355.115 218.306 355.01 218.668 355.168 218.934C355.273 219.103 355.483 219.224 355.694 219.224C355.799 219.224 355.904 219.199 356.009 219.151L357.428 218.402C357.717 218.257 357.822 217.895 357.664 217.629ZM361.921 215.359C361.764 215.093 361.37 214.996 361.08 215.141L359.661 215.89C359.372 216.035 359.267 216.397 359.425 216.663C359.53 216.832 359.74 216.953 359.951 216.953C360.056 216.953 360.161 216.929 360.266 216.88L361.685 216.132C361.974 215.987 362.079 215.624 361.921 215.359ZM366.178 213.088C366.021 212.822 365.626 212.725 365.337 212.87L363.918 213.619C363.629 213.764 363.524 214.126 363.682 214.392C363.787 214.561 363.997 214.682 364.207 214.682C364.313 214.682 364.418 214.658 364.523 214.61L365.942 213.861C366.231 213.716 366.336 213.353 366.178 213.088ZM370.435 210.817C370.278 210.551 369.883 210.455 369.594 210.6L368.175 211.348C367.886 211.493 367.781 211.856 367.939 212.121C368.044 212.291 368.254 212.411 368.464 212.411C368.57 212.411 368.675 212.387 368.78 212.339L370.199 211.59C370.488 211.445 370.593 211.083 370.435 210.817ZM374.692 208.546C374.535 208.281 374.14 208.184 373.851 208.329L372.432 209.078C372.143 209.223 372.038 209.585 372.196 209.851C372.301 210.02 372.511 210.141 372.721 210.141C372.827 210.141 372.932 210.141 373.037 210.068L374.456 209.319C374.745 209.174 374.85 208.812 374.692 208.546ZM378.949 206.276C378.792 206.01 378.397 205.913 378.108 206.058L376.689 206.807C376.4 206.952 376.295 207.314 376.453 207.58C376.558 207.749 376.768 207.87 376.978 207.87C377.084 207.87 377.189 207.846 377.294 207.797L378.713 207.049C379.002 206.904 379.107 206.541 378.949 206.276ZM383.206 204.005C383.049 203.739 382.654 203.642 382.365 203.787L380.946 204.536C380.657 204.681 380.552 205.044 380.71 205.309C380.815 205.478 381.025 205.599 381.235 205.599C381.34 205.599 381.446 205.575 381.551 205.527L382.97 204.778C383.259 204.633 383.364 204.27 383.206 204.005ZM387.463 201.734C387.305 201.468 386.911 201.372 386.622 201.517L385.203 202.265C384.914 202.41 384.809 202.773 384.967 203.039C385.072 203.208 385.282 203.328 385.492 203.328C385.597 203.328 385.703 203.328 385.808 203.256L387.227 202.507C387.516 202.362 387.621 202 387.463 201.734ZM391.011 199.85C390.853 199.584 390.459 199.487 390.17 199.632L389.46 200.019C389.171 200.164 389.066 200.526 389.224 200.792C389.329 200.961 389.539 201.082 389.749 201.082C389.854 201.082 389.96 201.058 390.065 201.009L390.774 200.623C391.063 200.478 391.168 200.116 391.011 199.85ZM335.066 294.062C335.066 294.062 335.066 294.062 335.066 294.086C335.066 294.11 335.066 294.158 335.092 294.182C335.118 294.231 335.171 294.255 335.197 294.279C335.223 294.303 335.25 294.327 335.276 294.351C335.381 294.424 335.486 294.448 335.617 294.448C335.67 294.448 335.723 294.448 335.775 294.448C335.801 294.448 335.828 294.424 335.88 294.4C335.88 294.4 335.907 294.4 335.933 294.4L407.566 256.522C407.566 256.522 407.566 256.522 407.592 256.498C407.618 256.498 407.644 256.449 407.697 256.425C407.723 256.401 407.749 256.377 407.776 256.353C407.776 256.329 407.802 256.28 407.828 256.256C407.828 256.232 407.855 256.184 407.855 256.159C407.855 256.135 407.855 256.087 407.855 256.063C407.855 256.014 407.855 255.99 407.855 255.942C407.855 255.942 407.855 255.918 407.855 255.894L393.56 206.976C393.56 206.976 393.56 206.928 393.533 206.904C393.533 206.879 393.533 206.855 393.507 206.831C393.507 206.831 393.507 206.831 393.481 206.807C393.481 206.783 393.428 206.759 393.402 206.735C393.376 206.71 393.349 206.686 393.297 206.662C393.297 206.662 393.244 206.638 393.218 206.614C393.165 206.614 393.139 206.59 393.087 206.565C393.06 206.565 393.034 206.565 392.981 206.565C392.929 206.565 392.903 206.565 392.85 206.565C392.85 206.565 392.824 206.565 392.798 206.565C392.771 206.565 392.745 206.565 392.719 206.59C392.719 206.59 392.666 206.59 392.64 206.59L321.217 244.564C321.217 244.564 321.217 244.564 321.191 244.588C321.165 244.588 321.139 244.637 321.086 244.661C321.06 244.685 321.033 244.709 321.007 244.733C321.007 244.757 320.981 244.806 320.955 244.83C320.955 244.854 320.928 244.902 320.928 244.926C320.928 244.951 320.928 244.999 320.928 245.023C320.928 245.071 320.928 245.096 320.928 245.144C320.928 245.144 320.928 245.168 320.928 245.192L335.223 294.11L335.066 294.062Z" fill="#DFD9E4"/>
<path d="M322.084 281.065C323.661 286.428 324.791 290.245 324.817 290.341C325.133 292.008 324.791 293.409 323.924 293.965C323.214 294.424 322.374 294.134 321.769 293.82L321.191 293.506C321.743 292.684 322.084 291.67 322.084 290.728V281.041V281.065Z" fill="#353535"/>
<path d="M311.836 278.674L317.328 275.775C317.591 275.654 317.801 275.582 317.985 275.63L318.826 276.041L313.518 278.867C312.125 279.592 311.048 281.476 311.048 283.167V295.994C311.048 295.994 311.048 296.163 311.048 296.26L310.654 296.042C310.181 295.728 309.971 295.487 309.971 294.835V282.007C309.971 280.751 310.811 279.229 311.836 278.698V278.674Z" fill="#DFD9E4"/>
<path d="M288.528 313.145V226.954L310.864 239.032C313.833 240.602 316.461 244.347 317.381 248.332L331.991 298.772C333.436 303.772 334.172 308.918 334.172 314.087V344.815C334.172 346.458 333.62 347.69 332.674 348.197C331.912 348.608 330.94 348.511 329.863 347.955L311.205 337.809L307.632 335.853L297.016 330.007C295.492 323.798 292.391 317.856 288.502 313.121L288.528 313.145ZM314.122 297.951L319.614 295.028C319.903 294.883 320.192 294.665 320.455 294.4L321.191 294.786C321.848 295.148 322.505 295.318 323.109 295.318C323.661 295.318 324.187 295.173 324.633 294.883C325.921 294.061 326.42 292.274 326.026 290.075C325.921 289.713 316.592 258.358 314.122 247.825C313.465 245.071 311.81 242.656 309.892 241.617L297.121 234.853C295.938 234.225 294.782 234.152 293.862 234.66C292.785 235.239 292.154 236.52 292.154 238.162V274.108C292.154 277.079 294.073 280.437 296.516 281.717L308.762 288.191V294.762C308.762 295.801 309.182 296.308 309.708 296.694C309.76 296.767 309.813 296.815 309.892 296.839L309.997 296.888C309.997 296.888 309.997 296.888 310.023 296.912C310.023 296.912 310.023 296.912 310.049 296.912L312.046 297.951C312.046 297.951 312.046 297.951 312.099 297.975C312.099 297.975 312.151 297.975 312.178 297.999H312.23C312.23 297.999 312.257 298.023 312.283 298.023C312.519 298.12 312.756 298.168 312.992 298.168C313.36 298.168 313.754 298.071 314.149 297.854L314.122 297.951ZM301.877 328.871C301.877 329.065 301.982 329.258 302.192 329.355L311.81 334.452C311.81 334.452 312.02 334.524 312.125 334.524C312.23 334.524 312.335 334.5 312.441 334.452C312.624 334.355 312.756 334.162 312.756 333.969V327.47C312.756 327.277 312.651 327.084 312.441 326.987L302.823 321.89C302.639 321.793 302.403 321.793 302.219 321.89C302.035 321.987 301.903 322.18 301.903 322.373V328.871H301.877ZM302.902 297.323C303.217 297.323 303.506 297.25 303.769 297.105C304.452 296.743 304.846 295.97 304.846 294.955C304.846 293.24 303.743 291.307 302.324 290.559L295.255 286.814C294.519 286.428 293.783 286.38 293.179 286.718C292.496 287.08 292.102 287.853 292.102 288.868C292.102 290.583 293.205 292.515 294.624 293.264L301.693 297.009C302.087 297.226 302.508 297.323 302.876 297.323H302.902Z" fill="#C2BACC"/>
<path d="M197.791 267.585C195.348 266.281 192.956 265.677 190.749 265.725L193.219 264.445L227.275 282.514C227.406 283.046 227.511 283.577 227.59 284.109L223.491 286.259C223.491 286.259 223.281 286.428 223.228 286.549C219.654 288.65 217.579 293.143 217.579 298.989C217.579 300.366 217.684 301.767 217.92 303.193L211.876 306.43C213.532 304.038 214.451 300.753 214.451 296.839C214.451 285.582 206.962 272.465 197.765 267.585H197.791Z" fill="#2D2D2D"/>
<path d="M224.174 287.322C225.357 286.694 226.671 286.38 228.09 286.38C230.008 286.38 232.136 286.959 234.291 288.095C243.147 292.805 250.373 305.488 250.373 316.382C250.373 322.011 248.428 326.263 245.012 328.074C242.227 329.548 238.653 329.258 234.895 327.277C226.04 322.567 218.814 309.884 218.814 298.99C218.814 293.361 220.758 289.109 224.174 287.298V287.322ZM234.291 321.504C235.894 322.349 237.444 322.784 238.916 322.784C240.02 322.784 241.071 322.542 242.017 322.035C244.592 320.658 246.063 317.542 246.063 313.484C246.063 305.971 241.071 297.202 234.895 293.941C232.084 292.443 229.351 292.274 227.196 293.409C224.621 294.786 223.149 297.902 223.149 301.961C223.149 309.474 228.142 318.243 234.317 321.504H234.291Z" fill="#353535"/>
<path d="M269.766 317.687C270.502 317.3 271.342 317.107 272.236 317.107C273.471 317.107 274.837 317.494 276.23 318.218C282.037 321.31 286.767 329.645 286.767 336.795C286.767 340.443 285.506 343.221 283.325 344.38C281.538 345.322 279.252 345.129 276.834 343.849C271.027 340.757 266.297 332.423 266.297 325.272C266.297 321.625 267.558 318.846 269.74 317.687H269.766ZM276.572 319.426C275.941 319.088 275.442 319.426 275.442 320.199C275.442 320.972 275.941 321.842 276.572 322.18C277.202 322.518 277.702 322.18 277.702 321.407C277.702 320.634 277.202 319.764 276.572 319.426ZM283.272 326.383C282.826 325.61 282.116 325.248 281.696 325.538C281.249 325.852 281.249 326.722 281.696 327.47C282.143 328.244 282.852 328.606 283.272 328.316C283.719 328.002 283.719 327.132 283.272 326.383ZM284.928 336.843C285.559 337.182 286.058 336.843 286.058 336.07C286.058 335.297 285.559 334.428 284.928 334.089C284.297 333.751 283.798 334.089 283.798 334.862C283.798 335.636 284.297 336.505 284.928 336.843ZM281.696 341.965C282.143 342.738 282.852 343.1 283.272 342.81C283.719 342.496 283.719 341.626 283.272 340.878C282.826 340.104 282.116 339.742 281.696 340.032C281.249 340.346 281.249 341.216 281.696 341.965ZM276.598 342.641C277.229 342.979 277.728 342.641 277.728 341.868C277.728 341.095 277.229 340.225 276.598 339.887C275.967 339.549 275.468 339.887 275.468 340.66C275.468 341.433 275.967 342.303 276.598 342.641ZM276.283 338.824C277.202 339.307 278.122 339.549 278.963 339.549C279.62 339.549 280.251 339.404 280.802 339.114C282.3 338.317 283.167 336.529 283.167 334.186C283.167 329.983 280.356 325.055 276.887 323.219C275.258 322.349 273.655 322.253 272.367 322.929C270.869 323.726 270.002 325.514 270.002 327.857C270.002 332.06 272.814 336.988 276.283 338.824ZM269.897 335.684C270.344 336.457 271.053 336.819 271.474 336.529C271.921 336.215 271.921 335.346 271.474 334.597C271.027 333.824 270.318 333.461 269.897 333.751C269.45 334.065 269.45 334.935 269.897 335.684ZM269.897 321.214C270.344 321.987 271.053 322.349 271.474 322.059C271.921 321.745 271.921 320.876 271.474 320.127C271.027 319.354 270.318 318.991 269.897 319.281C269.45 319.595 269.45 320.465 269.897 321.214ZM268.242 325.224C267.611 324.886 267.112 325.224 267.112 325.997C267.112 326.77 267.611 327.64 268.242 327.978C268.872 328.316 269.372 327.978 269.372 327.205C269.372 326.432 268.872 325.562 268.242 325.224Z" fill="white"/>
<path d="M191.984 263.793L186.387 266.716C186.387 266.716 186.177 266.885 186.124 267.006C185.572 267.32 185.073 267.707 184.574 268.141V265.75L190.118 262.803L191.958 263.793H191.984Z" fill="#2D2D2D"/>
<path d="M227.8 294.351C228.536 293.965 229.377 293.771 230.27 293.771C231.506 293.771 232.872 294.134 234.265 294.883C240.072 297.975 244.802 306.309 244.802 313.459C244.802 317.107 243.541 319.885 241.36 321.045C239.599 321.987 237.287 321.793 234.869 320.513C229.062 317.421 224.332 309.087 224.332 301.936C224.332 298.289 225.593 295.511 227.774 294.351H227.8ZM234.606 296.091C233.976 295.752 233.476 296.091 233.476 296.864C233.476 297.637 233.976 298.506 234.606 298.844C235.237 299.183 235.736 298.844 235.736 298.071C235.736 297.298 235.237 296.429 234.606 296.091ZM241.307 303.048C240.86 302.275 240.151 301.912 239.73 302.202C239.31 302.492 239.284 303.386 239.73 304.135C240.177 304.884 240.887 305.27 241.307 304.98C241.754 304.666 241.754 303.797 241.307 303.048ZM242.963 313.508C243.593 313.846 244.092 313.508 244.092 312.735C244.092 311.962 243.593 311.092 242.963 310.754C242.332 310.416 241.833 310.754 241.833 311.527C241.833 312.3 242.332 313.169 242.963 313.508ZM239.73 318.629C240.177 319.402 240.887 319.764 241.307 319.474C241.754 319.16 241.754 318.291 241.307 317.542C240.86 316.769 240.151 316.406 239.73 316.696C239.284 317.01 239.284 317.88 239.73 318.629ZM234.633 319.305C235.263 319.643 235.763 319.305 235.763 318.532C235.763 317.759 235.263 316.89 234.633 316.551C234.002 316.213 233.503 316.551 233.503 317.324C233.503 318.097 234.002 318.967 234.633 319.305ZM234.317 315.488C235.237 315.972 236.157 316.213 236.998 316.213C237.654 316.213 238.285 316.068 238.837 315.778C240.335 314.981 241.202 313.194 241.202 310.85C241.202 306.647 238.39 301.719 234.922 299.883C233.292 299.014 231.689 298.917 230.402 299.593C228.904 300.39 228.037 302.178 228.037 304.521C228.037 308.725 230.849 313.653 234.317 315.488ZM227.932 312.348C228.378 313.121 229.088 313.483 229.508 313.194C229.955 312.88 229.955 312.01 229.508 311.261C229.062 310.488 228.352 310.126 227.932 310.416C227.485 310.73 227.485 311.599 227.932 312.348ZM227.932 297.878C228.378 298.651 229.088 299.014 229.508 298.724C229.955 298.41 229.955 297.54 229.508 296.791C229.062 296.018 228.352 295.656 227.932 295.946C227.485 296.26 227.485 297.129 227.932 297.878ZM226.276 301.888C225.646 301.55 225.146 301.888 225.146 302.661C225.146 303.434 225.646 304.304 226.276 304.642C226.907 304.98 227.406 304.642 227.406 303.869C227.406 303.096 226.907 302.226 226.276 301.888Z" fill="white"/>
<path d="M78.5174 208.836L83.4576 206.203L188.91 262.174L183.969 264.783L78.5174 208.836Z" fill="#353535"/>
<path d="M265.115 311.309L267.191 310.198C268.084 309.884 269.056 309.715 270.081 309.715C271.999 309.715 274.102 310.27 276.256 311.43C281.617 314.281 286.61 320.199 289.605 327.301C291.392 331.504 292.338 335.804 292.338 339.718C292.338 345.346 290.394 349.598 286.978 351.41C284.192 352.883 280.618 352.593 276.861 350.612C268.005 345.902 260.779 333.219 260.779 322.325C260.779 318.411 261.699 315.174 263.459 312.904C263.958 312.275 264.484 311.744 265.088 311.309H265.115ZM276.256 344.791C277.859 345.636 279.41 346.071 280.881 346.071C281.985 346.071 283.036 345.829 283.982 345.322C286.557 343.945 288.029 340.829 288.029 336.771C288.029 329.258 283.036 320.489 276.861 317.228C274.049 315.754 271.316 315.561 269.135 316.696C266.56 318.073 265.088 321.189 265.088 325.248C265.088 332.761 270.081 341.529 276.256 344.791Z" fill="#353535"/>
<path d="M234.895 287.128C232.452 285.824 230.06 285.22 227.853 285.268L228.3 285.027H228.352C228.536 285.002 228.668 284.906 228.773 284.785L230.139 284.06L248.665 293.892C248.665 293.892 248.665 293.892 248.691 293.892C248.77 293.94 248.875 293.965 248.98 293.965C249.085 293.965 249.164 293.94 249.269 293.892C249.269 293.892 249.269 293.892 249.296 293.892L258.309 289.109V305.512C258.309 307.444 259.071 309.304 260.437 310.754C260.516 310.85 260.7 311.043 260.884 311.261C261.41 311.841 261.83 312.324 262.172 312.662C260.779 314.643 259.912 317.228 259.649 320.271L248.98 325.972C250.636 323.581 251.555 320.296 251.555 316.382C251.555 305.125 244.066 292.008 234.869 287.128H234.895Z" fill="#2D2D2D"/>
<path d="M228.668 283.263L228.93 283.408L228.72 283.529C228.72 283.529 228.694 283.36 228.668 283.263Z" fill="white"/>
<path d="M230.98 300.584C231.348 300.391 231.768 300.294 232.215 300.294C232.846 300.294 233.555 300.487 234.265 300.874C237.392 302.541 239.914 307.01 239.914 310.85C239.914 312.759 239.284 314.208 238.154 314.788C237.26 315.247 236.104 315.15 234.869 314.498C231.742 312.831 229.22 308.362 229.22 304.521C229.22 302.613 229.85 301.164 230.98 300.584Z" fill="white"/>
<path d="M268.741 305.004C270.554 304.376 272.578 304.328 274.706 304.835L266.77 309.135C265.325 309.643 264.037 310.512 262.934 311.744C262.855 311.648 262.75 311.551 262.645 311.454C263.88 308.193 265.982 305.971 268.715 305.029L268.741 305.004Z" fill="#9C93AA"/>
<path d="M340.584 316.02L348.966 311.575C348.966 311.575 349.282 311.43 349.439 311.503C349.571 311.575 349.702 311.793 349.702 312.252V332.93C349.702 333.848 349.072 334.983 348.362 335.37L339.979 339.815C339.979 339.815 339.664 339.984 339.506 339.887C339.375 339.815 339.244 339.597 339.244 339.138V318.46C339.244 317.542 339.874 316.407 340.61 316.044L340.584 316.02ZM342.213 336.433C342.528 336.602 342.896 336.698 343.29 336.698C343.763 336.698 344.263 336.553 344.762 336.288C346.601 335.321 348.02 332.809 348.02 330.587C348.02 329.33 347.547 328.34 346.68 327.905C345.945 327.519 345.025 327.567 344.131 328.05C342.292 329.016 340.873 331.529 340.873 333.751C340.873 335.007 341.346 335.998 342.213 336.433ZM341.451 326.818C341.871 327.036 342.318 327.156 342.817 327.156C343.448 327.156 344.105 326.987 344.762 326.625C347.258 325.296 349.203 321.89 349.203 318.871C349.203 317.18 348.572 315.899 347.469 315.295C346.523 314.788 345.34 314.861 344.158 315.489C341.661 316.817 339.717 320.223 339.717 323.243C339.717 324.934 340.347 326.214 341.451 326.818Z" fill="#709ED6"/>
<path d="M335.066 308.435C335.066 308.435 335.092 308.435 335.118 308.435L412.348 267.344C412.453 268.479 412.532 269.639 412.558 270.774L335.328 311.841C335.276 310.706 335.197 309.546 335.092 308.411L335.066 308.435Z" fill="#494949"/>
<path d="M261.383 310.005C260.201 308.749 259.544 307.154 259.544 305.488V216.035C259.544 214.706 259.964 213.716 260.647 213.233L261.12 212.991C261.725 212.798 262.461 212.894 263.275 213.305L287.293 226.301V311.744C284.902 309.111 282.221 306.937 279.462 305.463C278.411 304.908 277.386 304.473 276.361 304.135C273.471 303.193 270.738 303.12 268.294 303.966C265.377 304.98 263.144 307.227 261.751 310.464C261.593 310.295 261.462 310.126 261.383 310.053V310.005Z" fill="#C2BACC"/>
<path d="M1.76062 49.3282L92.4446 1.20776L339.69 132.428L249.007 180.548L1.76062 49.3282Z" fill="#709ED6"/>
<path d="M258.335 287.805L249.611 292.443V281.307L258.335 276.668V287.805Z" fill="white"/>
<path d="M249.611 181.514L340.295 133.394V143.637L249.611 191.757V181.514Z" fill="white"/>
<path d="M356.403 323.968L393.586 304.183L393.297 308.072L357.007 327.301L356.403 323.968Z" fill="#494949"/>
<path d="M339.086 170.306C339.086 170.306 338.928 170.33 338.85 170.378L260.542 212.001C260.542 212.001 260.332 212.049 260.227 212.121C260.148 212.17 260.096 212.242 260.017 212.29L259.885 212.363C259.885 212.363 259.728 212.484 259.675 212.556C258.834 213.305 258.335 214.513 258.335 216.059V275.388L249.611 280.026V193.086L340.295 144.965V170.137C339.927 170.137 339.585 170.137 339.244 170.258C339.191 170.258 339.139 170.306 339.086 170.354V170.306Z" fill="#022F44"/>
<path d="M389.881 313.387L359.977 329.282C359.425 329.572 358.794 329.596 358.216 329.355C357.769 329.161 357.454 328.847 357.27 328.437L393.06 309.473C392.613 311.116 391.484 312.517 389.854 313.387H389.881Z" fill="#494949"/>
<path d="M344.788 316.455C345.156 316.262 345.629 316.068 346.128 316.068C346.391 316.068 346.654 316.117 346.89 316.262C347.6 316.648 348.02 317.59 348.02 318.846C348.02 321.455 346.312 324.499 344.184 325.634C343.632 325.924 342.791 326.214 342.082 325.828C341.372 325.441 340.952 324.499 340.952 323.243C340.952 320.634 342.66 317.59 344.788 316.455Z" fill="white"/>
<path d="M352.698 303.918L394.847 281.5C394.821 282.515 394.742 284.157 394.663 285.969L353.434 307.903L352.698 303.918Z" fill="#494949"/>
<path d="M355.457 318.895L394.006 298.41L393.691 302.83L356.193 322.784L355.457 318.895Z" fill="#494949"/>
<path d="M354.537 313.846L394.4 292.66C394.348 293.603 394.322 294.327 394.295 294.738L394.138 297.081L355.273 317.735L354.564 313.87L354.537 313.846Z" fill="#494949"/>
<path d="M353.644 309.087L394.611 287.298C394.558 288.675 394.506 290.1 394.427 291.308L354.301 312.638L353.644 309.063V309.087Z" fill="#494949"/>
<path d="M172.617 214.827C172.46 214.948 172.355 215.117 172.381 215.31C172.381 215.503 172.512 215.672 172.696 215.769L248.402 255.942V268.938L149.099 216.228L184.127 191.878C184.285 191.757 184.39 191.588 184.364 191.395C184.364 191.202 184.232 191.032 184.048 190.936L1.15611 93.8494V80.853L207.646 190.453L172.617 214.803V214.827Z" fill="white"/>
<path d="M78.0969 209.923L183.365 265.75V269.494C182.655 270.412 182.104 271.475 181.631 272.658L78.0969 217.726V209.923Z" fill="#494949"/>
<path d="M16.6074 180.669C22.4148 183.761 27.1447 192.095 27.1447 199.246C27.1447 202.893 25.8834 205.671 23.7024 206.831C21.9418 207.773 19.6293 207.58 17.2118 206.3C11.4044 203.207 6.67448 194.873 6.67448 187.723C6.67448 184.075 7.9358 181.297 10.1168 180.138C10.8526 179.751 11.6935 179.558 12.5869 179.558C13.822 179.558 15.1884 179.92 16.5811 180.669H16.6074ZM16.9227 181.877C16.2921 181.539 15.7928 181.877 15.7928 182.65C15.7928 183.423 16.2921 184.293 16.9227 184.631C17.5534 184.969 18.0527 184.631 18.0527 183.858C18.0527 183.085 17.5534 182.215 16.9227 181.877ZM23.6235 188.834C23.1768 188.061 22.4673 187.699 22.0469 187.989C21.6002 188.303 21.6002 189.172 22.0469 189.921C22.4936 190.694 23.2031 191.057 23.6235 190.767C24.0702 190.453 24.0702 189.583 23.6235 188.834ZM25.279 199.294C25.9097 199.632 26.4089 199.294 26.4089 198.521C26.4089 197.748 25.9097 196.878 25.279 196.54C24.6484 196.202 24.1491 196.54 24.1491 197.313C24.1491 198.086 24.6484 198.956 25.279 199.294ZM22.0469 204.415C22.4936 205.188 23.2031 205.551 23.6235 205.261C24.0702 204.947 24.0702 204.077 23.6235 203.328C23.1768 202.555 22.4673 202.193 22.0469 202.483C21.6002 202.797 21.6002 203.666 22.0469 204.415ZM16.949 205.092C17.5797 205.43 18.079 205.092 18.079 204.319C18.079 203.546 17.5797 202.676 16.949 202.338C16.3184 202 15.8191 202.338 15.8191 203.111C15.8191 203.884 16.3184 204.753 16.949 205.092ZM10.2482 198.134C10.695 198.907 11.4045 199.27 11.8249 198.98C12.2716 198.666 12.2716 197.796 11.8249 197.047C11.3782 196.274 10.6687 195.912 10.2482 196.202C9.80152 196.516 9.80152 197.386 10.2482 198.134ZM8.59274 187.675C7.96207 187.336 7.46282 187.675 7.46282 188.448C7.46282 189.221 7.96207 190.09 8.59274 190.428C9.2234 190.767 9.72269 190.428 9.72269 189.655C9.72269 188.882 9.2234 188.013 8.59274 187.675ZM11.8249 182.553C11.3782 181.78 10.6687 181.418 10.2482 181.708C9.80152 182.022 9.80152 182.891 10.2482 183.64C10.695 184.413 11.4045 184.776 11.8249 184.486C12.2716 184.172 12.2716 183.302 11.8249 182.553ZM10.3533 190.308C10.3533 194.511 13.165 199.439 16.6337 201.275C17.5534 201.758 18.4731 202 19.314 202C19.9709 202 20.6016 201.855 21.1534 201.565C22.6512 200.768 23.5184 198.98 23.5184 196.637C23.5184 192.433 20.7067 187.505 17.2381 185.67C15.6089 184.8 14.0059 184.703 12.7183 185.38C11.2205 186.177 10.3533 187.964 10.3533 190.308Z" fill="white"/>
<path d="M50.4267 205.913C50.7946 205.72 51.2151 205.623 51.6618 205.623C52.2925 205.623 53.0019 205.816 53.7114 206.203C56.8385 207.845 59.3611 212.339 59.3611 216.18C59.3611 218.088 58.7305 219.537 57.6006 220.117C56.7071 220.6 55.5509 220.48 54.3159 219.827C51.1888 218.16 48.6661 213.691 48.6661 209.85C48.6661 207.942 49.2968 206.493 50.4267 205.913Z" fill="white"/>
<path d="M187.07 267.779C188.253 267.15 189.567 266.836 190.986 266.836C192.904 266.836 195.032 267.416 197.187 268.552C206.043 273.262 213.269 285.944 213.269 296.839C213.269 302.468 211.324 306.719 207.908 308.531C205.123 310.005 201.549 309.715 197.791 307.734C188.936 303.023 181.71 290.341 181.71 279.446C181.71 273.818 183.654 269.566 187.07 267.754V267.779ZM197.187 301.961C198.79 302.806 200.34 303.241 201.812 303.241C202.916 303.241 203.967 302.999 204.913 302.492C207.488 301.115 208.959 297.999 208.959 293.94C208.959 286.428 203.967 277.659 197.791 274.398C194.98 272.9 192.247 272.731 190.092 273.866C187.517 275.243 186.045 278.359 186.045 282.418C186.045 289.93 191.038 298.699 197.213 301.961H197.187Z" fill="#353535"/>
<path d="M47.2471 199.681C47.9829 199.294 48.8238 199.101 49.7172 199.101C50.9523 199.101 52.3187 199.463 53.7114 200.212C59.5187 203.304 64.2487 211.638 64.2487 218.789C64.2487 222.437 62.9874 225.215 60.8064 226.374C59.0458 227.316 56.7333 227.123 54.3158 225.843C48.5084 222.751 43.7784 214.417 43.7784 207.266C43.7784 203.618 45.0398 200.84 47.2208 199.681H47.2471ZM54.053 201.42C53.4223 201.082 52.9231 201.42 52.9231 202.193C52.9231 202.966 53.4223 203.836 54.053 204.174C54.6837 204.512 55.183 204.174 55.183 203.401C55.183 202.628 54.6837 201.758 54.053 201.42ZM60.7538 208.377C60.3071 207.604 59.5976 207.242 59.1771 207.532C58.7304 207.846 58.7304 208.716 59.1771 209.464C59.6238 210.237 60.3334 210.6 60.7538 210.31C61.2005 209.996 61.2005 209.126 60.7538 208.377ZM62.4093 218.837C63.04 219.175 63.5392 218.837 63.5392 218.064C63.5392 217.291 63.04 216.422 62.4093 216.083C61.7786 215.745 61.2793 216.083 61.2793 216.856C61.2793 217.629 61.7786 218.499 62.4093 218.837ZM59.1771 223.958C59.6238 224.732 60.3334 225.094 60.7538 224.804C61.2005 224.49 61.2005 223.62 60.7538 222.871C60.3071 222.098 59.5976 221.736 59.1771 222.026C58.7304 222.34 58.7304 223.21 59.1771 223.958ZM54.0793 224.635C54.7099 224.973 55.2092 224.635 55.2092 223.862C55.2092 223.089 54.7099 222.219 54.0793 221.881C53.4486 221.543 52.9493 221.881 52.9493 222.654C52.9493 223.427 53.4486 224.297 54.0793 224.635ZM53.7639 220.818C54.6837 221.301 55.6034 221.543 56.4443 221.543C57.1012 221.543 57.7319 221.398 58.2837 221.108C59.7815 220.311 60.6487 218.523 60.6487 216.18C60.6487 211.977 57.837 207.049 54.3683 205.213C52.7391 204.343 51.1362 204.246 49.8486 204.923C48.3507 205.72 47.4836 207.508 47.4836 209.851C47.4836 214.054 50.2953 218.982 53.7639 220.818ZM47.3785 217.678C47.8252 218.451 48.5347 218.813 48.9551 218.523C49.4019 218.209 49.4019 217.34 48.9551 216.591C48.5084 215.818 47.7989 215.455 47.3785 215.745C46.9318 216.059 46.9318 216.929 47.3785 217.678ZM47.3785 203.208C47.8252 203.981 48.5347 204.343 48.9551 204.053C49.4019 203.739 49.4019 202.87 48.9551 202.121C48.5084 201.348 47.7989 200.985 47.3785 201.275C46.9318 201.589 46.9318 202.459 47.3785 203.208ZM45.723 207.218C45.0923 206.88 44.593 207.218 44.593 207.991C44.593 208.764 45.0923 209.633 45.723 209.972C46.3537 210.31 46.8529 209.972 46.8529 209.199C46.8529 208.426 46.3537 207.556 45.723 207.218Z" fill="white"/>
<path d="M16.6075 173.905C25.463 178.616 32.6893 191.298 32.6893 202.193C32.6893 207.822 30.7448 212.073 27.3287 213.885C24.5433 215.358 20.9695 215.069 17.2118 213.088C8.35628 208.377 1.12995 195.695 1.12995 184.8C1.12995 179.172 3.07447 174.92 6.49056 173.108C7.67305 172.48 8.98695 172.166 10.4059 172.166C12.3242 172.166 14.4527 172.746 16.6075 173.881V173.905ZM5.46574 187.747C5.46574 195.26 10.4585 204.029 16.6075 207.29C18.2104 208.136 19.7608 208.57 21.2323 208.57C22.336 208.57 23.3871 208.329 24.3331 207.822C26.9083 206.445 28.3798 203.328 28.3798 199.27C28.3798 191.757 23.3871 182.988 17.2118 179.727C14.4001 178.229 11.6673 178.06 9.51251 179.196C6.93731 180.573 5.46574 183.689 5.46574 187.747Z" fill="#353535"/>
<path d="M43.6207 192.651C44.8032 192.023 46.1171 191.709 47.5361 191.709C49.4544 191.709 51.5829 192.289 53.7376 193.424C62.5932 198.134 69.8195 210.817 69.8195 221.712C69.8195 227.34 67.875 231.592 64.4589 233.403C61.6735 234.877 58.0997 234.587 54.342 232.606C45.4865 227.896 38.2601 215.213 38.2601 204.319C38.2601 198.69 40.2047 194.438 43.6207 192.627V192.651ZM53.7376 226.833C55.3406 227.678 56.8909 228.113 58.3625 228.113C59.4661 228.113 60.5173 227.872 61.4633 227.364C64.0385 225.987 65.51 222.871 65.51 218.813C65.51 211.3 60.5173 202.531 54.342 199.27C51.5303 197.772 48.7975 197.603 46.6427 198.738C44.0675 200.115 42.5959 203.232 42.5959 207.29C42.5959 214.803 47.5887 223.572 53.7376 226.833Z" fill="#353535"/>
<path d="M14.5578 186.08C15.1885 186.08 15.898 186.274 16.6075 186.66C19.7345 188.327 22.2571 192.796 22.2571 196.637C22.2571 198.545 21.6265 199.995 20.4965 200.574C19.6031 201.058 18.4469 200.937 17.2118 200.285C14.0848 198.618 11.5622 194.149 11.5622 190.308C11.5622 188.399 12.1928 186.95 13.3228 186.37C13.6907 186.177 14.1111 186.08 14.5578 186.08Z" fill="white"/>
<path d="M248.376 191.757L1.1562 60.537V50.3186L248.376 181.514V191.757Z" fill="white"/>
<path d="M248.376 254.637L174.089 215.213L209.117 190.863C209.275 190.743 209.38 190.573 209.354 190.38C209.354 190.187 209.222 190.018 209.038 189.921L1.12993 79.5727V61.8416L248.376 193.062V254.637Z" fill="#97C6FF"/>
<path d="M147.601 215.841C147.444 215.962 147.338 216.131 147.365 216.325C147.365 216.518 147.496 216.687 147.68 216.784L248.402 270.243V280.002L1.15611 148.782V95.1538L182.656 191.491L147.627 215.841H147.601ZM16.4497 145.98C16.4497 145.787 16.3446 145.593 16.1344 145.497L6.51677 140.4C6.33282 140.303 6.09634 140.303 5.9124 140.4C5.72845 140.496 5.59705 140.689 5.59705 140.883V147.381C5.59705 147.574 5.70218 147.767 5.9124 147.864L15.53 152.961C15.53 152.961 15.7402 153.034 15.8453 153.034C15.9504 153.034 16.0555 153.009 16.1606 152.961C16.3446 152.865 16.476 152.671 16.476 152.478V145.98H16.4497Z" fill="#97C6FF"/>
<path d="M54.3421 192.458C51.8983 191.177 49.507 190.549 47.2997 190.598L48.0355 190.211L50.6895 188.81L82.2226 205.551L77.1773 208.256C76.9408 208.377 76.8357 208.643 76.8883 208.86C76.8883 208.884 76.8883 208.909 76.8883 208.957V218.064C76.8883 218.257 76.9934 218.451 77.2036 218.547L82.9847 221.615C82.1964 223.161 81.119 224.393 79.8314 225.214L68.4795 231.278C70.1349 228.886 71.0546 225.601 71.0546 221.688C71.0546 210.43 63.5655 197.313 54.3684 192.434L54.3421 192.458Z" fill="#2D2D2D"/>
<path d="M190.67 274.833C191.406 274.446 192.247 274.253 193.14 274.253C194.375 274.253 195.742 274.615 197.134 275.364C202.942 278.456 207.672 286.79 207.672 293.941C207.672 297.588 206.41 300.366 204.229 301.526C202.469 302.468 200.156 302.275 197.739 300.995C191.931 297.902 187.202 289.568 187.202 282.418C187.202 278.77 188.463 275.992 190.644 274.833H190.67ZM197.476 276.572C196.845 276.234 196.346 276.572 196.346 277.345C196.346 278.118 196.845 278.988 197.476 279.326C198.107 279.664 198.606 279.326 198.606 278.553C198.606 277.78 198.107 276.91 197.476 276.572ZM204.177 283.529C203.73 282.756 203.021 282.394 202.6 282.684C202.153 282.998 202.153 283.867 202.6 284.616C203.047 285.389 203.756 285.752 204.177 285.462C204.624 285.148 204.624 284.278 204.177 283.529ZM205.832 293.989C206.463 294.327 206.962 293.989 206.962 293.216C206.962 292.443 206.463 291.573 205.832 291.235C205.202 290.897 204.702 291.235 204.702 292.008C204.702 292.781 205.202 293.651 205.832 293.989ZM202.6 299.11C203.047 299.883 203.756 300.246 204.177 299.956C204.624 299.642 204.624 298.772 204.177 298.023C203.73 297.274 203.021 296.888 202.6 297.178C202.153 297.492 202.153 298.361 202.6 299.11ZM197.502 299.787C198.133 300.125 198.632 299.787 198.632 299.014C198.632 298.241 198.133 297.371 197.502 297.033C196.872 296.695 196.372 297.033 196.372 297.806C196.372 298.579 196.872 299.449 197.502 299.787ZM197.187 295.97C198.107 296.453 199.026 296.695 199.867 296.695C200.524 296.695 201.155 296.55 201.707 296.26C203.205 295.463 204.072 293.675 204.072 291.332C204.072 287.129 201.26 282.201 197.791 280.365C196.162 279.495 194.559 279.398 193.272 280.075C191.774 280.872 190.907 282.66 190.907 285.003C190.907 289.206 193.718 294.134 197.187 295.97ZM190.802 292.83C191.248 293.603 191.958 293.965 192.378 293.675C192.825 293.361 192.825 292.491 192.378 291.742C191.931 290.994 191.222 290.607 190.802 290.897C190.355 291.211 190.355 292.081 190.802 292.83ZM190.802 278.36C191.248 279.133 191.958 279.495 192.378 279.205C192.825 278.891 192.825 278.021 192.378 277.273C191.931 276.5 191.222 276.137 190.802 276.427C190.355 276.741 190.355 277.611 190.802 278.36ZM189.146 282.37C188.515 282.031 188.016 282.37 188.016 283.143C188.016 283.916 188.515 284.785 189.146 285.124C189.777 285.462 190.276 285.124 190.276 284.35C190.276 283.577 189.777 282.708 189.146 282.37Z" fill="white"/>
<path d="M6.8321 141.849L15.2147 146.318V151.512L6.8321 147.043V141.849Z" fill="white"/>
<path d="M248.376 292.443L228.168 281.693H228.142L1.1562 161.223V150.086L248.376 281.306V292.443Z" fill="white"/>
<path d="M13.7169 169.195L46.4588 186.564C46.4588 186.564 46.4588 186.709 46.4588 186.805C46.6953 187.699 46.8792 188.569 47.0369 189.438L42.9376 191.588C42.9376 191.588 42.7273 191.757 42.6748 191.878C39.101 193.98 37.0251 198.473 37.0251 204.319C37.0251 205.696 37.1302 207.097 37.3667 208.522L31.3229 211.759C32.9784 209.368 33.8981 206.082 33.8981 202.169C33.8981 190.912 26.4089 177.795 17.2118 172.915C14.768 171.611 12.3767 171.007 10.1694 171.055L13.6118 169.267C13.6118 169.267 13.6643 169.219 13.6906 169.195H13.7169Z" fill="#2D2D2D"/>
<path d="M340.479 291.404C339.717 291.79 336.117 294.448 335.801 293.723C334.961 291.815 333.279 286.307 332.228 282.055L384.52 254.372C389.46 251.763 397.002 251.473 401.259 253.743L406.514 256.521C406.514 256.521 398.868 260.459 398.395 260.725C379.738 270.895 357.165 282.78 340.479 291.404Z" fill="#353535"/>
<path d="M0.0525208 49.0143C0.0525208 49.0143 0.131348 48.9176 0.210175 48.8693C0.210175 48.8693 0.210205 48.8452 0.236481 48.8452L92.1292 0.0724706C92.3131 -0.0241569 92.5497 -0.0241569 92.7336 0.0724706L341.215 131.921C341.215 131.921 341.215 131.921 341.241 131.945C341.293 131.993 341.346 132.017 341.398 132.09C341.398 132.09 341.425 132.138 341.451 132.162C341.504 132.235 341.53 132.331 341.53 132.428V170.33C341.793 170.427 342.082 170.547 342.344 170.692L389.933 196.419C393.192 198.135 396.03 202.193 397.028 206.445L404.071 230.722C404.36 229.297 405.279 227.896 406.436 227.292L411.928 224.369C412.322 224.151 412.742 224.079 413.136 224.103C413.294 224.055 413.478 224.055 413.636 224.127L416.158 225.383C416.158 225.383 416.211 225.383 416.263 225.408C416.263 225.408 416.29 225.432 416.316 225.456H416.368C416.368 225.456 416.526 225.577 416.579 225.649C417.052 226.06 417.341 226.712 417.341 227.509V240.337C417.341 242.003 416.263 243.888 414.871 244.612L409.063 247.825L411.691 256.86C412.585 259.928 413.163 263.068 413.531 266.233C413.583 266.329 413.583 266.45 413.557 266.547C413.714 267.996 413.82 269.446 413.846 270.895C413.898 271.016 413.898 271.161 413.846 271.282C413.846 271.668 413.898 272.079 413.898 272.465V303.193C413.898 304.908 413.347 306.261 412.401 307.082C412.348 307.203 412.269 307.299 412.138 307.372L333.725 349.067C333.725 349.067 333.542 349.139 333.436 349.139C333.384 349.139 333.358 349.212 333.331 349.236C332.832 349.501 332.28 349.622 331.676 349.622C330.914 349.622 330.099 349.405 329.285 348.97L310.601 338.824L307.711 337.23C306.738 340.853 304.715 343.486 301.93 344.767C301.877 344.839 301.824 344.912 301.719 344.96L288.029 352.207C288.029 352.207 287.897 352.231 287.845 352.255C287.766 352.304 287.687 352.352 287.608 352.4C286.242 353.125 284.718 353.487 283.089 353.487C280.934 353.487 278.621 352.859 276.283 351.603C267.085 346.723 259.596 333.582 259.596 322.349C259.596 322.108 259.596 321.866 259.596 321.624L246.037 328.871C246.037 328.871 245.906 328.896 245.853 328.92C245.774 328.968 245.695 329.016 245.617 329.065C244.25 329.789 242.726 330.152 241.097 330.152C238.942 330.152 236.63 329.524 234.291 328.268C226.539 324.161 220.022 314.16 218.157 304.401L208.933 309.329C208.933 309.329 208.802 309.353 208.749 309.377C208.67 309.425 208.592 309.474 208.513 309.522C207.146 310.247 205.622 310.609 203.993 310.609C201.838 310.609 199.526 309.981 197.187 308.725C187.99 303.845 180.501 290.704 180.501 279.471C180.501 277.369 180.79 275.461 181.289 273.77L84.062 222.195C83.1685 223.886 81.9861 225.239 80.5408 226.181L65.5626 234.201C65.5626 234.201 65.4312 234.225 65.3786 234.249C65.2998 234.297 65.2209 234.346 65.1421 234.394C63.7757 235.119 62.2516 235.481 60.6224 235.481C58.4676 235.481 56.1552 234.853 53.8165 233.597C46.0646 229.49 39.5478 219.489 37.682 209.73L28.4586 214.658C28.4586 214.658 28.3272 214.682 28.2747 214.706C28.1958 214.754 28.117 214.803 28.0382 214.851C26.6718 215.576 25.1476 215.938 23.5184 215.938C21.3637 215.938 19.0512 215.31 16.6862 214.054C7.48907 209.174 0 196.057 0 184.8C0 178.954 2.04962 174.461 5.64966 172.335C5.70221 172.214 5.78107 172.118 5.91245 172.045L12.5869 168.542L0.315308 162.02C0.315308 162.02 0.289001 161.996 0.262726 161.972C0.23645 161.972 0.210205 161.923 0.157654 161.899C0.131378 161.875 0.105103 161.851 0.0788269 161.803C0.0788269 161.778 0.0525208 161.754 0.0262451 161.706C0.0262451 161.658 0.0262451 161.634 0.0262451 161.585C0.0262451 161.585 0.0262451 161.537 0.0262451 161.513V49.3283C0.0262451 49.3283 0.0525208 49.1592 0.105072 49.0626C0.105072 49.0626 0.131378 49.0143 0.157654 48.9901L0.0525208 49.0143ZM92.4445 1.20784L1.76059 49.3283L249.006 180.548L339.69 132.428L92.4445 1.20784ZM340.295 133.394L249.611 181.515V191.757L340.295 143.637V133.394ZM340.295 144.917L249.611 193.037V279.978L258.335 275.34V216.011C258.335 214.489 258.834 213.257 259.675 212.508C259.728 212.435 259.78 212.363 259.885 212.315L260.017 212.242C260.017 212.242 260.148 212.121 260.227 212.073C260.332 212.025 260.437 212.001 260.542 211.952L338.85 170.33C338.85 170.33 339.007 170.258 339.086 170.258C339.139 170.233 339.191 170.185 339.244 170.161C339.585 170.064 339.927 170.04 340.295 170.04V144.869V144.917ZM249.611 281.282V292.419L258.335 287.781V276.644L249.611 281.282ZM268.294 303.917C270.738 303.072 273.471 303.144 276.361 304.087C277.386 304.425 278.411 304.86 279.462 305.415C282.248 306.889 284.902 309.063 287.293 311.696V226.253L263.275 213.257C262.461 212.822 261.751 212.725 261.12 212.943L260.647 213.184C259.938 213.692 259.544 214.682 259.544 215.986V305.439C259.544 307.106 260.201 308.701 261.383 309.957C261.462 310.029 261.593 310.198 261.751 310.367C263.144 307.13 265.377 304.884 268.294 303.869V303.917ZM262.645 311.406C262.645 311.406 262.828 311.599 262.934 311.696C264.037 310.464 265.325 309.594 266.77 309.087L274.706 304.787C272.551 304.28 270.554 304.328 268.741 304.956C265.982 305.898 263.88 308.145 262.671 311.382L262.645 311.406ZM413.163 225.166C412.979 225.142 412.768 225.166 412.506 225.311L407.014 228.234C406.015 228.765 405.148 230.287 405.148 231.543V233.983C405.148 233.983 405.122 234.177 405.069 234.249L406.225 238.211V232.679C406.225 231.012 407.303 229.128 408.695 228.379L414.004 225.553L413.163 225.142V225.166ZM414.187 243.622C415.186 243.09 416.053 241.569 416.053 240.312V227.485C416.053 226.954 415.895 226.567 415.633 226.398L415.554 226.35C415.291 226.253 414.976 226.374 414.818 226.471L409.326 229.369C408.328 229.901 407.46 231.423 407.46 232.679V242.414L408.695 246.642L414.214 243.598L414.187 243.622ZM412.348 267.344L335.118 308.411C335.118 308.411 335.092 308.411 335.066 308.411C335.171 309.546 335.276 310.681 335.302 311.841L412.558 270.774C412.532 269.639 412.453 268.479 412.348 267.344ZM393.323 308.048L393.612 304.159L356.429 323.943L357.034 327.277L393.323 308.048ZM357.296 328.437C357.48 328.847 357.796 329.161 358.242 329.355C358.821 329.596 359.451 329.572 360.003 329.282L389.907 313.387C391.536 312.517 392.666 311.116 393.113 309.473L357.323 328.437H357.296ZM393.691 302.83L394.006 298.41L355.457 318.895L356.167 322.76L393.665 302.806L393.691 302.83ZM394.111 297.057L394.269 294.714C394.295 294.327 394.348 293.578 394.374 292.636L354.511 313.822L355.221 317.687L394.085 297.033L394.111 297.057ZM394.453 291.332C394.506 290.1 394.558 288.699 394.637 287.322L353.67 309.111L354.327 312.686L394.453 291.356V291.332ZM394.689 285.993C394.768 284.181 394.821 282.514 394.873 281.524L352.724 303.942L353.46 307.927L394.689 285.993ZM411.297 306.502C411.297 306.502 411.323 306.454 411.349 306.454C412.164 305.898 412.637 304.69 412.637 303.193V272.465C412.637 272.344 412.637 272.199 412.637 272.079L396.135 280.848C396.082 282.2 395.872 287.66 395.688 291.428C395.767 291.573 395.741 291.742 395.688 291.887C395.635 293.216 395.583 294.303 395.53 294.81L394.558 308.459C394.374 310.923 392.876 313.145 390.538 314.377L360.634 330.273C360.161 330.538 359.609 330.659 359.083 330.659C358.637 330.659 358.19 330.562 357.769 330.393C356.85 330.007 356.193 329.21 356.035 328.292L355.194 323.75L351.647 304.521L335.433 313.145C335.433 313.484 335.46 313.798 335.46 314.136V344.863C335.46 345.685 335.302 346.409 335.066 347.062L411.271 306.478L411.297 306.502ZM412.243 266.136C411.901 263.092 411.323 260.097 410.456 257.15L395.846 206.71C394.926 202.724 392.298 198.98 389.329 197.41L341.74 171.683C340.952 171.272 340.242 171.151 339.638 171.32C339.612 171.32 339.559 171.32 339.533 171.32C339.533 171.32 339.507 171.369 339.48 171.369L263.065 212.001C263.354 212.097 263.643 212.218 263.932 212.363L311.521 238.09C314.779 239.805 317.617 243.863 318.616 248.115L333.226 298.53C334.067 301.381 334.619 304.304 334.987 307.227L412.217 266.136H412.243ZM307.684 335.877L311.258 337.834L329.915 347.98C330.993 348.559 331.965 348.632 332.727 348.221C333.673 347.714 334.225 346.482 334.225 344.839V314.112C334.225 308.942 333.489 303.797 332.044 298.796L317.433 248.357C316.514 244.371 313.886 240.626 310.916 239.056L288.581 226.978V313.17C292.47 317.88 295.57 323.847 297.094 330.055L307.711 335.901L307.684 335.877ZM300.878 344.09C300.878 344.09 301.036 343.921 301.141 343.873C303.822 342.762 305.74 340.177 306.633 336.602L296.227 330.876C296.227 330.876 296.201 330.852 296.175 330.828C296.175 330.828 296.175 330.828 296.148 330.804C296.043 330.732 295.965 330.635 295.938 330.514C293.468 320.199 286.61 310.536 278.884 306.43C278.017 305.971 277.15 305.584 276.309 305.294L270.212 308.58C272.315 308.604 274.575 309.232 276.913 310.464C282.51 313.435 287.687 319.571 290.788 326.891C292.627 331.215 293.6 335.66 293.6 339.718C293.6 343.776 292.68 346.941 290.998 349.332L300.905 344.09H300.878ZM276.913 350.613C280.645 352.594 284.245 352.883 287.03 351.41C290.446 349.598 292.391 345.346 292.391 339.718C292.391 335.78 291.445 331.505 289.658 327.301C286.662 320.223 281.67 314.281 276.309 311.43C274.154 310.271 272.052 309.715 270.134 309.715C269.109 309.715 268.137 309.884 267.243 310.198L265.167 311.309C264.563 311.744 264.037 312.276 263.538 312.904C261.777 315.15 260.858 318.412 260.858 322.325C260.858 333.22 268.058 345.902 276.94 350.613H276.913ZM259.701 320.272C259.964 317.252 260.831 314.643 262.224 312.662C261.882 312.324 261.462 311.841 260.937 311.261C260.726 311.044 260.569 310.85 260.49 310.754C259.123 309.304 258.361 307.444 258.361 305.512V289.109L249.348 293.892C249.348 293.892 249.348 293.892 249.322 293.892C249.243 293.941 249.138 293.965 249.033 293.965C248.928 293.965 248.849 293.941 248.744 293.892C248.744 293.892 248.744 293.892 248.717 293.892L230.192 284.061L228.825 284.785C228.72 284.906 228.589 285.003 228.405 285.027H228.352L227.906 285.268C230.113 285.22 232.504 285.824 234.948 287.128C244.145 292.008 251.634 305.125 251.634 316.382C251.634 320.272 250.715 323.557 249.059 325.973L259.728 320.272H259.701ZM228.957 283.432L228.694 283.287C228.694 283.287 228.72 283.457 228.746 283.553L228.957 283.432ZM234.922 327.301C238.653 329.282 242.253 329.572 245.039 328.098C248.455 326.287 250.399 322.035 250.399 316.407C250.399 305.512 243.199 292.829 234.317 288.119C232.163 286.983 230.034 286.404 228.116 286.404C226.697 286.404 225.383 286.718 224.2 287.346C220.784 289.158 218.84 293.409 218.84 299.038C218.84 309.932 226.04 322.615 234.922 327.325V327.301ZM217.946 303.217C217.736 301.792 217.605 300.391 217.605 299.014C217.605 293.168 219.654 288.674 223.254 286.573C223.307 286.452 223.386 286.355 223.517 286.283L227.617 284.133C227.511 283.602 227.433 283.07 227.301 282.539L193.245 264.469L190.775 265.75C192.983 265.701 195.374 266.305 197.818 267.61C207.015 272.489 214.504 285.631 214.504 296.864C214.504 300.753 213.584 304.038 211.929 306.454L217.973 303.217H217.946ZM184.6 265.774V268.165C185.073 267.73 185.599 267.344 186.15 267.03C186.203 266.909 186.282 266.812 186.413 266.74L192.01 263.817L190.171 262.827L184.626 265.774H184.6ZM188.936 262.174L83.4839 206.203L78.5437 208.836L183.996 264.783L188.936 262.15V262.174ZM197.818 307.758C201.549 309.739 205.149 310.029 207.935 308.556C211.351 306.744 213.295 302.492 213.295 296.864C213.295 285.969 206.095 273.287 197.213 268.576C195.059 267.441 192.93 266.861 191.012 266.861C189.593 266.861 188.279 267.175 187.096 267.803C183.68 269.615 181.736 273.866 181.736 279.495C181.736 290.39 188.936 303.072 197.818 307.783V307.758ZM181.683 272.658C182.13 271.475 182.708 270.412 183.418 269.494V265.75L78.1495 209.923V217.726L181.683 272.658ZM79.8576 225.214C81.1452 224.393 82.2226 223.161 83.0109 221.615L77.2298 218.547C77.0459 218.45 76.9145 218.257 76.9145 218.064V208.957C76.9145 208.957 76.9145 208.909 76.9145 208.86C76.8619 208.619 76.967 208.377 77.2036 208.256L82.2488 205.551L50.7157 188.81L48.0617 190.211L47.3259 190.598C49.5332 190.549 51.9245 191.153 54.3683 192.458C63.5654 197.337 71.0546 210.479 71.0546 221.712C71.0546 225.601 70.1349 228.886 68.4794 231.302L79.8313 225.239L79.8576 225.214ZM49.5332 188.158L47.8777 187.288C48.0091 187.82 48.1143 188.327 48.2194 188.858L49.5332 188.158ZM54.3946 232.606C58.126 234.587 61.726 234.877 64.5114 233.404C67.9275 231.592 69.8721 227.34 69.8721 221.712C69.8721 210.817 62.672 198.135 53.7902 193.424C51.6354 192.289 49.507 191.709 47.5887 191.709C46.1697 191.709 44.8558 192.023 43.6733 192.651C40.2573 194.463 38.3127 198.714 38.3127 204.343C38.3127 215.238 45.5128 227.92 54.3946 232.631V232.606ZM1.20874 184.776C1.20874 195.671 8.40878 208.353 17.2906 213.063C21.022 215.044 24.6221 215.334 27.4075 213.861C30.8236 212.049 32.7681 207.797 32.7681 202.169C32.7681 191.274 25.5681 178.592 16.6862 173.881C14.5315 172.746 12.403 172.166 10.4847 172.166C9.06573 172.166 7.75189 172.48 6.5694 173.108C3.15332 174.92 1.20874 179.171 1.20874 184.8V184.776ZM10.2482 171.055C12.4555 171.006 14.8468 171.61 17.2906 172.915C26.4878 177.794 33.9769 190.912 33.9769 202.169C33.9769 206.058 33.0572 209.343 31.4017 211.759L37.4456 208.522C37.2353 207.097 37.1039 205.696 37.1039 204.319C37.1039 198.473 39.1536 193.98 42.7536 191.878C42.8062 191.757 42.885 191.661 43.0164 191.588L47.1157 189.438C46.958 188.568 46.7741 187.675 46.5376 186.805C46.5376 186.733 46.5376 186.636 46.5376 186.563L13.7957 169.195C13.7957 169.195 13.7431 169.243 13.7169 169.267L10.2745 171.055H10.2482ZM1.20874 161.223L228.195 281.693C228.195 281.693 228.195 281.693 228.221 281.693L248.455 292.419V281.282L1.20874 150.062V161.199V161.223ZM1.20874 148.782L248.455 280.002V270.243L147.733 216.784C147.549 216.687 147.444 216.518 147.417 216.325C147.417 216.131 147.496 215.962 147.654 215.842L182.682 191.491L1.18246 95.1539V148.782H1.20874ZM1.20874 93.8494L184.101 190.936C184.285 191.032 184.39 191.202 184.416 191.395C184.416 191.588 184.337 191.757 184.18 191.878L149.152 216.228L248.455 268.938V255.942L172.749 215.769C172.565 215.672 172.46 215.503 172.434 215.31C172.434 215.117 172.512 214.948 172.67 214.827L207.698 190.477L1.20874 80.8772V93.8736V93.8494ZM1.20874 79.5485L209.117 189.897C209.301 189.994 209.406 190.163 209.432 190.356C209.432 190.549 209.354 190.718 209.196 190.839L174.168 215.189L248.455 254.613V193.037L1.15616 61.8416V79.5727L1.20874 79.5485ZM1.20874 60.5371L248.455 191.757V181.515L1.15616 50.3187V60.5612L1.20874 60.5371Z" fill="#1E1E1E"/>
<path d="M292.154 288.868C292.154 287.877 292.548 287.08 293.232 286.718C293.836 286.404 294.572 286.428 295.308 286.814L302.376 290.559C303.795 291.308 304.899 293.24 304.899 294.955C304.899 295.946 304.505 296.719 303.822 297.105C303.559 297.25 303.243 297.323 302.954 297.323C302.56 297.323 302.166 297.226 301.772 297.009L294.703 293.264C293.284 292.515 292.181 290.583 292.181 288.868H292.154ZM295.308 292.298L302.376 296.042C302.56 296.139 302.928 296.284 303.217 296.139C303.506 295.994 303.69 295.559 303.69 294.979C303.69 293.675 302.823 292.105 301.772 291.549L294.703 287.805C294.572 287.732 294.335 287.636 294.125 287.636C294.02 287.636 293.941 287.636 293.862 287.708C293.573 287.853 293.389 288.288 293.389 288.868C293.389 290.172 294.256 291.742 295.308 292.298Z" fill="#1E1E1E"/>
<path d="M320.928 245.216C320.928 245.216 320.928 245.144 320.928 245.096C320.928 245.071 320.928 245.023 320.928 244.999C320.928 244.975 320.928 244.927 320.955 244.902C320.955 244.878 320.981 244.83 321.007 244.806C321.007 244.782 321.06 244.757 321.086 244.733C321.112 244.709 321.138 244.685 321.191 244.661C321.191 244.661 321.191 244.661 321.217 244.637L392.64 206.662C392.64 206.662 392.692 206.662 392.719 206.662C392.719 206.662 392.771 206.638 392.797 206.638C392.797 206.638 392.824 206.638 392.85 206.638C392.903 206.638 392.929 206.638 392.981 206.638C393.008 206.638 393.034 206.638 393.087 206.638C393.139 206.638 393.165 206.662 393.218 206.686C393.244 206.686 393.27 206.686 393.297 206.735C393.323 206.735 393.376 206.783 393.402 206.807C393.402 206.807 393.454 206.855 393.481 206.88C393.481 206.88 393.481 206.88 393.507 206.904C393.507 206.904 393.507 206.952 393.533 206.976C393.533 206.976 393.56 207.024 393.56 207.049L407.855 255.966C407.855 255.966 407.855 255.99 407.855 256.015C407.855 256.063 407.855 256.087 407.855 256.135C407.855 256.159 407.855 256.208 407.855 256.232C407.855 256.256 407.855 256.304 407.828 256.329C407.828 256.353 407.802 256.401 407.776 256.425C407.776 256.449 407.723 256.474 407.697 256.498C407.671 256.522 407.644 256.546 407.592 256.57C407.592 256.57 407.592 256.57 407.565 256.594L336.143 294.569C336.143 294.569 336.117 294.569 336.09 294.569C336.064 294.569 336.038 294.593 335.985 294.617C335.933 294.617 335.88 294.617 335.828 294.617C335.696 294.617 335.591 294.569 335.486 294.521C335.46 294.521 335.433 294.472 335.407 294.448C335.381 294.424 335.328 294.4 335.302 294.351C335.302 294.327 335.302 294.279 335.276 294.255C335.276 294.255 335.276 294.255 335.276 294.231L320.981 245.313C320.981 245.313 320.981 245.289 320.981 245.265L320.928 245.216ZM336.222 293.168L406.541 255.773L392.561 207.991L322.242 245.386L336.222 293.168Z" fill="#1E1E1E"/>
<path d="M312.204 298.096H312.152C312.152 298.096 312.099 298.072 312.073 298.048C312.073 298.048 312.046 298.048 312.02 298.023L310.023 296.985C310.023 296.985 310.023 296.985 309.997 296.985C309.997 296.985 309.997 296.985 309.971 296.96L309.865 296.912C309.865 296.912 309.734 296.816 309.681 296.767C309.156 296.381 308.736 295.873 308.736 294.835V288.264L296.49 281.79C294.046 280.486 292.128 277.152 292.128 274.181V238.235C292.128 236.593 292.759 235.312 293.836 234.732C294.782 234.225 295.938 234.298 297.095 234.926L309.865 241.69C311.784 242.704 313.439 245.144 314.096 247.898C316.566 258.43 325.895 289.786 326 290.148C326.42 292.322 325.895 294.134 324.607 294.955C324.16 295.245 323.635 295.39 323.083 295.39C322.479 295.39 321.822 295.221 321.165 294.859L320.429 294.472C320.166 294.714 319.903 294.931 319.588 295.1L314.096 298.023C313.702 298.241 313.308 298.337 312.94 298.337C312.677 298.337 312.441 298.289 312.23 298.192C312.23 298.192 312.204 298.192 312.178 298.192L312.204 298.096ZM321.769 293.82C322.347 294.134 323.214 294.4 323.924 293.965C324.791 293.409 325.133 292.008 324.817 290.342C324.791 290.221 323.661 286.428 322.085 281.065V290.752C322.085 291.694 321.743 292.685 321.191 293.53L321.769 293.844V293.82ZM309.971 294.811C309.971 295.463 310.181 295.68 310.654 296.018L311.048 296.236C311.048 296.236 311.048 296.067 311.048 295.97V283.143C311.048 281.476 312.125 279.592 313.518 278.843L318.826 276.017L317.985 275.606C317.801 275.582 317.591 275.606 317.328 275.751L311.836 278.65C310.838 279.181 309.971 280.703 309.971 281.959V294.786V294.811ZM312.887 248.091C312.309 245.675 310.864 243.477 309.235 242.632L296.464 235.868C295.912 235.578 295.097 235.312 294.414 235.675C293.705 236.037 293.311 236.979 293.311 238.211V274.156C293.311 276.717 294.992 279.712 297.068 280.8L308.709 286.96V282.007C308.709 280.341 309.787 278.456 311.179 277.707L316.671 274.809C317.066 274.591 317.486 274.519 317.88 274.543C318.038 274.495 318.222 274.495 318.379 274.567L320.455 275.606C317.644 265.871 314.228 253.889 312.887 248.115V248.091ZM312.23 295.97C312.23 296.502 312.388 296.912 312.651 297.057H312.703C312.966 297.202 313.282 297.057 313.465 296.985L318.957 294.062C319.247 293.917 319.509 293.699 319.746 293.409C320.376 292.709 320.823 291.646 320.823 290.752V277.925C320.823 277.418 320.666 277.007 320.403 276.838L320.298 276.79C320.035 276.693 319.72 276.814 319.562 276.91L314.07 279.809C313.071 280.341 312.204 281.862 312.204 283.119V295.946L312.23 295.97Z" fill="#1E1E1E"/>
<path d="M339.979 315.03L348.362 310.585C348.94 310.271 349.571 310.247 350.07 310.512C350.622 310.802 350.964 311.43 350.964 312.227V332.906C350.964 334.234 350.096 335.732 348.993 336.312L340.61 340.757C340.295 340.926 339.953 341.022 339.638 341.022C339.375 341.022 339.139 340.974 338.902 340.853C338.35 340.563 338.009 339.935 338.009 339.138V318.46C338.009 317.131 338.876 315.634 339.979 315.054V315.03ZM339.244 339.09C339.244 339.525 339.401 339.766 339.506 339.839C339.664 339.911 339.874 339.815 339.979 339.766L348.362 335.321C349.072 334.935 349.702 333.799 349.702 332.882V312.203C349.702 311.768 349.545 311.527 349.439 311.454C349.282 311.382 349.072 311.479 348.966 311.527L340.584 315.972C339.874 316.358 339.217 317.494 339.217 318.387V339.066L339.244 339.09Z" fill="#1E1E1E"/>
<path d="M344.158 315.489C345.34 314.861 346.523 314.788 347.469 315.295C348.572 315.875 349.203 317.18 349.203 318.871C349.203 321.89 347.258 325.296 344.762 326.625C344.105 326.987 343.422 327.156 342.817 327.156C342.318 327.156 341.871 327.036 341.451 326.818C340.347 326.238 339.717 324.934 339.717 323.243C339.717 320.223 341.661 316.817 344.158 315.489ZM342.055 325.852C342.765 326.238 343.58 325.949 344.158 325.659C346.26 324.548 347.994 321.504 347.994 318.871C347.994 317.614 347.574 316.648 346.864 316.286C346.628 316.165 346.365 316.093 346.102 316.093C345.603 316.093 345.13 316.286 344.762 316.479C342.66 317.59 340.925 320.634 340.925 323.267C340.925 324.523 341.346 325.49 342.055 325.852Z" fill="#1E1E1E"/>
<path d="M399.787 283.384L408.17 278.939C408.748 278.625 409.379 278.601 409.878 278.867C410.43 279.157 410.771 279.785 410.771 280.582V301.26C410.771 302.589 409.904 304.087 408.801 304.666L400.418 309.111C400.103 309.28 399.761 309.377 399.446 309.377C399.183 309.377 398.946 309.329 398.71 309.208C398.158 308.918 397.816 308.29 397.816 307.493V286.814C397.816 285.486 398.684 283.988 399.787 283.408V283.384ZM399.052 307.444C399.052 307.879 399.209 308.121 399.314 308.193C399.472 308.266 399.682 308.169 399.787 308.121L408.17 303.676C408.879 303.289 409.51 302.154 409.51 301.26V280.582C409.51 280.147 409.352 279.906 409.247 279.833C409.221 279.833 409.168 279.809 409.116 279.809C408.984 279.809 408.827 279.881 408.774 279.906L400.392 284.35C399.682 284.737 399.052 285.872 399.052 286.766V307.444Z" fill="#1E1E1E"/>
<path d="M272.367 322.929C273.655 322.252 275.258 322.349 276.887 323.219C280.356 325.055 283.167 329.958 283.167 334.186C283.167 336.505 282.3 338.317 280.802 339.114C280.251 339.404 279.62 339.549 278.963 339.549C278.122 339.549 277.202 339.307 276.283 338.824C272.814 336.988 270.002 332.06 270.002 327.857C270.002 325.538 270.869 323.726 272.367 322.929ZM276.887 337.834C278.122 338.486 279.278 338.582 280.172 338.123C281.275 337.544 281.932 336.094 281.932 334.186C281.932 330.345 279.383 325.852 276.283 324.209C275.547 323.823 274.864 323.629 274.207 323.629C273.76 323.629 273.34 323.726 272.972 323.919C271.868 324.499 271.211 325.948 271.211 327.857C271.211 331.698 273.76 336.191 276.861 337.834H276.887Z" fill="#1E1E1E"/>
<path d="M269.161 316.72C271.342 315.561 274.075 315.754 276.887 317.252C283.036 320.513 288.055 329.282 288.055 336.795C288.055 340.853 286.583 343.969 284.008 345.346C283.062 345.854 282.037 346.095 280.907 346.095C279.462 346.095 277.886 345.66 276.283 344.815C270.134 341.554 265.115 332.785 265.115 325.272C265.115 321.214 266.586 318.097 269.161 316.72ZM276.887 343.849C279.305 345.129 281.591 345.322 283.378 344.38C285.559 343.221 286.82 340.467 286.82 336.795C286.82 329.644 282.09 321.31 276.283 318.218C274.89 317.469 273.523 317.107 272.288 317.107C271.395 317.107 270.554 317.3 269.818 317.687C267.637 318.846 266.376 321.6 266.376 325.272C266.376 332.422 271.106 340.757 276.913 343.849H276.887Z" fill="#1E1E1E"/>
<path d="M276.572 322.18C275.941 321.842 275.442 320.972 275.442 320.199C275.442 319.426 275.941 319.088 276.572 319.426C277.202 319.764 277.702 320.634 277.702 321.407C277.702 322.18 277.202 322.518 276.572 322.18Z" fill="#1E1E1E"/>
<path d="M271.447 320.103C271.894 320.876 271.894 321.745 271.447 322.035C271.001 322.349 270.291 321.963 269.871 321.19C269.424 320.417 269.424 319.547 269.871 319.257C270.318 318.943 271.027 319.33 271.447 320.103Z" fill="#1E1E1E"/>
<path d="M49.8223 204.947C51.1099 204.27 52.7128 204.367 54.342 205.237C57.8107 207.073 60.6224 211.976 60.6224 216.204C60.6224 218.523 59.7552 220.335 58.2574 221.132C57.7056 221.422 57.0749 221.567 56.4179 221.567C55.5771 221.567 54.6574 221.325 53.7377 220.842C50.269 219.006 47.4573 214.102 47.4573 209.875C47.4573 207.556 48.3245 205.744 49.8223 204.947ZM54.342 219.852C55.5771 220.504 56.7596 220.625 57.6267 220.141C58.7304 219.538 59.3873 218.112 59.3873 216.204C59.3873 212.363 56.8384 207.87 53.7377 206.227C53.0019 205.841 52.3187 205.647 51.688 205.647C51.2413 205.647 50.8208 205.744 50.453 205.937C49.3493 206.541 48.6924 207.966 48.6924 209.875C48.6924 213.716 51.2413 218.209 54.342 219.852Z" fill="#1E1E1E"/>
<path d="M46.6164 198.714C48.7974 197.555 51.5303 197.748 54.3157 199.246C60.4647 202.507 65.4837 211.276 65.4837 218.789C65.4837 222.847 64.0121 225.963 61.4369 227.34C60.4909 227.848 59.4661 228.089 58.3362 228.089C56.8909 228.089 55.3142 227.654 53.7113 226.809C47.5624 223.548 42.5696 214.779 42.5696 207.266C42.5696 203.208 44.0412 200.091 46.6164 198.714ZM54.3157 225.842C56.7333 227.123 59.0194 227.316 60.8063 226.374C62.9873 225.214 64.2487 222.461 64.2487 218.789C64.2487 211.638 59.5187 203.304 53.7113 200.212C52.3186 199.463 50.9522 199.101 49.7171 199.101C48.8237 199.101 47.9828 199.294 47.247 199.681C45.066 200.84 43.8047 203.594 43.8047 207.266C43.8047 214.416 48.5346 222.75 54.342 225.842H54.3157Z" fill="#1E1E1E"/>
<path d="M54.0266 204.174C53.396 203.836 52.8967 202.966 52.8967 202.193C52.8967 201.42 53.396 201.082 54.0266 201.42C54.6573 201.758 55.1566 202.628 55.1566 203.401C55.1566 204.174 54.6573 204.512 54.0266 204.174Z" fill="#1E1E1E"/>
<path d="M54.0266 221.881C54.6573 222.219 55.1566 223.088 55.1566 223.861C55.1566 224.635 54.6573 224.973 54.0266 224.635C53.396 224.296 52.8967 223.427 52.8967 222.654C52.8967 221.881 53.396 221.542 54.0266 221.881Z" fill="#1E1E1E"/>
<path d="M62.3829 216.083C63.0136 216.421 63.5129 217.291 63.5129 218.064C63.5129 218.837 63.0136 219.175 62.3829 218.837C61.7523 218.499 61.253 217.629 61.253 216.856C61.253 216.083 61.7523 215.745 62.3829 216.083Z" fill="#1E1E1E"/>
<path d="M45.6967 209.971C45.066 209.633 44.5667 208.764 44.5667 207.991C44.5667 207.218 45.066 206.879 45.6967 207.218C46.3273 207.556 46.8266 208.425 46.8266 209.198C46.8266 209.971 46.3273 210.31 45.6967 209.971Z" fill="#1E1E1E"/>
<path d="M59.1508 209.464C58.7041 208.691 58.7041 207.822 59.1508 207.532C59.5976 207.218 60.3071 207.604 60.7275 208.377C61.1742 209.15 61.1742 210.02 60.7275 210.31C60.2808 210.624 59.5713 210.237 59.1508 209.464Z" fill="#1E1E1E"/>
<path d="M48.9288 216.566C49.3755 217.339 49.3755 218.209 48.9288 218.499C48.482 218.813 47.7725 218.426 47.3521 217.653C46.9054 216.88 46.9054 216.011 47.3521 215.721C47.7988 215.407 48.5083 215.793 48.9288 216.566Z" fill="#1E1E1E"/>
<path d="M60.7275 222.847C61.1742 223.62 61.1742 224.49 60.7275 224.78C60.2808 225.094 59.5713 224.707 59.1508 223.934C58.7041 223.161 58.7041 222.291 59.1508 222.002C59.5976 221.687 60.3071 222.074 60.7275 222.847Z" fill="#1E1E1E"/>
<path d="M48.9288 202.12C49.3755 202.893 49.3755 203.763 48.9288 204.053C48.482 204.367 47.7725 203.981 47.3521 203.207C46.9054 202.434 46.9054 201.565 47.3521 201.275C47.7988 200.961 48.5083 201.347 48.9288 202.12Z" fill="#1E1E1E"/>
<path d="M17.238 185.694C20.7067 187.53 23.5184 192.433 23.5184 196.661C23.5184 198.98 22.6512 200.792 21.1534 201.589C20.6015 201.879 19.9709 202.024 19.3139 202.024C18.4731 202.024 17.5533 201.782 16.6336 201.299C13.165 199.463 10.3533 194.559 10.3533 190.332C10.3533 188.013 11.2205 186.201 12.7183 185.404C14.0059 184.727 15.6088 184.824 17.238 185.694ZM11.5883 190.332C11.5883 194.173 14.1373 198.666 17.238 200.309C18.4731 200.961 19.6293 201.057 20.5227 200.599C21.6264 199.995 22.2833 198.569 22.2833 196.661C22.2833 192.82 19.7344 188.327 16.6336 186.684C15.8978 186.298 15.2146 186.104 14.584 186.104C14.1372 186.104 13.7168 186.201 13.3489 186.394C12.2453 186.974 11.5883 188.423 11.5883 190.332Z" fill="#1E1E1E"/>
<path d="M17.238 179.703C23.387 182.964 28.406 191.733 28.406 199.246C28.406 203.304 26.9344 206.42 24.3592 207.797C23.4132 208.305 22.3884 208.546 21.2585 208.546C19.8132 208.546 18.2365 208.111 16.6336 207.266C10.4847 204.005 5.49194 195.236 5.49194 187.723C5.49194 183.665 6.96347 180.548 9.53867 179.171C11.7197 178.012 14.4526 178.205 17.238 179.703ZM6.70069 187.723C6.70069 194.873 11.4307 203.207 17.238 206.3C19.6556 207.58 21.9417 207.773 23.7286 206.831C25.9096 205.671 27.171 202.918 27.171 199.246C27.171 192.095 22.441 183.761 16.6336 180.669C15.2409 179.92 13.8745 179.558 12.6394 179.558C11.746 179.558 10.9051 179.751 10.1693 180.138C7.98831 181.297 6.72699 184.051 6.72699 187.723H6.70069Z" fill="#1E1E1E"/>
<path d="M16.9227 184.631C16.292 184.293 15.7927 183.423 15.7927 182.65C15.7927 181.877 16.292 181.539 16.9227 181.877C17.5533 182.215 18.0526 183.085 18.0526 183.858C18.0526 184.631 17.5533 184.969 16.9227 184.631Z" fill="#1E1E1E"/>
<path d="M16.9227 202.338C17.5533 202.676 18.0526 203.546 18.0526 204.319C18.0526 205.092 17.5533 205.43 16.9227 205.092C16.292 204.754 15.7927 203.884 15.7927 203.111C15.7927 202.338 16.292 202 16.9227 202.338Z" fill="#1E1E1E"/>
<path d="M25.279 196.54C25.9096 196.878 26.4089 197.748 26.4089 198.521C26.4089 199.294 25.9096 199.632 25.279 199.294C24.6483 198.956 24.149 198.086 24.149 197.313C24.149 196.54 24.6483 196.202 25.279 196.54Z" fill="#1E1E1E"/>
<path d="M8.56649 190.429C7.93583 190.091 7.43654 189.221 7.43654 188.448C7.43654 187.675 7.93583 187.337 8.56649 187.675C9.19716 188.013 9.69641 188.883 9.69641 189.656C9.69641 190.429 9.19716 190.767 8.56649 190.429Z" fill="#1E1E1E"/>
<path d="M22.0205 189.945C21.5738 189.172 21.5738 188.303 22.0205 188.013C22.4673 187.699 23.1768 188.085 23.5972 188.858C24.0439 189.631 24.0439 190.501 23.5972 190.791C23.1505 191.105 22.441 190.718 22.0205 189.945Z" fill="#1E1E1E"/>
<path d="M11.8249 197.047C12.2717 197.82 12.2717 198.69 11.8249 198.98C11.3782 199.294 10.6687 198.908 10.2483 198.134C9.80154 197.361 9.80154 196.492 10.2483 196.202C10.695 195.888 11.4045 196.274 11.8249 197.047Z" fill="#1E1E1E"/>
<path d="M23.6235 203.304C24.0702 204.077 24.0702 204.947 23.6235 205.237C23.1768 205.551 22.4673 205.164 22.0469 204.391C21.6002 203.618 21.6002 202.748 22.0469 202.459C22.4936 202.144 23.2031 202.531 23.6235 203.304Z" fill="#1E1E1E"/>
<path d="M10.222 183.689C9.77528 182.916 9.77528 182.046 10.222 181.756C10.6687 181.442 11.3782 181.829 11.7986 182.602C12.2453 183.375 12.2453 184.244 11.7986 184.534C11.3519 184.848 10.6424 184.462 10.222 183.689Z" fill="#1E1E1E"/>
<path d="M230.376 299.618C231.663 298.941 233.266 299.038 234.895 299.908C238.364 301.744 241.176 306.647 241.176 310.875C241.176 313.194 240.309 315.006 238.811 315.803C238.259 316.093 237.628 316.238 236.971 316.238C236.13 316.238 235.211 315.996 234.291 315.513C230.822 313.677 228.011 308.773 228.011 304.546C228.011 302.227 228.878 300.415 230.376 299.618ZM234.895 314.522C236.13 315.175 237.287 315.271 238.18 314.812C239.284 314.233 239.941 312.783 239.941 310.875C239.941 307.034 237.392 302.541 234.291 300.898C233.555 300.512 232.872 300.318 232.241 300.318C231.795 300.318 231.374 300.415 231.006 300.608C229.903 301.188 229.246 302.637 229.246 304.546C229.246 308.387 231.795 312.88 234.895 314.522Z" fill="#1E1E1E"/>
<path d="M227.17 293.385C229.325 292.225 232.084 292.419 234.869 293.916C241.018 297.178 246.037 305.947 246.037 313.459C246.037 317.518 244.566 320.634 241.99 322.011C241.044 322.518 240.02 322.76 238.89 322.76C237.444 322.76 235.868 322.325 234.265 321.479C228.116 318.218 223.097 309.449 223.097 301.937C223.097 297.878 224.568 294.762 227.144 293.385H227.17ZM234.869 320.513C237.287 321.793 239.573 321.987 241.36 321.045C243.541 319.885 244.802 317.131 244.802 313.459C244.802 306.309 240.072 297.975 234.265 294.883C232.872 294.134 231.506 293.772 230.271 293.772C229.377 293.772 228.536 293.965 227.8 294.351C225.619 295.511 224.358 298.265 224.358 301.937C224.358 309.087 229.088 317.421 234.895 320.513H234.869Z" fill="#1E1E1E"/>
<path d="M234.58 298.845C233.949 298.507 233.45 297.637 233.45 296.864C233.45 296.091 233.949 295.753 234.58 296.091C235.211 296.429 235.71 297.299 235.71 298.072C235.71 298.845 235.211 299.183 234.58 298.845Z" fill="#1E1E1E"/>
<path d="M234.58 316.552C235.211 316.89 235.71 317.759 235.71 318.532C235.71 319.305 235.211 319.644 234.58 319.305C233.949 318.967 233.45 318.098 233.45 317.325C233.45 316.552 233.949 316.213 234.58 316.552Z" fill="#1E1E1E"/>
<path d="M242.936 310.754C243.567 311.092 244.066 311.962 244.066 312.735C244.066 313.508 243.567 313.846 242.936 313.508C242.306 313.17 241.806 312.3 241.806 311.527C241.806 310.754 242.306 310.416 242.936 310.754Z" fill="#1E1E1E"/>
<path d="M226.25 304.642C225.619 304.304 225.12 303.434 225.12 302.661C225.12 301.888 225.619 301.55 226.25 301.888C226.881 302.226 227.38 303.096 227.38 303.869C227.38 304.642 226.881 304.98 226.25 304.642Z" fill="#1E1E1E"/>
<path d="M239.704 304.135C239.257 303.362 239.257 302.492 239.704 302.202C240.151 301.913 240.86 302.275 241.281 303.048C241.728 303.821 241.728 304.691 241.281 304.981C240.834 305.295 240.125 304.908 239.704 304.135Z" fill="#1E1E1E"/>
<path d="M229.482 311.237C229.929 312.01 229.929 312.88 229.482 313.169C229.036 313.483 228.326 313.097 227.906 312.324C227.485 311.551 227.459 310.681 227.906 310.391C228.352 310.077 229.062 310.464 229.482 311.237Z" fill="#1E1E1E"/>
<path d="M241.281 317.518C241.728 318.291 241.728 319.16 241.281 319.45C240.834 319.764 240.125 319.378 239.704 318.605C239.257 317.832 239.257 316.962 239.704 316.672C240.151 316.358 240.86 316.745 241.281 317.518Z" fill="#1E1E1E"/>
<path d="M229.482 296.791C229.929 297.564 229.929 298.434 229.482 298.724C229.036 299.038 228.326 298.651 227.906 297.878C227.459 297.105 227.459 296.236 227.906 295.946C228.352 295.632 229.062 296.018 229.482 296.791Z" fill="#1E1E1E"/>
<path d="M193.272 280.075C194.559 279.398 196.162 279.495 197.791 280.364C201.26 282.2 204.072 287.104 204.072 291.332C204.072 293.651 203.205 295.462 201.707 296.26C201.155 296.549 200.524 296.694 199.867 296.694C199.026 296.694 198.107 296.453 197.187 295.97C193.718 294.134 190.907 289.23 190.907 285.003C190.907 282.683 191.774 280.872 193.272 280.075ZM197.791 294.979C199.026 295.632 200.209 295.728 201.076 295.269C202.18 294.689 202.837 293.24 202.837 291.332C202.837 287.491 200.288 282.997 197.187 281.355C196.451 280.968 195.768 280.775 195.137 280.775C194.691 280.775 194.27 280.872 193.902 281.065C192.799 281.645 192.142 283.094 192.142 285.003C192.142 288.843 194.691 293.337 197.791 294.979Z" fill="#1E1E1E"/>
<path d="M190.066 273.842C192.221 272.683 194.98 272.876 197.765 274.373C203.914 277.635 208.933 286.404 208.933 293.916C208.933 297.975 207.462 301.091 204.886 302.468C203.94 302.975 202.916 303.217 201.786 303.217C200.34 303.217 198.764 302.782 197.161 301.936C191.012 298.675 185.993 289.906 185.993 282.394C185.993 278.335 187.464 275.219 190.04 273.842H190.066ZM197.765 300.97C200.183 302.251 202.469 302.444 204.256 301.502C206.437 300.342 207.698 297.588 207.698 293.916C207.698 286.766 202.968 278.432 197.161 275.34C195.768 274.591 194.402 274.229 193.167 274.229C192.273 274.229 191.432 274.422 190.696 274.808C188.515 275.968 187.254 278.722 187.254 282.394C187.254 289.544 191.984 297.878 197.791 300.97H197.765Z" fill="#1E1E1E"/>
<path d="M197.476 279.302C196.845 278.963 196.346 278.094 196.346 277.321C196.346 276.548 196.845 276.209 197.476 276.548C198.107 276.886 198.606 277.755 198.606 278.528C198.606 279.302 198.107 279.64 197.476 279.302Z" fill="#1E1E1E"/>
<path d="M197.476 297.009C198.107 297.347 198.606 298.217 198.606 298.99C198.606 299.763 198.107 300.101 197.476 299.763C196.845 299.424 196.346 298.555 196.346 297.782C196.346 297.009 196.845 296.671 197.476 297.009Z" fill="#1E1E1E"/>
<path d="M205.832 291.211C206.463 291.549 206.962 292.419 206.962 293.192C206.962 293.965 206.463 294.303 205.832 293.965C205.202 293.627 204.702 292.757 204.702 291.984C204.702 291.211 205.202 290.873 205.832 291.211Z" fill="#1E1E1E"/>
<path d="M189.12 285.099C188.489 284.761 187.99 283.891 187.99 283.118C187.99 282.345 188.489 282.007 189.12 282.345C189.751 282.683 190.25 283.553 190.25 284.326C190.25 285.099 189.751 285.437 189.12 285.099Z" fill="#1E1E1E"/>
<path d="M202.574 284.616C202.127 283.843 202.127 282.974 202.574 282.684C203.021 282.37 203.73 282.756 204.151 283.529C204.597 284.302 204.597 285.172 204.151 285.462C203.704 285.776 202.994 285.389 202.574 284.616Z" fill="#1E1E1E"/>
<path d="M192.378 291.718C192.825 292.491 192.825 293.361 192.378 293.651C191.932 293.965 191.222 293.578 190.802 292.805C190.355 292.032 190.355 291.163 190.802 290.873C191.248 290.559 191.958 290.945 192.378 291.718Z" fill="#1E1E1E"/>
<path d="M204.177 297.975C204.624 298.748 204.624 299.618 204.177 299.907C203.73 300.222 203.021 299.835 202.6 299.062C202.153 298.289 202.153 297.419 202.6 297.129C203.047 296.815 203.756 297.202 204.177 297.975Z" fill="#1E1E1E"/>
<path d="M192.378 277.248C192.825 278.021 192.825 278.891 192.378 279.181C191.932 279.495 191.222 279.108 190.802 278.335C190.355 277.562 190.355 276.693 190.802 276.403C191.248 276.089 191.958 276.475 192.378 277.248Z" fill="#1E1E1E"/>
<path d="M16.1344 152.961C16.1344 152.961 15.9242 153.034 15.819 153.034C15.7139 153.034 15.6088 153.01 15.5037 152.961L5.88612 147.864C5.70218 147.767 5.5708 147.574 5.5708 147.381V140.883C5.5708 140.69 5.6759 140.496 5.88612 140.4C6.07006 140.303 6.30655 140.303 6.49049 140.4L16.1081 145.497C16.292 145.593 16.4235 145.787 16.4235 145.98V152.478C16.4235 152.671 16.3183 152.865 16.1081 152.961H16.1344ZM15.2147 146.318L6.83212 141.873V147.067L15.2147 151.512V146.318Z" fill="#1E1E1E"/>
<path d="M302.797 321.89L312.414 326.987C312.598 327.084 312.73 327.277 312.73 327.47V333.969C312.73 334.162 312.625 334.355 312.414 334.452C312.309 334.5 312.204 334.524 312.099 334.524C311.994 334.524 311.889 334.5 311.784 334.452L302.166 329.355C301.982 329.258 301.851 329.065 301.851 328.871V322.373C301.851 322.18 301.956 321.987 302.166 321.89C302.35 321.793 302.586 321.793 302.77 321.89H302.797ZM303.112 328.533L311.495 332.978V327.784L303.112 323.339V328.533Z" fill="#1E1E1E"/>
<path d="M390.958 200.744L390.249 201.13C390.249 201.13 390.038 201.203 389.933 201.203C389.723 201.203 389.513 201.106 389.408 200.913C389.25 200.647 389.329 200.309 389.644 200.14L390.354 199.753C390.643 199.608 391.011 199.681 391.195 199.971C391.352 200.236 391.273 200.574 390.958 200.744Z" fill="#1E1E1E"/>
<path d="M336.196 229.78L334.777 230.529C334.777 230.529 334.566 230.601 334.461 230.601C334.251 230.601 334.041 230.505 333.936 230.311C333.778 230.046 333.857 229.707 334.172 229.538L335.591 228.79C335.88 228.62 336.248 228.717 336.432 229.007C336.59 229.273 336.511 229.611 336.196 229.78Z" fill="#1E1E1E"/>
<path d="M366.073 213.933L364.654 214.682C364.654 214.682 364.444 214.754 364.339 214.754C364.129 214.754 363.918 214.658 363.813 214.464C363.656 214.199 363.734 213.861 364.05 213.691L365.469 212.943C365.758 212.798 366.126 212.87 366.31 213.16C366.467 213.426 366.388 213.764 366.073 213.933Z" fill="#1E1E1E"/>
<path d="M370.33 211.663L368.911 212.411C368.911 212.411 368.701 212.484 368.596 212.484C368.386 212.484 368.175 212.387 368.07 212.194C367.913 211.928 367.991 211.59 368.307 211.421L369.726 210.672C370.015 210.527 370.383 210.6 370.567 210.889C370.724 211.155 370.646 211.493 370.33 211.663Z" fill="#1E1E1E"/>
<path d="M357.533 218.451L356.114 219.199C356.114 219.199 355.904 219.272 355.799 219.272C355.588 219.272 355.378 219.175 355.273 218.982C355.115 218.716 355.194 218.378 355.51 218.209L356.929 217.46C357.218 217.315 357.585 217.388 357.769 217.678C357.927 217.943 357.848 218.282 357.533 218.451Z" fill="#1E1E1E"/>
<path d="M361.79 216.204L360.371 216.953C360.371 216.953 360.161 217.025 360.056 217.025C359.845 217.025 359.635 216.929 359.53 216.735C359.372 216.47 359.451 216.132 359.767 215.962L361.186 215.214C361.475 215.044 361.842 215.141 362.026 215.431C362.184 215.697 362.105 216.035 361.79 216.204Z" fill="#1E1E1E"/>
<path d="M383.127 204.874L381.708 205.623C381.708 205.623 381.498 205.696 381.393 205.696C381.183 205.696 380.973 205.599 380.868 205.406C380.71 205.14 380.789 204.802 381.104 204.633L382.523 203.884C382.812 203.739 383.18 203.812 383.364 204.101C383.522 204.367 383.443 204.705 383.127 204.874Z" fill="#1E1E1E"/>
<path d="M378.87 207.145L377.451 207.894C377.451 207.894 377.241 207.967 377.136 207.967C376.926 207.967 376.716 207.87 376.61 207.677C376.453 207.411 376.532 207.073 376.847 206.904L378.266 206.155C378.555 206.01 378.923 206.082 379.107 206.372C379.265 206.638 379.186 206.976 378.87 207.145Z" fill="#1E1E1E"/>
<path d="M374.613 209.416L373.194 210.165C373.194 210.165 372.984 210.237 372.879 210.237C372.669 210.237 372.459 210.141 372.353 209.947C372.196 209.682 372.275 209.343 372.59 209.174L374.009 208.425C374.298 208.281 374.666 208.353 374.85 208.643C375.008 208.909 374.929 209.247 374.613 209.416Z" fill="#1E1E1E"/>
<path d="M323.398 236.568L321.979 237.317C321.979 237.317 321.769 237.389 321.664 237.389C321.454 237.389 321.244 237.293 321.138 237.099C320.981 236.834 321.06 236.496 321.375 236.326L322.794 235.578C323.083 235.433 323.451 235.505 323.635 235.795C323.792 236.061 323.714 236.399 323.398 236.568Z" fill="#1E1E1E"/>
<path d="M327.682 234.298L326.263 235.046C326.263 235.046 326.052 235.119 325.947 235.119C325.737 235.119 325.527 235.022 325.422 234.829C325.264 234.563 325.343 234.225 325.658 234.056L327.077 233.307C327.366 233.162 327.734 233.235 327.918 233.524C328.076 233.79 327.997 234.128 327.682 234.298Z" fill="#1E1E1E"/>
<path d="M353.276 220.721L351.857 221.47C351.857 221.47 351.647 221.543 351.542 221.543C351.331 221.543 351.121 221.446 351.016 221.253C350.858 220.987 350.937 220.649 351.253 220.48L352.672 219.731C352.961 219.586 353.329 219.658 353.512 219.948C353.67 220.214 353.591 220.552 353.276 220.721Z" fill="#1E1E1E"/>
<path d="M331.939 232.051L330.52 232.8C330.52 232.8 330.309 232.872 330.204 232.872C329.994 232.872 329.784 232.775 329.679 232.582C329.521 232.316 329.6 231.978 329.915 231.809L331.334 231.06C331.623 230.915 331.991 230.988 332.175 231.278C332.333 231.543 332.254 231.882 331.939 232.051Z" fill="#1E1E1E"/>
<path d="M387.411 202.628L385.992 203.376C385.992 203.376 385.781 203.449 385.676 203.449C385.466 203.449 385.256 203.352 385.151 203.159C384.993 202.893 385.072 202.555 385.387 202.386L386.806 201.637C387.095 201.492 387.463 201.565 387.647 201.855C387.805 202.12 387.726 202.458 387.411 202.628Z" fill="#1E1E1E"/>
<path d="M348.993 222.992L347.574 223.741C347.574 223.741 347.364 223.813 347.258 223.813C347.048 223.813 346.838 223.717 346.733 223.523C346.575 223.258 346.654 222.919 346.969 222.75L348.388 222.001C348.677 221.856 349.045 221.929 349.229 222.219C349.387 222.485 349.308 222.823 348.993 222.992Z" fill="#1E1E1E"/>
<path d="M344.736 225.263L343.317 226.012C343.317 226.012 343.106 226.084 343.001 226.084C342.791 226.084 342.581 225.988 342.476 225.794C342.318 225.529 342.397 225.19 342.712 225.021L344.131 224.272C344.42 224.127 344.788 224.2 344.972 224.49C345.13 224.756 345.051 225.094 344.736 225.263Z" fill="#1E1E1E"/>
<path d="M340.479 227.509L339.06 228.258C339.06 228.258 338.85 228.331 338.744 228.331C338.534 228.331 338.324 228.234 338.219 228.041C338.061 227.775 338.14 227.437 338.455 227.268L339.874 226.519C340.163 226.374 340.531 226.446 340.715 226.736C340.873 227.002 340.794 227.34 340.479 227.509Z" fill="#1E1E1E"/>
<path d="M319.141 238.839L318.432 239.226C318.432 239.226 318.222 239.298 318.117 239.298C317.906 239.298 317.696 239.201 317.591 239.008C317.433 238.742 317.512 238.404 317.827 238.235L318.537 237.849C318.826 237.704 319.194 237.776 319.378 238.066C319.536 238.332 319.457 238.67 319.141 238.839Z" fill="#1E1E1E"/>
<path d="M393.376 242.1C393.586 242.1 393.796 242.003 393.901 241.81C394.059 241.544 393.98 241.206 393.665 241.037L371.145 229.176C370.856 229.031 370.488 229.104 370.304 229.393C370.146 229.659 370.225 229.997 370.54 230.166L393.06 242.027C393.06 242.027 393.27 242.1 393.376 242.1Z" fill="white"/>
<path d="M388.83 245.216C389.04 245.216 389.25 245.119 389.355 244.926C389.513 244.66 389.434 244.322 389.119 244.153L371.907 235.094C371.618 234.949 371.25 235.022 371.066 235.312C370.908 235.577 370.987 235.916 371.302 236.085L388.514 245.143C388.514 245.143 388.724 245.216 388.83 245.216Z" fill="white"/>
</svg>
