<svg width="37" height="37" viewBox="0 0 37 37" fill="none" xmlns="http://www.w3.org/2000/svg">
<path d="M23.125 17.3438H29.9353C29.7204 15.9127 29.2094 14.5422 28.435 13.3198C27.6605 12.0974 26.6396 11.05 25.4375 10.2444L23.3678 8.85687L24.6397 6.9375L26.7094 8.325C28.4515 9.48596 29.8801 11.059 30.8685 12.9046C31.8568 14.7501 32.3743 16.8111 32.375 18.9047V26.5938C32.375 27.2071 32.1314 27.7953 31.6977 28.2289C31.264 28.6626 30.6758 28.9062 30.0625 28.9062H23.125C22.5117 28.9062 21.9235 28.6626 21.4898 28.2289C21.0561 27.7953 20.8125 27.2071 20.8125 26.5938V19.6562C20.8125 19.0429 21.0561 18.4547 21.4898 18.0211C21.9235 17.5874 22.5117 17.3438 23.125 17.3438ZM6.9375 17.3438H13.7478C13.5329 15.9127 13.0219 14.5422 12.2475 13.3198C11.473 12.0974 10.4521 11.05 9.25 10.2444L7.18031 8.85687L8.44062 6.9375L10.5219 8.325C12.264 9.48596 13.6926 11.059 14.681 12.9046C15.6693 14.7501 16.1868 16.8111 16.1875 18.9047V26.5938C16.1875 27.2071 15.9439 27.7953 15.5102 28.2289C15.0765 28.6626 14.4883 28.9062 13.875 28.9062H6.9375C6.32419 28.9062 5.73599 28.6626 5.30232 28.2289C4.86864 27.7953 4.625 27.2071 4.625 26.5938V19.6562C4.625 19.0429 4.86864 18.4547 5.30232 18.0211C5.73599 17.5874 6.32419 17.3438 6.9375 17.3438Z" fill="white"/>
</svg>
