<svg width="22" height="22" viewBox="0 0 22 22" fill="none" xmlns="http://www.w3.org/2000/svg">
<path d="M19.5938 11C19.5938 9.30032 19.0897 7.63881 18.1454 6.22557C17.2011 4.81234 15.859 3.71085 14.2887 3.06041C12.7184 2.40997 10.9905 2.23979 9.32344 2.57138C7.65642 2.90297 6.12516 3.72145 4.9233 4.92331C3.72144 6.12516 2.90297 7.65642 2.57138 9.32345C2.23978 10.9905 2.40997 12.7184 3.06041 14.2887C3.71085 15.859 4.81233 17.2012 6.22557 18.1454C7.6388 19.0897 9.30032 19.5938 11 19.5938C13.2778 19.5892 15.461 18.6823 17.0717 17.0717C18.6823 15.461 19.5892 13.2778 19.5938 11ZM11.3438 18.8977V12.7188H13.75C13.8412 12.7188 13.9286 12.6825 13.9931 12.6181C14.0575 12.5536 14.0938 12.4662 14.0938 12.375C14.0938 12.2838 14.0575 12.1964 13.9931 12.1319C13.9286 12.0675 13.8412 12.0313 13.75 12.0313H11.3438V9.625C11.346 9.16986 11.5278 8.734 11.8497 8.41216C12.1715 8.09032 12.6074 7.90851 13.0625 7.90625H14.4375C14.5287 7.90625 14.6161 7.87004 14.6806 7.80557C14.745 7.74111 14.7812 7.65367 14.7812 7.5625C14.7812 7.47134 14.745 7.3839 14.6806 7.31944C14.6161 7.25497 14.5287 7.21875 14.4375 7.21875H13.0625C12.425 7.22102 11.8143 7.47526 11.3635 7.92603C10.9128 8.3768 10.6585 8.98752 10.6562 9.625V12.0313H8.25C8.15883 12.0313 8.0714 12.0675 8.00693 12.1319C7.94247 12.1964 7.90625 12.2838 7.90625 12.375C7.90625 12.4662 7.94247 12.5536 8.00693 12.6181C8.0714 12.6825 8.15883 12.7188 8.25 12.7188H10.6562V18.8977C8.59111 18.8078 6.6433 17.9127 5.23008 16.4041C3.81687 14.8956 3.05067 12.8936 3.09562 10.827C3.14057 8.76036 3.99309 6.79355 5.47055 5.34787C6.94802 3.90219 8.9329 3.09264 11 3.09264C13.0671 3.09264 15.052 3.90219 16.5294 5.34787C18.0069 6.79355 18.8594 8.76036 18.9044 10.827C18.9493 12.8936 18.1831 14.8956 16.7699 16.4041C15.3567 17.9127 13.4089 18.8078 11.3438 18.8977Z" fill="white"/>
</svg>
