<svg width="20" height="20" viewBox="0 0 20 20" fill="none" xmlns="http://www.w3.org/2000/svg">
<path d="M14.7417 4.35848C14.5612 4.35603 14.3841 4.40714 14.2327 4.50534C14.0813 4.60355 13.9624 4.74445 13.8911 4.91022C13.8197 5.076 13.7992 5.2592 13.8319 5.43666C13.8647 5.61413 13.9494 5.77789 14.0752 5.90723C14.2011 6.03658 14.3625 6.12571 14.539 6.16334C14.7155 6.20097 14.8992 6.18542 15.0668 6.11866C15.2345 6.05189 15.3786 5.93691 15.4809 5.78825C15.5832 5.63959 15.6392 5.46393 15.6417 5.28348V5.25848C15.6395 5.02046 15.544 4.7928 15.3757 4.62449C15.2073 4.45618 14.9797 4.36066 14.7417 4.35848Z" stroke="white" stroke-linecap="round" stroke-linejoin="round"/>
<path d="M16.8958 2.29177H3.10417C2.88678 2.29721 2.68014 2.3874 2.52833 2.54309C2.37653 2.69879 2.2916 2.90765 2.29167 3.1251V16.9168C2.29167 17.1378 2.37946 17.3497 2.53574 17.506C2.69202 17.6623 2.90399 17.7501 3.125 17.7501H16.9167C17.1377 17.7501 17.3496 17.6623 17.5059 17.506C17.6622 17.3497 17.75 17.1378 17.75 16.9168V3.10427C17.7473 2.99483 17.7231 2.88698 17.6787 2.78691C17.6343 2.68684 17.5706 2.59649 17.4913 2.52104C17.4119 2.44558 17.3185 2.3865 17.2164 2.34716C17.1142 2.30782 17.0053 2.289 16.8958 2.29177V2.29177Z" stroke="white" stroke-linecap="round" stroke-linejoin="round"/>
<path d="M10 6.5498C9.31765 6.5498 8.65063 6.75214 8.08328 7.13123C7.51593 7.51033 7.07374 8.04914 6.81262 8.67955C6.55149 9.30995 6.48317 10.0036 6.61629 10.6729C6.74941 11.3421 7.07799 11.9568 7.56048 12.4393C8.04297 12.9218 8.6577 13.2504 9.32694 13.3835C9.99617 13.5166 10.6899 13.4483 11.3203 13.1872C11.9507 12.9261 12.4895 12.4839 12.8686 11.9165C13.2477 11.3492 13.45 10.6822 13.45 9.9998V9.9998C13.45 9.08481 13.0865 8.20729 12.4395 7.56029C11.7925 6.91329 10.915 6.5498 10 6.5498V6.5498Z" stroke="white" stroke-linecap="round" stroke-linejoin="round"/>
</svg>
